<svg xmlns="http://www.w3.org/2000/svg" xmlns:svg="http://www.w3.org/2000/svg" xmlns:xlink="http://www.w3.org/1999/xlink" id="svg8" width="32" height="32" version="1.1" viewBox="0 0 8.467 8.467"><defs id="defs2"><linearGradient id="linearGradient4689"><stop style="stop-color:#5a9fd4;stop-opacity:1" id="stop4691" offset="0"/><stop style="stop-color:#306998;stop-opacity:1" id="stop4693" offset="1"/></linearGradient><linearGradient id="linearGradient4671"><stop style="stop-color:#ffd43b;stop-opacity:1" id="stop4673" offset="0"/><stop style="stop-color:#ffe873;stop-opacity:1" id="stop4675" offset="1"/></linearGradient><radialGradient id="radialGradient1480-7" cx="61.519" cy="132.286" r="29.037" fx="61.519" fy="132.286" gradientTransform="matrix(2.382716e-8,-0.296405,1.43676,4.683673e-7,-128.544,150.5202)" gradientUnits="userSpaceOnUse" xlink:href="#linearGradient2795"/><linearGradient id="linearGradient2795"><stop style="stop-color:#b8b8b8;stop-opacity:.49803922" id="stop2797" offset="0"/><stop style="stop-color:#7f7f7f;stop-opacity:0" id="stop2799" offset="1"/></linearGradient><linearGradient id="linearGradient15512" x1="-21.34" x2="-18.695" y1="10.821" y2="10.821" gradientTransform="matrix(2.1044817,0,0,2.1044817,47.346673,-17.869467)" gradientUnits="userSpaceOnUse" xlink:href="#linearGradient5320"/><linearGradient id="linearGradient5320"><stop id="stop5316" offset="0" style="stop-color:#ff8700;stop-opacity:1"/><stop id="stop5318" offset="1" style="stop-color:#ffc100;stop-opacity:1"/></linearGradient></defs><metadata id="metadata5"/><g id="layer1"><g id="g1411" transform="translate(-0.8447877,-0.64433555)"><path id="path15514" d="m 6.1543645,2.1827294 c -0.8827008,0 -1.5981008,0.742313 -1.5981008,1.658223 0,0.126957 0.01371,0.250035 0.03996,0.36857 L 2.1534994,6.7435003 v 0.414555 l 0.3995253,0.4145581 h 0.799048 l 0.399529,-0.4145581 v -0.414555 h 0.399521 v -0.414559 h 0.399526 v -0.41456 h 0.7990489 l 0.441978,-0.4585999 c 0.1167392,0.02774 0.237835,0.04275 0.362694,0.04275 0.882701,0 1.5981021,-0.742316 1.5981021,-1.658229 0,-0.9159121 -0.716026,-1.657578 -1.5981021,-1.657578 z m -1.6037208,2.902543 -1.997625,2.0727829 v -0.414555 l 1.997625,-2.0727859 z m 1.9976291,-1.243669 c -0.2203681,0 -0.3995272,-0.185909 -0.3995272,-0.414558 0,-0.228656 0.1791681,-0.414558 0.3995272,-0.414558 0.2203648,0 0.3995248,0.185907 0.3995248,0.414558 0,0.228656 -0.17917,0.414558 -0.3995248,0.414558 z" style="fill:#1a1a1a;fill-opacity:1;stroke:none;stroke-width:.215657;stroke-miterlimit:4;stroke-dasharray:none"/><path style="fill:url(#linearGradient15512);fill-opacity:1;stroke:none;stroke-width:.210448;stroke-miterlimit:4;stroke-dasharray:none" id="path15495" d="m 6.4141716,2.3209974 c -0.877434,0 -1.5885649,0.711132 -1.5885649,1.588564 0,0.121623 0.013621,0.239529 0.03972,0.353086 l -2.4281483,2.427525 v 0.3971399 l 0.3971403,0.397143 h 0.794281 l 0.397144,-0.397143 V 6.6901724 h 0.397139 V 6.2930305 h 0.397142 V 5.8958874 H 5.6143058 L 6.0536456,5.4565513 c 0.116042,0.02658 0.2364161,0.04094 0.36053,0.04094 0.877434,0 1.5885671,-0.711132 1.5885671,-1.588565 0,-0.8774361 -0.7117541,-1.587945 -1.5885671,-1.587945 z M 4.8200208,5.1016064 2.8343146,7.0873123 V 6.6901724 l 1.9857062,-1.985706 z m 1.9857069,-1.191422 c -0.219052,0 -0.397142,-0.1781 -0.397142,-0.397143 0,-0.219051 0.1781001,-0.397142 0.397142,-0.397142 0.2190509,0 0.397143,0.178098 0.397143,0.397142 0,0.219051 -0.1781,0.397143 -0.397143,0.397143 z"/></g></g></svg>