<svg xmlns="http://www.w3.org/2000/svg" xmlns:svg="http://www.w3.org/2000/svg" xmlns:xlink="http://www.w3.org/1999/xlink" id="svg8" width="32" height="32" version="1.1" viewBox="0 0 8.467 8.467"><defs id="defs2"><linearGradient id="linearGradient4689"><stop id="stop4691" offset="0" style="stop-color:#5a9fd4;stop-opacity:1"/><stop id="stop4693" offset="1" style="stop-color:#306998;stop-opacity:1"/></linearGradient><linearGradient id="linearGradient4671"><stop id="stop4673" offset="0" style="stop-color:#ffd43b;stop-opacity:1"/><stop id="stop4675" offset="1" style="stop-color:#ffe873;stop-opacity:1"/></linearGradient><radialGradient id="radialGradient1480-7" cx="61.519" cy="132.286" r="29.037" fx="61.519" fy="132.286" gradientTransform="matrix(2.382716e-8,-0.296405,1.43676,4.683673e-7,-128.544,150.5202)" gradientUnits="userSpaceOnUse" xlink:href="#linearGradient2795"/><linearGradient id="linearGradient2795"><stop id="stop2797" offset="0" style="stop-color:#b8b8b8;stop-opacity:.49803922"/><stop id="stop2799" offset="1" style="stop-color:#7f7f7f;stop-opacity:0"/></linearGradient></defs><metadata id="metadata5"/><g id="layer1"><g id="g15564" transform="translate(-30.298662,31.69964)"><g style="font-style:normal;font-variant:normal;font-weight:600;font-stretch:normal;font-size:7.51413px;line-height:1.25;font-family:'Open Sans';-inkscape-font-specification:'Open Sans, Semi-Bold';font-variant-ligatures:normal;font-variant-caps:normal;font-variant-numeric:normal;font-feature-settings:normal;text-align:start;letter-spacing:0;word-spacing:0;writing-mode:lr-tb;text-anchor:start;fill:#00f;fill-opacity:1;stroke:#fff;stroke-width:.188149;stroke-miterlimit:4;stroke-dasharray:none" id="text15554" aria-label="{"><path id="path857" d="m 34.613791,-24.824621 v 0.825527 h -0.796175 q -0.799844,0 -1.166745,-0.322872 -0.366901,-0.322873 -0.366901,-1.030992 v -0.70445 q 0,-0.550351 -0.198127,-0.763153 -0.198126,-0.216472 -0.719125,-0.216472 h -0.22381 v -0.818189 h 0.22381 q 0.520999,0 0.719125,-0.212802 0.198127,-0.212803 0.198127,-0.763154 v -0.752147 q 0,-0.708119 0.366901,-1.027323 0.366901,-0.322872 1.166745,-0.322872 h 0.796175 v 0.825527 h -0.253162 q -0.51733,0 -0.675098,0.161436 -0.154098,0.157767 -0.154098,0.678767 v 0.609055 q 0,0.576034 -0.165105,0.836534 -0.165106,0.2605 -0.568697,0.352225 0.40726,0.09906 0.568697,0.359563 0.165105,0.260499 0.165105,0.832865 v 0.609055 q 0,0.524669 0.154098,0.682436 0.157768,0.161436 0.675098,0.161436 z" style="font-style:normal;font-variant:normal;font-weight:600;font-stretch:normal;font-size:7.51413px;font-family:'Open Sans';-inkscape-font-specification:'Open Sans, Semi-Bold';font-variant-ligatures:normal;font-variant-caps:normal;font-variant-numeric:normal;font-feature-settings:normal;text-align:start;writing-mode:lr-tb;text-anchor:start;fill:#00f;stroke:#fff;stroke-width:.188149;stroke-miterlimit:4;stroke-dasharray:none"/></g><g style="font-style:normal;font-variant:normal;font-weight:600;font-stretch:normal;font-size:7.51413px;line-height:1.25;font-family:'Open Sans';-inkscape-font-specification:'Open Sans, Semi-Bold';font-variant-ligatures:normal;font-variant-caps:normal;font-variant-numeric:normal;font-feature-settings:normal;text-align:start;letter-spacing:0;word-spacing:0;writing-mode:lr-tb;text-anchor:start;fill:#00f;fill-opacity:1;stroke:#fff;stroke-width:.188149;stroke-miterlimit:4;stroke-dasharray:none" id="text15558" aria-label="}"><path id="path854" d="m 34.450199,-24.824621 h 0.256831 q 0.513661,0 0.667759,-0.161436 0.157768,-0.157767 0.157768,-0.682436 v -0.609055 q 0,-0.572366 0.165105,-0.832865 0.165106,-0.2605 0.572366,-0.359563 -0.40726,-0.09173 -0.572366,-0.352225 -0.165105,-0.2605 -0.165105,-0.836534 v -0.609055 q 0,-0.521 -0.157768,-0.678767 -0.154098,-0.161436 -0.667759,-0.161436 h -0.256831 v -0.825527 h 0.796175 q 0.799844,0 1.166745,0.322872 0.366901,0.319204 0.366901,1.027323 v 0.752147 q 0,0.550351 0.198126,0.763154 0.198127,0.212802 0.719126,0.212802 h 0.22381 v 0.818189 h -0.22381 q -0.520999,0 -0.719126,0.216472 -0.198126,0.212802 -0.198126,0.763153 v 0.70445 q 0,0.708119 -0.366901,1.030992 -0.366901,0.322872 -1.166745,0.322872 h -0.796175 z" style="font-style:normal;font-variant:normal;font-weight:600;font-stretch:normal;font-size:7.51413px;font-family:'Open Sans';-inkscape-font-specification:'Open Sans, Semi-Bold';font-variant-ligatures:normal;font-variant-caps:normal;font-variant-numeric:normal;font-feature-settings:normal;text-align:start;writing-mode:lr-tb;text-anchor:start;fill:#00f;stroke:#fff;stroke-width:.188149;stroke-miterlimit:4;stroke-dasharray:none"/></g></g></g></svg>