<svg xmlns="http://www.w3.org/2000/svg" xmlns:xlink="http://www.w3.org/1999/xlink" width="32" height="32" viewBox="0 0 8.467 8.467"><radialGradient id="a" cx="15.615" cy="14.487" r="15.958" gradientTransform="matrix(.8972302 -.44156296 .46469661 .94423641 28.042222 46.500748)" gradientUnits="userSpaceOnUse"><stop offset="0" stop-color="#00bc00"/><stop offset=".821" stop-color="#00bc00"/><stop offset="1" stop-color="green"/></radialGradient><linearGradient id="b" x1="35.194" x2="53.728" y1="48.533" y2="48.533" gradientUnits="userSpaceOnUse"><stop offset="0" stop-color="#f2f2f2"/><stop offset="1" stop-color="#f2f2f2" stop-opacity="0"/></linearGradient><filter id="c" width="1.158" height="1.18" x="-.079" y="-.09" color-interpolation-filters="sRGB"><feGaussianBlur stdDeviation=".526"/></filter><g transform="matrix(.25728775 0 0 .25728126 -8.5881 -9.799693)"><circle cx="49.833" cy="54.544" r="15.846" fill="url(#a)" stroke="#000" stroke-linecap="round" stroke-linejoin="round" stroke-width=".225"/><path fill="#fff" d="m220.682 727.749 21.337-21.337h-49.697v-19.447h49.697l-21.337-21.337 12.694-12.694 43.755 43.754-43.755 43.755z" transform="matrix(-.22759061 0 0 .22759061 103.2546 -103.9638)"/><path fill="url(#b)" d="m52.306492 42.381884c1.152337 1.513548-4.228787 1.054507-8.769431 4.511519-4.540647 3.457011-5.483176 9.965913-6.635513 8.452363-1.152337-1.513548-.185322-7.322735 4.355324-10.779747 4.540646-3.457011 9.897283-3.697684 11.04962-2.184135z" filter="url(#c)" opacity=".703"/></g></svg>