<svg xmlns="http://www.w3.org/2000/svg" xmlns:xlink="http://www.w3.org/1999/xlink" width="32" height="32" viewBox="0 0 8.467 8.467"><radialGradient id="a" cx="15.615" cy="14.487" r="15.958" gradientTransform="matrix(.8639023 -.42516096 .44743531 .90916244 28.82144 -136.14644)" gradientUnits="userSpaceOnUse"><stop offset="0" stop-color="red"/><stop offset=".821" stop-color="red"/><stop offset="1" stop-color="#cf0000"/></radialGradient><linearGradient id="b" x1="35.276" x2="53.81" y1="-134.525" y2="-134.525" gradientUnits="userSpaceOnUse"><stop offset="0" stop-color="#f2f2f2"/><stop offset="1" stop-color="#f2f2f2" stop-opacity="0"/></linearGradient><filter id="c" width="1.158" height="1.18" x="-.079" y="-.09" color-interpolation-filters="sRGB"><feGaussianBlur stdDeviation=".526"/></filter><g transform="matrix(.26716143 0 0 .26716143 -9.072066 38.537503)"><circle cx="49.803" cy="-128.402" r="15.257" fill="url(#a)" stroke="#000" stroke-linecap="round" stroke-linejoin="round" stroke-width=".216"/><path fill="#f9f9f9" d="m45.782439-135.88425-3.28711 3.28711 4.134766 4.13476-4.136719 4.13477 3.287109 3.28711 4.134766-4.13672 4.134766 4.13476 3.287109-3.28515-4.134766-4.13672 4.132813-4.13281-3.28711-3.28516-4.132812 4.13281z"/><path fill="url(#b)" d="m52.388692-140.67645c1.152337 1.51354-4.228787 1.0545-8.769431 4.51152-4.540647 3.45701-5.483176 9.96591-6.635513 8.45236s-.185322-7.32274 4.355324-10.77975 9.897283-3.69768 11.04962-2.18413z" filter="url(#c)" opacity=".703"/></g></svg>