<svg xmlns="http://www.w3.org/2000/svg" xmlns:xlink="http://www.w3.org/1999/xlink" width="32" height="32" viewBox="0 0 8.467 8.467"><linearGradient id="a" x1="-.564" x2="-21.834" y1="-80.96" y2="-107.991" gradientUnits="userSpaceOnUse"><stop offset="0" stop-color="#96cef1"/><stop offset="1" stop-color="#fff"/></linearGradient><linearGradient id="b" x1="-14.954" x2="-6.325" y1="-99.537" y2="-91.986" gradientUnits="userSpaceOnUse"><stop offset="0" stop-color="#dbf0fa"/><stop offset="1" stop-color="#f8fcfe" stop-opacity=".713"/></linearGradient><linearGradient id="c" x1="-18.271" x2="-21.091" y1="-86.814" y2="-89.856" gradientUnits="userSpaceOnUse"><stop offset="0" stop-color="#f60"/><stop offset="1" stop-color="#fca"/></linearGradient><filter id="d" width="1.106" height="1.096" x="-.053" y="-.048" color-interpolation-filters="sRGB"><feGaussianBlur stdDeviation=".664"/></filter><g transform="matrix(.25638878 0 0 .2585003 7.074892 28.848219)"><path fill="url(#a)" stroke="#000" stroke-linecap="round" stroke-linejoin="round" stroke-width=".223" d="m-23.525254-110.98067v31.517575h24.714844v-24.154295l-6.615235-7.36328zm1.691406 2.99023 12.517579.16602-12.517579 12.517575z"/><circle cx="-10.293" cy="-96.048" r="7.048" fill="#4d4d4d"/><path fill="gray" d="m-15.843546-92.054877c.493442.710271 1.068529 1.28402 1.779692 1.775677-2.249488 2.16762-4.498753 4.335463-6.748242 6.503083-.581334-.603417-1.16289-1.206612-1.744224-1.809807 2.237666-2.156467 4.475109-4.31271 6.712774-6.468953z"/><circle cx="-10.587" cy="-96.234" r="7.048" fill="teal"/><circle cx="-10.587" cy="-96.234" r="5.933" fill="url(#b)" stroke="#ececec" stroke-linecap="round" stroke-linejoin="round" stroke-width=".223"/><path fill="url(#c)" d="m-16.375325-92.212186c.493442.710271 1.068529 1.28402 1.779692 1.775677-2.249488 2.16762-4.498754 4.335463-6.748243 6.503083-.581333-.603417-1.16289-1.206612-1.744223-1.809807 2.237665-2.156467 4.475108-4.31271 6.712774-6.468953z"/><path fill="#fff" d="m-6.932732-92.961372c-.970282 1.110132-2.345231 1.511917-2.715275 1.18849s.876874-.803883 1.847156-1.914015c.970282-1.110131 1.296502-2.429554 1.666546-2.106128.370045.323426.171857 1.72152-.798427 2.831653z" opacity=".706"/><path fill="#333" d="m147.129 813.141-29.938.264.278-33.273z" filter="url(#d)" transform="matrix(.22307504 0 0 .22307504 -31.705373 -284.69873)"/><path fill="#c2e3f6" d="m117.191 813.405.278-33.273 29.66 33.009z" transform="matrix(.22307504 0 0 .22307504 -31.631218 -285.00885)"/></g></svg>