<svg xmlns="http://www.w3.org/2000/svg" xmlns:svg="http://www.w3.org/2000/svg" id="svg8" width="32" height="32" version="1.1" viewBox="0 0 8.467 8.467"><defs id="defs2"><filter style="color-interpolation-filters:sRGB" id="filter952" width="1.079" height="1.07" x="-.04" y="-.035"><feGaussianBlur id="feGaussianBlur954" stdDeviation=".101"/></filter></defs><metadata id="metadata5"/><g id="layer1"><g style="font-style:normal;font-variant:normal;font-weight:400;font-stretch:normal;font-size:10.5833px;line-height:1.25;font-family:consolas;-inkscape-font-specification:consolas;letter-spacing:0;word-spacing:0;display:inline;fill:#fff;fill-opacity:1;stroke:none;stroke-width:.264583;filter:url(#filter952)" id="text11" aria-label="T"><path id="path839" d="M 2.3313273,7.6982269 V 7.4243427 L 3.4320318,7.2848168 V 1.2128553 H 3.1684829 q -1.3074096,0 -1.7879989,0.1033526 L 1.2409581,2.3962419 H 0.89472708 V 0.76843942 H 6.9925267 V 2.3962419 H 6.6411281 L 6.5016021,1.3162079 Q 6.3465733,1.2800345 5.824643,1.2541963 5.3027127,1.2231906 4.6825975,1.2231906 H 4.4293838 v 6.0616262 l 1.1007045,0.1395259 v 0.2738842 z" style="font-style:normal;font-variant:normal;font-weight:400;font-stretch:normal;font-family:'Times New Roman';-inkscape-font-specification:'Times New Roman, ';fill:#fff;fill-opacity:1;stroke-width:.264583"/></g><g style="font-style:normal;font-variant:normal;font-weight:400;font-stretch:normal;font-size:10.5833px;line-height:1.25;font-family:consolas;-inkscape-font-specification:consolas;letter-spacing:0;word-spacing:0;display:inline;fill:#000;fill-opacity:1;stroke:none;stroke-width:.264583" id="text8577" aria-label="T"><path id="path836" d="M 2.6210338,7.6982269 V 7.4243427 L 3.7217383,7.2848168 V 1.2128553 h -0.263549 q -1.3074095,0 -1.7879988,0.1033526 l -0.139526,1.080034 H 1.1844335 V 0.76843942 H 7.2822331 V 2.3962419 H 6.9308345 L 6.7913086,1.3162079 Q 6.6362798,1.2800345 6.1143495,1.2541963 5.5924192,1.2231906 4.972304,1.2231906 H 4.7190903 v 6.0616262 l 1.1007045,0.1395259 v 0.2738842 z" style="font-style:normal;font-variant:normal;font-weight:400;font-stretch:normal;font-family:'Times New Roman';-inkscape-font-specification:'Times New Roman, ';stroke-width:.264583"/></g></g></svg>