<svg xmlns="http://www.w3.org/2000/svg" xmlns:svg="http://www.w3.org/2000/svg" id="svg8" width="32" height="32" version="1.1" viewBox="0 0 8.467 8.467"><defs id="defs2"><filter id="filter944" width="1.061" height="1.058" x="-.031" y="-.029" style="color-interpolation-filters:sRGB"><feGaussianBlur id="feGaussianBlur946" stdDeviation=".084"/></filter></defs><metadata id="metadata5"/><g id="layer1"><g style="font-style:normal;font-variant:normal;font-weight:400;font-stretch:normal;font-size:10.5833px;line-height:1.25;font-family:consolas;-inkscape-font-specification:consolas;letter-spacing:0;word-spacing:0;display:inline;fill:#fff;fill-opacity:1;stroke:none;stroke-width:.264583;filter:url(#filter944)" id="text11" aria-label="B"><path id="path839" d="m 4.9844473,2.463421 q 0,-0.6046124 -0.263549,-0.873329 Q 4.462517,1.3213754 3.8630723,1.3213754 H 3.1447721 v 2.4132817 h 0.7596412 q 0.552936,0 0.816485,-0.2893871 0.263549,-0.2893871 0.263549,-0.981849 z m 0.5219303,3.1987609 q 0,-0.6872943 -0.346231,-1.0231901 Q 4.8190832,4.3030961 4.0387716,4.3030961 H 3.1447721 v 2.811189 q 0.7441383,0.031006 1.1730513,0.031006 0.6046123,0 0.8939994,-0.3669015 Q 5.5063776,6.4114878 5.5063776,5.6621819 Z M 0.62297027,7.682724 V 7.3054872 L 1.5169697,7.1659613 V 1.2645315 L 0.62297027,1.1301732 V 0.75293649 H 3.9870953 q 1.3797564,0 2.036045,0.37206911 0.6562886,0.3669015 0.6562886,1.1937218 0,0.6201152 -0.3875721,1.0696987 -0.387572,0.4495836 -1.0386929,0.5891095 0.9663462,0.098185 1.4624383,0.5270979 0.4960922,0.4237454 0.4960922,1.1575484 0,1.0076873 -0.7441382,1.5296176 Q 5.7234179,7.7137298 4.3333263,7.7137298 L 1.9768885,7.682724 Z" style="font-style:normal;font-variant:normal;font-weight:700;font-stretch:normal;font-size:10.5833px;font-family:'Times New Roman';-inkscape-font-specification:'Times New Roman, Bold';font-variant-ligatures:normal;font-variant-caps:normal;font-variant-numeric:normal;font-feature-settings:normal;text-align:start;writing-mode:lr-tb;text-anchor:start;fill:#fff;fill-opacity:1;stroke-width:.264583"/></g><g style="font-style:normal;font-variant:normal;font-weight:400;font-stretch:normal;font-size:10.5833px;line-height:1.25;font-family:consolas;-inkscape-font-specification:consolas;letter-spacing:0;word-spacing:0;display:inline;fill:#000;fill-opacity:1;stroke:none;stroke-width:.264583" id="text8598" aria-label="B"><path id="path836" d="m 5.3004483,2.463421 q 0,-0.6046124 -0.263549,-0.873329 Q 4.778518,1.3213754 4.1790733,1.3213754 H 3.4607732 v 2.4132817 h 0.7596411 q 0.5529361,0 0.816485,-0.2893871 0.263549,-0.2893871 0.263549,-0.981849 z m 0.5219303,3.1987609 q 0,-0.6872943 -0.346231,-1.0231901 Q 5.1350842,4.3030961 4.3547726,4.3030961 H 3.4607732 v 2.811189 q 0.7441382,0.031006 1.1730512,0.031006 0.6046124,0 0.8939995,-0.3669015 Q 5.8223786,6.4114878 5.8223786,5.6621819 Z M 0.9389713,7.682724 V 7.3054872 L 1.8329707,7.1659613 V 1.2645315 L 0.9389713,1.1301732 V 0.75293649 h 3.364125 q 1.3797564,0 2.036045,0.37206911 0.6562886,0.3669015 0.6562886,1.1937218 0,0.6201152 -0.387572,1.0696987 -0.387572,0.4495836 -1.038693,0.5891095 0.9663462,0.098185 1.4624384,0.5270979 0.4960921,0.4237454 0.4960921,1.1575484 0,1.0076873 -0.7441382,1.5296176 Q 6.0394189,7.7137298 4.6493273,7.7137298 L 2.2928895,7.682724 Z" style="font-style:normal;font-variant:normal;font-weight:700;font-stretch:normal;font-size:10.5833px;font-family:'Times New Roman';-inkscape-font-specification:'Times New Roman, Bold';font-variant-ligatures:normal;font-variant-caps:normal;font-variant-numeric:normal;font-feature-settings:normal;text-align:start;writing-mode:lr-tb;text-anchor:start;stroke-width:.264583"/></g></g></svg>