<svg xmlns="http://www.w3.org/2000/svg" xmlns:svg="http://www.w3.org/2000/svg" id="svg8" width="32" height="32" version="1.1" viewBox="0 0 8.467 8.467"><metadata id="metadata5"/><g id="layer1"><g id="g8871" transform="matrix(1.7326125,0,0,1.7326125,38.037774,-15.211575)" style="display:inline"><g id="g8858" transform="translate(1.7706606,2.6726953)"><rect style="opacity:1;fill:#fff;fill-opacity:1;fill-rule:nonzero;stroke:#000;stroke-width:.185208;stroke-linecap:butt;stroke-linejoin:round;stroke-miterlimit:4;stroke-dasharray:none;stroke-dashoffset:0;stroke-opacity:1" id="rect8843" width="2.589" height="3.257" x="-23.252" y="6.596"/><rect style="opacity:1;fill:#00f;fill-opacity:1;fill-rule:nonzero;stroke:#000;stroke-width:.0786553;stroke-linecap:butt;stroke-linejoin:round;stroke-miterlimit:4;stroke-dasharray:none;stroke-dashoffset:0;stroke-opacity:1" id="rect8845" width="2.488" height=".501" x="-23.202" y="6.663"/><rect id="rect8847" width="1.978" height=".215" x="-22.947" y="9.403" style="opacity:1;fill:#00f;fill-opacity:1;fill-rule:nonzero;stroke:none;stroke-width:.045976;stroke-linecap:butt;stroke-linejoin:round;stroke-miterlimit:4;stroke-dasharray:none;stroke-dashoffset:0;stroke-opacity:1"/><g style="font-style:normal;font-variant:normal;font-weight:700;font-stretch:normal;font-size:2.32845px;line-height:1.25;font-family:sans-serif;-inkscape-font-specification:'sans-serif, Bold';font-variant-ligatures:normal;font-variant-caps:normal;font-variant-numeric:normal;font-feature-settings:normal;text-align:start;letter-spacing:0;word-spacing:0;writing-mode:lr-tb;text-anchor:start;fill:#d40000;fill-opacity:1;stroke:none;stroke-width:.0582116" id="text8851" aria-label="B"><path id="path845" d="m -21.976623,8.0328815 q 0.103462,0 0.156898,-0.045478 0.05344,-0.045478 0.05344,-0.1341588 0,-0.087544 -0.05344,-0.1330218 -0.05344,-0.046614 -0.156898,-0.046614 h -0.242168 v 0.3592725 z m 0.01478,0.7424208 q 0.131885,0 0.197828,-0.05571 0.06708,-0.05571 0.06708,-0.1682669 0,-0.110283 -0.06594,-0.164856 -0.06594,-0.05571 -0.198965,-0.05571 h -0.256948 v 0.4445429 z m 0.407024,-0.6105359 q 0.140981,0.04093 0.218293,0.1512128 0.07731,0.110283 0.07731,0.2705913 0,0.2455787 -0.165993,0.3660942 -0.165993,0.1205155 -0.5048,0.1205155 h -0.726504 V 7.3757311 h 0.65715 q 0.353588,0 0.511623,0.1068722 0.159171,0.1068722 0.159171,0.3422185 0,0.1239263 -0.05798,0.2114705 -0.05798,0.086407 -0.168267,0.1284741 z" style="font-style:normal;font-variant:normal;font-weight:700;font-stretch:normal;font-size:2.32845px;font-family:sans-serif;-inkscape-font-specification:'sans-serif, Bold';font-variant-ligatures:normal;font-variant-caps:normal;font-variant-numeric:normal;font-feature-settings:normal;text-align:start;writing-mode:lr-tb;text-anchor:start;fill:#d40000;stroke-width:.0582116"/></g></g><rect style="opacity:1;fill:#fff;fill-opacity:1;fill-rule:nonzero;stroke:#000;stroke-width:.185208;stroke-linecap:butt;stroke-linejoin:round;stroke-miterlimit:4;stroke-dasharray:none;stroke-dashoffset:0;stroke-opacity:1" id="rect8823" width="2.589" height="3.257" x="-20.129" y="9.92"/><rect style="opacity:1;fill:#00f;fill-opacity:1;fill-rule:nonzero;stroke:#000;stroke-width:.0786553;stroke-linecap:butt;stroke-linejoin:round;stroke-miterlimit:4;stroke-dasharray:none;stroke-dashoffset:0;stroke-opacity:1" id="rect8825" width="2.488" height=".501" x="-20.078" y="9.987"/><rect id="rect8835" width="1.978" height=".215" x="-19.823" y="12.727" style="opacity:1;fill:#00f;fill-opacity:1;fill-rule:nonzero;stroke:none;stroke-width:.045976;stroke-linecap:butt;stroke-linejoin:round;stroke-miterlimit:4;stroke-dasharray:none;stroke-dashoffset:0;stroke-opacity:1"/><g style="font-style:normal;font-variant:normal;font-weight:700;font-stretch:normal;font-size:2.32845px;line-height:1.25;font-family:sans-serif;-inkscape-font-specification:'sans-serif, Bold';font-variant-ligatures:normal;font-variant-caps:normal;font-variant-numeric:normal;font-feature-settings:normal;text-align:start;letter-spacing:0;word-spacing:0;writing-mode:lr-tb;text-anchor:start;fill:#d40000;fill-opacity:1;stroke:none;stroke-width:.0582116" id="text8841" aria-label="7"><path id="path842" d="m -19.47368,10.699895 h 1.279056 v 0.246716 l -0.661698,1.450734 h -0.426352 l 0.626453,-1.375696 h -0.817459 z" style="font-style:normal;font-variant:normal;font-weight:700;font-stretch:normal;font-size:2.32845px;font-family:sans-serif;-inkscape-font-specification:'sans-serif, Bold';font-variant-ligatures:normal;font-variant-caps:normal;font-variant-numeric:normal;font-feature-settings:normal;text-align:start;writing-mode:lr-tb;text-anchor:start;fill:#d40000;stroke-width:.0582116"/></g></g></g></svg>