<svg xmlns="http://www.w3.org/2000/svg" xmlns:svg="http://www.w3.org/2000/svg" xmlns:xlink="http://www.w3.org/1999/xlink" id="svg8" width="32" height="32" version="1.1" viewBox="0 0 8.467 8.467"><defs id="defs2"><linearGradient id="linearGradient8559" x1="-1229.079" x2="-1161.802" y1="-490.614" y2="-490.614" gradientUnits="userSpaceOnUse" xlink:href="#linearGradient5093"/><linearGradient id="linearGradient5093"><stop style="stop-color:#fff;stop-opacity:1" id="stop5089" offset="0"/><stop style="stop-color:#fff;stop-opacity:0" id="stop5091" offset="1"/></linearGradient><linearGradient id="linearGradient8555" x1="-475.344" x2="-537.257" y1="290.646" y2="214.889" gradientUnits="userSpaceOnUse" xlink:href="#linearGradient8539"/><linearGradient id="linearGradient8539"><stop id="stop8535" offset="0" style="stop-color:#ccc;stop-opacity:1"/><stop id="stop8537" offset="1" style="stop-color:#fff;stop-opacity:1"/></linearGradient><filter style="color-interpolation-filters:sRGB" id="filter5130" width="1.048" height="1.048" x="-.024" y="-.024"><feGaussianBlur id="feGaussianBlur5132" stdDeviation=".184"/></filter><linearGradient id="linearGradient987" x1="-1229.079" x2="-1161.802" y1="-490.614" y2="-490.614" gradientUnits="userSpaceOnUse" xlink:href="#linearGradient5093"/></defs><metadata id="metadata5"/><g id="layer1"><g id="g702" transform="matrix(0.96930795,0,0,0.96930795,-8.0768754,16.542525)" style="display:inline"><g style="fill:url(#linearGradient8559);fill-opacity:1" id="g8553" transform="matrix(-0.10311169,0,0,0.10182625,-114.99881,70.354287)"><g style="fill:url(#linearGradient987)" id="g8551" transform="translate(-43.010777,-325.02157)"><polygon style="fill:url(#linearGradient8555);fill-opacity:1;stroke:#000;stroke-linecap:round;stroke-linejoin:round" id="polygon8545" points="-537.257 297.035 -470.98 297.035 -470.98 233.247 -489.339 214.889 -537.257 214.889" transform="matrix(0.99999983,0,0,1.0000232,-691.32212,-746.58316)"/><polygon id="polygon8547" points="-470.98 233.247 -489.339 233.247 -489.339 214.889" transform="matrix(0.99999983,0,0,1.0000232,-691.45668,-745.9019)" style="fill:#4d4d4d;fill-opacity:1;stroke:none;stroke-linecap:round;stroke-linejoin:round;filter:url(#filter5130)"/><polygon style="fill:gray;fill-opacity:1;stroke:none;stroke-linecap:round;stroke-linejoin:round" id="polygon8549" points="-489.339 233.247 -489.339 214.889 -470.98 233.247" transform="matrix(0.99999983,0,0,1.0000232,-691.32212,-746.58316)"/></g></g><g id="g8573" transform="matrix(0.77327378,0,0,0.77327378,-0.11355356,14.032788)"><g style="font-style:normal;font-variant:normal;font-weight:400;font-stretch:normal;font-size:7.72651px;line-height:1.25;font-family:Wingdings;-inkscape-font-specification:Wingdings;letter-spacing:0;word-spacing:0;fill:navy;fill-opacity:1;stroke:none;stroke-width:.193163" id="text8563" aria-label="+"><path id="path852" d="m 17.144546,-35.086753 h -1.482675 v 1.539265 h -0.648907 v -1.539265 h -1.482675 v -0.573452 h 1.482675 v -1.527948 h 0.648907 v 1.527948 h 1.482675 z" style="font-style:normal;font-variant:normal;font-weight:400;font-stretch:normal;font-family:consolas;-inkscape-font-specification:consolas;fill:navy;stroke-width:.193163"/></g><g style="font-style:normal;font-variant:normal;font-weight:400;font-stretch:normal;font-size:7.72651px;line-height:1.25;font-family:Wingdings;-inkscape-font-specification:Wingdings;letter-spacing:0;word-spacing:0;fill:navy;fill-opacity:1;stroke:none;stroke-width:.193163" id="text8567" aria-label="+"><path id="path855" d="M 19.365155,-32.488166 H 17.88248 v 1.539265 h -0.648906 v -1.539265 h -1.482675 v -0.573452 h 1.482675 v -1.527948 h 0.648906 v 1.527948 h 1.482675 z" style="font-style:normal;font-variant:normal;font-weight:400;font-stretch:normal;font-family:consolas;-inkscape-font-specification:consolas;fill:navy;stroke-width:.193163"/></g></g></g></g></svg>