<svg xmlns="http://www.w3.org/2000/svg" xmlns:svg="http://www.w3.org/2000/svg" id="svg8" width="32" height="32" version="1.1" viewBox="0 0 8.467 8.467"><defs id="defs2"><filter id="filter8791" width="1.157" height="1.133" x="-.079" y="-.066" style="color-interpolation-filters:sRGB"><feGaussianBlur id="feGaussianBlur8793" stdDeviation=".207"/></filter></defs><metadata id="metadata5"/><g id="layer1"><g id="g8789" transform="matrix(1.0506006,0,0,1.0506006,-21.594616,24.071932)" style="fill:#fff;filter:url(#filter8791)"><g style="font-style:normal;font-variant:normal;font-weight:400;font-stretch:normal;font-size:8.85187px;line-height:1.25;font-family:consolas;-inkscape-font-specification:consolas;letter-spacing:0;word-spacing:0;fill:#fff;fill-opacity:1;stroke:none;stroke-width:.221297" id="text8785" aria-label="U"><path id="path842" d="m 21.880587,-22.777922 h 0.877407 v 3.920237 q 0,1.037328 0.376031,1.495482 0.376032,0.453831 1.218861,0.453831 0.838507,0 1.214539,-0.453831 0.376031,-0.458154 0.376031,-1.495482 v -3.920237 h 0.877407 v 4.028292 q 0,1.262083 -0.626719,1.906091 -0.622397,0.644008 -1.841258,0.644008 -1.223183,0 -1.849902,-0.644008 -0.622397,-0.644008 -0.622397,-1.906091 z" style="font-style:normal;font-variant:normal;font-weight:400;font-stretch:normal;font-family:Vani;-inkscape-font-specification:Vani;fill:#fff;stroke-width:.221297"/></g><path style="color:#000;font-style:normal;font-variant:normal;font-weight:400;font-stretch:normal;font-size:medium;line-height:normal;font-family:sans-serif;font-variant-ligatures:normal;font-variant-position:normal;font-variant-caps:normal;font-variant-numeric:normal;font-variant-alternates:normal;font-feature-settings:normal;text-indent:0;text-align:start;text-decoration:none;text-decoration-line:none;text-decoration-style:solid;text-decoration-color:#000;letter-spacing:normal;word-spacing:normal;text-transform:none;writing-mode:lr-tb;direction:ltr;text-orientation:mixed;dominant-baseline:auto;baseline-shift:baseline;text-anchor:start;white-space:normal;shape-padding:0;clip-rule:nonzero;display:inline;overflow:visible;visibility:visible;opacity:1;isolation:auto;mix-blend-mode:normal;color-interpolation:sRGB;color-interpolation-filters:linearRGB;solid-color:#000;solid-opacity:1;vector-effect:none;fill:#fff;fill-opacity:1;fill-rule:nonzero;stroke:none;stroke-width:1;stroke-linecap:butt;stroke-linejoin:miter;stroke-miterlimit:4;stroke-dasharray:none;stroke-dashoffset:0;stroke-opacity:1;color-rendering:auto;image-rendering:auto;shape-rendering:auto;text-rendering:auto;enable-background:accumulate" id="path8787" d="m 21.607422,-15.988281 v 1 c 1.984594,-2.65e-4 3.969059,-2.65e-4 5.953125,0 v -1 c -1.984155,-2.65e-4 -3.968442,-2.65e-4 -5.953125,0 z"/></g><g style="font-style:normal;font-variant:normal;font-weight:400;font-stretch:normal;font-size:8.85187px;line-height:1.25;font-family:consolas;-inkscape-font-specification:consolas;letter-spacing:0;word-spacing:0;fill:#000;fill-opacity:1;stroke:none;stroke-width:.221297" id="text8662" aria-label="U"><path id="path839" d="M 1.763195,0.33851267 H 2.640602 V 4.2587498 q 0,1.0373285 0.3760315,1.4954819 0.3760316,0.4538312 1.218861,0.4538312 0.8385072,0 1.2145387,-0.4538312 Q 5.8260648,5.2960783 5.8260648,4.2587498 V 0.33851267 h 0.877407 V 4.3668049 q 0,1.2620829 -0.6267193,1.906091 Q 5.4543554,6.916904 4.2354945,6.916904 3.0123113,6.916904 2.385592,6.2728959 1.763195,5.6288878 1.763195,4.3668049 Z" style="font-style:normal;font-variant:normal;font-weight:400;font-stretch:normal;font-family:Vani;-inkscape-font-specification:Vani;stroke-width:.221297"/></g><path style="color:#000;font-style:normal;font-variant:normal;font-weight:400;font-stretch:normal;font-size:medium;line-height:normal;font-family:sans-serif;font-variant-ligatures:normal;font-variant-position:normal;font-variant-caps:normal;font-variant-numeric:normal;font-variant-alternates:normal;font-feature-settings:normal;text-indent:0;text-align:start;text-decoration:none;text-decoration-line:none;text-decoration-style:solid;text-decoration-color:#000;letter-spacing:normal;word-spacing:normal;text-transform:none;writing-mode:lr-tb;direction:ltr;text-orientation:mixed;dominant-baseline:auto;baseline-shift:baseline;text-anchor:start;white-space:normal;shape-padding:0;clip-rule:nonzero;display:inline;overflow:visible;visibility:visible;isolation:auto;mix-blend-mode:normal;color-interpolation:sRGB;color-interpolation-filters:linearRGB;solid-color:#000;solid-opacity:1;vector-effect:none;fill:#000;fill-opacity:1;fill-rule:nonzero;stroke:none;stroke-width:1;stroke-linecap:butt;stroke-linejoin:miter;stroke-miterlimit:4;stroke-dasharray:none;stroke-dashoffset:0;stroke-opacity:1;color-rendering:auto;image-rendering:auto;shape-rendering:auto;text-rendering:auto;enable-background:accumulate" id="path8665" d="m 1.2567708,7.128154 v 1 c 1.984594,-2.65e-4 3.969059,-2.65e-4 5.953125,0 v -1 c -1.984155,-2.65e-4 -3.968442,-2.65e-4 -5.953125,0 z"/></g></svg>