<svg xmlns="http://www.w3.org/2000/svg" xmlns:svg="http://www.w3.org/2000/svg" xmlns:xlink="http://www.w3.org/1999/xlink" id="svg8" width="32" height="32" version="1.1" viewBox="0 0 8.467 8.467"><defs id="defs2"><linearGradient id="linearGradient12286" x1="-1229.079" x2="-1161.802" y1="-490.614" y2="-490.614" gradientUnits="userSpaceOnUse" xlink:href="#linearGradient5093"/><linearGradient id="linearGradient5093"><stop style="stop-color:#fff;stop-opacity:1" id="stop5089" offset="0"/><stop style="stop-color:#fff;stop-opacity:0" id="stop5091" offset="1"/></linearGradient><linearGradient id="linearGradient12282" x1="-475.344" x2="-537.257" y1="290.646" y2="214.889" gradientUnits="userSpaceOnUse" xlink:href="#linearGradient8539"/><linearGradient id="linearGradient8539"><stop id="stop8535" offset="0" style="stop-color:#ccc;stop-opacity:1"/><stop id="stop8537" offset="1" style="stop-color:#fff;stop-opacity:1"/></linearGradient><filter style="color-interpolation-filters:sRGB" id="filter5130" width="1.048" height="1.048" x="-.024" y="-.024"><feGaussianBlur id="feGaussianBlur5132" stdDeviation=".184"/></filter><linearGradient id="linearGradient893" x1="-1229.079" x2="-1161.802" y1="-490.614" y2="-490.614" gradientUnits="userSpaceOnUse" xlink:href="#linearGradient5093"/></defs><metadata id="metadata5"/><g id="layer1"><g id="g690" transform="matrix(0.96849991,0,0,0.96849991,0.13335586,16.532264)" style="display:inline"><g id="g4890" transform="matrix(-0.10311169,0,0,0.10182625,-123.46548,70.354287)" style="fill:url(#linearGradient12286);fill-opacity:1"><g id="g5137" transform="translate(-43.010777,-325.02157)" style="fill:url(#linearGradient893)"><polygon id="polygon162" points="-537.257 214.889 -537.257 297.035 -470.98 297.035 -470.98 233.247 -489.339 214.889" transform="matrix(0.99999983,0,0,1.0000232,-691.32212,-746.58316)" style="fill:url(#linearGradient12282);fill-opacity:1;stroke:#000;stroke-linecap:round;stroke-linejoin:round"/><polygon style="fill:#4d4d4d;fill-opacity:1;stroke:none;stroke-linecap:round;stroke-linejoin:round;filter:url(#filter5130)" id="polygon5124" points="-489.339 214.889 -470.98 233.247 -489.339 233.247" transform="matrix(0.99999983,0,0,1.0000232,-691.45668,-745.9019)"/><polygon id="polygon160" points="-470.98 233.247 -489.339 233.247 -489.339 214.889" transform="matrix(0.99999983,0,0,1.0000232,-691.32212,-746.58316)" style="fill:gray;fill-opacity:1;stroke:none;stroke-linecap:round;stroke-linejoin:round"/></g></g><g style="font-style:normal;font-variant:normal;font-weight:400;font-stretch:normal;font-size:6.86172px;line-height:1.25;font-family:Wingdings;-inkscape-font-specification:Wingdings;letter-spacing:0;word-spacing:0;fill:#00007a;fill-opacity:1;stroke:none;stroke-width:.171543" id="text8543" aria-label="#"><path id="path849" d="M 5.7979872,-11.739045 H 5.050837 L 4.9268704,-10.50943 H 4.4310039 l 0.1239666,-1.229615 H 3.7006059 L 3.5766393,-10.50943 H 3.0807728 l 0.1239667,-1.229615 H 2.4910938 v -0.435558 H 3.2482953 L 3.3689115,-13.34726 H 2.6619667 v -0.435559 h 0.7505006 l 0.1139153,-1.105648 h 0.4891656 l -0.1105649,1.105648 h 0.8577151 l 0.1139152,-1.105648 h 0.4958665 l -0.1172657,1.105648 H 5.975561 v 0.435559 H 5.2116586 l -0.1172658,1.172657 h 0.7035944 z m -1.1961104,-0.435558 0.1172657,-1.172657 h -0.857715 l -0.1172657,1.172657 z" style="font-style:normal;font-variant:normal;font-weight:400;font-stretch:normal;font-family:consolas;-inkscape-font-specification:consolas;fill:#00007a;fill-opacity:1;stroke-width:.171543"/></g></g></g></svg>