<svg xmlns="http://www.w3.org/2000/svg" xmlns:svg="http://www.w3.org/2000/svg" xmlns:xlink="http://www.w3.org/1999/xlink" id="svg8" width="32" height="32" version="1.1" viewBox="0 0 8.467 8.467"><defs id="defs2"><linearGradient id="linearGradient12248" x1="-200.83" x2="-165.283" y1="1113.715" y2="1113.715" gradientUnits="userSpaceOnUse" xlink:href="#linearGradient8635"/><linearGradient id="linearGradient8635"><stop style="stop-color:#ffd875;stop-opacity:1" id="stop8631" offset="0"/><stop style="stop-color:#f6cf5f;stop-opacity:1" id="stop8633" offset="1"/></linearGradient><linearGradient id="linearGradient12250" x1="-166.283" x2="-131.341" y1="1119.487" y2="1114.382" gradientUnits="userSpaceOnUse" xlink:href="#linearGradient8966"/><linearGradient id="linearGradient8966"><stop id="stop8962" offset="0" style="stop-color:#efc544;stop-opacity:1"/><stop id="stop8964" offset="1" style="stop-color:#e9b53e;stop-opacity:1"/></linearGradient><linearGradient id="linearGradient12252" x1="6.482" x2="15.822" y1="8.134" y2="11.317" gradientUnits="userSpaceOnUse" xlink:href="#linearGradient8986"/><linearGradient id="linearGradient8986"><stop id="stop8982" offset="0" style="stop-color:#b09c63;stop-opacity:.4509804"/><stop id="stop8984" offset="1" style="stop-color:#efb30d;stop-opacity:.96078432"/></linearGradient><linearGradient id="linearGradient12254" x1="6.482" x2="15.925" y1="8.134" y2="8.844" gradientUnits="userSpaceOnUse" xlink:href="#linearGradient8994"/><linearGradient id="linearGradient8994"><stop id="stop8990" offset="0" style="stop-color:#b09c63;stop-opacity:.4509804"/><stop id="stop8992" offset="1" style="stop-color:#000;stop-opacity:.98500001"/></linearGradient><linearGradient id="linearGradient12256" x1="6.482" x2="15.822" y1="8.134" y2="11.317" gradientTransform="matrix(-1,0,0,1,31.455528,0.28124999)" gradientUnits="userSpaceOnUse" xlink:href="#linearGradient8986"/><linearGradient id="linearGradient12258" x1="6.482" x2="15.925" y1="8.134" y2="8.844" gradientTransform="matrix(-1,0,0,1,31.455528,0.28124999)" gradientUnits="userSpaceOnUse" xlink:href="#linearGradient8994"/><linearGradient id="linearGradient12260" x1="6.482" x2="15.822" y1="8.134" y2="11.317" gradientTransform="rotate(180,15.727764,11.120947)" gradientUnits="userSpaceOnUse" xlink:href="#linearGradient8986"/><linearGradient id="linearGradient12262" x1="6.482" x2="15.925" y1="8.134" y2="8.844" gradientTransform="rotate(180,15.727764,11.120947)" gradientUnits="userSpaceOnUse" xlink:href="#linearGradient8994"/><linearGradient id="linearGradient12264" x1="6.482" x2="15.822" y1="8.134" y2="11.317" gradientTransform="matrix(1,0,0,-1,0.43796331,22.25899)" gradientUnits="userSpaceOnUse" xlink:href="#linearGradient8986"/><linearGradient id="linearGradient12266" x1="6.482" x2="15.925" y1="8.134" y2="8.844" gradientTransform="matrix(1,0,0,-1,0.43796331,22.25899)" gradientUnits="userSpaceOnUse" xlink:href="#linearGradient8994"/><linearGradient id="linearGradient12372" x1="186.52" x2="185.758" y1="455.366" y2="411.134" gradientUnits="userSpaceOnUse" xlink:href="#linearGradient5570"/><linearGradient id="linearGradient5570"><stop id="stop5562" offset="0" style="stop-color:#007500;stop-opacity:1"/><stop style="stop-color:#00d200;stop-opacity:1" id="stop5564" offset=".343"/><stop id="stop5566" offset=".898" style="stop-color:#00d200;stop-opacity:1"/><stop id="stop5568" offset="1" style="stop-color:#007500;stop-opacity:1"/></linearGradient></defs><metadata id="metadata5"/><g id="layer1"><g id="g746" transform="translate(-8.4666624)"><g id="g7755" transform="matrix(0.39518796,0,0,0.39518796,6.2825398,-2.0896659)"><polygon style="fill:none;stroke:#000;stroke-linecap:round;stroke-linejoin:round" id="polygon7741" points="-200.33 1087.249 -167.364 1070.559 -131.841 1088.585 -165.783 1105.016" transform="matrix(0.27701672,0,0,0.27701672,62.00846,-290.20583)"/><polygon style="fill:url(#linearGradient12248);fill-opacity:1;stroke:#000;stroke-linecap:round;stroke-linejoin:round" id="polygon7743" points="-165.783 1140.18 -200.33 1121.739 -200.33 1087.249 -165.783 1105.016" transform="matrix(0.27701672,0,0,0.27701672,62.00846,-290.20583)"/><polygon style="fill:url(#linearGradient12250);fill-opacity:1;stroke:#000;stroke-linecap:round;stroke-linejoin:round" id="polygon7745" points="-165.783 1105.016 -165.783 1140.18 -131.841 1122.471 -131.841 1088.585" transform="matrix(0.27701672,0,0,0.27701672,62.00846,-290.20583)"/><path style="fill:url(#linearGradient12252);fill-opacity:1;stroke:url(#linearGradient12254);stroke-width:.2;stroke-linecap:butt;stroke-linejoin:miter;stroke-miterlimit:4;stroke-dasharray:none;stroke-opacity:1" id="path7747" d="M 15.645834,6.3569127 15.821514,11.317127 6.5137005,10.980322 15.645834,6.3569127"/><path id="path7749" d="m 15.809694,6.6381627 -0.17568,4.9602143 9.307814,-0.336805 -9.132134,-4.6234093" style="fill:url(#linearGradient12256);fill-opacity:1;stroke:url(#linearGradient12258);stroke-width:.2;stroke-linecap:butt;stroke-linejoin:miter;stroke-miterlimit:4;stroke-dasharray:none;stroke-opacity:1"/><path style="fill:url(#linearGradient12260);fill-opacity:1;stroke:url(#linearGradient12262);stroke-width:.2;stroke-linecap:butt;stroke-linejoin:miter;stroke-miterlimit:4;stroke-dasharray:none;stroke-opacity:1" id="path7751" d="m 15.809694,15.884982 -0.17568,-4.960215 9.307814,0.336805 -9.132134,4.62341"/><path id="path7753" d="m 16.083797,15.902078 0.17568,-4.960215 -9.3078139,0.336805 9.1321339,4.62341" style="fill:url(#linearGradient12264);fill-opacity:1;stroke:url(#linearGradient12266);stroke-width:.2;stroke-linecap:butt;stroke-linejoin:miter;stroke-miterlimit:4;stroke-dasharray:none;stroke-opacity:1"/></g><polygon id="polygon7781" points="191.636 466.062 186.52 466.062 186.52 455.366 166.645 455.366 166.645 444.311 166.645 433.256 186.52 433.256 186.52 422.559 191.636 422.559 213.387 444.311" transform="matrix(0.06752287,0,0,0.06752287,2.1557898,-23.5696)" style="fill:url(#linearGradient12372);fill-opacity:1;stroke:#fff;stroke-linecap:round;stroke-linejoin:round"/></g></g></svg>