<svg xmlns="http://www.w3.org/2000/svg" xmlns:svg="http://www.w3.org/2000/svg" xmlns:xlink="http://www.w3.org/1999/xlink" id="svg8" width="32" height="32" version="1.1" viewBox="0 0 8.467 8.467"><defs id="defs2"><linearGradient id="linearGradient8592" x1="-117.386" x2="-105.369" y1="86.633" y2="95.386" gradientUnits="userSpaceOnUse" xlink:href="#linearGradient7662"/><linearGradient id="linearGradient7662"><stop id="stop7658" offset="0" style="stop-color:#f8cc53;stop-opacity:1"/><stop style="stop-color:#ffd15e;stop-opacity:1" id="stop7672" offset=".239"/><stop id="stop7660" offset="1" style="stop-color:#ebbe41;stop-opacity:1"/></linearGradient><filter id="filter7688" width="1.04" height="1.067" x="-.02" y="-.034" style="color-interpolation-filters:sRGB"><feGaussianBlur id="feGaussianBlur7690" stdDeviation=".088"/></filter><linearGradient id="linearGradient8594" x1="-107.289" x2="-112.965" y1="95.098" y2="90.592" gradientUnits="userSpaceOnUse" xlink:href="#linearGradient7678"/><linearGradient id="linearGradient7678"><stop id="stop7674" offset="0" style="stop-color:#f9e12d;stop-opacity:1"/><stop id="stop7676" offset="1" style="stop-color:#f3cc3d;stop-opacity:1"/></linearGradient><linearGradient id="linearGradient8599" x1="186.52" x2="185.758" y1="455.366" y2="411.134" gradientUnits="userSpaceOnUse" xlink:href="#linearGradient5570"/><linearGradient id="linearGradient5570"><stop id="stop5562" offset="0" style="stop-color:#007500;stop-opacity:1"/><stop style="stop-color:#00d200;stop-opacity:1" id="stop5564" offset=".343"/><stop id="stop5566" offset=".898" style="stop-color:#00d200;stop-opacity:1"/><stop id="stop5568" offset="1" style="stop-color:#007500;stop-opacity:1"/></linearGradient></defs><metadata id="metadata5"/><g id="layer1"><g id="g704" transform="translate(2.3478742e-7,-0.20441925)"><g id="g8590" transform="matrix(0.67649108,0,0,0.67649108,79.606552,-57.630835)"><path id="path8583" d="m -117.38606,87.121964 v 8.126842 l 0.50793,1.015856 h 11.42838 v -7.534261 l -1.01586,-1.015855 h -4.90997 l -0.62468,-1.081978 h -5.3858 z" style="fill:url(#linearGradient8592);fill-opacity:1;stroke:#000;stroke-width:.1;stroke-linecap:butt;stroke-linejoin:miter;stroke-miterlimit:4;stroke-dasharray:none;stroke-opacity:1"/><path style="fill:#333;fill-opacity:1;stroke:none;stroke-width:.299;stroke-linecap:butt;stroke-linejoin:miter;stroke-miterlimit:4;stroke-dasharray:none;stroke-opacity:1;filter:url(#filter7688)" id="path8586" d="m -116.614,90.292405 h 3.5494 l 0.53241,-1.008507 h 6.44725 V 95.563 H -116.614 v -4.967688 z"/><path id="path8588" d="m -116.51408,90.591958 h 3.5494 l 0.53241,-1.008507 h 6.44725 v 6.279102 h -10.52906 v -4.967688 z" style="fill:url(#linearGradient8594);fill-opacity:1;stroke:none;stroke-width:.299;stroke-linecap:butt;stroke-linejoin:miter;stroke-miterlimit:4;stroke-dasharray:none;stroke-opacity:1"/></g><polygon style="fill:url(#linearGradient8599);fill-opacity:1;stroke:#fff;stroke-linecap:round;stroke-linejoin:round" id="polygon8596" points="191.636 422.559 213.387 444.311 191.636 466.062 186.52 466.062 186.52 455.366 166.645 455.366 166.645 444.311 166.645 433.256 186.52 433.256 186.52 422.559" transform="matrix(0.06752287,0,0,0.06752287,-6.2760474,-23.5696)"/></g></g></svg>