<svg xmlns="http://www.w3.org/2000/svg" xmlns:svg="http://www.w3.org/2000/svg" xmlns:xlink="http://www.w3.org/1999/xlink" id="svg8" width="32" height="32" version="1.1" viewBox="0 0 8.467 8.467"><defs id="defs2"><radialGradient id="radialGradient7001" cx="223.784" cy="-29.007" r="7.048" fx="223.784" fy="-29.007" gradientTransform="matrix(1.1065117,0,0,1.1256532,149.09222,92.008437)" gradientUnits="userSpaceOnUse" xlink:href="#linearGradient5672"/><linearGradient id="linearGradient5672"><stop style="stop-color:teal;stop-opacity:1" id="stop5668" offset="0"/><stop id="stop5676" offset=".917" style="stop-color:teal;stop-opacity:1"/><stop style="stop-color:#00474d;stop-opacity:1" id="stop5670" offset="1"/></linearGradient><linearGradient id="linearGradient12522" x1="12.292" x2="20.921" y1="11.785" y2="19.336" gradientTransform="matrix(1.1064406,0,0,1.1255808,378.27981,42.372558)" gradientUnits="userSpaceOnUse" xlink:href="#linearGradient5369-7"/><linearGradient id="linearGradient5369-7"><stop id="stop5365-5" offset="0" style="stop-color:#dbf0fa;stop-opacity:1"/><stop id="stop5367" offset="1" style="stop-color:#f8fcfe;stop-opacity:.71276593"/></linearGradient><linearGradient id="linearGradient12524" x1="8.975" x2="6.581" y1="24.508" y2="21.695" gradientTransform="matrix(1.1064406,0,0,1.1255808,378.27981,42.372558)" gradientUnits="userSpaceOnUse" xlink:href="#linearGradient5534"/><linearGradient id="linearGradient5534"><stop style="stop-color:#ffbe00;stop-opacity:1" id="stop5529" offset="0"/><stop style="stop-color:#ffcc9a;stop-opacity:1" id="stop5532" offset="1"/></linearGradient><linearGradient id="linearGradient12526" x1="73.93" x2="60.958" y1="-73.12" y2="-84.434" gradientTransform="matrix(0.68610202,0,0,0.68610202,350.43574,115.19554)" gradientUnits="userSpaceOnUse" xlink:href="#linearGradient5696"/><linearGradient id="linearGradient5696"><stop style="stop-color:#f9f9f9;stop-opacity:1" id="stop5692" offset="0"/><stop style="stop-color:#f9f9f9;stop-opacity:0" id="stop5694" offset="1"/></linearGradient></defs><metadata id="metadata5"/><g id="layer1"><g id="g7327" transform="matrix(-0.26458333,0,0,0.26458333,109.08457,-28.047409)"><g id="g6999" transform="matrix(-1.1932323,0,0,1.1932323,866.25262,47.592454)"><path id="path6987" d="m 397.03762,51.63165 a 7.7982556,7.9331561 0 0 0 -7.7988,7.932287 7.7982556,7.9331561 0 0 0 7.7988,7.934167 7.7982556,7.9331561 0 0 0 7.79879,-7.934167 7.7982556,7.9331561 0 0 0 -7.79879,-7.932287 z m -0.32527,1.045354 a 6.564899,6.6784643 0 0 1 6.56355,6.678237 6.564899,6.6784643 0 0 1 -6.56355,6.680118 6.564899,6.6784643 0 0 1 -6.56543,-6.680118 6.564899,6.6784643 0 0 1 6.56543,-6.678237 z" style="fill:#4d4d4d;stroke:none;stroke-width:.248945;stroke-linecap:round;stroke-linejoin:round;stroke-opacity:1"/><path style="fill:gray;fill-opacity:1;stroke:none;stroke-width:.248945;stroke-linecap:round;stroke-linejoin:round;stroke-opacity:1" id="path6989" d="m 390.89591,64.059792 c 0.54596,0.799467 1.18226,1.445268 1.96912,1.998669 -2.48892,2.439832 -4.9776,4.879914 -7.46653,7.319745 -0.64321,-0.679194 -1.28666,-1.358139 -1.92988,-2.037084 2.47584,-2.427279 4.95144,-4.854304 7.42729,-7.28133 z"/><path id="path6991" d="m 396.71235,51.422955 a 7.7982556,7.9331561 0 0 0 -7.79879,7.932286 7.7982556,7.9331561 0 0 0 7.79879,7.934168 7.7982556,7.9331561 0 0 0 7.79692,-7.934168 7.7982556,7.9331561 0 0 0 -7.79692,-7.932286 z m 0,1.254049 a 6.564899,6.6784643 0 0 1 6.56355,6.678237 6.564899,6.6784643 0 0 1 -6.56355,6.680118 6.564899,6.6784643 0 0 1 -6.56543,-6.680118 6.564899,6.6784643 0 0 1 6.56543,-6.678237 z" style="fill:url(#radialGradient7001);fill-opacity:1;stroke:none;stroke-width:.248945;stroke-linecap:round;stroke-linejoin:round;stroke-opacity:1"/><path style="opacity:.696;fill:url(#linearGradient12522);fill-opacity:1;stroke:#ececec;stroke-width:.248945;stroke-linecap:round;stroke-linejoin:round;stroke-opacity:1" id="ellipse6993" d="m 403.27639,59.356098 a 6.564899,6.6784644 0 0 1 -6.5649,6.678465 6.564899,6.6784644 0 0 1 -6.5649,-6.678465 6.564899,6.6784644 0 0 1 6.5649,-6.678464 6.564899,6.6784644 0 0 1 6.5649,6.678464"/><path id="path6995" d="m 390.30753,63.882729 c 0.54596,0.799466 1.18226,1.445268 1.96913,1.998667 -2.48894,2.439833 -4.97761,4.879915 -7.46654,7.319746 -0.64321,-0.679195 -1.28667,-1.358139 -1.92988,-2.037084 2.47585,-2.427278 4.95145,-4.854304 7.42729,-7.281329 z" style="fill:url(#linearGradient12524);fill-opacity:1;stroke:none;stroke-width:.248945;stroke-linecap:round;stroke-linejoin:round;stroke-opacity:1"/><path style="opacity:1;fill:url(#linearGradient12526);fill-opacity:1;fill-rule:nonzero;stroke:none;stroke-width:.602987;stroke-linecap:butt;stroke-linejoin:round;stroke-miterlimit:4;stroke-dasharray:none;stroke-dashoffset:0;stroke-opacity:1" id="path6997" d="m 399.4891,56.780091 c -1.76354,0.186534 -3.34621,0.949798 -4.53583,2.092065 -1.00313,0.963201 -1.72231,2.19635 -2.04118,3.573943 0.65645,1.785131 2.42468,3.066312 4.50854,3.066312 2.64257,0 4.78399,-2.056956 4.78399,-4.594339 0,-1.824835 -1.11025,-3.396548 -2.71552,-4.137981 z"/></g><g style="font-style:normal;font-variant:normal;font-weight:400;font-stretch:normal;font-size:27.2px;line-height:1.25;font-family:calibri;-inkscape-font-specification:calibri;letter-spacing:0;word-spacing:0;fill:#fff;fill-opacity:1;stroke:none;stroke-width:.68" id="text7015" aria-label="+"><path id="path864" d="m 398.95906,108.86221 v 7.39766 h 7.39765 v 2.25781 h -7.39765 v 7.39766 h -2.23125 v -7.39766 h -7.39766 v -2.25781 h 7.39766 v -7.39766 z" style="fill:#fff;stroke-width:.68"/></g><g style="font-style:normal;font-variant:normal;font-weight:400;font-stretch:normal;font-size:25.4545px;line-height:1.25;font-family:calibri;-inkscape-font-specification:calibri;letter-spacing:0;word-spacing:0;fill:red;fill-opacity:1;stroke:none;stroke-width:.636364" id="text7011" aria-label="+"><path id="path860" d="m 398.59086,109.4648 v 6.92293 h 6.92293 v 2.11292 h -6.92293 v 6.92293 h -2.08807 v -6.92293 h -6.92292 v -2.11292 h 6.92292 v -6.92293 z" style="fill:red;stroke-width:.636364"/></g></g></g></svg>