<svg xmlns="http://www.w3.org/2000/svg" xmlns:xlink="http://www.w3.org/1999/xlink" width="32" height="32" viewBox="0 0 8.467 8.467"><radialGradient id="a" cx="15.615" cy="14.487" r="15.958" gradientTransform="matrix(.8972302 -.44156296 .46469661 .94423641 18.899849 38.219937)" gradientUnits="userSpaceOnUse"><stop offset="0" stop-color="#00bc00"/><stop offset=".821" stop-color="#00bc00"/><stop offset="1" stop-color="green"/></radialGradient><linearGradient id="b" x1="26.052" x2="44.585" y1="40.252" y2="40.252" gradientUnits="userSpaceOnUse"><stop offset="0" stop-color="#f2f2f2"/><stop offset="1" stop-color="#f2f2f2" stop-opacity="0"/></linearGradient><filter id="c" width="1.158" height="1.18" x="-.079" y="-.09" color-interpolation-filters="sRGB"><feGaussianBlur stdDeviation=".526"/></filter><linearGradient id="d" x1="255.37" x2="270.981" y1="1181.841" y2="1202.358" gradientUnits="userSpaceOnUse"><stop offset="0" stop-color="#f2f2f2"/><stop offset=".269" stop-color="#f9f9f9"/><stop offset=".576" stop-color="#fff"/><stop offset=".813" stop-color="#f9f9f9"/><stop offset="1" stop-color="#e6e6e6"/></linearGradient><g transform="matrix(.2527183055 0 0 .25271825787 -6.04994547869 -7.45809849371)"><circle cx="40.691" cy="46.263" r="15.846" fill="url(#a)" stroke="#000" stroke-linecap="round" stroke-linejoin="round" stroke-width=".225"/><path fill="url(#b)" d="m43.164119 34.101073c1.152337 1.513548-4.228787 1.054507-8.769431 4.511519-4.540647 3.457011-5.483176 9.965913-6.635513 8.452363-1.152337-1.513548-.185322-7.322735 4.355324-10.779747 4.540646-3.457011 9.897283-3.697684 11.04962-2.184135z" filter="url(#c)" opacity=".703"/></g><path fill="url(#d)" d="m250.888 1219.978v-27.01-27.009l27.009 27.009z" transform="matrix(.0965191297 0 0 .0965191297 -20.66180026622 -110.91082649925)"/></svg>