<svg xmlns="http://www.w3.org/2000/svg" xmlns:svg="http://www.w3.org/2000/svg" id="svg8" width="32" height="32" version="1.1" viewBox="0 0 8.467 8.467"><defs id="defs2"><filter style="color-interpolation-filters:sRGB" id="filter8625" width="1.44" height="1.104" x="-.22" y="-.052"><feGaussianBlur id="feGaussianBlur8627" stdDeviation=".159"/></filter></defs><metadata id="metadata5"/><g id="layer1"><g id="g576" transform="translate(-1.3133752e-4,8.46667)"><path style="fill:#333;stroke:none;stroke-width:.152691;stroke-miterlimit:4;stroke-dasharray:none;filter:url(#filter8625)" id="path8611" d="m 4.2020652,-7.9179285 c -0.57361,0 -0.8418769,0.294576 -0.8369844,0.918153 0.00331,0.415881 0.070644,0.790041 0.3845632,2.12373 0.1380565,0.586621 0.2757477,1.249706 0.3047174,1.474369 0.028937,0.224664 0.059101,0.434527 0.067857,0.46573 0.00865,0.0312 0.057617,0.05589 0.109122,0.05589 0.1133546,0 0.1093333,0.01721 0.1969365,-0.657344 0.038899,-0.299552 0.172128,-0.963967 0.296739,-1.4757 0.4615773,-1.895661 0.483945,-2.292563 0.1503689,-2.649339 -0.1678953,-0.179574 -0.3676539,-0.255487 -0.673312,-0.255487 z m 0.031937,6.061146 a 0.65392321,0.65392321 0 0 0 -0.6546784,0.653353 0.65392321,0.65392321 0 0 0 0.6546784,0.65468401 0.65392321,0.65392321 0 0 0 0.6533576,-0.65468401 0.65392321,0.65392321 0 0 0 -0.6533576,-0.653353 z"/><path id="path8601" d="m 4.2040581,-7.6840675 c -0.537203,0 -0.788443,0.275879 -0.783861,0.859878 0.0031,0.389485 0.06616,0.739897 0.360155,1.988937 0.129294,0.549388 0.258246,1.170387 0.285377,1.380791 0.0271,0.210404 0.05535,0.406947 0.06355,0.43617 0.0081,0.02922 0.05396,0.05234 0.102196,0.05234 0.10616,0 0.102394,0.01612 0.184437,-0.615623 0.03643,-0.280539 0.161203,-0.902784 0.277905,-1.382037 0.432281,-1.775344 0.453229,-2.147054 0.140825,-2.481186 -0.157239,-0.168176 -0.344319,-0.239271 -0.630577,-0.239271 z m 0.02991,5.676445 a 0.61241874,0.61241874 0 0 0 -0.613126,0.611885 0.61241874,0.61241874 0 0 0 0.613126,0.61313101 0.61241874,0.61241874 0 0 0 0.611889,-0.61313101 0.61241874,0.61241874 0 0 0 -0.611889,-0.611885 z" style="fill:red;stroke:none;stroke-width:.143;stroke-miterlimit:4;stroke-dasharray:none"/></g></g></svg>