<svg xmlns="http://www.w3.org/2000/svg" xmlns:svg="http://www.w3.org/2000/svg" id="svg8" width="32" height="32" version="1.1" viewBox="0 0 8.467 8.467"><defs id="defs2"><filter style="color-interpolation-filters:sRGB" id="filter8566" width="1.038" height="1.045" x="-.019" y="-.022"><feGaussianBlur id="feGaussianBlur8568" stdDeviation=".031"/></filter></defs><metadata id="metadata5"/><g id="layer1"><g id="g8572" transform="matrix(1.9005441,0,0,1.9005441,100.65971,-12.458428)"><path style="fill:#1a1a1a;stroke:none;stroke-width:.065;stroke-linecap:butt;stroke-linejoin:miter;stroke-miterlimit:4;stroke-dasharray:none;stroke-opacity:1;filter:url(#filter8566)" id="path8546" d="m -51.112437,10.196799 c 0.128144,-0.266036 0.384277,-0.7977915 0.604191,-1.1958245 0.219914,-0.3980329 0.403772,-0.6626771 0.637505,-0.9214228 0.233733,-0.2587457 0.518031,-0.5123839 0.726789,-0.6709959 0.208759,-0.1586119 0.342525,-0.222708 0.390888,-0.2577553 0.04836,-0.035047 0.01139,-0.041326 -0.14666,-7.733e-4 -0.158052,0.040552 -0.434156,0.1270511 -0.704028,0.283363 -0.269871,0.1563119 -0.531274,0.3815635 -0.766656,0.609964 -0.235381,0.2284006 -0.44396,0.4592278 -0.599974,0.676486 -0.156014,0.2172583 -0.258901,0.4202503 -0.322897,0.5330585 -0.064,0.1128083 -0.08929,0.1352899 -0.114345,0.1575622 0,0 -0.540445,-0.3320602 -0.540445,-0.3320602 -0.156805,-0.093278 -0.313386,-0.1864224 -0.43637,-0.2494552 -0.122984,-0.063033 -0.212061,-0.095738 -0.301068,-0.1284185 -0.02784,0.016704 -0.05537,0.033224 0.139061,0.2989898 0.194433,0.2657658 0.609829,0.7784109 0.84161,1.0610032 0.231781,0.282593 0.279106,0.334094 0.325863,0.36265 0.04676,0.02856 0.09269,0.03412 0.115541,0.03689 0.02285,0.0028 0.02285,0.0028 0.150995,-0.263263 z"/><path id="path8541" d="m -51.221015,10.104926 c 0.128143,-0.2660369 0.384277,-0.7977924 0.604191,-1.1958254 0.219914,-0.3980329 0.403772,-0.6626771 0.637505,-0.9214228 0.233733,-0.2587457 0.518031,-0.5123839 0.726789,-0.6709959 0.208759,-0.1586119 0.342525,-0.222708 0.390888,-0.2577553 0.04836,-0.035047 0.01139,-0.041326 -0.14666,-7.733e-4 -0.158052,0.040552 -0.434156,0.1270511 -0.704028,0.283363 -0.269871,0.1563119 -0.531274,0.3815635 -0.766656,0.609964 -0.235381,0.2284006 -0.44396,0.4592278 -0.599974,0.676486 -0.156014,0.2172583 -0.258901,0.4202503 -0.322897,0.5330585 -0.064,0.1128083 -0.08929,0.1352899 -0.114345,0.1575622 0,0 -0.540445,-0.3320602 -0.540445,-0.3320602 -0.156805,-0.093278 -0.313386,-0.1864224 -0.43637,-0.2494552 -0.122984,-0.063033 -0.212061,-0.095738 -0.301068,-0.1284185 -0.02784,0.016704 -0.05537,0.033224 0.139061,0.2989898 0.194433,0.2657658 0.609829,0.7784109 0.84161,1.0610032 0.231781,0.2825929 0.279106,0.3340939 0.325863,0.3626499 0.04676,0.02856 0.09269,0.03412 0.115541,0.03689 0.02285,0.0028 0.02285,0.0028 0.150995,-0.263262 z" style="fill:red;stroke:none;stroke-width:.065;stroke-linecap:butt;stroke-linejoin:miter;stroke-miterlimit:4;stroke-dasharray:none;stroke-opacity:1"/></g></g></svg>