<svg xmlns="http://www.w3.org/2000/svg" xmlns:svg="http://www.w3.org/2000/svg" xmlns:xlink="http://www.w3.org/1999/xlink" id="svg8" width="14" height="11" version="1.1" viewBox="0 0 3.704 2.91"><defs id="defs2"><linearGradient id="linearGradient4689"><stop id="stop4691" offset="0" style="stop-color:#5a9fd4;stop-opacity:1"/><stop id="stop4693" offset="1" style="stop-color:#306998;stop-opacity:1"/></linearGradient><linearGradient id="linearGradient4671"><stop id="stop4673" offset="0" style="stop-color:#ffd43b;stop-opacity:1"/><stop id="stop4675" offset="1" style="stop-color:#ffe873;stop-opacity:1"/></linearGradient><radialGradient id="radialGradient1480-7" cx="61.519" cy="132.286" r="29.037" fx="61.519" fy="132.286" gradientTransform="matrix(2.382716e-8,-0.296405,1.43676,4.683673e-7,-128.544,150.5202)" gradientUnits="userSpaceOnUse" xlink:href="#linearGradient2795"/><linearGradient id="linearGradient2795"><stop id="stop2797" offset="0" style="stop-color:#b8b8b8;stop-opacity:.49803922"/><stop id="stop2799" offset="1" style="stop-color:#7f7f7f;stop-opacity:0"/></linearGradient><linearGradient id="linearGradient8544" x1="7.692" x2="17.729" y1="4.532" y2="20.796" gradientUnits="userSpaceOnUse" xlink:href="#linearGradient5777"/><linearGradient id="linearGradient5777"><stop id="stop5773" offset="0" style="stop-color:#f8a5a5;stop-opacity:1"/><stop id="stop5775" offset="1" style="stop-color:#e6e6e6;stop-opacity:0"/></linearGradient><filter id="filter5786" width="1.13" height="1.139" x="-.065" y="-.07" style="color-interpolation-filters:sRGB"><feGaussianBlur id="feGaussianBlur5788" stdDeviation=".72"/></filter></defs><metadata id="metadata5"/><g id="layer1"><g id="g5061" transform="matrix(0.7109755,0,0,0.70877922,-1.5339374,-3.4206024)"><circle id="circle8540" cx="4.804" cy="6.922" r="1.423" style="fill:red;fill-opacity:1;stroke:#333;stroke-width:.0725558;stroke-linecap:round;stroke-linejoin:round;stroke-miterlimit:4;stroke-dasharray:none;stroke-opacity:1"/><path style="fill:url(#linearGradient8544);fill-opacity:1;stroke:none;stroke-width:.412;stroke-linecap:round;stroke-linejoin:round;stroke-miterlimit:4;stroke-dasharray:none;filter:url(#filter5786)" id="path8542" d="M 16,2.0351562 A 13.96443,13.96443 0 0 0 2.0351562,16 13.96443,13.96443 0 0 0 7.1992188,26.828125 21.927635,21.927635 0 0 1 28.429688,10.197266 21.927635,21.927635 0 0 1 28.689453,10.210938 13.96443,13.96443 0 0 0 16,2.0351562 Z" transform="matrix(0.09806577,0,0,0.09806577,3.2320638,5.3469448)"/><path id="path5398" d="m 4.3869389,6.1738241 -0.3313701,0.3313708 0.4168215,0.416822 -0.4170191,0.4168222 0.3313708,0.331371 0.4168221,-0.417019 0.416822,0.416821 0.33137,-0.331173 -0.416821,-0.4170192 0.416624,-0.416625 -0.33137,-0.3311739 -0.416625,0.4166253 z" style="fill:#ff0;stroke:none;stroke-width:.0226635;stroke-linecap:round;stroke-linejoin:round"/></g></g></svg>