<svg xmlns="http://www.w3.org/2000/svg" xmlns:svg="http://www.w3.org/2000/svg" xmlns:xlink="http://www.w3.org/1999/xlink" id="Default" width="128" height="96" x="0" y="0" enable-background="new 0 0 612 792" version="1.1" viewBox="0 0 128 96" xml:space="preserve"><metadata id="metadata135"/><defs id="defs133"><linearGradient id="linearGradient5774"><stop style="stop-color:#6a60c0;stop-opacity:1" id="stop5770" offset="0"/><stop style="stop-color:#d1d1ff;stop-opacity:1" id="stop5772" offset="1"/></linearGradient><linearGradient id="linearGradient5765"><stop style="stop-color:#473895;stop-opacity:1" id="stop5761" offset="0"/><stop style="stop-color:#6e6db6;stop-opacity:1" id="stop5763" offset="1"/></linearGradient><linearGradient id="linearGradient5686"><stop style="stop-color:#646494;stop-opacity:1" id="stop5682" offset="0"/><stop style="stop-color:#fafafc;stop-opacity:1" id="stop5684" offset="1"/></linearGradient><linearGradient id="linearGradient5535"><stop style="stop-color:#f2f2f2;stop-opacity:1" id="stop5531" offset="0"/><stop style="stop-color:#f9f9f9;stop-opacity:1" id="stop5533" offset="1"/></linearGradient><linearGradient id="linearGradient5527"><stop style="stop-color:#999;stop-opacity:1" id="stop5523" offset="0"/><stop style="stop-color:#f2f2f2;stop-opacity:1" id="stop5525" offset="1"/></linearGradient><linearGradient id="linearGradient5455"><stop id="stop5451" offset="0" style="stop-color:#96cef1;stop-opacity:1"/><stop id="stop5453" offset="1" style="stop-color:#fff;stop-opacity:1"/></linearGradient><linearGradient id="linearGradient5369"><stop style="stop-color:#dbf0fa;stop-opacity:1" id="stop5365" offset="0"/><stop style="stop-color:#f8fcfe;stop-opacity:.71276593" id="stop5367" offset="1"/></linearGradient><linearGradient id="linearGradient5358"><stop style="stop-color:#f60;stop-opacity:1" id="stop5354" offset="0"/><stop style="stop-color:#fca;stop-opacity:1" id="stop5356" offset="1"/></linearGradient><linearGradient id="linearGradient5343"><stop style="stop-color:#96cef1;stop-opacity:1" id="stop5339" offset="0"/><stop style="stop-color:#fff;stop-opacity:0" id="stop5341" offset="1"/></linearGradient><linearGradient id="linearGradient5296"><stop style="stop-color:#2e2e2e;stop-opacity:1" id="stop5292" offset="0"/><stop style="stop-color:#2e2e2e;stop-opacity:0" id="stop5294" offset="1"/></linearGradient><linearGradient id="linearGradient5278"><stop style="stop-color:#007500;stop-opacity:1" id="stop5274" offset="0"/><stop id="stop5282" offset=".131" style="stop-color:#00d200;stop-opacity:1"/><stop style="stop-color:#00d200;stop-opacity:1" id="stop5284" offset=".898"/><stop style="stop-color:#007500;stop-opacity:1" id="stop5276" offset="1"/></linearGradient><linearGradient id="green_button"><stop id="stop5039" offset="0" style="stop-color:#00bc00;stop-opacity:1"/><stop style="stop-color:#00bc00;stop-opacity:1" id="stop5041" offset=".821"/><stop id="stop5043" offset="1" style="stop-color:green;stop-opacity:1"/></linearGradient><linearGradient id="linearGradient4859"><stop style="stop-color:#f2f2f2;stop-opacity:1" id="stop4855" offset="0"/><stop style="stop-color:#f2f2f2;stop-opacity:0" id="stop4857" offset="1"/></linearGradient><linearGradient id="red_button_cross"><stop style="stop-color:red;stop-opacity:1" id="stop4754" offset="0"/><stop id="stop4865" offset=".821" style="stop-color:red;stop-opacity:1"/><stop style="stop-color:#cf0000;stop-opacity:1" id="stop4756" offset="1"/></linearGradient><linearGradient id="linearGradient4861" x1="1.361" x2="19.895" y1="9.937" y2="9.937" gradientUnits="userSpaceOnUse" xlink:href="#linearGradient4859"/><linearGradient id="linearGradient4861-8" x1="1.361" x2="19.895" y1="9.937" y2="9.937" gradientTransform="translate(33.915251,-144.46238)" gradientUnits="userSpaceOnUse" xlink:href="#linearGradient4859"/><filter style="color-interpolation-filters:sRGB" id="filter4851-5" width="1.158" height="1.18" x="-.079" y="-.09"><feGaussianBlur id="feGaussianBlur4853-6" stdDeviation=".526"/></filter><radialGradient id="radialGradient4863-2" cx="15.615" cy="14.487" r="15.958" fx="15.615" fy="14.487" gradientTransform="matrix(0.8639023,-0.42516096,0.44743531,0.90916244,28.82144,-136.14644)" gradientUnits="userSpaceOnUse" xlink:href="#red_button_cross"/><linearGradient id="linearGradient4861-2" x1="1.361" x2="19.895" y1="9.937" y2="9.937" gradientTransform="translate(24.690678,30.315149)" gradientUnits="userSpaceOnUse" xlink:href="#linearGradient4859"/><filter style="color-interpolation-filters:sRGB" id="filter4851-8" width="1.158" height="1.18" x="-.079" y="-.09"><feGaussianBlur id="feGaussianBlur4853-8" stdDeviation=".526"/></filter><radialGradient id="radialGradient4863-0" cx="15.615" cy="14.487" r="15.958" fx="15.615" fy="14.487" gradientTransform="matrix(0.8972302,-0.44156296,0.46469661,0.94423641,18.899849,38.219937)" gradientUnits="userSpaceOnUse" xlink:href="#green_button"/><linearGradient id="linearGradient4861-3" x1="1.361" x2="19.895" y1="9.937" y2="9.937" gradientTransform="translate(33.833051,38.59596)" gradientUnits="userSpaceOnUse" xlink:href="#linearGradient4859"/><filter style="color-interpolation-filters:sRGB" id="filter4851-7" width="1.158" height="1.18" x="-.079" y="-.09"><feGaussianBlur id="feGaussianBlur4853-5" stdDeviation=".526"/></filter><radialGradient id="radialGradient4863-6" cx="15.615" cy="14.487" r="15.958" fx="15.615" fy="14.487" gradientTransform="matrix(0.8972302,-0.44156296,0.46469661,0.94423641,28.042222,46.500748)" gradientUnits="userSpaceOnUse" xlink:href="#green_button"/><linearGradient id="linearGradient5280" x1="307.543" x2="427.25" y1="851.049" y2="851.049" gradientUnits="userSpaceOnUse" xlink:href="#linearGradient5278"/><linearGradient id="linearGradient5298" x1="15.77" x2="15.936" y1="32.299" y2="27.58" gradientUnits="userSpaceOnUse" xlink:href="#linearGradient5296"/><linearGradient id="linearGradient5345" x1="139.263" x2="43.916" y1="914.712" y2="793.538" gradientTransform="matrix(0.22307504,0,0,0.22307504,-4.3845781,-173.68656)" gradientUnits="userSpaceOnUse" xlink:href="#linearGradient5343"/><linearGradient id="linearGradient5360" x1="8.975" x2="6.155" y1="24.508" y2="21.467" gradientTransform="translate(-27.245957,-111.32247)" gradientUnits="userSpaceOnUse" xlink:href="#linearGradient5358"/><linearGradient id="linearGradient5371" x1="12.292" x2="20.921" y1="11.785" y2="19.336" gradientTransform="translate(-27.245957,-111.32247)" gradientUnits="userSpaceOnUse" xlink:href="#linearGradient5369"/><linearGradient id="linearGradient5440" x1="139.263" x2="43.916" y1="914.712" y2="793.538" gradientTransform="matrix(0.22307504,0,0,0.22307504,-31.630535,-285.00903)" gradientUnits="userSpaceOnUse" xlink:href="#linearGradient5455"/><filter style="color-interpolation-filters:sRGB" id="filter5469" width="1.106" height="1.096" x="-.053" y="-.048"><feGaussianBlur id="feGaussianBlur5471" stdDeviation=".664"/></filter><linearGradient id="linearGradient5529" x1="18.544" x2="16.993" y1="18.578" y2="12.498" gradientUnits="userSpaceOnUse" xlink:href="#linearGradient5527"/><linearGradient id="linearGradient5537" x1="19.29" x2="14.59" y1="22.787" y2="12.929" gradientUnits="userSpaceOnUse" xlink:href="#linearGradient5535"/><linearGradient id="linearGradient5688" x1="28.269" x2="-48.489" y1="1051.528" y2="1022.985" gradientUnits="userSpaceOnUse" xlink:href="#linearGradient5686"/><linearGradient id="linearGradient5767" x1="88.427" x2="31.836" y1="1042.17" y2="989.18" gradientUnits="userSpaceOnUse" xlink:href="#linearGradient5765"/><linearGradient id="linearGradient5776" x1="143.06" x2="62.454" y1="991.67" y2="958.718" gradientUnits="userSpaceOnUse" xlink:href="#linearGradient5774"/></defs><g id="layer1" style="display:none"><rect id="rect172" width="32" height="32" x="0" y="0" style="fill:#00f"/><rect style="fill:#00f" id="rect174" width="32" height="32" x="32" y="0"/><rect id="rect176" width="32" height="32" x="64" y="0" style="fill:#00f"/><rect style="fill:#00f" id="rect372" width="32" height="32" x="96" y="0"/><rect style="fill:#00f" id="rect374" width="32" height="32" x="0" y="32"/><rect id="rect376" width="32" height="32" x="32" y="32" style="fill:#00f"/><rect style="fill:#00f" id="rect378" width="32" height="32" x="64" y="32"/><rect id="rect380" width="32" height="32" x="96" y="32" style="fill:#00f"/><rect id="rect382" width="32" height="32" x="0" y="64" style="fill:#00f"/><rect style="fill:#00f" id="rect384" width="32" height="32" x="32" y="64"/><rect id="rect386" width="32" height="32" x="64" y="64" style="fill:#00f"/><rect style="fill:#00f" id="rect388" width="32" height="32" x="96" y="64"/></g><g id="layer2"><g id="g5645" transform="matrix(0.99073045,0,0,0.99073045,0.13951109,0.29245618)"><g id="g5625"><g id="g5589" transform="matrix(0.23839371,0,0,0.23406459,161.59765,35.276798)"><g id="g5606" transform="matrix(0.99966249,0,0,0.99972366,-2.0944626,-0.0075061)"><path id="path26" d="m -544.18056,-70.694019 c -10.67,7.558 -27.09549,20.304525 -48.43549,40.755525 -21.719,-10.644 -58.03151,-11.005525 -61.81251,-10.465525 -6.343,-24.033 -12.686,-48.065 -19.029,-72.098001 7.466,-3.499 10.352,-4.187 17.131,-4.197 6.778,-0.011 17.449,0.656 40.123,9.993 12.004,-14.671 33.344,-26.676 44.015,-29.343 9.336,21.784 18.672,43.569001 28.008,65.355001 z" style="fill:#999;stroke:#803300;stroke-width:5;stroke-linecap:round;stroke-linejoin:round;stroke-miterlimit:4;stroke-dasharray:none"/><path id="path28" d="m -669.97656,-114.06602 c 5.09,-2.151 8.034,-2.625 13.649,-2.633 6.778,-0.011 17.449,0.656 40.123,9.993 7.405,24.066001 14.14359,46.055624 21.54859,70.122624 -17.16,-8.863 -46.87959,-9.202623 -56.82459,-9.308623 -6.165,-22.725 -12.33,-45.449 -18.496,-68.174001 z" style="fill:#f2f2f2;stroke:none;stroke-linecap:round;stroke-linejoin:round"/><path id="path30" d="m -572.18956,-136.05002 c 8.696,20.29 17.391,40.579001 26.086,60.868001 -11.39,7.497 -28.01941,18.978623 -48.55241,38.598623 -7.405,-24.066 -14.14259,-46.056623 -21.54759,-70.123624 12.003,-14.671 33.344,-26.675 44.014,-29.343 z" style="fill:#f9f9f9;stroke:none;stroke-linecap:round;stroke-linejoin:round"/><path id="path2" d="m -575.56856,-129.10802 c -10.208,4.106 -16.608,8.537 -22.219,13.346 -5.61,4.809 -10.43,9.997 -12.602,12.611" style="fill:none;stroke:#000;stroke-linecap:round;stroke-linejoin:round"/><path id="path4" d="m -572.00056,-120.09202 c -10.208,4.105 -16.608,8.536 -22.218,13.346 -5.61,4.809 -10.43,9.997001 -12.603,12.611001" style="fill:none;stroke:#000;stroke-linecap:round;stroke-linejoin:round"/><path id="path6" d="m -570.97656,-110.13302 c -10.208,4.105 -16.608,8.536 -22.219,13.346001 -5.61,4.809 -10.43,9.997 -12.603,12.611" style="fill:none;stroke:#000;stroke-linecap:round;stroke-linejoin:round"/><path id="path8" d="m -567.40956,-101.11802 c -10.208,4.105001 -16.608,8.536001 -22.218,13.346001 -5.61,4.809 -10.43,9.997 -12.603,12.611" style="fill:none;stroke:#000;stroke-linecap:round;stroke-linejoin:round"/><path id="path10" d="m -566.21256,-90.851019 c -10.208,4.105 -16.608,8.536 -22.218,13.346 -5.61,4.81 -10.43,9.997 -12.603,12.611" style="fill:none;stroke:#000;stroke-linecap:round;stroke-linejoin:round"/><path id="path12" d="m -562.64456,-81.835019 c -10.208,4.105 -16.608,8.537 -22.219,13.346 -5.61,4.81 -10.43,9.998 -12.602,12.611" style="fill:none;stroke:#000;stroke-linecap:round;stroke-linejoin:round"/><path id="path14" d="m -649.80156,-59.351019 c 10.909,-1.436 18.66,-0.718 25.908,0.718 7.249,1.436 13.995,3.588 17.171,4.799" style="fill:none;stroke:#000;stroke-linecap:round;stroke-linejoin:round"/><path id="path16" d="m -651.12056,-68.957019 c 10.909,-1.435 18.66,-0.718 25.908,0.718 7.249,1.436 13.995,3.588 17.171,4.799" style="fill:none;stroke:#000;stroke-linecap:round;stroke-linejoin:round"/><path id="path18" d="m -655.11856,-78.489019 c 10.909,-1.436 18.66,-0.718 25.908,0.718 7.249,1.435 13.995,3.588 17.171,4.799" style="fill:none;stroke:#000;stroke-linecap:round;stroke-linejoin:round"/><path id="path20" d="m -656.43656,-88.095019 c 10.909,-1.436 18.66,-0.718 25.908,0.718 7.249,1.435 13.995,3.588 17.171,4.799" style="fill:none;stroke:#000;stroke-linecap:round;stroke-linejoin:round"/><path id="path22" d="m -660.43456,-97.274019 c 10.909,-1.435 18.66,-0.718 25.909,0.718 7.249,1.436 13.995,3.588 17.171,4.799" style="fill:none;stroke:#000;stroke-linecap:round;stroke-linejoin:round"/><path id="path24" d="m -661.75256,-106.87902 c 10.909,-1.436 18.66,-0.718 25.908,0.717 7.249,1.436 13.995,3.589 17.171,4.799" style="fill:none;stroke:#000;stroke-linecap:round;stroke-linejoin:round"/></g></g></g></g><g id="g5750" transform="matrix(0.97713067,0,0,0.97377619,0.36515407,64.419041)"><path id="rect5694" d="M 15.561456,17.892213 30.201004,26.305888 16.581028,31.890826 0.16496157,23.332089 Z" style="opacity:1;fill:#784421;fill-opacity:1;fill-rule:nonzero;stroke:#784421;stroke-width:.21935518;stroke-linecap:butt;stroke-linejoin:round;stroke-miterlimit:4;stroke-dasharray:none;stroke-dashoffset:0;stroke-opacity:1"/><polygon style="fill:url(#linearGradient5688);fill-opacity:1;stroke:none;stroke-linecap:round;stroke-linejoin:round" id="polygon98" points="-48.84 1067.863 7.553 1045.543 8.673 1003.882 -13.135 965.263 -48.489 1022.985" transform="matrix(0.22121066,0,0,0.21708917,27.478029,-200.73871)"/><polygon style="fill:#c87137;fill-opacity:1;stroke:#502d16;stroke-width:1.00098085;stroke-linecap:round;stroke-linejoin:round;stroke-miterlimit:4;stroke-dasharray:none" id="polygon94" points="-8.43 1012.167 -8.874 1052.045 -29.002 1060.011 -28.412 1018.636" transform="matrix(0.22121066,0,0,0.21708917,27.478029,-200.73871)"/><polygon style="fill:#bebed2;fill-opacity:1;stroke:none;stroke-linecap:round;stroke-linejoin:round" id="polygon96" points="-48.489 1022.985 -48.84 1067.863 -118.601 1031.501 -118.243 999.192" transform="matrix(0.22121066,0,0,0.21708917,27.478029,-200.73871)"/><path id="path5725" d="m 16.685173,22.878772 -8.3796645,-3.930285 6.3774445,-0.222469 2.068792,2.614237 z" style="opacity:.878;fill:#4d4d4d;stroke:none;stroke-width:1px;stroke-linecap:butt;stroke-linejoin:miter;stroke-opacity:1"/><path id="path5731" d="M 16.685173,22.878772 25.213151,9.4564769 24.02665,7.2317872 16.759329,19.170955 l -0.07416,3.707817" style="opacity:.50700001;fill:#4d4d4d;stroke:none;stroke-width:1px;stroke-linecap:butt;stroke-linejoin:miter;stroke-opacity:1"/><polygon style="fill:#575b72;fill-opacity:1;stroke:none;stroke-linecap:round;stroke-linejoin:round" id="polygon100" points="20.197 1005.697 8.673 1003.882 -13.135 965.263 -7.442 955.968" transform="matrix(0.22121066,0,0,0.21708917,27.478029,-200.73871)"/><polygon style="fill:#646494;fill-opacity:.60784314;stroke:none;stroke-linecap:round;stroke-linejoin:round" id="polygon114" points="-74.432 931.94 -59.356 936.842 -46.706 929.32 -61.549 924.686" transform="matrix(0.22121066,0,0,0.21708917,27.478029,-200.73871)"/><polygon style="fill:#9999f0;fill-opacity:1;stroke:none;stroke-linecap:round;stroke-linejoin:round" id="polygon102" points="-80.034 935.983 -123.198 996.744 -53.511 1031.184 -7.442 955.968" transform="matrix(0.22121066,0,0,0.21708917,27.478029,-200.73871)"/><polygon style="fill:#c1c1d4;fill-opacity:1;stroke:none;stroke-linecap:round;stroke-linejoin:round" id="polygon104" points="-60.042 984.924 -70.587 982.306 -69.807 940.522 -59.457 943.888" transform="matrix(0.22121066,0,0,0.21708917,27.478029,-200.73871)"/><path id="path5729" d="M 16.406214,9.0847026 18.946941,4.914402 16.777869,4.3211514 14.441944,7.5654906 Z" style="opacity:.85700001;fill:#4d4d4d;stroke:none;stroke-width:1px;stroke-linecap:butt;stroke-linejoin:miter;stroke-opacity:1"/><polygon style="fill:#646493;fill-opacity:1;stroke:none;stroke-linecap:round;stroke-linejoin:round" id="polygon106" points="-50.051 966.531 -60.042 984.924 -59.457 943.888 -49.796 938.448" transform="matrix(0.22121066,0,0,0.21708917,27.478029,-200.73871)"/><polygon style="fill:#090956;fill-opacity:1;stroke:none;stroke-linecap:round;stroke-linejoin:round" id="polygon108" points="-60.858 927.423 -53.08 930.021 -59.498 934.233 -67.686 931.632" transform="matrix(0.22121066,0,0,0.21708917,27.478029,-200.73871)"/><polygon style="fill:#bbbbea;fill-opacity:1;stroke:none;stroke-linecap:round;stroke-linejoin:round" id="polygon110" points="-74.533 938.986 -59.457 943.888 -59.356 936.842 -74.432 931.94" transform="matrix(0.22121066,0,0,0.21708917,27.478029,-200.73871)"/><polygon style="fill:#7676f4;fill-opacity:1;stroke:none;stroke-linecap:round;stroke-linejoin:round" id="polygon112" points="-59.457 943.888 -46.574 936.633 -46.706 929.32 -59.356 936.842" transform="matrix(0.22121066,0,0,0.21708917,27.478029,-200.73871)"/></g><g id="g5759" transform="matrix(0.23927005,0,0,0.23860165,185.65169,107.02021)"><g id="g5788" transform="translate(-114.69274,-329.1965)"><polygon id="polygon116" points="20.292 947.958 21.44 937.336 29.765 939.633 38.091 930.447 49.861 930.734 54.454 937.049 61.057 942.504 64.501 946.523 67.024 952.266 37.025 965.646" transform="translate(-548.16356,-778.98402)" style="fill:green;stroke:#000;stroke-linecap:round;stroke-linejoin:round"/><polygon id="polygon126" points="98.587 938.188 31.63 968.052 88.189 1020.215 154.785 990.171" transform="translate(-548.16356,-778.98402)" style="fill:url(#linearGradient5776);fill-opacity:1;stroke:#1a1a1a;stroke-linecap:round;stroke-linejoin:round"/><path id="path120" d="m -456.73299,178.19353 c -3.8905,-0.33755 -7.63056,0.89111 -11.21095,3.6813 -1.80724,1.4079 -3.14603,2.90038 -4.02093,4.48617 -0.87489,1.58581 -1.24595,3.35483 -1.12255,5.29158 l -0.19747,0.15072 c -1.22696,-0.84219 -2.4565,-1.68195 -3.68345,-2.52412 -1.11118,0.8655 -2.21945,1.73423 -3.33064,2.59973 10.40975,9.91694 20.81463,19.82724 31.22327,29.74416 1.36593,-1.0634 2.73566,-2.12021 4.10162,-3.18472 -2.933,-2.79408 -5.8691,-5.59428 -8.80208,-8.38947 -1.11921,-1.06559 -2.39617,-2.10966 -3.83954,-3.14607 0.0978,-0.0759 0.19396,-0.15485 0.29176,-0.2308 2.05559,0.25039 4.06705,0.0488 6.03701,-0.59317 1.96996,-0.64204 3.82914,-1.64298 5.58521,-3.01132 3.51214,-2.73667 5.28933,-5.80854 5.31955,-9.21048 0.0269,-3.40205 -1.72376,-6.77654 -5.24876,-10.13494 -3.51094,-3.34575 -7.21155,-5.19101 -11.10205,-5.52857 z m -1.30987,4.48443 c 2.74325,0.32542 5.44099,1.75813 8.1061,4.29645 2.62403,2.50044 4.02648,4.97911 4.19895,7.4317 0.17247,2.4526 -0.90197,4.58185 -3.23242,6.39848 -2.79332,2.17606 -5.46945,3.1398 -8.02616,2.89218 -2.55667,-0.24874 -5.34226,-1.80342 -8.34331,-4.66287 -0.23984,-0.22826 -0.47496,-0.45648 -0.71479,-0.68474 -2.60508,-2.53986 -3.89555,-4.85926 -3.87266,-6.9705 0.0229,-2.11123 1.41255,-4.24059 4.1695,-6.38884 2.39756,-1.86906 4.96942,-2.64068 7.71479,-2.31186 z" style="fill:#d45500;stroke:#f60;stroke-width:1.11045802;stroke-linecap:round;stroke-linejoin:round"/><polygon id="polygon124" points="154.785 1025.55 88.189 1059.29 88.189 1020.215 154.785 990.171" transform="translate(-548.16356,-778.98402)" style="fill:#1a1a1a;stroke:none;stroke-linecap:round;stroke-linejoin:round"/><path id="polygon122" d="m 154.822,991.515 -0.037,32.133 -66.803874,33.6747 -3.191429,-33.9305 z" transform="translate(-548.16356,-778.98402)" style="fill:#f2f2f2;stroke:#1a1a1a;stroke-linecap:round;stroke-linejoin:round"/><polygon id="polygon128" points="88.189 1020.215 31.63 968.052 31.63 1002.73 88.189 1059.29" transform="translate(-548.16356,-778.98402)" style="fill:url(#linearGradient5767);fill-opacity:1;stroke:#000;stroke-width:1.27219105;stroke-linecap:round;stroke-linejoin:round;stroke-miterlimit:4;stroke-dasharray:none"/></g></g><g id="g5159" transform="matrix(1.009744,0,0,1.009744,61.711673,145.65356)"><circle style="fill:url(#radialGradient4863-2);fill-opacity:1;stroke:#000;stroke-width:.21646675;stroke-linecap:round;stroke-linejoin:round" id="circle36-4" cx="49.803" cy="-128.402" r="15.257"/><path id="rect34-7" d="m 45.782439,-135.88425 -3.28711,3.28711 4.134766,4.13476 -4.136719,4.13477 3.287109,3.28711 4.134766,-4.13672 4.134766,4.13476 3.287109,-3.28515 -4.134766,-4.13672 4.132813,-4.13281 -3.28711,-3.28516 -4.132812,4.13281 z" style="fill:#f9f9f9;stroke:none;stroke-width:.22481552;stroke-linecap:round;stroke-linejoin:round"/><path id="path4816-5" d="m 52.388692,-140.67645 c 1.152337,1.51354 -4.228787,1.0545 -8.769431,4.51152 -4.540647,3.45701 -5.483176,9.96591 -6.635513,8.45236 -1.152337,-1.51355 -0.185322,-7.32274 4.355324,-10.77975 4.540646,-3.45701 9.897283,-3.69768 11.04962,-2.18413 z" style="opacity:.703;fill:url(#linearGradient4861-8);fill-opacity:1;fill-rule:nonzero;stroke:none;stroke-width:.36279541;stroke-linecap:butt;stroke-linejoin:round;stroke-miterlimit:4;stroke-dasharray:none;stroke-dashoffset:0;stroke-opacity:1;filter:url(#filter4851-5)"/></g><g id="g5102" transform="matrix(0.97202737,0,0,0.97202718,40.447353,-28.968611)"><circle style="fill:url(#radialGradient4863-0);fill-opacity:1;stroke:#000;stroke-width:.22481768;stroke-linecap:round;stroke-linejoin:round" id="circle36-3" cx="40.691" cy="46.263" r="15.846"/><polygon style="fill:#fff;stroke:none;stroke-linecap:round;stroke-linejoin:round" id="polygon38-7" points="192.322 686.965 242.019 686.965 220.682 665.628 233.376 652.934 277.131 696.688 233.376 740.443 220.682 727.749 242.019 706.412 192.322 706.412" transform="matrix(0.22759061,0,0,0.22759061,-12.730868,-112.24461)"/><path id="path4816-7" d="m 43.164119,34.101073 c 1.152337,1.513548 -4.228787,1.054507 -8.769431,4.511519 -4.540647,3.457011 -5.483176,9.965913 -6.635513,8.452363 -1.152337,-1.513548 -0.185322,-7.322735 4.355324,-10.779747 4.540646,-3.457011 9.897283,-3.697684 11.04962,-2.184135 z" style="opacity:.703;fill:url(#linearGradient4861-2);fill-opacity:1;fill-rule:nonzero;stroke:none;stroke-width:.36279541;stroke-linecap:butt;stroke-linejoin:round;stroke-miterlimit:4;stroke-dasharray:none;stroke-dashoffset:0;stroke-opacity:1;filter:url(#filter4851-8)"/></g><g id="g5154" transform="matrix(0.97242612,0,0,0.97240159,-0.45915108,-37.038209)"><circle style="fill:url(#radialGradient4863-6);fill-opacity:1;stroke:#000;stroke-width:.22481768;stroke-linecap:round;stroke-linejoin:round" id="circle36-1" cx="49.833" cy="54.544" r="15.846"/><polygon style="fill:#fff;stroke:none;stroke-linecap:round;stroke-linejoin:round" id="polygon38-0" points="192.322 686.965 242.019 686.965 220.682 665.628 233.376 652.934 277.131 696.688 233.376 740.443 220.682 727.749 242.019 706.412 192.322 706.412" transform="matrix(-0.22759061,0,0,0.22759061,103.2546,-103.9638)"/><path id="path4816-2" d="m 52.306492,42.381884 c 1.152337,1.513548 -4.228787,1.054507 -8.769431,4.511519 -4.540647,3.457011 -5.483176,9.965913 -6.635513,8.452363 -1.152337,-1.513548 -0.185322,-7.322735 4.355324,-10.779747 4.540646,-3.457011 9.897283,-3.697684 11.04962,-2.184135 z" style="opacity:.703;fill:url(#linearGradient4861-3);fill-opacity:1;fill-rule:nonzero;stroke:none;stroke-width:.36279541;stroke-linecap:butt;stroke-linejoin:round;stroke-miterlimit:4;stroke-dasharray:none;stroke-dashoffset:0;stroke-opacity:1;filter:url(#filter4851-7)"/></g><g id="g5305" transform="matrix(0.96993931,0,0,0.96990524,96.165876,32.284612)"><polygon style="fill:url(#linearGradient5280);fill-opacity:1;stroke:#1a1a1a;stroke-linecap:round;stroke-linejoin:round" id="polygon62" points="426.75 897.885 426.75 803.001 413.412 789.664 407.41 789.664 407.41 852.352 367.397 852.352 327.383 852.352 327.383 789.664 321.381 789.664 308.043 803.001 308.043 897.885 322.593 912.435 367.397 912.435 412.2 912.435" transform="matrix(0.26731915,0,0,0.25854204,-81.887461,-203.82906)"/><path id="polygon66" d="m 8.0761719,21.355469 v 10.71875 h 8.2480471 8.25 v -10.71875 h -8.25 z m 3.0976561,2.136719 h 3.601563 v 6.78125 h -3.601563 z" style="fill:#f2f2f2;stroke:none;stroke-width:.26289397;stroke-linecap:round;stroke-linejoin:round"/><rect style="fill:#f9f9f9;stroke:#000;stroke-width:.26289397;stroke-linecap:round;stroke-linejoin:round" id="rect68" width="15.348" height="2.449" x="8.846" y="4.619"/><rect style="fill:#f9f9f9;stroke:#000;stroke-width:.26289397;stroke-linecap:round;stroke-linejoin:round" id="rect70" width="15.348" height="2.449" x="8.846" y="8.998"/><path id="rect5287" d="M 0.45898438,27.910156 V 28.3125 L 4.3476562,32.074219 H 16.324219 28.300781 L 32.191406,28.3125 v -0.402344 z" style="opacity:.31799999;fill:url(#linearGradient5298);fill-opacity:1;fill-rule:nonzero;stroke:none;stroke-width:.57800001;stroke-linecap:butt;stroke-linejoin:round;stroke-miterlimit:4;stroke-dasharray:none;stroke-dashoffset:0;stroke-opacity:1"/></g><g id="g5329" transform="matrix(0.9875588,0,0,0.96899659,0.19886835,32.492639)"><g id="g5320"><g id="g5312" transform="matrix(0.21710187,0,0,0.22224336,145.69884,0.04845621)"><polygon style="fill:#f2f2f2;stroke:#000;stroke-width:2.70000005;stroke-linecap:round;stroke-linejoin:round;stroke-miterlimit:4;stroke-dasharray:none" id="polygon72" points="-23.51 780.132 -104.643 780.132 -104.643 921.418 6.15 921.418 6.15 813.141" transform="translate(-548.16356,-778.98402)"/><line style="fill:none;stroke:#1a1a1a;stroke-width:2.4000001;stroke-linecap:round;stroke-linejoin:round;stroke-miterlimit:4;stroke-dasharray:none" id="line76" x1="-624.047" x2="-624.047" y1="1.148" y2="142.434"/><polyline style="fill:none;stroke:#1a1a1a;stroke-width:2.4000001;stroke-linecap:round;stroke-linejoin:round;stroke-miterlimit:4;stroke-dasharray:none" id="polyline78" points="-15.345 921.418 -15.345 801.766 -104.643 801.766" transform="translate(-548.16356,-778.98402)"/><line style="fill:none;stroke:#1a1a1a;stroke-width:2.4000001;stroke-linecap:round;stroke-linejoin:round;stroke-miterlimit:4;stroke-dasharray:none" id="line80" x1="-652.807" x2="-542.014" y1="119.832" y2="119.832"/><polygon style="fill:#ececec;stroke:#000;stroke-linecap:round;stroke-linejoin:round" id="polygon74" points="-23.788 813.405 -23.51 780.132 6.15 813.141" transform="translate(-548.16356,-778.98402)"/></g></g></g><g id="g5482" transform="matrix(0.96902846,0,0,0.97700899,58.739556,141.03263)"><path id="polygon82" d="m -23.525254,-110.98067 v 31.517575 H 1.18959 v -24.154295 l -6.615235,-7.36328 z m 1.691406,2.99023 12.517579,0.16602 -12.517579,12.517575 z" style="fill:url(#linearGradient5440);fill-opacity:1;stroke:#000;stroke-width:.22307505;stroke-linecap:round;stroke-linejoin:round;stroke-opacity:1"/><circle id="circle5427" cx="-10.293" cy="-96.048" r="7.048" style="fill:#4d4d4d;stroke:none;stroke-width:.22307505;stroke-linecap:round;stroke-linejoin:round;stroke-opacity:1"/><path id="path5410" d="m -15.843546,-92.054877 c 0.493442,0.710271 1.068529,1.28402 1.779692,1.775677 -2.249488,2.16762 -4.498753,4.335463 -6.748242,6.503083 -0.581334,-0.603417 -1.16289,-1.206612 -1.744224,-1.809807 2.237666,-2.156467 4.475109,-4.31271 6.712774,-6.468953 z" style="fill:gray;fill-opacity:1;stroke:none;stroke-width:.22307505;stroke-linecap:round;stroke-linejoin:round;stroke-opacity:1"/><circle style="fill:teal;stroke:none;stroke-width:.22307505;stroke-linecap:round;stroke-linejoin:round;stroke-opacity:1" id="circle88" cx="-10.587" cy="-96.234" r="7.048"/><circle style="fill:url(#linearGradient5371);fill-opacity:1;stroke:#ececec;stroke-width:.22307505;stroke-linecap:round;stroke-linejoin:round;stroke-opacity:1" id="circle86" cx="-10.587" cy="-96.234" r="5.933"/><path style="fill:url(#linearGradient5360);fill-opacity:1;stroke:none;stroke-width:.22307505;stroke-linecap:round;stroke-linejoin:round;stroke-opacity:1" id="path90" d="m -16.375325,-92.212186 c 0.493442,0.710271 1.068529,1.28402 1.779692,1.775677 -2.249488,2.16762 -4.498754,4.335463 -6.748243,6.503083 -0.581333,-0.603417 -1.16289,-1.206612 -1.744223,-1.809807 2.237665,-2.156467 4.475108,-4.31271 6.712774,-6.468953 z"/><path id="path5362" d="m -6.932732,-92.961372 c -0.970282,1.110132 -2.345231,1.511917 -2.715275,1.18849 -0.370044,-0.323427 0.876874,-0.803883 1.847156,-1.914015 0.970282,-1.110131 1.296502,-2.429554 1.666546,-2.106128 0.370045,0.323426 0.171857,1.72152 -0.798427,2.831653 z" style="opacity:.706;fill:#fff;fill-opacity:1;fill-rule:nonzero;stroke:none;stroke-width:2.70000005;stroke-linecap:butt;stroke-linejoin:round;stroke-miterlimit:4;stroke-dasharray:none;stroke-dashoffset:0;stroke-opacity:1"/><polygon id="polygon5388" points="147.129 813.141 117.191 813.405 117.469 780.132" transform="matrix(0.22307504,0,0,0.22307504,-31.705373,-284.69873)" style="fill:#333;stroke:none;stroke-linecap:round;stroke-linejoin:round;stroke-opacity:1;filter:url(#filter5469)"/><polygon style="fill:#c2e3f6;fill-opacity:1;stroke:none;stroke-linecap:round;stroke-linejoin:round;stroke-opacity:1" id="polygon84" points="117.191 813.405 117.469 780.132 147.129 813.141" transform="matrix(0.22307504,0,0,0.22307504,-31.631218,-285.00885)"/></g><g id="g5556" transform="matrix(1.000032,0,0,1.0000071,57.1393,143.57096)"><g id="g5572" transform="translate(6.8597883,-111.68621)"><path id="path60" d="M 19.46789,10.645472 C 14.909981,11.722347 10.352296,12.799001 5.7946101,13.875876 5.7369433,12.070175 5.60402,11.349974 5.4822294,10.641713 5.3604388,9.9334521 5.2497808,9.2369109 5.0282421,8.4764647 4.806926,7.7160186 4.4747293,6.8914464 3.0352844,4.3624488 7.4270943,3.7393208 11.818904,3.1161927 16.210491,2.4930647 c 2.325155,3.5298058 2.878668,6.0588034 3.257399,8.1524073 z" style="fill:#ececec;stroke:#000;stroke-width:.22188677;stroke-linecap:round;stroke-linejoin:round"/><path id="path50" d="M 5.7578726,28.444202 C 14.068357,26.2449 22.378619,24.045378 30.689326,21.846298 30.936024,20.465377 31.024194,19.208949 31.00616,17.978172 30.987902,16.747395 30.862994,15.541825 30.497177,14.090145 30.13136,12.638465 29.523965,10.940452 25.687004,8.4322399 17.309502,10.411523 8.9319989,12.390584 0.55449625,14.369867 0.406878,17.301974 0.25925975,20.234302 0.1116415,23.166409 c 0.54772382,1.332716 3.0941943,3.641695 5.6462311,5.277793 z" style="fill:#000;stroke:#f9f9f9;stroke-width:.22188677;stroke-linecap:round;stroke-linejoin:round"/><path style="fill:#333;fill-opacity:.99607843;stroke:none;stroke-width:.22188677;stroke-linecap:round;stroke-linejoin:round" id="path5558" d="m 14.361394,25.516626 c 2.496374,-0.627108 7.499586,-1.869384 10.141797,-2.557743 2.642211,-0.68836 2.923643,-0.823025 3.106218,-0.859289 0.182352,-0.03626 0.265623,0.02587 0.875467,0.49178 0.609844,0.465688 1.745814,1.335369 2.412879,1.873586 0.667066,0.538216 0.865226,0.745409 0.943377,0.941989 0.07815,0.1968 0.03652,0.382987 -0.25182,0.551262 -0.288334,0.168276 -0.823366,0.318198 -3.092635,0.945527 -2.269269,0.62733 -6.272551,1.731845 -8.462333,2.314508 -2.189782,0.582662 -2.565841,0.643913 -2.927428,0.629761 -0.36181,-0.01415 -0.709369,-0.103707 -1.05025,-0.276184 -0.341102,-0.172477 -0.675748,-0.428317 -1.26778,-0.926289 -0.592254,-0.498193 -1.441894,-1.238959 -1.944865,-1.671699 -0.50297,-0.43274 -0.659272,-0.557454 -0.753899,-0.635732 -0.09441,-0.07828 -0.127135,-0.110562 -0.150958,-0.131348 -0.0236,-0.02057 -0.03852,-0.02941 -0.05099,-0.04002 -0.01291,-0.01061 -0.02315,-0.023 2.473218,-0.650105 z"/><path id="path52" d="m 0.83904545,15.750788 c -0.0932912,0.922972 -0.2502608,2.695504 -0.29924423,3.77658 -0.0489834,1.081077 0.009797,1.470697 0.23534312,1.977072 0.22554646,0.506595 0.61763656,1.129723 1.24529246,1.821179 0.6276558,0.691455 1.4906548,1.451238 2.1574974,1.957612 0.6668427,0.506375 1.1375289,0.759783 1.4806356,0.905725 0.3433293,0.146163 0.5590791,0.18486 1.6770145,-0.0586 1.1179355,-0.243458 3.1380567,-0.769291 7.1685027,-1.870047 4.030446,-1.100536 10.071216,-2.775551 13.121103,-3.652088 3.049886,-0.876536 3.108666,-0.954372 3.108666,-1.314804 0,-0.360212 -0.05878,-1.003241 -0.156969,-1.938154 C 30.478697,16.42035 30.341543,15.193111 30.086607,14.1996 29.831448,13.20631 29.458951,12.446527 29.017655,11.77453 28.576359,11.102536 28.066486,10.518105 27.64456,10.118975 27.222857,9.719625 26.889547,9.5053557 26.605221,9.3008158 26.320894,9.0962759 26.085551,8.9014655 25.889395,8.8139003 25.693238,8.7263351 25.536491,8.7455729 21.54501,9.680486 17.553751,10.61562 9.7282023,12.465988 5.7128969,13.429647 1.6975914,14.393306 1.492529,14.470036 1.3406803,14.530624 1.188609,14.591213 1.0899742,14.63588 1.0258504,14.69492 0.9619493,14.7544 0.9323366,14.828037 0.83904545,15.750788 Z" style="fill:url(#linearGradient5537);fill-opacity:1;stroke:none;stroke-width:.22188677;stroke-linecap:round;stroke-linejoin:round"/><polygon id="polygon46" points="295.074 867.574 294.311 859.641 281.451 862.928 282.563 871.235" transform="matrix(0.22265196,0,0,0.22112421,-35.897192,-173.22395)" style="fill:#ff0;stroke:none;stroke-linecap:round;stroke-linejoin:round"/><path id="path48" d="M 7.5315181,12.995138 C 12.137074,11.90588 16.74263,10.816622 21.348185,9.7273644 c 1.29205,1.0412736 2.190228,2.2678496 2.719026,3.0784916 0.528576,0.81042 0.687549,1.204905 0.806668,1.701772 0.119119,0.496866 0.198606,1.096555 0.150958,1.585681 -0.04765,0.489127 -0.222429,0.867692 -0.89751,1.238517 -0.675303,0.370825 -1.850906,0.73369 -2.534002,0.930933 -0.683096,0.197243 -0.873686,0.228863 -1.024644,0.189282 -0.150958,-0.03936 -0.262061,-0.149922 -0.484491,-0.212942 -0.222429,-0.06324 -0.555962,-0.07894 -0.865893,-0.0157 -0.309709,0.06302 -0.595817,0.204982 -0.802215,0.386525 -0.206621,0.181322 -0.333756,0.402225 -0.389196,0.528487 -0.05566,0.126262 -0.03985,0.157661 -0.675303,0.331465 -0.635449,0.173582 -1.922155,0.489127 -2.77224,0.662709 -0.850085,0.173583 -1.262882,0.205203 -1.580829,0.157662 C 12.68079,20.242926 12.458361,20.116664 12.267771,19.927382 12.07718,19.7381 11.918207,19.485576 11.767249,19.146371 11.616291,18.807167 11.473348,18.381281 11.282758,17.876234 11.092168,17.371407 10.853931,16.787639 10.377233,16.022328 9.9005349,15.257017 9.1855995,14.310606 7.5315181,12.995138 Z" style="fill:url(#linearGradient5529);fill-opacity:1;stroke:#333;stroke-width:.22188677;stroke-linecap:round;stroke-linejoin:round"/><path id="path54" d="M 5.6164886,26.170824 C 5.7576499,25.364826 5.699983,24.387236 5.4586283,23.201789 5.2172736,22.016342 4.7926763,20.623481 4.2523,19.294303 3.7119237,17.965126 3.0555457,16.700074 0.95616038,14.839756 c -0.0302807,0.126925 -0.0630105,0.376575 -0.11689227,0.911032 -0.0932912,0.922972 -0.25026081,2.695504 -0.29924424,3.77658 -0.0489834,1.081077 0.009797,1.470697 0.23534312,1.977072 0.22554641,0.506595 0.61763651,1.129723 1.24529241,1.821179 0.6276559,0.691455 1.4906549,1.451238 2.1574975,1.957612 0.6668426,0.506375 1.1375289,0.759783 1.4806355,0.905725 0.1605321,0.06833 0.2932327,0.113216 0.5036388,0.116754" style="fill:#b3b3b3;stroke:none;stroke-width:.22188677;stroke-linecap:round;stroke-linejoin:round"/><path id="path56" d="m 12.754042,25.384948 c 4.556795,-1.145202 9.11359,-2.290183 13.670163,-3.435607 0.03317,-1.188321 -0.05833,-1.303748 -0.121123,-1.362346 -0.06301,-0.0586 -0.09774,-0.06015 -2.262589,0.455516 -2.164845,0.515662 -6.459801,1.548533 -8.687434,2.090287 -2.227633,0.541533 -2.388165,0.59195 -2.53801,0.717769 -0.149622,0.12582 -0.289002,0.327043 -0.06101,1.534381 z" style="fill:#1a1a1a;stroke:none;stroke-width:.22188677;stroke-linecap:round;stroke-linejoin:round"/><path id="path58" d="m 14.374503,24.939825 c 2.496374,-0.627108 7.499586,-1.869384 10.141797,-2.557743 2.642211,-0.68836 2.923643,-0.823025 3.106218,-0.859289 0.182352,-0.03626 0.265623,0.02587 0.875467,0.49178 0.609844,0.465688 1.745814,1.335369 2.412879,1.873586 0.667066,0.538216 0.865226,0.745409 0.943377,0.941989 0.07815,0.1968 0.03652,0.382987 -0.25182,0.551262 -0.288334,0.168276 -0.823366,0.318198 -3.092635,0.945527 -2.269269,0.62733 -6.272551,1.731845 -8.462333,2.314508 -2.189782,0.582662 -2.565841,0.643913 -2.927428,0.629761 -0.36181,-0.01415 -0.709369,-0.103707 -1.05025,-0.276184 -0.341102,-0.172477 -0.675748,-0.428317 -1.26778,-0.926289 -0.592254,-0.498193 -1.441894,-1.238959 -1.944865,-1.671699 -0.50297,-0.43274 -0.659272,-0.557454 -0.753899,-0.635732 -0.09441,-0.07828 -0.127135,-0.110562 -0.150958,-0.131348 -0.0236,-0.02057 -0.03852,-0.02941 -0.05099,-0.04002 -0.01291,-0.01061 -0.02315,-0.023 2.473218,-0.650105 z" style="fill:#d6d9d4;fill-opacity:.99607843;stroke:#ccc;stroke-width:.22188677;stroke-linecap:round;stroke-linejoin:round"/><path style="fill:none;stroke:#000;stroke-width:.40000001;stroke-linecap:butt;stroke-linejoin:miter;stroke-miterlimit:4;stroke-dasharray:none;stroke-opacity:1" id="path5539" d="M 5.6631356,6.2012711 16.517479,4.4184321"/><path style="fill:none;stroke:#000;stroke-width:.40000001;stroke-linecap:butt;stroke-linejoin:miter;stroke-miterlimit:4;stroke-dasharray:none;stroke-opacity:1" id="path5541" d="M 6.7118644,8.5084745 16.989407,6.5158897"/><path style="fill:none;stroke:#000;stroke-width:.40000001;stroke-linecap:butt;stroke-linejoin:miter;stroke-miterlimit:4;stroke-dasharray:none;stroke-opacity:1" id="path5543" d="M 7.498411,10.763241 12.427436,9.7669491"/></g></g></g></svg>