<svg xmlns="http://www.w3.org/2000/svg" xmlns:xlink="http://www.w3.org/1999/xlink" width="32" height="32" viewBox="0 0 8.467 8.467"><linearGradient id="a" x1="255.37" x2="270.981" y1="1181.841" y2="1202.358" gradientTransform="matrix(.25334471 0 0 .27009199 -278.4976 -128.90878)" gradientUnits="userSpaceOnUse"><stop offset="0" stop-color="green"/><stop offset=".269" stop-color="#00ab00"/><stop offset=".576" stop-color="#00d400"/><stop offset=".813" stop-color="#00a100"/><stop offset="1" stop-color="green"/></linearGradient><linearGradient id="b" x1="-213.249" x2="-203.788" y1="196.408" y2="194.757" gradientUnits="userSpaceOnUse"><stop offset="0" stop-color="teal"/><stop offset="1" stop-color="#00d6d6"/></linearGradient><g stroke-linecap="round" stroke-linejoin="round"><path fill="url(#a)" stroke="#005400" stroke-width=".566" d="m-214.93555 187.67004v5.63244 5.4867h1.69532l5.14648-5.4867-5.2832-5.63244z" transform="matrix(.4776551 0 0 .47651805 104.26273 -88.264129)"/><path fill="url(#b)" stroke="#005a5a" stroke-width=".342" d="m-207.22748 192.15032v1.83681h-2.97849a.68452992.68452992 0 0 0 -.0816.003c-1.68381.20057-2.96109 1.63951-2.96109 3.33543 0 1.69576 1.27716 3.13505 2.96109 3.3354a.68452992.68452992 0 0 0 .0816.003h3.96373a.68452992.68452992 0 1 0 0-1.36892h-3.8942c-.99979-.12519-1.74325-.96144-1.74325-1.9705 0-1.0093.74334-1.84506 1.74325-1.97051h2.90896v2.0066h.83285l2.60684-2.60549-2.60684-2.60684z" transform="matrix(.4776551 0 0 .47651805 104.26273 -88.264129)"/></g></svg>