<svg xmlns="http://www.w3.org/2000/svg" xmlns:xlink="http://www.w3.org/1999/xlink" width="32" height="32" viewBox="0 0 8.467 8.467"><linearGradient id="a" x1="-30.99" x2="-23.066" y1="-177.287" y2="-177.287" gradientUnits="userSpaceOnUse"><stop offset="0" stop-color="#d1a06b"/><stop offset="1" stop-color="#ab7335"/></linearGradient><linearGradient id="b" x1="-111.466" x2="-100.253" y1="145.149" y2="147.18" gradientUnits="userSpaceOnUse"><stop offset="0" stop-color="#00e3e3"/><stop offset="1" stop-color="#004040"/></linearGradient><filter id="c" width="1.044" height="1.084" x="-.022" y="-.042" color-interpolation-filters="sRGB"><feGaussianBlur stdDeviation=".105"/></filter><linearGradient id="d" x1="512.798" x2="509" y1="773.786" y2="737.075" gradientUnits="userSpaceOnUse"><stop offset="0" stop-color="#999"/><stop offset=".469" stop-color="#c2c2c2"/><stop offset=".7" stop-color="#e9e9e9"/><stop offset="1" stop-color="#f2f2f2"/></linearGradient><g transform="matrix(.44086619 0 0 .44091326 49.845129 -58.336828)"><path fill="gray" stroke="#4d4d4d" stroke-width=".4" d="m-106.65858 138.45229 6.56728 6.56729"/><path fill="url(#a)" d="m-30.891392-181.32431h7.727062v8.074046h-7.727062z" transform="matrix(-.70710678 -.70710678 .70710678 -.70710678 0 0)"/><path fill="none" stroke="#fff" stroke-linecap="round" stroke-linejoin="round" stroke-width=".197" d="m-105.01642 139.99409-4.19387 4.19388"/><path fill="none" stroke="#fff" stroke-linecap="round" stroke-linejoin="round" stroke-width=".197" d="m-103.3747 141.63603-3.15073 3.15073"/><path fill="url(#b)" d="m-111.8357 144.59342c1.08026 1.08026 2.16052 2.16052 3.24078 3.24078-.78067.78068-1.56114 1.56115-2.34162 2.34182h10.585c-1.05519-.99119-2.11037-1.98219-3.16555-2.97338-1.89155-2.61258-5.27373-3.67349-8.31861-2.60922z" filter="url(#c)"/><path fill="#4d4d4d" stroke="#4d4d4d" stroke-linecap="round" stroke-linejoin="round" d="m515.344 763.984-16.627-16.627 10.283-10.282h12.032l5.305 5.305 19.635-19.635 5.305 5.306 5.306 5.305-19.635 19.634 5.305 5.306v12.032l-10.282 10.283z" transform="matrix(.19748859 0 0 .19748859 -204.84918 -9.142506)"/><path fill="url(#d)" stroke="#000" stroke-linecap="round" stroke-linejoin="round" d="m509 737.075h12.032l5.305 5.305 19.635-19.635 5.305 5.306 5.306 5.305-19.635 19.634 5.305 5.306v12.032l-10.282 10.283-16.627-16.627-16.627-16.627z" transform="matrix(.19748859 0 0 .19748859 -205.14926 -9.242098)"/><circle cx="-104.906" cy="137.937" r=".75" fill="#e6e6e6"/><path fill="#b3b3b3" stroke="#e6e6e6" d="m-104.65624 138.18749 5.03125 5.15625"/></g></svg>