<svg xmlns="http://www.w3.org/2000/svg" xmlns:xlink="http://www.w3.org/1999/xlink" width="32" height="32" viewBox="0 0 8.467 8.467"><filter id="a" width="1.181" height="1.324" x="-.09" y="-.162" color-interpolation-filters="sRGB"><feGaussianBlur stdDeviation="1.362"/></filter><linearGradient id="b" x1="-334.624" x2="-349.446" y1="444.535" y2="456.426" gradientUnits="userSpaceOnUse"><stop offset="0" stop-color="#2929ff"/><stop offset=".24" stop-color="#8c8cef"/><stop offset="1" stop-color="#0000d1"/></linearGradient><filter id="c" width="1.16" height="1.839" x="-.08" y="-.42" color-interpolation-filters="sRGB"><feGaussianBlur stdDeviation="2.359"/></filter><filter id="d" width="1.16" height="1.839" x="-.08" y="-.42" color-interpolation-filters="sRGB"><feGaussianBlur stdDeviation="2.359"/></filter><g stroke="#fff" stroke-linecap="round" stroke-linejoin="round"><path fill="#fff" stroke-width="2.929" d="m-339.281 457.347 18.077-20.153h-18.077-18.078z" filter="url(#a)" transform="matrix(.09535854 0 0 -.09671533 36.586722 45.871007)"/><path fill="url(#b)" d="m-339.281 457.347 18.077-20.153h-18.077-18.078z" transform="matrix(.09535854 0 0 -.09671533 36.586721 45.871007)"/><path fill="#fff" stroke-width="2.929" d="m-339.281 437.194h-18.078l18.078 20.153 18.077-20.153z" filter="url(#a)" transform="matrix(.09535854 0 0 .09671533 36.586722 -37.351717)"/><path fill="url(#b)" d="m-339.281 437.194h-18.078l18.078 20.153 18.077-20.153z" transform="matrix(.09535854 0 0 .09671533 36.586722 -37.351717)"/><path fill="#fff" stroke-width="2.881" d="m-367.705 461.626v-6.315h-6.603v13.492h35.31 35.31v-13.492h-6.603v6.315h-28.707z" filter="url(#c)" transform="matrix(.0857391847 0 0 .08657218076 33.29874552341 -32.60559668152)"/></g><path d="m-367.705 461.626v-6.315h-6.603v13.492h35.31 35.31v-13.492h-6.603v6.315h-28.707z" transform="matrix(.0857391847 0 0 .08657218076 33.29874552341 -32.60559668152)"/><path d="m-367.705 389.431v6.316h-6.603v-13.493h35.31 35.31v13.493h-6.603v-6.316h-28.707z" transform="matrix(.0857391847 0 0 .08657218076 33.29874552341 -32.60559668152)" style="fill:#fff;stroke:#fff;stroke-width:2.88101;stroke-linecap:round;stroke-linejoin:round;filter:url(#d)"/><path d="m-367.705 389.431v6.316h-6.603v-13.493h35.31 35.31v13.493h-6.603v-6.316h-28.707z" transform="matrix(.0857391847 0 0 .08657218076 33.29874552341 -32.60559668152)"/></svg>