<svg xmlns="http://www.w3.org/2000/svg" xmlns:xlink="http://www.w3.org/1999/xlink" width="32" height="32" viewBox="0 0 8.467 8.467"><linearGradient id="a" x1="-12.8" x2="-21.195" y1="761.085" y2="729.361" gradientUnits="userSpaceOnUse" xlink:href="#b"/><linearGradient id="b"><stop offset="0" stop-color="#ffd43b"/><stop offset=".659" stop-color="#ffdd3e"/><stop offset="1" stop-color="#ffed92"/></linearGradient><linearGradient id="c" x1="19.696" x2="27.832" y1="18.704" y2="18.704" gradientUnits="userSpaceOnUse" xlink:href="#b"/><linearGradient id="d" x1="19.696" x2="27.832" y1="26.483" y2="26.483" gradientUnits="userSpaceOnUse" xlink:href="#b"/><g stroke-linecap="round" stroke-linejoin="round" transform="matrix(.29795295 0 0 .29587476 -.241099 -.265259)"><path fill="url(#a)" stroke="#000" stroke-width="2.209" d="m-36.093 764.082v-32.678l5.041-5.04h12.2l5.214 5.214h32.354v32.504z" transform="matrix(.33097322 0 0 .33097322 14.713871 -239.18857)"/><path stroke="#fff" stroke-width=".378" d="m11.330446 15.38866a.85008502.85008502 0 0 0 -.592779 1.459l1.568891 1.569534-1.685895 1.686544a.85008502.85008502 0 1 0 1.201717 1.201717l2.287723-2.287078a.85008502.85008502 0 0 0 0-1.201717l-2.170072-2.170718a.85008502.85008502 0 0 0 -.609585-.257282z"/><path fill="url(#c)" stroke="#000" stroke-width=".8" d="m20.296061 16.566679h6.935875v4.275512h-6.935875z"/><circle cx="16.781" cy="18.657" r="1.425" fill="#1a1a1a" stroke="#fff" stroke-width=".331"/><path stroke="#fff" stroke-width=".378" d="m11.330446 23.166834a.85008502.85008502 0 0 0 -.592779 1.459l1.568891 1.569534-1.685895 1.686544a.85008502.85008502 0 1 0 1.201717 1.201717l2.287723-2.287078a.85008502.85008502 0 0 0 0-1.201717l-2.170072-2.170718a.85008502.85008502 0 0 0 -.609585-.257282z"/><path fill="url(#d)" stroke="#000" stroke-width=".8" d="m20.296061 24.344852h6.935875v4.275512h-6.935875z"/><circle cx="16.781" cy="26.435" r="1.425" fill="#1a1a1a" stroke="#fff" stroke-width=".331"/></g></svg>