<svg xmlns="http://www.w3.org/2000/svg" xmlns:xlink="http://www.w3.org/1999/xlink" width="32" height="32" viewBox="0 0 8.467 8.467"><linearGradient id="a" x1="258.618" x2="285.338" y1="176.501" y2="176.501" gradientTransform="matrix(.29155404 0 0 .29155403 -74.431436 -46.88153)" gradientUnits="userSpaceOnUse"><stop offset="0" stop-color="#2929ff"/><stop offset=".24" stop-color="#6464e9"/><stop offset=".887" stop-color="#1515f0"/><stop offset="1" stop-color="#0000d1"/></linearGradient><linearGradient id="b" x1="-463.485" x2="-383.701" y1="358.203" y2="305.703" gradientUnits="userSpaceOnUse"><stop offset="0" stop-color="#d40000"/><stop offset=".491" stop-color="red"/><stop offset="1" stop-color="#d40000"/></linearGradient><g stroke="#fff"><path fill="url(#a)" stroke-width=".132" d="m4.9726994 3.5821938h-1.1410596l-.329378 1.3096697h1.1489019zm-.588175-2.231144-.4078014 1.6272843h1.1449808l.4117225-1.6272843h.6273867l-.4038802 1.6272843h1.2234041v.6038597h-1.3763296l-.3215357 1.3096697h1.2469311v.5999386h-1.3998566l-.4078014 1.6233631h-.6273867l.4038802-1.6233631h-1.1489019l-.4038802 1.6233631h-.6313079l.4078014-1.6233631h-1.2351676v-.5999386h1.3802507l.3293781-1.3096697h-1.2626158v-.6038597h1.4155413l.399959-1.6272843z" transform="matrix(.72481182298 0 0 .72488923702 -.855881 1.1648)"/><path fill="url(#a)" stroke-width=".132" d="m4.9726994 3.5821938h-1.1410596l-.329378 1.3096697h1.1489019zm-.588175-2.231144-.4078014 1.6272843h1.1449808l.4117225-1.6272843h.6273867l-.4038802 1.6272843h1.2234041v.6038597h-1.3763296l-.3215357 1.3096697h1.2469311v.5999386h-1.3998566l-.4078014 1.6233631h-.6273867l.4038802-1.6233631h-1.1489019l-.4038802 1.6233631h-.6313079l.4078014-1.6233631h-1.2351676v-.5999386h1.3802507l.3293781-1.3096697h-1.2626158v-.6038597h1.4155413l.399959-1.6272843z" transform="matrix(.72481182298 0 0 .72488923702 3.18547891413 1.1648)"/><path fill="url(#b)" stroke-linecap="round" stroke-linejoin="round" stroke-width="1.712" d="m-462.916 303.269h7.758l32.071 32.486 31.096-23.846 2.858 4.491-26.791 26.61 38.223 38.718-9.799.408-35.276-32.321-26.786 26.605-8.574.409-.408-13.883 27.273-20.914-34.214-31.348z" transform="matrix(.0435455 0 0 .04372385 20.516114 -9.85197)"/></g></svg>