<svg xmlns="http://www.w3.org/2000/svg" xmlns:xlink="http://www.w3.org/1999/xlink" width="32" height="32" viewBox="0 0 8.467 8.467"><linearGradient id="a" x1="-1229.079" x2="-1161.802" y1="-490.614" y2="-490.614" gradientUnits="userSpaceOnUse"><stop offset="0" stop-color="#fff"/><stop offset="1" stop-color="#fff" stop-opacity="0"/></linearGradient><linearGradient id="b" x1="-475.344" x2="-537.257" y1="290.646" y2="214.889" gradientTransform="matrix(.38971342 0 0 .38486404 212.46174 -82.510564)" gradientUnits="userSpaceOnUse"><stop offset="0" stop-color="#99d3f4"/><stop offset="1" stop-color="#fff"/></linearGradient><filter id="c" width="1.048" height="1.048" x="-.024" y="-.024" color-interpolation-filters="sRGB"><feGaussianBlur stdDeviation=".184"/></filter><g fill="url(#a)" transform="matrix(.20067865082 0 0 .19721840824 92.28731283533 114.56386003614)"><path fill="url(#b)" stroke="#000" stroke-linecap="round" stroke-linejoin="round" stroke-width=".387" d="m3.0859375.19335938v31.61328162h25.8281245v-24.5488285l-7.154296-7.06445312zm2.5527344 3.30859372h13.1718751v3.5214844h-4.498047v4.6953125h-8.6738281z" transform="matrix(.94938038 0 0 .96136525 -459.34294 -580.22749)"/><path fill="#4d4d4d" d="m-489.339 214.889 18.359 18.358h-18.359z" filter="url(#c)" transform="matrix(.36998629 0 0 .36999491 -257.68572 -659.29823)"/><path fill="#60a1e3" d="m-470.98 233.247h-18.359v-18.358z" transform="matrix(.36998629 0 0 .36999491 -257.63594 -659.55028)"/><g fill="url(#a)" transform="matrix(.36998634 0 0 .36998634 8.887509 -372.49984)"><path fill="url(#b)" stroke="#000" stroke-linecap="round" stroke-linejoin="round" stroke-width=".387" d="m3.0859375.19335938v31.61328162h25.8281245v-24.5488285l-7.154296-7.06445312zm2.5527344 3.30859372h13.1718751v3.5214844h-4.498047v4.6953125h-8.6738281z" transform="matrix(2.5659876 0 0 2.5983805 -1236.4963 -532.18932)"/><path fill="#4d4d4d" d="m-470.98 233.247h-18.359v-18.358z" filter="url(#c)" transform="matrix(.99999983 0 0 1.0000232 -691.45668 -745.9019)"/><path fill="#60a1e3" d="m-489.339 233.247v-18.358l18.359 18.358z" transform="matrix(.99999983 0 0 1.0000232 -691.32212 -746.58316)"/><g fill="none" stroke="#000" stroke-width="2.582"><path d="m-1221.1575-490.18859h52.2059"/><path d="m-1221.1575-483.3761h52.2059"/><path d="m-1221.1575-476.29111h52.2059"/></g></g></g></svg>