<svg xmlns="http://www.w3.org/2000/svg" xmlns:xlink="http://www.w3.org/1999/xlink" width="32" height="32" viewBox="0 0 8.467 8.467"><radialGradient id="a" cx="223.784" cy="-29.007" r="7.048" gradientTransform="matrix(1 0 0 1.0082356 0 .238893)" gradientUnits="userSpaceOnUse"><stop offset="0" stop-color="teal"/><stop offset=".917" stop-color="teal"/><stop offset="1" stop-color="#00474d"/></radialGradient><linearGradient id="b" x1="12.292" x2="20.921" y1="11.785" y2="19.336" gradientTransform="matrix(.99993573 0 0 1.0081708 207.12622 -44.219435)" gradientUnits="userSpaceOnUse"><stop offset="0" stop-color="#dbf0fa"/><stop offset="1" stop-color="#f8fcfe" stop-opacity=".713"/></linearGradient><linearGradient id="c" x1="8.975" x2="6.581" y1="24.508" y2="21.695" gradientTransform="matrix(.99993573 0 0 1.0081708 207.12622 -44.219435)" gradientUnits="userSpaceOnUse"><stop offset="0" stop-color="#ffbe00"/><stop offset="1" stop-color="#ffcc9a"/></linearGradient><linearGradient id="d" x1="74.107" x2="61.135" y1="-51.731" y2="-63.044" gradientUnits="userSpaceOnUse"><stop offset="0" stop-color="#f9f9f9"/><stop offset="1" stop-color="#f9f9f9" stop-opacity="0"/></linearGradient><linearGradient id="e" x1="205.809" x2="221.378" y1="31.138" y2="31.138" gradientUnits="userSpaceOnUse"><stop offset="0" stop-color="green"/><stop offset=".269" stop-color="#00ab00"/><stop offset=".576" stop-color="#00d400"/><stop offset=".813" stop-color="#00a100"/><stop offset="1" stop-color="green"/></linearGradient><linearGradient id="f" x1="195.622" x2="211.191" y1="26.862" y2="26.862" gradientUnits="userSpaceOnUse"><stop offset="0" stop-color="#007500"/><stop offset=".343" stop-color="#00d200"/><stop offset=".898" stop-color="#00d200"/><stop offset="1" stop-color="#007500"/></linearGradient><g><g transform="matrix(.25228350763 0 0 .25231044938 -11.67736136506 18.25149451024) matrix(1.6127511 0 0 1.6272486 -293.28326 -12.794183)"><ellipse cx="224.078" cy="-28.821" fill="#4d4d4d" rx="7.048" ry="7.106"/><path fill="gray" d="m218.5279-24.79441c.49341.716074 1.06846 1.294511 1.77958 1.790186-2.24934 2.185331-4.49846 4.370887-6.74781 6.556218-.5813-.608347-1.16281-1.216471-1.74411-1.824594 2.23752-2.174088 4.47482-4.347949 6.71234-6.52181z"/><ellipse cx="223.784" cy="-29.007" fill="url(#a)" rx="7.048" ry="7.106"/><ellipse cx="223.784" cy="-29.007" fill="url(#b)" stroke="#ececec" stroke-linecap="round" stroke-linejoin="round" stroke-width=".224" rx="5.933" ry="5.982"/><path fill="url(#c)" d="m217.99616-24.953004c.49341.716074 1.06846 1.294511 1.77958 1.790185-2.24935 2.185332-4.49847 4.370888-6.74781 6.556219-.5813-.608348-1.16282-1.216471-1.74412-1.824595 2.23753-2.174087 4.47483-4.347948 6.71235-6.521809z"/></g><path fill="url(#d)" d="m71.672499-63.751082c-2.57037.271876-4.877126 1.38434-6.611009 3.049204-1.462075 1.403875-2.510283 3.2012-2.975046 5.209055.956792 2.601845 3.534 4.469177 6.571239 4.469177 3.851574 0 6.972709-2.998031 6.972709-6.69629 0-2.659714-1.6182-4.9505-3.957893-6.031146z" transform="matrix(.25228350763 0 0 .25231044938 -11.67736136506 18.25149451024)"/></g><g stroke="#000" stroke-linecap="round" stroke-linejoin="round" stroke-width=".301"><path fill="url(#e)" d="m212.67514 31.512075c-1.4248 0-2.8496 0-4.2747 0 2.13781-2.137801 4.27561-4.275601 6.41341-6.413704 2.1378 2.137801 4.2756 4.275603 6.4134 6.413704-.96121 0-1.92212 0-2.88333 0-1.29919 5.659435-8.36656 7.609271-12.38401 3.416205 2.81134 1.742292 6.46823-.118382 6.71523-3.416205z" transform="matrix(.25228350763 0 0 .25231044938 -49.25590923849 -1.44518162538)"/><path fill="url(#f)" d="m204.32486 26.487927h4.2747c-2.13781 2.137801-4.27561 4.275602-6.41341 6.413705-2.1378-2.137802-4.2756-4.275603-6.4134-6.413705h2.88333c1.29919-5.659434 8.36686-7.609271 12.38401-3.416205-2.81134-1.741989-6.46853.118382-6.71523 3.416205z" transform="matrix(.25228350763 0 0 .25231044938 -49.25590923849 -1.44518162538)"/></g></svg>