<svg xmlns="http://www.w3.org/2000/svg" xmlns:xlink="http://www.w3.org/1999/xlink" width="32" height="32" viewBox="0 0 8.467 8.467"><radialGradient id="a" cx="223.784" cy="-29.007" r="7.048" gradientTransform="matrix(1 0 0 1.0082356 0 .238893)" gradientUnits="userSpaceOnUse"><stop offset="0" stop-color="teal"/><stop offset=".917" stop-color="teal"/><stop offset="1" stop-color="#00474d"/></radialGradient><linearGradient id="b" x1="12.292" x2="20.921" y1="11.785" y2="19.336" gradientTransform="matrix(.99993573 0 0 1.0081708 207.12622 -44.219435)" gradientUnits="userSpaceOnUse"><stop offset="0" stop-color="#dbf0fa"/><stop offset="1" stop-color="#f8fcfe" stop-opacity=".713"/></linearGradient><linearGradient id="c" x1="8.975" x2="6.581" y1="24.508" y2="21.695" gradientTransform="matrix(.99993573 0 0 1.0081708 207.12622 -44.219435)" gradientUnits="userSpaceOnUse"><stop offset="0" stop-color="#ffbe00"/><stop offset="1" stop-color="#ffcc9a"/></linearGradient><linearGradient id="d" x1="74.107" x2="61.135" y1="-51.731" y2="-63.044" gradientUnits="userSpaceOnUse"><stop offset="0" stop-color="#f9f9f9"/><stop offset="1" stop-color="#f9f9f9" stop-opacity="0"/></linearGradient><linearGradient id="e" x1="-230.495" x2="-230.896" y1="379.659" y2="345.156" gradientUnits="userSpaceOnUse"><stop offset="0" stop-color="green"/><stop offset="1" stop-color="#0f0"/></linearGradient><g><g transform="matrix(.2645547206 0 0 .26458297281 -12.55661604126 18.93334542647) matrix(1.6127511 0 0 1.6272486 -293.28326 -12.794183)"><ellipse cx="224.078" cy="-28.821" fill="#4d4d4d" rx="7.048" ry="7.106"/><path fill="gray" d="m218.5279-24.79441c.49341.716074 1.06846 1.294511 1.77958 1.790186-2.24934 2.185331-4.49846 4.370887-6.74781 6.556218-.5813-.608347-1.16281-1.216471-1.74411-1.824594 2.23752-2.174088 4.47482-4.347949 6.71234-6.52181z"/><ellipse cx="223.784" cy="-29.007" fill="url(#a)" rx="7.048" ry="7.106"/><ellipse cx="223.784" cy="-29.007" fill="url(#b)" stroke="#ececec" stroke-linecap="round" stroke-linejoin="round" stroke-width=".224" rx="5.933" ry="5.982"/><path fill="url(#c)" d="m217.99616-24.953004c.49341.716074 1.06846 1.294511 1.77958 1.790185-2.24935 2.185332-4.49847 4.370888-6.74781 6.556219-.5813-.608348-1.16282-1.216471-1.74412-1.824595 2.23753-2.174087 4.47483-4.347948 6.71235-6.521809z"/></g><path fill="url(#d)" d="m71.672499-63.751082c-2.57037.271876-4.877126 1.38434-6.611009 3.049204-1.462075 1.403875-2.510283 3.2012-2.975046 5.209055.956792 2.601845 3.534 4.469177 6.571239 4.469177 3.851574 0 6.972709-2.998031 6.972709-6.69629 0-2.659714-1.6182-4.9505-3.957893-6.031146z" transform="matrix(.2645547206 0 0 .26458297281 -12.55661604126 18.93334542647)"/></g><path fill="url(#e)" stroke="#fff" stroke-linecap="round" stroke-linejoin="round" stroke-width="1" d="m-225.047 361.998h-15.27v9.047h15.27v11.787l16.311-16.311-16.311-16.311z" transform="matrix(-.09232068298 0 0 .09233054136 -13.76616296769 -26.92656830827)"/></svg>