<svg xmlns="http://www.w3.org/2000/svg" xmlns:xlink="http://www.w3.org/1999/xlink" width="14" height="11" viewBox="0 0 3.704 2.91"><linearGradient id="a" x1="7.692" x2="17.729" y1="4.532" y2="20.796" gradientUnits="userSpaceOnUse"><stop offset="0" stop-color="#fff"/><stop offset="1" stop-color="#e6e6e6" stop-opacity="0"/></linearGradient><filter id="b" width="1.13" height="1.139" x="-.065" y="-.07" color-interpolation-filters="sRGB"><feGaussianBlur stdDeviation=".72"/></filter><g transform="matrix(.7110408 0 0 .7110408 -.362865 3.58083)"><circle cx="3.156" cy="-2.947" r="1.423" fill="#e6e6e6" stroke="#333" stroke-linecap="round" stroke-linejoin="round" stroke-width=".073"/><path fill="url(#a)" d="m16 2.0351562a13.96443 13.96443 0 0 0 -13.9648438 13.9648438 13.96443 13.96443 0 0 0 5.1640626 10.828125 21.927635 21.927635 0 0 1 21.2304692-16.630859 21.927635 21.927635 0 0 1 .259765.013672 13.96443 13.96443 0 0 0 -12.689453-8.1757818z" filter="url(#b)" transform="matrix(.09806577 0 0 .09806577 1.584643 -4.521673)"/></g></svg>