<svg xmlns="http://www.w3.org/2000/svg" xmlns:svg="http://www.w3.org/2000/svg" xmlns:xlink="http://www.w3.org/1999/xlink" id="svg8" width="32" height="32" version="1.1" viewBox="0 0 8.467 8.467"><defs id="defs2"><linearGradient id="linearGradient8532"><stop style="stop-color:#2929ff;stop-opacity:1" id="stop8526" offset="0"/><stop id="stop8528" offset=".24" style="stop-color:#6464e9;stop-opacity:1"/><stop style="stop-color:#1515f0;stop-opacity:1" id="stop8534" offset=".887"/><stop style="stop-color:#0000d1;stop-opacity:1" id="stop8530" offset="1"/></linearGradient><linearGradient id="linearGradient6517" x1="258.618" x2="285.338" y1="176.501" y2="176.501" gradientTransform="matrix(1.1019365,0,0,1.1019365,-27.739221,-18.502129)" gradientUnits="userSpaceOnUse" xlink:href="#linearGradient8532"/><linearGradient id="linearGradient6052" x1="12.798" x2="15.667" y1="25.484" y2="16.91" gradientUnits="userSpaceOnUse" xlink:href="#linearGradient5999"/><linearGradient id="linearGradient5999"><stop style="stop-color:#e6e6e6;stop-opacity:1" id="stop5995" offset="0"/><stop id="stop6001" offset=".219" style="stop-color:#f9f9f9;stop-opacity:1"/><stop style="stop-color:#ccc;stop-opacity:1" id="stop5997" offset="1"/></linearGradient><linearGradient id="linearGradient6044" x1="13.354" x2="18.014" y1="13.689" y2="13.689" gradientUnits="userSpaceOnUse" xlink:href="#linearGradient5999"/><linearGradient id="linearGradient6060" x1="-88.593" x2="-71.067" y1="785.078" y2="785.078" gradientUnits="userSpaceOnUse" xlink:href="#linearGradient5977"/><linearGradient id="linearGradient5977"><stop style="stop-color:#00f;stop-opacity:1" id="stop5973" offset="0"/><stop id="stop5981" offset=".107" style="stop-color:#9decff;stop-opacity:1"/><stop style="stop-color:#0e0edb;stop-opacity:1" id="stop5975" offset="1"/></linearGradient><linearGradient id="linearGradient6036" x1="14.764" x2="14.911" y1="8.413" y2=".37" gradientUnits="userSpaceOnUse" xlink:href="#linearGradient6007"/><linearGradient id="linearGradient6007"><stop style="stop-color:#666;stop-opacity:1" id="stop6003" offset="0"/><stop id="stop6011" offset=".27" style="stop-color:gray;stop-opacity:1"/><stop style="stop-color:#b3b3b3;stop-opacity:1" id="stop6013" offset=".383"/><stop style="stop-color:#f9f9f9;stop-opacity:1" id="stop6005" offset="1"/></linearGradient></defs><metadata id="metadata5"/><g id="layer1"><g id="g6069" transform="matrix(0.25488858,0,0,0.2549158,0.1550924,0.15466202)"><path style="fill:#333;fill-opacity:1;stroke:#000;stroke-width:.401874;stroke-linecap:round;stroke-linejoin:round" id="path6062" d="m 3.4412197,26.930656 c -1.188262,-0.901167 -1.7382121,-2.417079 -1.4050304,-3.87263 1.4050304,0 2.8104673,0 4.2154977,0 0,-1.349357 0,-2.6991 0,-4.048456 -1.5222568,0 -3.0445137,0 -4.5667502,0 0,-2.464156 1.9321124,-3.696418 5.7963576,-3.696418 1.2878039,1.291012 2.5760146,2.581618 3.8642246,3.87263 6.32344,0 12.646473,0 18.969912,0 0,1.291013 0,2.581638 0,3.872651 -6.206213,0 -12.412426,0 -18.618659,0 -1.287804,1.291013 -2.5760146,2.581618 -3.8642251,3.87263 -1.4636538,-4.07e-4 -2.9276938,-4.07e-4 -4.3913272,-4.07e-4 z"/><path id="path6200" d="m 3.4410376,26.430702 c -1.188262,-0.901167 -1.7382121,-2.417079 -1.4050304,-3.87263 1.4050304,0 2.8104673,0 4.2154977,0 0,-1.349357 0,-2.6991 0,-4.048456 -1.5222568,0 -3.0445137,0 -4.5667502,0 0,-2.464156 1.9321124,-3.696418 5.7963576,-3.696418 1.2878039,1.291012 2.5760147,2.581618 3.8642247,3.87263 6.32344,0 12.646473,0 18.969912,0 0,1.291013 0,2.581638 0,3.872651 -6.206213,0 -12.412426,0 -18.618659,0 -1.287804,1.291013 -2.5760147,2.581618 -3.8642252,3.87263 -1.4636538,-4.07e-4 -2.9276938,-4.07e-4 -4.3913272,-4.07e-4 z" style="fill:url(#linearGradient6052);fill-opacity:1;stroke:#000;stroke-width:.401874;stroke-linecap:round;stroke-linejoin:round"/><rect id="rect6250" width="4.258" height="10.275" x="13.555" y="8.552" style="fill:url(#linearGradient6044);fill-opacity:1;stroke:#000;stroke-width:.401874;stroke-linecap:round;stroke-linejoin:round"/><polygon id="polygon6252" points="-88.093 768.461 -85.509 768.461 -74.902 768.461 -71.567 768.461 -71.567 801.696 -88.093 801.696" transform="matrix(0.40143729,0,0,0.4023105,47.881351,-290.73198)" style="fill:url(#linearGradient6060);fill-opacity:1;stroke:#000;stroke-linecap:round;stroke-linejoin:round"/><path id="path6248" d="m 5.7729843,7.6399844 c 0.88799,0 1.7763661,0 2.6643357,0 0.2617522,-0.554365 0.5234842,-1.1087503 0.7852161,-1.6631357 0.6740064,-0.016297 1.3484399,-0.033816 2.0228529,-0.050725 0.590096,0.9124522 1.179826,1.8244766 1.769922,2.7365214 1.786814,0 3.573608,0 5.360402,0 0.522671,-0.523808 1.044936,-1.047616 1.567607,-1.5710166 0,-0.3355361 0,-0.6710519 0,-1.0065881 3.363649,-0.1517664 4.596854,0.6207755 7.140772,2.9380753 C 27.007052,6.2423482 23.715219,1.9798717 20.853791,1.248867 20.584417,0.97931353 20.315448,0.70937305 20.0465,0.43981963 c -2.521436,0 -5.043258,0 -7.564694,0 -0.555195,0.55640211 -1.109962,1.11278387 -1.665157,1.66877857 -0.507425,0 -1.0148309,0 -1.5226631,0 C 9.1354344,1.4725442 8.9768626,0.83689757 8.8182908,0.201251 7.8030531,0.23303027 6.788222,0.26480954 5.7733909,0.29658881 5.7729843,2.7446318 5.7729843,5.1922877 5.7729843,7.6399436 Z" style="fill:url(#linearGradient6036);fill-opacity:1;stroke:#000;stroke-width:.402;stroke-linecap:round;stroke-linejoin:round;stroke-miterlimit:4;stroke-dasharray:none"/></g></g></svg>