<svg xmlns="http://www.w3.org/2000/svg" xmlns:svg="http://www.w3.org/2000/svg" xmlns:xlink="http://www.w3.org/1999/xlink" id="svg8" width="32" height="32" version="1.1" viewBox="0 0 8.467 8.467"><defs id="defs2"><linearGradient id="linearGradient8677" x1=".243" x2="10.647" y1="23.752" y2="23.752" gradientUnits="userSpaceOnUse" xlink:href="#linearGradient6578"/><linearGradient id="linearGradient6578"><stop style="stop-color:#2929ff;stop-opacity:1" id="stop6574" offset="0"/><stop id="stop6582" offset=".24" style="stop-color:#8c8cef;stop-opacity:1"/><stop style="stop-color:#0000d1;stop-opacity:1" id="stop6576" offset="1"/></linearGradient><linearGradient id="linearGradient8679" x1="-.404" x2="31.712" y1="16.106" y2="16.106" gradientUnits="userSpaceOnUse" xlink:href="#linearGradient6578"/></defs><metadata id="metadata5"/><g id="layer1"><g id="g5705" transform="matrix(0.26455472,0,0,0.26458298,0.0920373,-0.1708726)" style="stroke:#fff;stroke-width:1.2;stroke-miterlimit:4;stroke-dasharray:none"><ellipse id="circle5617" cx="5.445" cy="23.752" rx="4.417" ry="4.456" style="fill:url(#linearGradient8677);fill-opacity:1;stroke:#fff;stroke-width:1.57088;stroke-linecap:round;stroke-linejoin:round;stroke-miterlimit:4;stroke-dasharray:none;stroke-opacity:1"/><path id="path5619" d="m 12.59835,17.854255 c 1.767854,0 3.535709,0 5.303168,0 -0.679186,-4.513258 -4.515955,-7.820166 -8.9834651,-7.742638 -4.4675,0.07712 -8.19267311,3.514326 -8.7225154,8.04869 0.14536816,-7.30832 5.9418499,-13.1785174 13.0943005,-13.2613223 7.15246,-0.0828 13.076826,5.6522273 13.384245,12.9552703 1.479502,0 2.959003,0 4.43811,0 -3.085712,3.153476 -6.171413,6.30695 -9.256729,9.460428 -3.085701,-3.153478 -6.171414,-6.306952 -9.257114,-9.460428 z" style="fill:url(#linearGradient8679);fill-opacity:1;stroke:#fff;stroke-width:1.2;stroke-linecap:round;stroke-linejoin:round;stroke-miterlimit:4;stroke-dasharray:none;stroke-opacity:1"/></g></g></svg>