<svg xmlns="http://www.w3.org/2000/svg" xmlns:svg="http://www.w3.org/2000/svg" xmlns:xlink="http://www.w3.org/1999/xlink" id="svg8" width="32" height="32" version="1.1" viewBox="0 0 8.467 8.467"><defs id="defs2"><linearGradient id="linearGradient6386" x1="10.502" x2="6.317" y1="5.387" y2="15.473" gradientUnits="userSpaceOnUse" xlink:href="#linearGradient5488"/><linearGradient id="linearGradient5488"><stop style="stop-color:#f2f2f2;stop-opacity:1" id="stop5484" offset="0"/><stop id="stop5496" offset=".424" style="stop-color:#ececec;stop-opacity:1"/><stop id="stop5492" offset=".579" style="stop-color:#fff;stop-opacity:1"/><stop style="stop-color:#f2f2f2;stop-opacity:1" id="stop5494" offset=".733"/><stop style="stop-color:#f9f9f9;stop-opacity:1" id="stop5486" offset="1"/></linearGradient><linearGradient id="linearGradient8847" x1="5.347" x2="14.843" y1="25.234" y2="25.234" gradientUnits="userSpaceOnUse" xlink:href="#linearGradient6578"/><linearGradient id="linearGradient6578"><stop style="stop-color:#2929ff;stop-opacity:1" id="stop6574" offset="0"/><stop id="stop6582" offset=".24" style="stop-color:#8c8cef;stop-opacity:1"/><stop style="stop-color:#0000d1;stop-opacity:1" id="stop6576" offset="1"/></linearGradient><linearGradient id="linearGradient8515" x1="5.451" x2="14.738" y1="25.234" y2="25.234" gradientUnits="userSpaceOnUse" xlink:href="#linearGradient8541"/><linearGradient id="linearGradient8541"><stop id="stop8531" offset="0" style="stop-color:#000;stop-opacity:1"/><stop style="stop-color:#4e4e4e;stop-opacity:1" id="stop8533" offset=".412"/><stop style="stop-color:#918773;stop-opacity:1" id="stop8535" offset=".56"/><stop id="stop8537" offset=".696" style="stop-color:#948563;stop-opacity:1"/><stop id="stop8539" offset="1" style="stop-color:#000;stop-opacity:1"/></linearGradient><linearGradient id="linearGradient8849" x1="17.249" x2="26.745" y1="25.286" y2="25.286" gradientUnits="userSpaceOnUse" xlink:href="#linearGradient6578"/><linearGradient id="linearGradient8517" x1="17.354" x2="26.641" y1="25.287" y2="25.287" gradientUnits="userSpaceOnUse" xlink:href="#linearGradient8541"/></defs><metadata id="metadata5"/><g id="layer1"><g id="g6413" transform="matrix(0.25296724,0,0,0.25299426,0.1742126,0.20974701)" style="stroke-width:.3;stroke-miterlimit:4;stroke-dasharray:none"><path style="fill:url(#linearGradient6386);fill-opacity:1;stroke:#000;stroke-width:1;stroke-linecap:round;stroke-linejoin:round;stroke-miterlimit:4;stroke-dasharray:none" id="path104" d="M 18.150056,21.690552 C 18.446011,20.988398 18.74238,20.286244 19.038749,19.58409 15.12419,13.125271 11.210044,6.6664518 7.2954846,0.20763283 7.0463687,6.2019562 8.8788834,10.21593 10.498344,13.133595 c 1.61946,2.917665 3.025867,4.738604 4.061293,5.508185 1.035427,0.769581 1.699874,0.487387 3.590419,3.048772 z"/><path style="fill:#f2f2f2;fill-opacity:1;stroke:#000;stroke-width:1;stroke-linecap:round;stroke-linejoin:round;stroke-miterlimit:4;stroke-dasharray:none" id="path106" d="M 13.849595,21.690552 C 13.553226,20.988398 13.257271,20.286244 12.960902,19.58409 16.875462,13.125271 20.789607,6.6664518 24.704167,0.20763283 24.953283,6.2019562 23.121182,10.21593 21.501722,13.133595 c -1.619461,2.917665 -3.025867,4.738604 -4.061294,5.508185 -1.035841,0.769581 -1.700288,0.487387 -3.590833,3.048772 z"/><path id="path110" d="m 12.513672,18.675781 c -0.424192,0.0086 -0.90215,0.199819 -1.56836,0.464844 -0.888277,0.35295 -2.1106237,0.836087 -2.9433589,1.189453 -0.8327351,0.353366 -1.2763109,0.574565 -1.5722656,1.541016 -0.2959546,0.96645 -0.4457727,2.676561 -0.59375,3.921875 -0.1479773,1.244898 -0.2964105,2.026085 0.3261719,2.929687 0.6225825,0.904019 2.0154054,1.931932 2.8261718,2.511719 0.810352,0.579787 1.0392638,0.712039 1.8359378,0.382813 0.796673,-0.329226 2.162413,-1.120451 2.86914,-1.607422 0.706728,-0.486971 0.754847,-0.670244 0.779297,-2.285157 0.02446,-1.615329 0.02469,-4.662217 -0.234375,-6.464843 -0.259064,-1.802625 -0.777673,-2.360442 -1.314453,-2.527344 -0.134195,-0.04183 -0.268759,-0.05951 -0.410156,-0.05664 z m -0.779288,2.636454 c 0.08485,-0.0017 0.165239,0.0076 0.245721,0.03242 0.321581,0.09881 0.632545,0.430599 0.787946,1.501276 0.155403,1.070677 0.155481,2.880033 0.14088,3.839117 -0.0146,0.959083 -0.04273,1.067809 -0.46687,1.356985 -0.424139,0.289176 -1.243661,0.759367 -1.721687,0.954916 -0.478026,0.195549 -0.6161,0.117136 -1.1024692,-0.226973 C 9.131188,28.425525 8.2958097,27.814979 7.9224283,27.27843 7.5490469,26.741883 7.6384897,26.278182 7.7274894,25.538831 c 0.088652,-0.739351 0.177825,-1.754254 0.3554767,-2.328114 0.1776516,-0.573861 0.4439895,-0.706291 0.9435696,-0.916005 0.4995801,-0.209713 1.2326133,-0.497497 1.7659163,-0.706865 0.399717,-0.157285 0.687367,-0.270397 0.941932,-0.275612 z" style="fill:url(#linearGradient8847);fill-opacity:1;stroke:url(#linearGradient8515);stroke-width:.509308;stroke-linecap:round;stroke-linejoin:round;stroke-miterlimit:4;stroke-dasharray:none"/><ellipse style="fill:#1a1a1a;stroke:#000;stroke-width:.3;stroke-linecap:round;stroke-linejoin:round;stroke-miterlimit:4;stroke-dasharray:none" id="circle98" cx="16.016" cy="17.369" rx=".764" ry=".767"/><path style="fill:url(#linearGradient8849);fill-opacity:1;stroke:url(#linearGradient8517);stroke-width:.509308;stroke-linecap:round;stroke-linejoin:round;stroke-miterlimit:4;stroke-dasharray:none" id="path6424" d="m 19.578395,18.728217 c 0.424192,0.0086 0.90215,0.199819 1.56836,0.464844 0.888277,0.35295 2.110623,0.836087 2.943359,1.189453 0.832735,0.353366 1.27631,0.574565 1.572265,1.541016 0.295955,0.96645 0.445773,2.676561 0.59375,3.921875 0.147977,1.244898 0.296411,2.026085 -0.326172,2.929687 -0.622582,0.904019 -2.015405,1.931932 -2.826172,2.511719 -0.810352,0.579787 -1.039263,0.712039 -1.835937,0.382813 -0.796673,-0.329226 -2.162413,-1.120451 -2.86914,-1.607422 -0.706728,-0.486971 -0.754847,-0.670244 -0.779297,-2.285157 -0.02446,-1.615329 -0.02469,-4.662217 0.234375,-6.464843 0.259064,-1.802625 0.777673,-2.360442 1.314453,-2.527344 0.134195,-0.04183 0.268759,-0.05951 0.410156,-0.05664 z m 0.779288,2.636454 c -0.08485,-0.0017 -0.165239,0.0076 -0.245721,0.03242 -0.321581,0.09881 -0.632545,0.430599 -0.787946,1.501276 -0.155403,1.070677 -0.155481,2.880033 -0.14088,3.839117 0.0146,0.959083 0.04273,1.067809 0.46687,1.356985 0.424139,0.289176 1.243661,0.759367 1.721687,0.954916 0.478026,0.195549 0.6161,0.117136 1.102469,-0.226973 0.486717,-0.344451 1.322095,-0.954997 1.695476,-1.491546 0.373382,-0.536547 0.283939,-1.000248 0.194939,-1.739599 -0.08865,-0.739351 -0.177825,-1.754254 -0.355476,-2.328114 -0.177652,-0.573861 -0.44399,-0.706291 -0.94357,-0.916005 -0.49958,-0.209713 -1.232613,-0.497497 -1.765916,-0.706865 -0.399717,-0.157285 -0.687367,-0.270397 -0.941932,-0.275612 z"/></g></g></svg>