<svg xmlns="http://www.w3.org/2000/svg" xmlns:svg="http://www.w3.org/2000/svg" xmlns:xlink="http://www.w3.org/1999/xlink" id="svg8" width="32" height="32" version="1.1" viewBox="0 0 8.467 8.467"><defs id="defs2"><linearGradient id="linearGradient5615" x1="7.007" x2="31.75" y1=".25" y2="25.215" gradientTransform="matrix(0.26455472,0,0,0.26458297,4.5777027e-4,5.2658723e-6)" gradientUnits="userSpaceOnUse" xlink:href="#linearGradient5623"/><linearGradient id="linearGradient5623"><stop style="stop-color:#ff5959;stop-opacity:1" id="stop5617" offset="0"/><stop id="stop5619" offset=".497" style="stop-color:red;stop-opacity:1"/><stop style="stop-color:#cf0000;stop-opacity:1" id="stop5621" offset="1"/></linearGradient></defs><metadata id="metadata5"/><g id="layer1"><path style="fill:url(#linearGradient5615);fill-opacity:1;stroke:#fff;stroke-width:.132349;stroke-linecap:round;stroke-linejoin:round" id="path5645" d="M 0.14093104,1.794936 C 0.71206235,1.2186735 1.283199,0.64241361 1.8542007,0.0661511 c 0.6566381,0.66251671 1.3134082,1.3252953 1.970049,1.9880765 0.2768063,-0.0508 0.5410965,-0.0508 0.8179001,0 C 5.2987904,1.3914464 5.9555608,0.72866781 6.6121987,0.0661511 7.1833328,0.64241361 7.7544669,1.2186735 8.3254684,1.794936 7.6949182,2.4312589 7.0642303,3.0678438 6.4336772,3.7041667 6.5281446,4.0507709 6.5414489,4.376473 6.4758393,4.7296917 7.1171941,5.3771245 7.7586838,6.0242953 8.4000412,6.6714662 7.8289071,7.2479906 7.2579056,7.8239885 6.6867689,8.4005156 6.066494,7.7745114 5.4460839,7.1485073 4.8256767,6.5225058 c -0.4069752,0.109802 -0.7777167,0.109802 -1.1846893,0 C 3.0205776,7.1482427 2.4003025,7.7742469 1.7798926,8.4005156 1.2087613,7.8239885 0.63762725,7.2479906 0.06662555,6.6714662 0.70798025,6.0242953 1.3494673,5.3771245 1.9908247,4.7296917 1.9250828,4.376473 1.9385222,4.0507709 2.0329841,3.7041667 1.4021693,3.0675792 0.77161625,2.4312589 0.14093104,1.794936 Z"/></g></svg>