<svg xmlns="http://www.w3.org/2000/svg" xmlns:svg="http://www.w3.org/2000/svg" xmlns:xlink="http://www.w3.org/1999/xlink" id="svg8" width="32" height="32" version="1.1" viewBox="0 0 8.467 8.467"><defs id="defs2"><linearGradient id="linearGradient7228" x1="14.495" x2="14.323" y1="6.87" y2="2.274" gradientUnits="userSpaceOnUse" xlink:href="#linearGradient5666"/><linearGradient id="linearGradient5666"><stop style="stop-color:#82ade0;stop-opacity:1" id="stop5662" offset="0"/><stop style="stop-color:#f1effb;stop-opacity:1" id="stop5664" offset="1"/></linearGradient></defs><metadata id="metadata5"/><g id="layer1"><g id="g6200" transform="matrix(0.26458333,0,0,0.26458333,-101.58277,-33.78506)"><g id="g7226" transform="matrix(0.99989187,0,0,0.99999865,383.9366,128.35062)"><path id="path7210" d="m 3.5316486,27.487468 c 8.3122364,0 16.6244624,0 24.9366894,0 1.843589,0 3.33871,-1.487611 3.33871,-3.322407 0,-5.882857 0,-11.765328 0,-17.6481853 0,-1.8347963 -1.494735,-3.322407 -3.33871,-3.322407 -8.312227,0 -16.624453,0 -24.9366894,0 -1.8435791,0 -3.33870047,1.4876107 -3.33870047,3.322407 0,5.8828573 0,11.7653283 0,17.6481853 3.8641e-4,1.834796 1.49512137,3.322407 3.33870047,3.322407 z" style="fill:teal;stroke:#000;stroke-width:.387115;stroke-linecap:round;stroke-linejoin:round"/><path id="path7212" d="m 0.19333454,8.4246623 c 10.53802946,0 21.07567346,0 31.61371346,0 0,-0.6356714 0,-1.271729 0,-1.9077866 0,-1.8347963 -1.494735,-3.322407 -3.33871,-3.322407 -8.312227,0 -16.624453,0 -24.9366894,0 -1.8435791,0 -3.33870047,1.4876107 -3.33870047,3.322407 3.8641e-4,0.6360576 3.8641e-4,1.2721152 3.8641e-4,1.9077866 z" style="fill:url(#linearGradient7228);fill-opacity:1;stroke:#000;stroke-width:.387115;stroke-linecap:round;stroke-linejoin:round"/><rect id="rect7214" width="29.293" height="17.656" x="1.426" y="8.762" style="fill:#fff;stroke:#000;stroke-width:.387115;stroke-linecap:round;stroke-linejoin:round"/></g><g id="g7208" transform="matrix(0.51515029,0,0,0.5152053,502.9667,144.5116)"><line style="fill:none;stroke:#000;stroke-width:2.6727;stroke-linecap:round;stroke-linejoin:round;stroke-miterlimit:4;stroke-dasharray:none" id="line5977" x1="-216.789" x2="-188.02" y1=".969" y2=".969"/><line style="fill:none;stroke:#000;stroke-width:2.31628;stroke-linecap:round;stroke-linejoin:round;stroke-miterlimit:4;stroke-dasharray:none" id="line5979" x1="-183.309" x2="-173.984" y1="1.129" y2="1.129"/><line style="fill:none;stroke:#000;stroke-width:2.31628;stroke-linecap:round;stroke-linejoin:round;stroke-miterlimit:4;stroke-dasharray:none" id="line5981" x1="-183.309" x2="-173.984" y1="-6.781" y2="-6.781"/><line style="fill:none;stroke:#000;stroke-width:2.6727;stroke-linecap:round;stroke-linejoin:round;stroke-miterlimit:4;stroke-dasharray:none" id="line5983" x1="-216.789" x2="-188.02" y1="-6.755" y2="-6.755"/><line style="fill:none;stroke:#000;stroke-width:2.68852;stroke-linecap:round;stroke-linejoin:round;stroke-miterlimit:4;stroke-dasharray:none" id="line5985" x1="-216.474" x2="-174.455" y1="9.529" y2="9.529"/><path style="fill:green;fill-opacity:1;stroke:none;stroke-width:1.292;stroke-linecap:round;stroke-linejoin:round;stroke-miterlimit:4;stroke-dasharray:none" id="path5987" d="m -222.88311,2.0178864 c 1.70364,0 3.08456,-1.38092476 3.08456,-3.0845613 0,-2.3416191 0,-4.6836298 0,-7.0256406 0,-1.7036365 -1.38092,-3.0841695 -3.08456,-3.0841695 -1.70364,0 -3.08417,1.3809246 -3.08417,3.0841695 0,2.3420108 0,4.6840215 0,7.0256406 -3.9e-4,1.70363654 1.38053,3.0845613 3.08417,3.0845613 z"/><path style="fill:green;fill-opacity:1;stroke:none;stroke-width:1.292;stroke-linecap:round;stroke-linejoin:round;stroke-miterlimit:4;stroke-dasharray:none" id="path5989" d="m -222.88507,12.842832 c 1.45651,0 2.63731,-1.180796 2.63731,-2.636916 0,-0.2314594 0,-0.462919 0,-0.693987 0,-1.4565113 -1.1808,-2.6373077 -2.63731,-2.6373077 -1.45651,0 -2.63691,1.1807964 -2.63691,2.6373077 0,0.2314596 0,0.4629192 0,0.693987 0,1.45612 1.1804,2.636916 2.63691,2.636916 z"/></g></g></g></svg>