<svg xmlns="http://www.w3.org/2000/svg" xmlns:svg="http://www.w3.org/2000/svg" xmlns:xlink="http://www.w3.org/1999/xlink" id="svg8" width="32" height="32" version="1.1" viewBox="0 0 8.467 8.467"><defs id="defs2"><filter style="color-interpolation-filters:sRGB" id="filter10964" width="1.16" height="1.839" x="-.08" y="-.42"><feGaussianBlur id="feGaussianBlur10966" stdDeviation="2.359"/></filter><filter style="color-interpolation-filters:sRGB" id="filter10968" width="1.16" height="1.839" x="-.08" y="-.42"><feGaussianBlur id="feGaussianBlur10970" stdDeviation="2.359"/></filter><filter style="color-interpolation-filters:sRGB" id="filter10948" width="1.181" height="1.324" x="-.09" y="-.162"><feGaussianBlur id="feGaussianBlur10950" stdDeviation="1.362"/></filter><linearGradient id="linearGradient11350" x1="-334.624" x2="-349.446" y1="444.535" y2="456.426" gradientUnits="userSpaceOnUse" xlink:href="#linearGradient6578"/><linearGradient id="linearGradient6578"><stop style="stop-color:#2929ff;stop-opacity:1" id="stop6574" offset="0"/><stop id="stop6582" offset=".24" style="stop-color:#8c8cef;stop-opacity:1"/><stop style="stop-color:#0000d1;stop-opacity:1" id="stop6576" offset="1"/></linearGradient><linearGradient id="linearGradient4316" x1="-334.624" x2="-349.446" y1="444.535" y2="456.426" gradientUnits="userSpaceOnUse" xlink:href="#linearGradient6578"/></defs><metadata id="metadata5"/><g id="layer1"><g id="g5027" transform="matrix(0.26458333,0,0,0.26458333,-25.391005,-17.315913)"><g id="g11344" transform="matrix(0.99989187,0,0,0.99999865,22.724135,1.254601)"><polygon id="polygon11336" points="-374.308 468.803 -338.998 468.803 -303.688 468.803 -303.688 455.311 -310.291 455.311 -310.291 461.626 -338.998 461.626 -367.705 461.626 -367.705 455.311 -374.308 455.311" transform="matrix(0.32408866,0,0,0.32720238,199.11693,-74.735093)" style="fill:#fff;stroke:#fff;stroke-width:2.88101;stroke-linecap:round;stroke-linejoin:round;stroke-miterlimit:4;stroke-dasharray:none;filter:url(#filter10964)"/><polygon style="fill:#000;stroke:none;stroke-width:1.37747;stroke-linecap:round;stroke-linejoin:round;stroke-miterlimit:4;stroke-dasharray:none" id="polygon11338" points="-374.308 468.803 -338.998 468.803 -303.688 468.803 -303.688 455.311 -310.291 455.311 -310.291 461.626 -338.998 461.626 -367.705 461.626 -367.705 455.311 -374.308 455.311" transform="matrix(0.32408866,0,0,0.32720238,199.11693,-74.735093)"/><polygon id="polygon11340" points="-303.688 395.747 -310.291 395.747 -310.291 389.431 -338.998 389.431 -367.705 389.431 -367.705 395.747 -374.308 395.747 -374.308 382.254 -338.998 382.254 -303.688 382.254" transform="matrix(0.32408866,0,0,0.32720238,199.11693,-43.888759)" style="fill:#fff;stroke:#fff;stroke-width:2.88101;stroke-linecap:round;stroke-linejoin:round;stroke-miterlimit:4;stroke-dasharray:none;filter:url(#filter10968)"/><polygon style="fill:#000;stroke:none;stroke-width:1.37747;stroke-linecap:round;stroke-linejoin:round;stroke-miterlimit:4;stroke-dasharray:none" id="polygon11342" points="-303.688 395.747 -310.291 395.747 -310.291 389.431 -338.998 389.431 -367.705 389.431 -367.705 395.747 -374.308 395.747 -374.308 382.254 -338.998 382.254 -303.688 382.254" transform="matrix(0.32408866,0,0,0.32720238,199.11693,-43.888759)"/></g><g id="g11354" transform="matrix(0.99989187,0,0,0.99999865,0.03634279,5.6349031e-4)"><polygon style="fill:#fff;fill-opacity:1;stroke:#fff;stroke-width:2.9285;stroke-linecap:round;stroke-linejoin:round;stroke-miterlimit:4;stroke-dasharray:none;filter:url(#filter10948)" id="polygon11346" points="-357.359 437.194 -339.281 457.347 -321.204 437.194 -339.281 437.194" transform="matrix(0.36044919,0,0,-0.36553877,234.23551,235.12773)"/><polygon id="polygon11348" points="-357.359 437.194 -339.281 457.347 -321.204 437.194 -339.281 437.194" transform="matrix(0.36044919,0,0,-0.36553877,234.23551,235.12773)" style="fill:url(#linearGradient4316);fill-opacity:1;stroke:#fff;stroke-linecap:round;stroke-linejoin:round"/></g><g id="g11360" transform="matrix(0.99989187,0,0,-0.99999865,0.03634279,162.89138)"><polygon id="polygon11356" points="-357.359 437.194 -339.281 457.347 -321.204 437.194 -339.281 437.194" transform="matrix(0.36044919,0,0,-0.36553877,234.23551,235.12773)" style="fill:#fff;fill-opacity:1;stroke:#fff;stroke-width:2.9285;stroke-linecap:round;stroke-linejoin:round;stroke-miterlimit:4;stroke-dasharray:none;filter:url(#filter10948)"/><polygon style="fill:url(#linearGradient11350);fill-opacity:1;stroke:#fff;stroke-linecap:round;stroke-linejoin:round" id="polygon11358" points="-357.359 437.194 -339.281 457.347 -321.204 437.194 -339.281 437.194" transform="matrix(0.36044919,0,0,-0.36553877,234.23551,235.12773)"/></g></g></g></svg>