<svg xmlns="http://www.w3.org/2000/svg" xmlns:svg="http://www.w3.org/2000/svg" xmlns:xlink="http://www.w3.org/1999/xlink" id="svg8" width="32" height="32" version="1.1" viewBox="0 0 8.467 8.467"><defs id="defs2"><linearGradient id="linearGradient8532"><stop style="stop-color:#2929ff;stop-opacity:1" id="stop8526" offset="0"/><stop id="stop8528" offset=".24" style="stop-color:#6464e9;stop-opacity:1"/><stop style="stop-color:#1515f0;stop-opacity:1" id="stop8534" offset=".887"/><stop style="stop-color:#0000d1;stop-opacity:1" id="stop8530" offset="1"/></linearGradient><linearGradient id="linearGradient6517" x1="258.618" x2="285.338" y1="176.501" y2="176.501" gradientTransform="matrix(1.1019365,0,0,1.1019365,-27.739221,-18.502129)" gradientUnits="userSpaceOnUse" xlink:href="#linearGradient8532"/><linearGradient id="linearGradient6303"><stop style="stop-color:#ffd43b;stop-opacity:1" id="stop6299" offset="0"/><stop id="stop6305" offset=".659" style="stop-color:#ffdd3e;stop-opacity:1"/><stop style="stop-color:#ffed92;stop-opacity:1" id="stop6301" offset="1"/></linearGradient><linearGradient id="linearGradient6610" x1="14.495" x2="14.323" y1="6.87" y2="2.274" gradientTransform="translate(1.935e-6,-0.14997127)" gradientUnits="userSpaceOnUse" xlink:href="#linearGradient5666"/><linearGradient id="linearGradient5666"><stop style="stop-color:#82ade0;stop-opacity:1" id="stop5662" offset="0"/><stop style="stop-color:#f1effb;stop-opacity:1" id="stop5664" offset="1"/></linearGradient><radialGradient id="radialGradient6626" cx="223.784" cy="-29.007" r="7.048" fx="223.784" fy="-29.007" gradientTransform="matrix(1.1065117,0,0,1.1256532,149.09222,92.008437)" gradientUnits="userSpaceOnUse" xlink:href="#linearGradient5672"/><linearGradient id="linearGradient5672"><stop style="stop-color:teal;stop-opacity:1" id="stop5668" offset="0"/><stop id="stop5676" offset=".917" style="stop-color:teal;stop-opacity:1"/><stop style="stop-color:#00474d;stop-opacity:1" id="stop5670" offset="1"/></linearGradient><linearGradient id="linearGradient6628" x1="12.292" x2="20.921" y1="11.785" y2="19.336" gradientTransform="matrix(1.1064406,0,0,1.1255808,378.27981,42.372558)" gradientUnits="userSpaceOnUse" xlink:href="#linearGradient5369-7"/><linearGradient id="linearGradient5369-7"><stop id="stop5365-5" offset="0" style="stop-color:#dbf0fa;stop-opacity:1"/><stop id="stop5367" offset="1" style="stop-color:#f8fcfe;stop-opacity:.71276593"/></linearGradient><linearGradient id="linearGradient6630" x1="8.975" x2="6.581" y1="24.508" y2="21.695" gradientTransform="matrix(1.1064406,0,0,1.1255808,378.27981,42.372558)" gradientUnits="userSpaceOnUse" xlink:href="#linearGradient5534"/><linearGradient id="linearGradient5534"><stop style="stop-color:#ffbe00;stop-opacity:1" id="stop5529" offset="0"/><stop style="stop-color:#ffcc9a;stop-opacity:1" id="stop5532" offset="1"/></linearGradient><linearGradient id="linearGradient6632" x1="73.93" x2="60.958" y1="-73.12" y2="-84.434" gradientTransform="matrix(0.68610202,0,0,0.68610202,350.43574,115.19554)" gradientUnits="userSpaceOnUse" xlink:href="#linearGradient5696"/><linearGradient id="linearGradient5696"><stop style="stop-color:#f9f9f9;stop-opacity:1" id="stop5692" offset="0"/><stop style="stop-color:#f9f9f9;stop-opacity:0" id="stop5694" offset="1"/></linearGradient></defs><metadata id="metadata5"/><g id="layer1"><g id="g7030" transform="matrix(0.26455472,0,0,0.26458298,-109.07232,-11.584788)"><path style="fill:teal;stroke:#000;stroke-width:.387115;stroke-linecap:round;stroke-linejoin:round" id="path6602" d="m 3.5316505,27.337497 c 8.3122365,0 16.6244625,0 24.9366895,0 1.843589,0 3.33871,-1.487611 3.33871,-3.322407 0,-5.882857 0,-11.765328 0,-17.6481856 0,-1.8347963 -1.494735,-3.322407 -3.33871,-3.322407 -8.312227,0 -16.624453,0 -24.9366895,0 -1.8435791,0 -3.33870043,1.4876107 -3.33870043,3.322407 0,5.8828576 0,11.7653286 0,17.6481856 3.8641e-4,1.834796 1.49512133,3.322407 3.33870043,3.322407 z" transform="translate(412.28815,42.859845)"/><path style="fill:url(#linearGradient6610);fill-opacity:1;stroke:#000;stroke-width:.387115;stroke-linecap:round;stroke-linejoin:round" id="path6604" d="m 0.19333648,8.274691 c 10.53802952,0 21.07567352,0 31.61371352,0 0,-0.6356714 0,-1.271729 0,-1.9077866 0,-1.8347963 -1.494735,-3.322407 -3.33871,-3.322407 -8.312227,0 -16.624453,0 -24.9366895,0 -1.8435791,0 -3.33870043,1.4876107 -3.33870043,3.322407 3.8641e-4,0.6360576 3.8641e-4,1.2721152 3.8641e-4,1.9077866 z" transform="translate(412.28815,42.859845)"/><rect style="fill:#fff;stroke:#000;stroke-width:.387115;stroke-linecap:round;stroke-linejoin:round" id="rect6606" width="29.293" height="17.656" x="1.426" y="8.612" transform="translate(412.28815,42.859845)"/><g id="g6624" transform="translate(29.72618,0.4812198)"><path id="path6612" d="m 397.03762,51.63165 a 7.7982556,7.9331561 0 0 0 -7.7988,7.932287 7.7982556,7.9331561 0 0 0 7.7988,7.934167 7.7982556,7.9331561 0 0 0 7.79879,-7.934167 7.7982556,7.9331561 0 0 0 -7.79879,-7.932287 z m -0.32527,1.045354 a 6.564899,6.6784643 0 0 1 6.56355,6.678237 6.564899,6.6784643 0 0 1 -6.56355,6.680118 6.564899,6.6784643 0 0 1 -6.56543,-6.680118 6.564899,6.6784643 0 0 1 6.56543,-6.678237 z" style="fill:#4d4d4d;stroke:none;stroke-width:.248945;stroke-linecap:round;stroke-linejoin:round;stroke-opacity:1"/><path style="fill:gray;fill-opacity:1;stroke:none;stroke-width:.248945;stroke-linecap:round;stroke-linejoin:round;stroke-opacity:1" id="path6614" d="m 390.89591,64.059792 c 0.54596,0.799467 1.18226,1.445268 1.96912,1.998669 -2.48892,2.439832 -4.9776,4.879914 -7.46653,7.319745 -0.64321,-0.679194 -1.28666,-1.358139 -1.92988,-2.037084 2.47584,-2.427279 4.95144,-4.854304 7.42729,-7.28133 z"/><path id="path6616" d="m 396.71235,51.422955 a 7.7982556,7.9331561 0 0 0 -7.79879,7.932286 7.7982556,7.9331561 0 0 0 7.79879,7.934168 7.7982556,7.9331561 0 0 0 7.79692,-7.934168 7.7982556,7.9331561 0 0 0 -7.79692,-7.932286 z m 0,1.254049 a 6.564899,6.6784643 0 0 1 6.56355,6.678237 6.564899,6.6784643 0 0 1 -6.56355,6.680118 6.564899,6.6784643 0 0 1 -6.56543,-6.680118 6.564899,6.6784643 0 0 1 6.56543,-6.678237 z" style="fill:url(#radialGradient6626);fill-opacity:1;stroke:none;stroke-width:.248945;stroke-linecap:round;stroke-linejoin:round;stroke-opacity:1"/><ellipse id="ellipse6618" cx="396.711" cy="59.356" rx="6.565" ry="6.678" style="opacity:.696;fill:url(#linearGradient6628);fill-opacity:1;stroke:#ececec;stroke-width:.248945;stroke-linecap:round;stroke-linejoin:round;stroke-opacity:1"/><path id="path6620" d="m 390.30753,63.882729 c 0.54596,0.799466 1.18226,1.445268 1.96913,1.998667 -2.48894,2.439833 -4.97761,4.879915 -7.46654,7.319746 -0.64321,-0.679195 -1.28667,-1.358139 -1.92988,-2.037084 2.47585,-2.427278 4.95145,-4.854304 7.42729,-7.281329 z" style="fill:url(#linearGradient6630);fill-opacity:1;stroke:none;stroke-width:.248945;stroke-linecap:round;stroke-linejoin:round;stroke-opacity:1"/><path style="opacity:1;fill:url(#linearGradient6632);fill-opacity:1;fill-rule:nonzero;stroke:none;stroke-width:.602987;stroke-linecap:butt;stroke-linejoin:round;stroke-miterlimit:4;stroke-dasharray:none;stroke-dashoffset:0;stroke-opacity:1" id="path6622" d="m 399.4891,56.780091 c -1.76354,0.186534 -3.34621,0.949798 -4.53583,2.092065 -1.00313,0.963201 -1.72231,2.19635 -2.04118,3.573943 0.65645,1.785131 2.42468,3.066312 4.50854,3.066312 2.64257,0 4.78399,-2.056956 4.78399,-4.594339 0,-1.824835 -1.11025,-3.396548 -2.71552,-4.137981 z"/></g></g></g></svg>