<svg xmlns="http://www.w3.org/2000/svg" xmlns:svg="http://www.w3.org/2000/svg" xmlns:xlink="http://www.w3.org/1999/xlink" id="svg8" width="32" height="32" version="1.1" viewBox="0 0 8.467 8.467"><defs id="defs2"><linearGradient id="linearGradient8532"><stop style="stop-color:#2929ff;stop-opacity:1" id="stop8526" offset="0"/><stop id="stop8528" offset=".24" style="stop-color:#6464e9;stop-opacity:1"/><stop style="stop-color:#1515f0;stop-opacity:1" id="stop8534" offset=".887"/><stop style="stop-color:#0000d1;stop-opacity:1" id="stop8530" offset="1"/></linearGradient><linearGradient id="linearGradient6517" x1="258.618" x2="285.338" y1="176.501" y2="176.501" gradientTransform="matrix(1.1019365,0,0,1.1019365,-27.739221,-18.502129)" gradientUnits="userSpaceOnUse" xlink:href="#linearGradient8532"/><linearGradient id="linearGradient6009" x1="12.408" x2="12.256" y1="11.5" y2="1.335" gradientUnits="userSpaceOnUse" xlink:href="#linearGradient6007"/><linearGradient id="linearGradient6007"><stop style="stop-color:#666;stop-opacity:1" id="stop6003" offset="0"/><stop id="stop6011" offset=".27" style="stop-color:gray;stop-opacity:1"/><stop style="stop-color:#b3b3b3;stop-opacity:1" id="stop6013" offset=".383"/><stop style="stop-color:#f9f9f9;stop-opacity:1" id="stop6005" offset="1"/></linearGradient><linearGradient id="linearGradient5993" x1="10.925" x2="18.978" y1="18.242" y2="18.242" gradientUnits="userSpaceOnUse" xlink:href="#linearGradient5999"/><linearGradient id="linearGradient5999"><stop style="stop-color:#e6e6e6;stop-opacity:1" id="stop5995" offset="0"/><stop id="stop6001" offset=".219" style="stop-color:#f9f9f9;stop-opacity:1"/><stop style="stop-color:#ccc;stop-opacity:1" id="stop5997" offset="1"/></linearGradient><linearGradient id="linearGradient5979" x1="-182.108" x2="-150.002" y1="797.701" y2="797.701" gradientUnits="userSpaceOnUse" xlink:href="#linearGradient5977"/><linearGradient id="linearGradient5977"><stop style="stop-color:#00f;stop-opacity:1" id="stop5973" offset="0"/><stop id="stop5981" offset=".107" style="stop-color:#9decff;stop-opacity:1"/><stop style="stop-color:#0e0edb;stop-opacity:1" id="stop5975" offset="1"/></linearGradient></defs><metadata id="metadata5"/><g id="layer1"><g id="g6018" transform="matrix(0.25365089,0,0,0.25367798,0.17492181,0.20501025)"><path id="path6194" d="m 0.75623594,10.796164 c 1.27062896,0 2.54125786,0 3.81190626,0 0.3745038,-0.793922 0.7486186,-1.5874724 1.1231224,-2.381023 0.9645103,-0.024187 1.92939,-0.048179 2.8938808,-0.072366 0.8438833,1.3058875 1.6881556,2.611775 2.5320586,3.917643 2.556234,0 5.112487,0 7.668741,0 0.747471,-0.749624 1.495331,-1.499248 2.242802,-2.249262 0,-0.4803664 0,-0.9607335 0,-1.4411005 C 25.841262,8.352801 27.605466,9.458755 31.244134,12.776227 31.133854,8.7950343 26.424325,2.6928303 22.330885,1.6465832 c -0.38489,-0.3859789 -0.77015,-0.77234794 -1.15502,-1.15834635 -3.607549,0 -7.215116,0 -10.822665,0 C 9.5592443,1.2844791 8.7649189,2.0811116 7.970963,2.877354 c -0.7259792,0 -1.4523279,0 -2.1782877,0 C 5.5656585,1.9670813 5.3390502,1.0571986 5.1120334,0.14694531 3.6600944,0.1923936 2.2077859,0.2378419 0.75584695,0.28329019 0.75623594,3.7879779 0.75623594,7.2919049 0.75623594,10.796203 Z" style="fill:url(#linearGradient6009);fill-opacity:1;stroke:#000;stroke-width:.685;stroke-linecap:round;stroke-linejoin:round;stroke-miterlimit:4;stroke-dasharray:none"/><rect id="rect6196" width="7.669" height="11.963" x="11.117" y="12.26" style="fill:url(#linearGradient5993);fill-opacity:1;stroke:#000;stroke-width:.384662;stroke-linecap:round;stroke-linejoin:round"/><polygon id="polygon6198" points="-181.608 787.916 -176.744 787.916 -156.779 787.916 -150.502 787.916 -150.502 807.487 -181.608 807.487" transform="matrix(0.38410922,0,0,0.38521544,79.006198,-279.29417)" style="fill:url(#linearGradient5979);fill-opacity:1;stroke:#000;stroke-linecap:round;stroke-linejoin:round"/></g></g></svg>