<svg xmlns="http://www.w3.org/2000/svg" xmlns:svg="http://www.w3.org/2000/svg" xmlns:xlink="http://www.w3.org/1999/xlink" id="svg8" width="32" height="32" version="1.1" viewBox="0 0 8.467 8.467"><defs id="defs2"><linearGradient id="linearGradient5691" x1="-459.355" x2="-419.865" y1="613.753" y2="613.753" gradientUnits="userSpaceOnUse" xlink:href="#linearGradient5685"/><linearGradient id="linearGradient5685"><stop style="stop-color:#007500;stop-opacity:1" id="stop5677" offset="0"/><stop id="stop5679" offset=".131" style="stop-color:#00d200;stop-opacity:1"/><stop style="stop-color:#2eff2e;stop-opacity:1" id="stop5681" offset=".898"/><stop style="stop-color:#007500;stop-opacity:1" id="stop5683" offset="1"/></linearGradient><radialGradient id="radialGradient5693" cx="9.698" cy="11.476" r="3.472" fx="9.698" fy="11.476" gradientTransform="matrix(0.96828868,0,0,0.97069171,0.50311057,0.48267021)" gradientUnits="userSpaceOnUse" xlink:href="#linearGradient5766"/><linearGradient id="linearGradient5766"><stop id="stop5762" offset="0" style="stop-color:#005a5a;stop-opacity:1"/><stop id="stop5764" offset="1" style="stop-color:teal;stop-opacity:1"/></linearGradient><radialGradient id="radialGradient5695" cx="13.11" cy="21.739" r="7.587" fx="13.11" fy="21.739" gradientTransform="matrix(0.96815189,-0.01628142,0.02256154,1.3434816,0.06728132,-6.5067243)" gradientUnits="userSpaceOnUse" xlink:href="#linearGradient5745"/><linearGradient id="linearGradient5745"><stop id="stop5738" offset="0" style="stop-color:#007575;stop-opacity:1"/><stop style="stop-color:#00c6c6;stop-opacity:1" id="stop5740" offset=".821"/><stop id="stop5742" offset="1" style="stop-color:#00b6b6;stop-opacity:1"/></linearGradient><radialGradient id="radialGradient5697" cx="13.11" cy="21.739" r="7.587" fx="13.11" fy="21.739" gradientTransform="matrix(0.96815189,-0.01628142,0.02256154,1.3434816,0.06728132,-6.5067243)" gradientUnits="userSpaceOnUse" xlink:href="#linearGradient5755"/><linearGradient id="linearGradient5755"><stop id="stop5748" offset="0" style="stop-color:teal;stop-opacity:1"/><stop style="stop-color:#00bebe;stop-opacity:1" id="stop5751" offset=".821"/><stop id="stop5753" offset="1" style="stop-color:#00b3b3;stop-opacity:1"/></linearGradient><linearGradient id="linearGradient5702" x1="16.01" x2="18.262" y1="13.324" y2="9.824" gradientUnits="userSpaceOnUse" xlink:href="#linearGradient5793"/><linearGradient id="linearGradient5793"><stop style="stop-color:#ececec;stop-opacity:.19499999" id="stop5789" offset="0"/><stop style="stop-color:#fff;stop-opacity:1" id="stop5791" offset="1"/></linearGradient><filter style="color-interpolation-filters:sRGB" id="filter5785" width="1.175" height="1.237" x="-.088" y="-.119"><feGaussianBlur id="feGaussianBlur5787" stdDeviation=".157"/></filter></defs><metadata id="metadata5"/><g id="layer1"><g id="g5783" transform="matrix(0.25650597,0,0,0.25653337,0.12923774,0.12879946)"><polygon style="fill:url(#linearGradient5691);fill-opacity:1;stroke:#000;stroke-linecap:round;stroke-linejoin:round" id="polygon5653" points="-449.11 595.018 -420.365 613.753 -449.11 632.489 -458.855 632.489 -458.855 613.753 -458.855 595.018" transform="matrix(0.37764201,0,0,0.37838244,174.31975,-207.7451)"/><path style="color:#000;font-style:normal;font-variant:normal;font-weight:400;font-stretch:normal;font-size:medium;line-height:normal;font-family:sans-serif;font-variant-ligatures:normal;font-variant-position:normal;font-variant-caps:normal;font-variant-numeric:normal;font-variant-alternates:normal;font-feature-settings:normal;text-indent:0;text-align:start;text-decoration:none;text-decoration-line:none;text-decoration-style:solid;text-decoration-color:#000;letter-spacing:normal;word-spacing:normal;text-transform:none;writing-mode:lr-tb;direction:ltr;text-orientation:mixed;dominant-baseline:auto;baseline-shift:baseline;text-anchor:start;white-space:normal;shape-padding:0;clip-rule:nonzero;display:inline;overflow:visible;visibility:visible;opacity:1;isolation:auto;mix-blend-mode:normal;color-interpolation:sRGB;color-interpolation-filters:linearRGB;solid-color:#000;solid-opacity:1;vector-effect:none;fill:#000;fill-opacity:1;fill-rule:nonzero;stroke:#fff;stroke-width:.387452;stroke-linecap:round;stroke-linejoin:round;stroke-miterlimit:4;stroke-dasharray:none;stroke-dashoffset:0;stroke-opacity:1;color-rendering:auto;image-rendering:auto;shape-rendering:auto;text-rendering:auto;enable-background:accumulate" id="path5655" d="M 9.8480169,0.19378209 A 0.48371875,0.4850085 0 0 0 9.3645072,0.62773888 L 8.9759865,3.875951 a 0.48371875,0.4850085 0 0 0 0.036424,0.2513511 L 10.307956,7.1170026 A 0.48394628,0.48523664 0 1 0 11.195695,6.7303132 L 9.9515737,3.8609113 10.325095,0.74302928 A 0.48371875,0.4850085 0 0 0 9.8480169,0.19378209 Z M 17.554865,1.9704165 a 0.48371875,0.4850085 0 0 0 -0.485652,0.5714474 l 0.752044,4.5235816 -1.154848,2.3538087 a 0.48389643,0.48518665 0 1 0 0.868458,0.4282261 l 1.222696,-2.4934477 a 0.48371875,0.4850085 0 0 0 0.04356,-0.2935991 L 18.023375,2.3821732 A 0.48371875,0.4850085 0 0 0 17.554865,1.9704165 Z M 5.7442667,6.6193162 0.68350162,6.7102616 a 0.48371875,0.4850085 0 1 0 0.0171388,0.9695943 L 5.6335685,7.5917776 8.0975314,8.9351739 A 0.48371875,0.4850085 0 1 0 8.5596131,8.0830184 L 5.9842354,6.6780375 A 0.48371875,0.4850085 0 0 0 5.7442667,6.6193162 Z M 23.109854,7.6948956 A 0.48371875,0.4850085 0 0 0 22.779895,7.833816 l -2.743212,2.701117 a 0.48371875,0.4850085 0 1 0 0.677767,0.69175 l 2.541813,-2.502757 5.559984,1.610498 A 0.48371875,0.4850085 0 1 0 29.084785,9.4027846 L 23.253404,7.7135135 a 0.48371875,0.4850085 0 0 0 -0.14355,-0.018618 z M 2.3489953,11.902678 a 0.48371875,0.4850085 0 0 0 -0.1999721,0.922331 l 1.5048015,0.754049 1.2141297,1.52099 a 0.48371875,0.4850085 0 0 0 0.3006729,0.17616 l 4.9600677,0.802028 a 0.48371875,0.4850085 0 1 0 0.153551,-0.957421 L 5.5064409,14.348147 4.343022,12.890175 A 0.48371875,0.4850085 0 0 0 4.1816131,12.75913 L 2.5818224,11.957102 a 0.48371875,0.4850085 0 0 0 -0.2328271,-0.05442 z m 21.5743197,3.415778 a 0.48371875,0.4850085 0 0 0 -0.08856,0.962434 l 4.345858,0.845713 2.739642,3.495982 a 0.48371875,0.4850085 0 1 0 0.760616,-0.598656 L 28.829813,16.384726 A 0.48371875,0.4850085 0 0 0 28.54128,16.208567 l -4.522266,-0.880083 a 0.48371875,0.4850085 0 0 0 -0.09571,-0.01003 z m -12.921163,3.644933 a 0.48371875,0.4850085 0 0 0 -0.08213,0.0086 L 6.4406083,19.77404 A 0.48371875,0.4850085 0 0 0 6.0442295,20.205845 L 5.4043132,26.9436 a 0.48371875,0.4850085 0 1 0 0.9627339,0.09165 l 0.6049183,-6.371113 4.1180336,-0.736861 a 0.48371875,0.4850085 0 0 0 -0.08784,-0.963868 z m 3.822355,3.36637 a 0.48371875,0.4850085 0 0 0 -0.294248,0.120305 l -3.359561,2.888017 a 0.48371875,0.4850085 0 0 0 -0.169264,0.368075 v 5.614912 a 0.4838665,0.48515665 0 1 0 0.967733,0 v -5.391492 l 3.191011,-2.74265 a 0.48371875,0.4850085 0 0 0 -0.335671,-0.857167 z"/><path style="fill:teal;stroke:none;stroke-width:.353061;stroke-linecap:round;stroke-linejoin:round" id="path5658" d="m 22.176858,21.926683 c -2.78477,2.792192 -7.175592,1.961039 -9.738935,-0.608782 -2.5633428,-2.570175 -3.3919281,-6.972705 -0.607158,-9.764898 2.784762,-2.7918392 7.175583,-1.9610399 9.738926,0.609136 2.562641,2.569821 3.391576,6.972703 0.607167,9.764544 z"/><path style="fill:url(#radialGradient5693);fill-opacity:1;stroke:#000;stroke-width:.366154;stroke-linecap:round;stroke-linejoin:round" id="path5660" d="M 13.433268,12.474149 C 12.157088,13.753728 10.138979,13.43365 8.9479974,12.239499 7.7570249,11.045714 7.4378002,9.0222204 8.7143443,7.7422751 9.9905148,6.4626965 12.008633,6.7827744 13.199605,7.9769256 c 1.190973,1.1937845 1.510198,3.2172784 0.233663,4.4972234 z"/><path style="fill:url(#radialGradient5695);fill-opacity:1;stroke:#000;stroke-width:.366154;stroke-linecap:round;stroke-linejoin:round" id="path5662" d="m 11.796913,11.20777 c 7.15828,6.518151 8.373752,8.209102 9.11569,9.82489 0.293268,0.63869 0.5123,1.265647 0.419054,1.915335 -3.211276,2.026794 -7.321739,0.687453 -9.58521,-2.033393 -2.2930962,-2.756411 -2.7889355,-7.06408 0.05042,-9.706832 z"/><path style="fill:url(#radialGradient5697);fill-opacity:1;stroke:#000;stroke-width:.366154;stroke-linecap:round;stroke-linejoin:round" id="path5664" d="m 11.796913,11.20777 c 2.716901,-2.5287261 6.80139,-1.9234011 9.423217,0.305779 2.597699,2.208648 3.911898,6.124378 2.128908,9.30646 -0.0662,-0.01467 -0.134198,-0.03336 -0.205503,-0.05573 C 22.162453,20.453367 20.64713,19.417605 11.796913,11.20777 Z"/><ellipse style="fill:#000;stroke:none;stroke-width:.366154;stroke-linecap:round;stroke-linejoin:round" id="ellipse5668" cx="17.192" cy="12.983" rx=".8" ry=".802"/><ellipse style="fill:#000;stroke:#ff0;stroke-width:.366154;stroke-linecap:round;stroke-linejoin:round" id="ellipse5670" cx="10.937" cy="7.757" rx=".706" ry=".708"/><ellipse style="fill:#000;stroke:#ff0;stroke-width:.366154;stroke-linecap:round;stroke-linejoin:round" id="ellipse5672" cx="8.903" cy="9.796" rx=".672" ry=".674"/><ellipse style="fill:#000;stroke:none;stroke-width:.366154;stroke-linecap:round;stroke-linejoin:round" id="ellipse5674" cx="12.232" cy="16.191" rx=".679" ry=".68"/><ellipse style="fill:#000;stroke:none;stroke-width:.366154;stroke-linecap:round;stroke-linejoin:round" id="ellipse5676" cx="15.593" cy="17.956" rx="1.131" ry="1.134"/><path style="opacity:.843;fill:#ececec;fill-opacity:.195;fill-rule:nonzero;stroke:none;stroke-width:1.44753;stroke-linecap:butt;stroke-linejoin:round;stroke-miterlimit:4;stroke-dasharray:none;stroke-dashoffset:0;stroke-opacity:1" id="path5678" d="m 18.102787,19.855471 c -1.557567,1.4232 -3.937604,1.181445 -5.552504,-0.633912 -1.614901,-1.815358 -1.853133,-4.516876 -0.29557,-5.940081 1.557566,-1.423199 1.995291,1.096041 3.610191,2.9114 1.614901,1.815358 3.795448,2.239394 2.237883,3.662593 z"/><ellipse style="fill:#000;stroke:none;stroke-width:.366154;stroke-linecap:round;stroke-linejoin:round" id="ellipse5680" cx="16.552" cy="21.164" rx="1.249" ry="1.253"/><ellipse style="fill:#1a1a1a;stroke:none;stroke-width:.366154;stroke-linecap:round;stroke-linejoin:round" id="ellipse5682" cx="21.032" cy="15.389" rx="1.073" ry="1.076"/><path style="opacity:.731;fill:url(#linearGradient5702);fill-opacity:1;fill-rule:nonzero;stroke:none;stroke-width:.355;stroke-linecap:butt;stroke-linejoin:round;stroke-miterlimit:4;stroke-dasharray:none;stroke-dashoffset:0;stroke-opacity:1;filter:url(#filter5785)" id="path5684" d="m 19.644938,12.677235 c -0.429624,0.647 -0.735976,-0.151098 -2.029976,-1.010346 -1.294,-0.859249 -2.65656,-0.768007 -2.226935,-1.415007 0.429625,-0.6470001 2.0397,-0.8850243 3.3337,-0.02578 1.293999,0.859249 1.352835,1.804129 0.923211,2.451129 z" transform="matrix(2.1155564,0,0,2.1170463,-19.232702,-10.381264)"/></g></g></svg>