<svg xmlns="http://www.w3.org/2000/svg" xmlns:svg="http://www.w3.org/2000/svg" xmlns:xlink="http://www.w3.org/1999/xlink" id="svg8" width="32" height="32" version="1.1" viewBox="0 0 8.467 8.467"><defs id="defs2"><filter id="filter5259" width="1.032" height="1.035" x="-.016" y="-.018" style="color-interpolation-filters:sRGB"><feGaussianBlur id="feGaussianBlur5261" stdDeviation=".211"/></filter><linearGradient id="linearGradient5243" x1="23.688" x2="5.837" y1="21.429" y2="10.292" gradientUnits="userSpaceOnUse" xlink:href="#linearGradient5241"/><linearGradient id="linearGradient5241"><stop id="stop5237" offset="0" style="stop-color:#81b1dc;stop-opacity:1"/><stop id="stop5239" offset="1" style="stop-color:#fafcff;stop-opacity:1"/></linearGradient></defs><metadata id="metadata5"/><g id="layer1"><g id="g5267" transform="matrix(0.26197595,0,0,0.25921128,-0.01067603,-0.10955741)"><path style="fill:#314678;fill-opacity:1;stroke:none;stroke-width:.392237;stroke-linecap:round;stroke-linejoin:round;filter:url(#filter5259)" id="path5245" d="m 9.0373782,24.566345 c 0,2.329052 0,4.658499 0,6.987564 1.9326488,-1.929322 3.8652978,-3.858643 5.7979328,-5.787964 4.094959,0.256699 8.557746,-0.64859 12.05009,-2.969418 3.52336,-2.341213 6.058226,-6.273519 4.785496,-10.732153 C 30.471189,7.8616536 26.450828,5.1743979 22.660514,3.9453967 18.702568,2.6619283 14.206408,2.6164771 10.220599,3.7956897 10.165228,6.4449372 7.1216148,7.9118113 5.0087668,6.3077628 1.7582556,8.6677893 -0.45508105,12.430405 0.7100754,16.62803 c 1.1043177,3.98052 4.765472,6.627415 8.3273028,7.938315 z"/><path id="path274" d="m 8.8373864,23.266145 c 0,2.329052 0,4.658499 0,6.987564 1.9326486,-1.929322 3.8652976,-3.858643 5.7979326,-5.787964 4.094959,0.256699 8.557746,-0.64859 12.05009,-2.969418 3.52336,-2.341213 6.058226,-6.273519 4.785496,-10.732153 C 30.271197,6.5614466 26.250836,3.8741909 22.460522,2.6451897 18.502576,1.3617211 14.006416,1.3162699 10.020607,2.4954827 9.9652365,5.1447302 6.921623,6.6116043 4.808775,5.0075558 1.5582638,7.3675823 -0.65507274,11.130205 0.51008358,15.32783 1.6144013,19.30835 5.2755556,21.955245 8.8373864,23.266145 Z" style="fill:url(#linearGradient5243);fill-opacity:1;stroke:#1a1a1a;stroke-width:.392237;stroke-linecap:round;stroke-linejoin:round"/><path style="fill:navy;stroke:none;stroke-linecap:round;stroke-linejoin:round" id="polygon272" d="m -176.735,432.977 h 19.864 v -4.019 h -5.223 v -18.373 h -14.641 v 6.89 h 4.881 v 11.483 h -4.881 z" transform="matrix(0.39257497,0,0,0.39189909,82.02514,-150.40198)"/><rect id="rect276" width="3.832" height="3.375" x="14.56" y="4.318" style="fill:navy;stroke:none;stroke-width:.392237;stroke-linecap:round;stroke-linejoin:round"/></g></g></svg>