<svg xmlns="http://www.w3.org/2000/svg" xmlns:svg="http://www.w3.org/2000/svg" xmlns:xlink="http://www.w3.org/1999/xlink" id="svg8" width="32" height="32" version="1.1" viewBox="0 0 8.467 8.467"><defs id="defs2"><linearGradient id="linearGradient5764" x1="-313.327" x2="-310.69" y1="537.015" y2="534.706" gradientUnits="userSpaceOnUse" xlink:href="#linearGradient5762"/><linearGradient id="linearGradient5762"><stop style="stop-color:#ccc;stop-opacity:1" id="stop5758" offset="0"/><stop style="stop-color:#f9f9f9;stop-opacity:1" id="stop5760" offset="1"/></linearGradient><linearGradient id="linearGradient5756" x1="13.682" x2="16.92" y1="16.931" y2="13.502" gradientUnits="userSpaceOnUse" xlink:href="#linearGradient5754"/><linearGradient id="linearGradient5754"><stop style="stop-color:#4272ac;stop-opacity:1" id="stop5750" offset="0"/><stop style="stop-color:#dbe4f0;stop-opacity:1" id="stop5752" offset="1"/></linearGradient><radialGradient id="radialGradient5772" cx="3.062" cy="8.361" r="6.001" fx="3.062" fy="8.361" gradientTransform="matrix(1.2209364,-0.86165224,0.6374287,0.90321812,-6.0063332,3.6880839)" gradientUnits="userSpaceOnUse" xlink:href="#linearGradient5770"/><linearGradient id="linearGradient5770"><stop style="stop-color:#386193;stop-opacity:1" id="stop5766" offset="0"/><stop style="stop-color:#dbe4ef;stop-opacity:1" id="stop5768" offset="1"/></linearGradient></defs><metadata id="metadata5"/><g id="layer1"><g id="g5777" transform="matrix(0.25503657,0,0,0.25577484,0.15274953,0.14093657)"><polygon id="polygon5687" points="-329.077 523.601 -293.636 552.917 -322.952 516.6" transform="matrix(0.39164059,0,0,0.39164059,147.40061,-184.18918)" style="fill:url(#linearGradient5764);fill-opacity:1;stroke:#000;stroke-linecap:round;stroke-linejoin:round"/><path id="path5637" d="M 16.92046,13.501986 C 14.75586,10.810632 12.59087,8.119278 10.42627,5.427924 9.43229,7.634427 7.61038,9.804507 5.60635,11.162717 c 2.69175,1.922955 5.38349,3.845519 8.07524,5.768082 0.0705,3.173464 0.14099,6.346928 0.21148,9.520392 5.3694,-3.131559 9.72405,-7.742343 12.54386,-13.281708 -3.1719,0.110835 -6.34419,0.221669 -9.51647,0.332503 z" style="fill:url(#linearGradient5756);fill-opacity:1;stroke:#000;stroke-width:.391641;stroke-linecap:round;stroke-linejoin:round"/><path id="path5689-3" d="m 10.35147,0.17994 c 1.29711,1.087194 0.8526,3.14409 0.41475,4.39969 C 10.23515,6.101546 9.43268,7.375944 8.40736,8.599038 7.38127,9.823306 6.26587,10.83648 4.8591,11.626028 3.69984,12.276543 1.75378,13.071965 0.45745,11.985162 -0.83966,10.897968 -0.39554,8.841071 0.0427,7.585472 0.57377,6.063948 1.37624,4.78955 2.40156,3.566064 3.42765,2.341796 4.54305,1.328622 5.94982,0.539074 7.10908,-0.110658 9.05514,-0.906471 10.35147,0.17994 Z" style="fill:url(#radialGradient5772);fill-opacity:1;stroke:#000;stroke-width:.391641;stroke-linecap:round;stroke-linejoin:round"/></g></g></svg>