<svg xmlns="http://www.w3.org/2000/svg" xmlns:svg="http://www.w3.org/2000/svg" xmlns:xlink="http://www.w3.org/1999/xlink" id="svg8" width="32" height="32" version="1.1" viewBox="0 0 8.467 8.467"><defs id="defs2"><linearGradient id="linearGradient5224" x1="-423.552" x2="-423.436" y1="457.693" y2="388.13" gradientUnits="userSpaceOnUse" xlink:href="#linearGradient5222"/><linearGradient id="linearGradient5222"><stop style="stop-color:#88b1e3;stop-opacity:1" id="stop5218" offset="0"/><stop id="stop5226" offset=".913" style="stop-color:#8ab3e4;stop-opacity:1"/><stop style="stop-color:#fff;stop-opacity:1" id="stop5220" offset="1"/></linearGradient><linearGradient id="linearGradient5242" x1="-408.518" x2="-408.518" y1="455.366" y2="422.559" gradientUnits="userSpaceOnUse" xlink:href="#linearGradient5240"/><linearGradient id="linearGradient5240"><stop style="stop-color:green;stop-opacity:1" id="stop5236" offset="0"/><stop id="stop5244" offset=".613" style="stop-color:#00ef00;stop-opacity:1"/><stop style="stop-color:#fff;stop-opacity:1" id="stop5238" offset="1"/></linearGradient></defs><metadata id="metadata5"/><g id="layer1"><g id="g8547" transform="matrix(0.26455472,0,0,0.26458298,-8.4595031,-17.065674)"><g id="g7054" transform="translate(-124.31003,150.44923)"><polygon id="polygon248" points="-460.115 457.487 -464.116 453.485 -464.116 395.466 -456.78 388.13 -423.436 388.13 -390.091 388.13 -382.755 395.466 -382.755 453.485 -386.757 457.487 -423.436 457.487" transform="matrix(0.38340936,0,0,0.37991294,334.42564,-232.20846)" style="fill:url(#linearGradient5224);fill-opacity:1;stroke:#000;stroke-linecap:round;stroke-linejoin:round"/><polygon id="polygon246" points="-455.446 448.817 -455.446 404.802 -423.436 404.802 -391.425 404.802 -391.425 448.817 -423.436 448.817" transform="matrix(0.44841661,0,0,0.47634823,361.95202,-274.07506)" style="fill:#f9f9f9;stroke:none;stroke-linecap:round;stroke-linejoin:round"/><rect style="opacity:1;fill:#ccc;fill-opacity:1;fill-rule:nonzero;stroke:none;stroke-width:3.77953;stroke-linecap:butt;stroke-linejoin:round;stroke-miterlimit:4;stroke-dasharray:none;stroke-dashoffset:0;stroke-opacity:1" id="rect5246" width="22.804" height="2.298" x="160.354" y="-78.875"/><rect style="opacity:1;fill:#f2feff;fill-opacity:1;fill-rule:nonzero;stroke:none;stroke-width:3.77953;stroke-linecap:butt;stroke-linejoin:round;stroke-miterlimit:4;stroke-dasharray:none;stroke-dashoffset:0;stroke-opacity:1" id="rect5248" width="8.054" height="11.577" x="160.354" y="-74.809"/></g><polygon style="fill:url(#linearGradient5242);fill-opacity:1;stroke:#000;stroke-linecap:round;stroke-linejoin:round" id="polygon250" points="-403.403 466.062 -408.518 466.062 -408.518 455.366 -428.393 455.366 -428.393 444.311 -428.393 433.256 -408.518 433.256 -408.518 422.559 -403.403 422.559 -381.651 444.311" transform="matrix(0.38340936,0,0,0.37991294,210.11561,-81.758778)"/></g></g></svg>