<svg xmlns="http://www.w3.org/2000/svg" xmlns:svg="http://www.w3.org/2000/svg" xmlns:xlink="http://www.w3.org/1999/xlink" id="svg8" width="32" height="32" version="1.1" viewBox="0 0 8.467 8.467"><defs id="defs2"><radialGradient id="radialGradient5404" cx="15.615" cy="14.487" r="15.958" fx="15.615" fy="14.487" gradientTransform="matrix(0.89091008,-0.43845257,0.46142327,0.93758516,28.165508,-136.38853)" gradientUnits="userSpaceOnUse" xlink:href="#red_button_cross"/><linearGradient id="red_button_cross"><stop id="stop4754" offset="0" style="stop-color:red;stop-opacity:1"/><stop style="stop-color:red;stop-opacity:1" id="stop4865" offset=".821"/><stop id="stop4756" offset="1" style="stop-color:#cf0000;stop-opacity:1"/></linearGradient><linearGradient id="linearGradient5406" x1="1.361" x2="19.895" y1="9.937" y2="9.937" gradientTransform="translate(33.915251,-144.46238)" gradientUnits="userSpaceOnUse" xlink:href="#linearGradient4859"/><linearGradient id="linearGradient4859"><stop id="stop4855" offset="0" style="stop-color:#f2f2f2;stop-opacity:1"/><stop id="stop4857" offset="1" style="stop-color:#f2f2f2;stop-opacity:0"/></linearGradient><filter id="filter4851-5" width="1.158" height="1.18" x="-.079" y="-.09" style="color-interpolation-filters:sRGB"><feGaussianBlur id="feGaussianBlur4853-6" stdDeviation=".526"/></filter></defs><metadata id="metadata5"/><g id="layer1"><g id="g5402" transform="matrix(0.25878464,0,0,0.25881227,-8.654878,37.465451)"><circle style="fill:url(#radialGradient5404);fill-opacity:1;stroke:#000;stroke-width:.223234;stroke-linecap:round;stroke-linejoin:round" id="circle5396" cx="49.803" cy="-128.402" r="15.734"/><path id="path5398" d="m 45.782439,-135.88425 -3.28711,3.28711 4.134766,4.13476 -4.136719,4.13477 3.287109,3.28711 4.134766,-4.13672 4.134766,4.13476 3.287109,-3.28515 -4.134766,-4.13672 4.132813,-4.13281 -3.28711,-3.28516 -4.132812,4.13281 z" style="fill:#f9f9f9;stroke:none;stroke-width:.224816;stroke-linecap:round;stroke-linejoin:round"/><path id="path5400" d="m 52.388692,-140.67645 c 1.152337,1.51354 -4.228787,1.0545 -8.769431,4.51152 -4.540647,3.45701 -5.483176,9.96591 -6.635513,8.45236 -1.152337,-1.51355 -0.185322,-7.32274 4.355324,-10.77975 4.540646,-3.45701 9.897283,-3.69768 11.04962,-2.18413 z" style="opacity:.703;fill:url(#linearGradient5406);fill-opacity:1;fill-rule:nonzero;stroke:none;stroke-width:.362795;stroke-linecap:butt;stroke-linejoin:round;stroke-miterlimit:4;stroke-dasharray:none;stroke-dashoffset:0;stroke-opacity:1;filter:url(#filter4851-5)"/></g></g></svg>