<svg xmlns="http://www.w3.org/2000/svg" xmlns:svg="http://www.w3.org/2000/svg" id="svg8" width="32" height="32" version="1.1" viewBox="0 0 8.467 8.467"><metadata id="metadata5"/><g id="layer1"><g id="g5489" transform="matrix(0.21127971,0,0,0.2096712,-45.321055,-9.9204629)"><path id="path5482" d="m 251.669,47.75 v 7.125 l -8.125,6.75 4.375,0.625 -0.125,6.5 -30.375,18.5 v -6.625 l 9.625,-9.625 -4,-0.125 0.375,-6.625 z" style="fill:red;stroke:maroon;stroke-width:.5;stroke-linecap:butt;stroke-linejoin:miter;stroke-miterlimit:4;stroke-dasharray:none;stroke-opacity:1"/><path id="path5474" d="m 246.92982,63.03033 0.20399,5.120504 -28.19588,17.589281 0.24189,-5.209785 z" style="fill:#feb400;fill-opacity:1;stroke:none;stroke-width:.1;stroke-linecap:butt;stroke-linejoin:miter;stroke-miterlimit:4;stroke-dasharray:none;stroke-opacity:1"/><path id="path5476" d="m 224.67982,64.53033 -0.17342,5.653436 7.07107,-0.265165 3.60235,-5.388271 h -10.5" style="fill:#f4a600;fill-opacity:1;stroke:none;stroke-width:.1;stroke-linecap:butt;stroke-linejoin:miter;stroke-miterlimit:4;stroke-dasharray:none;stroke-opacity:1"/><path id="path5478" d="m 250.92982,48.53033 0.0931,5.478368 -10.25305,8.927224 -5.3033,-1.590991 15.46325,-12.814601" style="fill:#fe9f00;fill-opacity:1;stroke:none;stroke-width:.1;stroke-linecap:butt;stroke-linejoin:miter;stroke-miterlimit:4;stroke-dasharray:none;stroke-opacity:1"/><path id="path5472" d="m 250.92982,48.53033 -26.25,16 h 10.5 l -16,16 27.75,-17.5 -8.5,-1.75 z" style="fill:#fcfe00;fill-opacity:1;stroke:none;stroke-width:.2;stroke-linecap:butt;stroke-linejoin:miter;stroke-miterlimit:4;stroke-dasharray:none;stroke-opacity:1"/></g></g></svg>