<svg xmlns="http://www.w3.org/2000/svg" xmlns:svg="http://www.w3.org/2000/svg" xmlns:xlink="http://www.w3.org/1999/xlink" id="svg8" width="32" height="32" version="1.1" viewBox="0 0 8.467 8.467"><defs id="defs2"><linearGradient id="linearGradient6091" x1="-207.611" x2="-203.462" y1="131.26" y2="131.26" gradientTransform="translate(0,0.87499995)" gradientUnits="userSpaceOnUse" xlink:href="#linearGradient6081"/><linearGradient id="linearGradient6081"><stop style="stop-color:#ff0;stop-opacity:1" id="stop6077" offset="0"/><stop style="stop-color:#ffb503;stop-opacity:1" id="stop6079" offset="1"/></linearGradient><linearGradient id="linearGradient6083" x1="-209.443" x2="-200.571" y1="123.292" y2="123.292" gradientUnits="userSpaceOnUse" xlink:href="#linearGradient6081"/></defs><metadata id="metadata5"/><g id="layer1"><g id="g6095" transform="matrix(0.50686616,0,0,0.50863132,108.14426,-59.871595)"><path id="path6148" d="m -203.56086,132.08837 c 0,0.54507 -0.19156,1.02654 -0.57449,1.44423 -0.38293,0.41769 -0.84999,0.62643 -1.40119,0.62643 -0.55119,0 -1.01825,-0.20143 -1.40137,-0.60471 -0.38293,-0.40307 -0.5745,-0.88178 -0.5745,-1.43593 0,-0.55416 0.19157,-1.02734 0.5745,-1.41936 0.38293,-0.39201 0.85018,-0.58812 1.40137,-0.58812 0.5512,0 1.01826,0.19295 1.40119,0.57904 0.38293,0.38629 0.57449,0.85236 0.57449,1.39842 z" style="fill:url(#linearGradient6091);fill-opacity:1;stroke:#000;stroke-width:.397;stroke-linecap:round;stroke-linejoin:round;stroke-miterlimit:4;stroke-dasharray:none"/><path id="path6150" d="m -200.66943,122.05424 c 0,1.75587 -0.72537,3.0431 -2.17613,3.8613 -1.09033,0.60649 -1.6822,1.21989 -1.77542,1.8402 -0.0211,0.16273 -0.0387,0.32487 -0.0527,0.48641 -0.0502,0.14851 -0.17774,0.22297 -0.38253,0.22297 -0.71491,0 -1.22799,0.0426 -1.53903,0.12797 -0.0642,0.0211 -0.11395,0.0316 -0.14911,0.0316 -0.25495,0 -0.38253,-0.34383 -0.38253,-1.03168 0,-0.59523 0.35331,-1.33246 1.06012,-2.21148 0.70681,-0.87902 1.06012,-1.61625 1.06012,-2.21148 0,-0.90351 -0.488,-1.35536 -1.46379,-1.35536 -0.61952,0 -1.42409,0.25693 -2.4141,0.77099 -0.3063,0 -0.45936,-0.91002 -0.45936,-2.73028 0,-0.19986 0.0105,-0.34995 0.0316,-0.45027 0.10032,-0.48484 0.69674,-0.86737 1.78905,-1.14761 0.79213,-0.19867 1.55621,-0.2982 2.29205,-0.2982 1.29217,0 2.36295,0.35646 3.21215,1.0692 0.89976,0.75421 1.34964,1.76278 1.34964,3.02572 z" style="fill:url(#linearGradient6083);fill-opacity:1;stroke:#000;stroke-width:.497;stroke-linecap:round;stroke-linejoin:round;stroke-miterlimit:4;stroke-dasharray:none"/></g></g></svg>