<svg xmlns="http://www.w3.org/2000/svg" xmlns:svg="http://www.w3.org/2000/svg" xmlns:xlink="http://www.w3.org/1999/xlink" id="svg8" width="32" height="32" version="1.1" viewBox="0 0 8.467 8.467"><defs id="defs2"><linearGradient id="linearGradient5699" x1="14.495" x2="14.323" y1="6.87" y2="2.274" gradientTransform="translate(476.28815,-22.099129)" gradientUnits="userSpaceOnUse" xlink:href="#linearGradient5666"/><linearGradient id="linearGradient5666"><stop style="stop-color:#82ade0;stop-opacity:1" id="stop5662" offset="0"/><stop style="stop-color:#f1effb;stop-opacity:1" id="stop5664" offset="1"/></linearGradient><linearGradient id="linearGradient5723" x1="-257.371" x2="-233.938" y1="1.417" y2="1.417" gradientUnits="userSpaceOnUse" xlink:href="#green_button"/><linearGradient id="green_button"><stop style="stop-color:#00bc00;stop-opacity:1" id="stop5039" offset="0"/><stop id="stop5041" offset=".821" style="stop-color:#00bc00;stop-opacity:1"/><stop style="stop-color:green;stop-opacity:1" id="stop5043" offset="1"/></linearGradient><linearGradient id="linearGradient6391" x1="-257.371" x2="-233.938" y1="1.417" y2="1.417" gradientUnits="userSpaceOnUse" xlink:href="#green_button"/><linearGradient id="linearGradient6393" x1="-257.371" x2="-233.938" y1="1.417" y2="1.417" gradientUnits="userSpaceOnUse" xlink:href="#green_button"/><linearGradient id="linearGradient6395" x1="-257.371" x2="-233.938" y1="1.417" y2="1.417" gradientUnits="userSpaceOnUse" xlink:href="#green_button"/><linearGradient id="linearGradient6397" x1="-257.371" x2="-233.938" y1="1.417" y2="1.417" gradientUnits="userSpaceOnUse" xlink:href="#green_button"/><linearGradient id="linearGradient6399" x1="-257.371" x2="-233.938" y1="1.417" y2="1.417" gradientUnits="userSpaceOnUse" xlink:href="#green_button"/><linearGradient id="linearGradient6401" x1="-257.371" x2="-233.938" y1="1.417" y2="1.417" gradientUnits="userSpaceOnUse" xlink:href="#green_button"/></defs><metadata id="metadata5"/><g id="layer1"><g id="g5747" transform="matrix(0.26455472,0,0,0.26458298,-126.00382,6.0214276)"><path style="fill:teal;stroke:#000;stroke-width:.387115;stroke-linecap:round;stroke-linejoin:round" id="path5680" d="m 479.8198,5.388339 c 8.31223,0 16.62446,0 24.93669,0 1.84359,0 3.33871,-1.487611 3.33871,-3.322407 0,-5.882857 0,-11.765328 0,-17.648185 0,-1.834797 -1.49474,-3.322407 -3.33871,-3.322407 -8.31223,0 -16.62446,0 -24.93669,0 -1.84358,0 -3.3387,1.48761 -3.3387,3.322407 0,5.882857 0,11.765328 0,17.648185 3.8e-4,1.834796 1.49512,3.322407 3.3387,3.322407 z"/><rect style="fill:#fff;stroke:#000;stroke-width:.387;stroke-linecap:round;stroke-linejoin:round;stroke-miterlimit:4;stroke-dasharray:none" id="rect5684" width="29.293" height="17.656" x="477.714" y="-13.337"/><path style="fill:url(#linearGradient5699);fill-opacity:1;stroke:#000;stroke-width:.387115;stroke-linecap:round;stroke-linejoin:round" id="path5682" d="m 476.48148,-13.674467 c 10.53803,0 21.07568,0 31.61372,0 0,-0.635671 0,-1.271729 0,-1.907786 0,-1.834797 -1.49474,-3.322407 -3.33871,-3.322407 -8.31223,0 -16.62446,0 -24.93669,0 -1.84358,0 -3.3387,1.48761 -3.3387,3.322407 3.8e-4,0.636057 3.8e-4,1.272115 3.8e-4,1.907786 z"/><g style="fill:url(#linearGradient5723);fill-opacity:1" id="g5715" transform="translate(738.01537,-5.925685)"><rect style="fill:url(#linearGradient6391);fill-opacity:1;stroke:#000;stroke-width:.391641;stroke-linecap:round;stroke-linejoin:round" id="rect5941" width="14.297" height="4.164" x="-257.175" y="-4.83"/><line style="fill:url(#linearGradient6393);fill-opacity:1;stroke:#000;stroke-width:.391641;stroke-linecap:round;stroke-linejoin:round" id="line5943" x1="-255.787" x2="-244.544" y1="-2.886" y2="-2.886"/><rect style="fill:url(#linearGradient6395);fill-opacity:1;stroke:#000;stroke-width:.391641;stroke-linecap:round;stroke-linejoin:round" id="rect5947" width="14.297" height="4.164" x="-252.734" y="-.665"/><line style="fill:url(#linearGradient6397);fill-opacity:1;stroke:#000;stroke-width:.391641;stroke-linecap:round;stroke-linejoin:round" id="line5945" x1="-251.345" x2="-240.102" y1="1.278" y2="1.278"/><rect style="fill:url(#linearGradient6399);fill-opacity:1;stroke:#000;stroke-width:.391641;stroke-linecap:round;stroke-linejoin:round" id="rect5949" width="14.297" height="4.164" x="-248.431" y="3.499"/><line style="fill:url(#linearGradient6401);fill-opacity:1;stroke:#000;stroke-width:.391641;stroke-linecap:round;stroke-linejoin:round" id="line5951" x1="-247.042" x2="-235.799" y1="5.442" y2="5.442"/></g></g></g></svg>