<svg xmlns="http://www.w3.org/2000/svg" xmlns:svg="http://www.w3.org/2000/svg" xmlns:xlink="http://www.w3.org/1999/xlink" id="svg8" width="32" height="32" version="1.1" viewBox="0 0 8.467 8.467"><defs id="defs2"><linearGradient id="linearGradient5858" x1="-1229.079" x2="-1161.802" y1="-490.614" y2="-490.614" gradientUnits="userSpaceOnUse" xlink:href="#linearGradient5093"/><linearGradient id="linearGradient5093"><stop style="stop-color:#fff;stop-opacity:1" id="stop5089" offset="0"/><stop style="stop-color:#fff;stop-opacity:0" id="stop5091" offset="1"/></linearGradient><linearGradient id="linearGradient5854" x1="-475.344" x2="-537.257" y1="290.646" y2="214.889" gradientUnits="userSpaceOnUse" xlink:href="#linearGradient5101"/><linearGradient id="linearGradient5101"><stop style="stop-color:#99d3f4;stop-opacity:1" id="stop5097" offset="0"/><stop style="stop-color:#fff;stop-opacity:1" id="stop5099" offset="1"/></linearGradient><filter style="color-interpolation-filters:sRGB" id="filter5130" width="1.048" height="1.048" x="-.024" y="-.024"><feGaussianBlur id="feGaussianBlur5132" stdDeviation=".184"/></filter><linearGradient id="linearGradient5874" x1="-619.061" x2="-604.888" y1="-31.001" y2="-31.001" gradientTransform="matrix(0.26455472,0,0,0.26458297,167.35778,13.662795)" gradientUnits="userSpaceOnUse" xlink:href="#linearGradient5524"/><linearGradient id="linearGradient5524"><stop id="stop5518" offset="0" style="stop-color:#00f700;stop-opacity:1"/><stop style="stop-color:#00bc00;stop-opacity:1" id="stop5520" offset=".821"/><stop id="stop5522" offset="1" style="stop-color:#006b00;stop-opacity:1"/></linearGradient><linearGradient id="linearGradient5872" x1="-619.061" x2="-604.888" y1="-31.001" y2="-31.001" gradientTransform="matrix(0.26455472,0,0,0.26458297,167.35778,14.317638)" gradientUnits="userSpaceOnUse" xlink:href="#linearGradient5524"/><linearGradient id="linearGradient4880" x1="-1229.079" x2="-1161.802" y1="-490.614" y2="-490.614" gradientUnits="userSpaceOnUse" xlink:href="#linearGradient5093"/></defs><metadata id="metadata5"/><g id="layer1"><g id="g4889" transform="translate(-1.2237018,-1.4221355)"><g id="g5852" transform="matrix(0.10015099,0,0,0.09891301,129.48916,86.332559)" style="fill:url(#linearGradient5858);fill-opacity:1"><g id="g5850" transform="translate(-43.010777,-325.02157)" style="fill:url(#linearGradient4880)"><polygon id="polygon5844" points="-537.257 297.035 -470.98 297.035 -470.98 233.247 -489.339 214.889 -537.257 214.889" transform="matrix(0.99999983,0,0,1.0000232,-691.32212,-746.58316)" style="fill:url(#linearGradient5854);fill-opacity:1;stroke:#000;stroke-linecap:round;stroke-linejoin:round"/><polygon style="fill:#4d4d4d;fill-opacity:1;stroke:none;stroke-linecap:round;stroke-linejoin:round;filter:url(#filter5130)" id="polygon5846" points="-489.339 214.889 -470.98 233.247 -489.339 233.247" transform="matrix(0.99999983,0,0,1.0000232,-691.45668,-745.9019)"/><polygon id="polygon5848" points="-470.98 233.247 -489.339 233.247 -489.339 214.889" transform="matrix(0.99999983,0,0,1.0000232,-691.32212,-746.58316)" style="fill:#60a1e3;fill-opacity:1;stroke:none;stroke-linecap:round;stroke-linejoin:round"/></g></g><path id="path5693" d="M 7.2799541,6.6100719 C 6.3987487,7.4855755 5.7297373,7.5075359 5.2728143,6.6759531 5.4406639,6.5179969 5.6085131,6.3600406 5.7763624,6.2023489 5.2125144,6.137526 4.6486662,6.0727031 4.0849214,6.0078802 4.0346717,6.6505531 3.9845229,7.2932234 3.9342732,7.9358963 4.109271,7.7710609 4.2842685,7.60649 4.4592663,7.4416546 5.2226681,8.8537359 7.1589387,7.5898213 7.2799541,6.6100719 Z" style="fill:url(#linearGradient5874);fill-opacity:1;stroke:green;stroke-width:.103616;stroke-linecap:round;stroke-linejoin:round"/><path id="path5695" d="M 3.6341149,5.2292114 C 4.4013472,4.2521078 5.0626944,4.1483911 5.6179418,4.9175349 5.4707118,5.0948031 5.3235849,5.2720739 5.1763552,5.4496093 5.7438277,5.4443177 6.311406,5.439026 6.8788785,5.4337343 6.8499731,4.7897412 6.820962,4.1457452 6.7920542,3.5017494 6.638504,3.6866932 6.4850571,3.8716369 6.3316099,4.0565807 5.400671,2.7487479 3.6341149,4.2407307 3.6341149,5.2278885 Z" style="fill:url(#linearGradient5872);fill-opacity:1;stroke:green;stroke-width:.103616;stroke-linecap:round;stroke-linejoin:round"/></g></g></svg>