<svg xmlns="http://www.w3.org/2000/svg" xmlns:svg="http://www.w3.org/2000/svg" xmlns:xlink="http://www.w3.org/1999/xlink" id="svg8" width="32" height="32" version="1.1" viewBox="0 0 8.467 8.467"><defs id="defs2"><linearGradient id="linearGradient5363" x1="28.269" x2="-48.489" y1="1051.528" y2="1022.985" gradientUnits="userSpaceOnUse" xlink:href="#linearGradient5686"/><linearGradient id="linearGradient5686"><stop id="stop5682" offset="0" style="stop-color:#646494;stop-opacity:1"/><stop id="stop5684" offset="1" style="stop-color:#fafafc;stop-opacity:1"/></linearGradient></defs><metadata id="metadata5"/><g id="layer1"><g id="g5361" transform="matrix(0.2654645,0,0,0.26458142,-0.01424747,-1.1603262e-4)"><path id="path5331" d="M 15.561456,17.892213 30.201004,26.305888 16.581028,31.890826 0.16496157,23.332089 Z" style="opacity:1;fill:#784421;fill-opacity:1;fill-rule:nonzero;stroke:#784421;stroke-width:.219355;stroke-linecap:butt;stroke-linejoin:round;stroke-miterlimit:4;stroke-dasharray:none;stroke-dashoffset:0;stroke-opacity:1"/><polygon style="fill:url(#linearGradient5363);fill-opacity:1;stroke:none;stroke-linecap:round;stroke-linejoin:round" id="polygon5333" points="8.673 1003.882 -13.135 965.263 -48.489 1022.985 -48.84 1067.863 7.553 1045.543" transform="matrix(0.22121066,0,0,0.21708917,27.478029,-200.73871)"/><polygon style="fill:#c87137;fill-opacity:1;stroke:#502d16;stroke-width:1.00098;stroke-linecap:round;stroke-linejoin:round;stroke-miterlimit:4;stroke-dasharray:none" id="polygon5335" points="-28.412 1018.636 -8.43 1012.167 -8.874 1052.045 -29.002 1060.011" transform="matrix(0.22121066,0,0,0.21708917,27.478029,-200.73871)"/><polygon style="fill:#bebed2;fill-opacity:1;stroke:none;stroke-linecap:round;stroke-linejoin:round" id="polygon5337" points="-118.243 999.192 -48.489 1022.985 -48.84 1067.863 -118.601 1031.501" transform="matrix(0.22121066,0,0,0.21708917,27.478029,-200.73871)"/><path id="path5339" d="m 16.685173,22.878772 -8.3796645,-3.930285 6.3774445,-0.222469 2.068792,2.614237 z" style="opacity:.878;fill:#4d4d4d;stroke:none;stroke-width:1px;stroke-linecap:butt;stroke-linejoin:miter;stroke-opacity:1"/><path id="path5341" d="M 16.685173,22.878772 25.213151,9.4564769 24.02665,7.2317872 16.759329,19.170955 l -0.07416,3.707817" style="opacity:.507;fill:#4d4d4d;stroke:none;stroke-width:1px;stroke-linecap:butt;stroke-linejoin:miter;stroke-opacity:1"/><polygon style="fill:#575b72;fill-opacity:1;stroke:none;stroke-linecap:round;stroke-linejoin:round" id="polygon5343" points="-7.442 955.968 20.197 1005.697 8.673 1003.882 -13.135 965.263" transform="matrix(0.22121066,0,0,0.21708917,27.478029,-200.73871)"/><polygon style="fill:#646494;fill-opacity:.607843;stroke:none;stroke-linecap:round;stroke-linejoin:round" id="polygon5345" points="-61.549 924.686 -74.432 931.94 -59.356 936.842 -46.706 929.32" transform="matrix(0.22121066,0,0,0.21708917,27.478029,-200.73871)"/><polygon style="fill:#9999f0;fill-opacity:1;stroke:none;stroke-linecap:round;stroke-linejoin:round" id="polygon5347" points="-7.442 955.968 -80.034 935.983 -123.198 996.744 -53.511 1031.184" transform="matrix(0.22121066,0,0,0.21708917,27.478029,-200.73871)"/><polygon style="fill:#c1c1d4;fill-opacity:1;stroke:none;stroke-linecap:round;stroke-linejoin:round" id="polygon5349" points="-59.457 943.888 -60.042 984.924 -70.587 982.306 -69.807 940.522" transform="matrix(0.22121066,0,0,0.21708917,27.478029,-200.73871)"/><path id="path5351" d="M 16.406214,9.0847026 18.946941,4.914402 16.777869,4.3211514 14.441944,7.5654906 Z" style="opacity:.857;fill:#4d4d4d;stroke:none;stroke-width:1px;stroke-linecap:butt;stroke-linejoin:miter;stroke-opacity:1"/><polygon style="fill:#646493;fill-opacity:1;stroke:none;stroke-linecap:round;stroke-linejoin:round" id="polygon5353" points="-49.796 938.448 -50.051 966.531 -60.042 984.924 -59.457 943.888" transform="matrix(0.22121066,0,0,0.21708917,27.478029,-200.73871)"/><polygon style="fill:#090956;fill-opacity:1;stroke:none;stroke-linecap:round;stroke-linejoin:round" id="polygon5355" points="-67.686 931.632 -60.858 927.423 -53.08 930.021 -59.498 934.233" transform="matrix(0.22121066,0,0,0.21708917,27.478029,-200.73871)"/><polygon style="fill:#bbbbea;fill-opacity:1;stroke:none;stroke-linecap:round;stroke-linejoin:round" id="polygon5357" points="-74.432 931.94 -74.533 938.986 -59.457 943.888 -59.356 936.842" transform="matrix(0.22121066,0,0,0.21708917,27.478029,-200.73871)"/><polygon style="fill:#7676f4;fill-opacity:1;stroke:none;stroke-linecap:round;stroke-linejoin:round" id="polygon5359" points="-59.356 936.842 -59.457 943.888 -46.574 936.633 -46.706 929.32" transform="matrix(0.22121066,0,0,0.21708917,27.478029,-200.73871)"/></g></g></svg>