<svg xmlns="http://www.w3.org/2000/svg" xmlns:svg="http://www.w3.org/2000/svg" xmlns:xlink="http://www.w3.org/1999/xlink" id="svg8" width="32" height="32" version="1.1" viewBox="0 0 8.467 8.467"><defs id="defs2"><linearGradient id="linearGradient8532"><stop style="stop-color:#2929ff;stop-opacity:1" id="stop8526" offset="0"/><stop id="stop8528" offset=".24" style="stop-color:#6464e9;stop-opacity:1"/><stop style="stop-color:#1515f0;stop-opacity:1" id="stop8534" offset=".887"/><stop style="stop-color:#0000d1;stop-opacity:1" id="stop8530" offset="1"/></linearGradient><linearGradient id="linearGradient6517" x1="258.618" x2="285.338" y1="176.501" y2="176.501" gradientTransform="matrix(1.1019365,0,0,1.1019365,-27.739221,-18.502129)" gradientUnits="userSpaceOnUse" xlink:href="#linearGradient8532"/><linearGradient id="linearGradient6303"><stop style="stop-color:#ffd43b;stop-opacity:1" id="stop6299" offset="0"/><stop id="stop6305" offset=".659" style="stop-color:#ffdd3e;stop-opacity:1"/><stop style="stop-color:#ffed92;stop-opacity:1" id="stop6301" offset="1"/></linearGradient><linearGradient id="linearGradient28799-4"><stop style="stop-color:#fefefc;stop-opacity:1" id="stop28801-13" offset="0"/><stop id="stop28807-8" offset=".757" style="stop-color:#fefefc;stop-opacity:1"/><stop style="stop-color:#d4d4d4;stop-opacity:1" id="stop28803-8" offset="1"/></linearGradient><linearGradient id="linearGradient28853-5"><stop style="stop-color:#020204;stop-opacity:1" id="stop28855-3" offset="0"/><stop id="stop28865-0" offset=".734" style="stop-color:#020204;stop-opacity:1"/><stop style="stop-color:#5c5c5c;stop-opacity:1" id="stop28857-9" offset="1"/></linearGradient><linearGradient id="linearGradient28935-8"><stop style="stop-color:#949494;stop-opacity:.39215687" id="stop28937-7" offset="0"/><stop id="stop28943-3" offset=".5" style="stop-color:#949494;stop-opacity:1"/><stop style="stop-color:#949494;stop-opacity:.39215687" id="stop28939-8" offset="1"/></linearGradient><linearGradient id="linearGradient28976-3"><stop style="stop-color:#747474;stop-opacity:1" id="stop28978-7" offset="0"/><stop id="stop29259-5" offset=".125" style="stop-color:#8c8c8c;stop-opacity:1"/><stop id="stop29257-0" offset=".25" style="stop-color:#a4a4a4;stop-opacity:1"/><stop id="stop28984-4" offset=".5" style="stop-color:#d4d4d4;stop-opacity:1"/><stop style="stop-color:#d4d4d4;stop-opacity:1" id="stop28986-0" offset=".619"/><stop style="stop-color:#7c7c7c;stop-opacity:1" id="stop28980-2" offset="1"/></linearGradient><clipPath id="clipPath29028-5" clipPathUnits="userSpaceOnUse"><path style="fill:url(#radialGradient29032);fill-opacity:1;stroke:none" id="path29030-7" d="m 85.75,122.36218 c -2.54738,2.12715 -5.20812,4.59907 -6.25,7.75 -1.30914,3.95917 -1.63336,8.91703 0.5,12.5 3.91901,6.58194 12.38353,13.85135 19.75,11.75 4.87452,-1.3905 6.10748,-8.51023 7,-13.5 0.59149,-3.30679 0.59578,-7.19325 -1.25,-10 -3.61233,-5.49303 -10.4265,-9.89357 -17,-10 -1.04403,-0.0169 -1.94852,0.83074 -2.75,1.5 z"/></clipPath><linearGradient id="linearGradient29336-6"><stop style="stop-color:#646464;stop-opacity:0" id="stop29338-1" offset="0"/><stop id="stop29344-7" offset=".306" style="stop-color:#646464;stop-opacity:.5825243"/><stop style="stop-color:#646464;stop-opacity:1" id="stop29354-5" offset=".47"/><stop id="stop29356-3" offset=".728" style="stop-color:#646464;stop-opacity:.25728154"/><stop style="stop-color:#646464;stop-opacity:0" id="stop29340-6" offset="1"/></linearGradient><linearGradient id="linearGradient29477-3"><stop style="stop-color:#757574;stop-opacity:0" id="stop29479-5" offset="0"/><stop id="stop29487-5" offset=".263" style="stop-color:#757574;stop-opacity:1"/><stop id="stop29485-0" offset=".5" style="stop-color:#757574;stop-opacity:1"/><stop style="stop-color:#757574;stop-opacity:0" id="stop29481-3" offset="1"/></linearGradient><linearGradient id="linearGradient28469-0"><stop id="stop28479-4" offset="0" style="stop-color:#d2940a;stop-opacity:1"/><stop id="stop28477-2" offset=".751" style="stop-color:#d89c08;stop-opacity:1"/><stop style="stop-color:#b67e07;stop-opacity:1" id="stop28485-7" offset=".866"/><stop style="stop-color:#946106;stop-opacity:1" id="stop28473-1" offset="1"/></linearGradient><linearGradient id="linearGradient28275-8"><stop style="stop-color:#ad780a;stop-opacity:1" id="stop28277-1" offset="0"/><stop id="stop28291-9" offset=".12" style="stop-color:#d89e08;stop-opacity:1"/><stop id="stop28289-6" offset=".255" style="stop-color:#edb80b;stop-opacity:1"/><stop id="stop28287-6" offset=".392" style="stop-color:#ebc80d;stop-opacity:1"/><stop id="stop28285-7" offset=".527" style="stop-color:#f5d838;stop-opacity:1"/><stop id="stop28283-7" offset=".769" style="stop-color:#f6d811;stop-opacity:1"/><stop style="stop-color:#f5cd31;stop-opacity:1" id="stop28279-5" offset="1"/></linearGradient><linearGradient id="linearGradient29529-6"><stop style="stop-color:#3a2903;stop-opacity:1" id="stop29531-0" offset="0"/><stop id="stop29539-7" offset=".555" style="stop-color:#735208;stop-opacity:1"/><stop style="stop-color:#ac8c04;stop-opacity:1" id="stop29533-8" offset="1"/></linearGradient><clipPath id="clipPath29644-8" clipPathUnits="userSpaceOnUse"><path style="fill:url(#radialGradient29648);fill-opacity:1;stroke:none" id="path29646-8" d="m 54.232441,122.36218 c -3.79199,4.78949 -8.5176,11.69104 -8.19273,17.25 0.32487,5.55896 3.86025,13.93486 8.37542,16 4.51517,2.06514 5.75436,0.0125 8.32902,-2.5 2.57466,-2.51247 3.85871,-7.34762 4.00585,-12.25 0.14713,-4.90238 -3.03534,-11.91949 -5.43855,-15.25 -2.40321,-3.33051 -3.28702,-8.03949 -7.07901,-3.25 z"/></clipPath><clipPath id="clipPath14656-7" clipPathUnits="userSpaceOnUse"><path style="fill:none;stroke:#c17d11;stroke-width:1px;stroke-linecap:butt;stroke-linejoin:miter;stroke-opacity:1" id="path14658-9" d="m 304.84727,225.44951 c 6.01627,4.92338 9.77707,12.317 10.94319,20.00305 1.8254,12.03148 -2.34636,24.07488 -6.44591,35.53273 -0.81749,2.28481 -1.63978,4.59033 -1.96473,6.99513 -0.32495,2.4048 -0.11897,4.94825 1.02948,7.08594 1.30279,2.42497 3.73227,4.12469 6.36677,4.92292 2.58877,0.78438 5.39365,0.76103 8.01466,0.0922 2.62101,-0.66882 5.06097,-1.96774 7.18716,-3.63996 5.48002,-4.30997 8.75799,-10.98552 10.01043,-17.84394 1.25243,-6.85841 0.63908,-13.92879 -0.551,-20.7983 -1.62313,-9.36916 -4.30898,-18.53961 -7.74003,-27.40773 -2.51766,-6.50732 -5.46794,-12.91081 -9.61753,-18.52016 -4.04611,-5.46946 -9.16208,-10.08954 -13.10336,-15.63502 -2.73209,-3.84412 -4.89983,-8.13097 -8.1917,-11.50812 -1.64594,-1.68858 -3.57654,-3.13527 -5.76975,-4.00143 -2.19321,-0.86616 -4.66356,-1.12446 -6.93254,-0.48249 -1.50468,0.42573 -2.89193,1.23739 -4.03791,2.30136 -1.14598,1.06397 -2.05268,2.37637 -2.69275,3.80312 -1.28015,2.85349 -1.47719,6.11241 -0.96512,9.1977 0.66114,3.98343 2.44407,7.69333 4.46569,11.18873 2.27396,3.93169 4.918,7.71926 8.38442,10.65407 3.5985,3.04664 7.96161,5.07413 11.61053,8.0602"/></clipPath><clipPath id="clipPath14489-3" clipPathUnits="userSpaceOnUse"><path id="path14491-6" d="m 516.00562,331.8756 c 0.90859,1.59687 -1.57016,3.38773 -2.81579,4.73826 -2.74207,2.97299 -6.45099,4.90178 -9.89648,7.01985 -5.91373,3.63539 -12.61918,5.90302 -18.41964,9.71654 -3.88318,2.553 -7.32809,5.72221 -10.86016,8.74238 -3.0221,2.58411 -5.48201,5.87643 -8.83247,8.01771 -3.3519,2.1422 -7.0437,4.15414 -10.99061,4.6502 -4.78298,0.60114 -9.87221,-0.25577 -14.29898,-2.16416 -3.0947,-1.33413 -6.16113,-3.38144 -7.96301,-6.22931 -1.81288,-2.86525 -2.06093,-6.5375 -2.23266,-9.92375 -0.30734,-6.06031 1.36252,-12.0605 2.17848,-18.07349 0.67882,-5.00236 1.85312,-9.94325 2.26013,-14.97502 0.73946,-9.14185 -0.7797,-18.40771 0.3199,-27.51327 0.35468,-2.93704 -0.181,-6.65876 2.01238,-8.64398 2.0384,-1.84494 5.43058,-1.1212 8.17929,-1.06253 3.34492,0.0714 6.63224,0.95108 9.88917,1.71656 2.05612,0.48325 3.99816,1.41138 6.0722,1.81081 3.44031,0.66255 6.96573,1.06623 10.46739,0.95192 3.78516,-0.12356 7.43659,-1.79636 11.22363,-1.76474 1.55185,0.013 3.12359,0.28186 4.58649,0.79985 1.48266,0.52499 2.98786,1.20618 4.12281,2.29512 0.86547,0.83038 1.42933,1.95676 1.87872,3.06879 0.67163,1.66196 0.8942,3.4778 1.16703,5.24945 0.24238,1.57389 -0.1531,3.27141 0.41433,4.75933 1.83023,4.79924 5.57666,8.72712 9.22489,12.34277 1.74278,1.93455 4.03041,3.53404 6.16708,4.82839 2.26886,1.37444 4.3675,2.44991 5.46279,4.81597 0.65901,1.48517 -0.54371,3.76097 0.68307,4.82635 z" style="fill:url(#linearGradient14485);fill-opacity:1;stroke:none"/></clipPath><clipPath id="clipPath14481-1" clipPathUnits="userSpaceOnUse"><path id="path14483-3" d="m 516.00562,331.8756 c 0.90859,1.59687 -1.57016,3.38773 -2.81579,4.73826 -2.74207,2.97299 -6.45099,4.90178 -9.89648,7.01985 -5.91373,3.63539 -12.61918,5.90302 -18.41964,9.71654 -3.88318,2.553 -7.32809,5.72221 -10.86016,8.74238 -3.0221,2.58411 -5.48201,5.87643 -8.83247,8.01771 -3.3519,2.1422 -7.0437,4.15414 -10.99061,4.6502 -4.78298,0.60114 -9.87221,-0.25577 -14.29898,-2.16416 -3.0947,-1.33413 -6.16113,-3.38144 -7.96301,-6.22931 -1.81288,-2.86525 -2.06093,-6.5375 -2.23266,-9.92375 -0.30734,-6.06031 1.36252,-12.0605 2.17848,-18.07349 0.67882,-5.00236 1.85312,-9.94325 2.26013,-14.97502 0.73946,-9.14185 -0.7797,-18.40771 0.3199,-27.51327 0.35468,-2.93704 -0.181,-6.65876 2.01238,-8.64398 2.0384,-1.84494 5.43058,-1.1212 8.17929,-1.06253 3.34492,0.0714 6.63224,0.95108 9.88917,1.71656 2.05612,0.48325 3.99816,1.41138 6.0722,1.81081 3.44031,0.66255 6.96573,1.06623 10.46739,0.95192 3.78516,-0.12356 7.43659,-1.79636 11.22363,-1.76474 1.55185,0.013 3.12359,0.28186 4.58649,0.79985 1.48266,0.52499 2.98786,1.20618 4.12281,2.29512 0.86547,0.83038 1.42933,1.95676 1.87872,3.06879 0.67163,1.66196 0.8942,3.4778 1.16703,5.24945 0.24238,1.57389 -0.1531,3.27141 0.41433,4.75933 1.83023,4.79924 5.57666,8.72712 9.22489,12.34277 1.74278,1.93455 4.03041,3.53404 6.16708,4.82839 2.26886,1.37444 4.3675,2.44991 5.46279,4.81597 0.65901,1.48517 -0.54371,3.76097 0.68307,4.82635 z" style="fill:url(#linearGradient14485);fill-opacity:1;stroke:none"/></clipPath><clipPath id="clipPath14473-5" clipPathUnits="userSpaceOnUse"><path id="path14475-9" d="m 511.82669,331.89986 c 0.79493,1.29584 -1.37375,2.7491 -2.46357,3.84504 -2.39907,2.41255 -5.64405,3.97773 -8.65855,5.69652 -5.17399,2.95008 -11.04067,4.79023 -16.11556,7.88485 -3.39744,2.07173 -6.41144,4.64351 -9.50169,7.09434 -2.64407,2.09697 -4.79627,4.76865 -7.72763,6.50627 -2.93262,1.73837 -6.16262,3.37103 -9.61582,3.77358 -4.18468,0.48781 -8.63731,-0.20756 -12.51035,-1.75619 -2.70759,-1.08263 -5.39044,-2.744 -6.96693,-5.05501 -1.58611,-2.32511 -1.80313,-5.3051 -1.95338,-8.053 -0.2689,-4.91787 1.19208,-9.78694 1.90598,-14.66641 0.59391,-4.05935 1.62131,-8.06882 1.97741,-12.15204 0.64696,-7.4185 -0.68217,-14.93763 0.27989,-22.32668 0.31031,-2.38337 -0.15836,-5.4035 1.76065,-7.01448 1.78342,-1.49715 4.75128,-0.90984 7.15616,-0.86223 2.92651,0.0579 5.80263,0.77179 8.65215,1.39297 1.79893,0.39215 3.49804,1.14531 5.31265,1.46945 3.00996,0.53765 6.0944,0.86523 9.15804,0.77247 3.31168,-0.10027 6.50636,-1.45773 9.81969,-1.43207 1.35773,0.0105 2.73287,0.22873 4.01277,0.64907 1.2972,0.42602 2.61412,0.9788 3.6071,1.86246 0.75721,0.67384 1.25054,1.58789 1.64371,2.49029 0.58762,1.34866 0.78235,2.82219 1.02105,4.25986 0.21206,1.27719 -0.13395,2.65471 0.36251,3.86214 1.60129,3.89452 4.87908,7.08195 8.07096,10.016 1.52478,1.56986 3.52626,2.86783 5.39565,3.91818 1.98506,1.11534 3.82118,1.98807 4.77946,3.9081 0.57658,1.2052 -0.47569,3.05198 0.59763,3.91652 z" style="fill:url(#linearGradient14477);fill-opacity:1;stroke:none"/></clipPath><linearGradient id="linearGradient14518-6"><stop style="stop-color:#110800;stop-opacity:1" id="stop14540-0" offset="0"/><stop id="stop14542-5" offset=".591" style="stop-color:#a65a00;stop-opacity:.80000001"/><stop id="stop14522-4" offset="1" style="stop-color:#ff921e;stop-opacity:0"/></linearGradient><clipPath id="clipPath14822-9" clipPathUnits="userSpaceOnUse"><path style="fill:none;stroke:#ce5c00;stroke-width:1px;stroke-linecap:butt;stroke-linejoin:miter;stroke-opacity:1" id="path14824-1" d="m 386.1875,285.32775 c -0.40516,-1.10369 -1.11845,-2.08156 -1.9907,-2.86987 -0.87226,-0.78832 -1.90049,-1.39229 -2.98278,-1.85155 -2.16459,-0.91852 -4.52053,-1.26149 -6.83152,-1.69556 -2.17919,-0.40931 -4.34179,-0.90631 -6.52782,-1.27734 -2.27136,-0.38551 -4.6179,-0.63213 -6.8653,-0.1253 -1.96583,0.44333 -3.7845,1.45879 -5.27172,2.81864 -1.48723,1.35984 -2.64911,3.0564 -3.48499,4.89007 -1.47218,3.22952 -1.93451,6.86503 -1.65394,10.40316 0.20882,2.63325 0.87532,5.34594 2.60877,7.33912 1.40065,1.61052 3.38733,2.61526 5.43398,3.22092 3.52502,1.04316 7.36663,0.98822 10.86038,-0.1553 5.76689,-1.93113 10.87568,-5.77387 14.33034,-10.77903 1.13861,-1.64963 2.11217,-3.44809 2.5532,-5.4034 0.33597,-1.48955 0.34831,-3.08112 -0.1779,-4.51456"/></clipPath><clipPath id="clipPath14822-2-4" clipPathUnits="userSpaceOnUse"><path style="fill:none;stroke:#ce5c00;stroke-width:1px;stroke-linecap:butt;stroke-linejoin:miter;stroke-opacity:1" id="path14824-6-5" d="m 386.1875,285.32775 c -0.40516,-1.10369 -1.11845,-2.08156 -1.9907,-2.86987 -0.87226,-0.78832 -1.90049,-1.39229 -2.98278,-1.85155 -2.16459,-0.91852 -4.52053,-1.26149 -6.83152,-1.69556 -2.17919,-0.40931 -4.34179,-0.90631 -6.52782,-1.27734 -2.27136,-0.38551 -4.6179,-0.63213 -6.8653,-0.1253 -1.96583,0.44333 -3.7845,1.45879 -5.27172,2.81864 -1.48723,1.35984 -2.64911,3.0564 -3.48499,4.89007 -1.47218,3.22952 -1.93451,6.86503 -1.65394,10.40316 0.20882,2.63325 0.87532,5.34594 2.60877,7.33912 1.40065,1.61052 3.38733,2.61526 5.43398,3.22092 3.52502,1.04316 7.36663,0.98822 10.86038,-0.1553 5.76689,-1.93113 10.87568,-5.77387 14.33034,-10.77903 1.13861,-1.64963 2.11217,-3.44809 2.5532,-5.4034 0.33597,-1.48955 0.34831,-3.08112 -0.1779,-4.51456"/></clipPath><clipPath id="clipPath15031-3" clipPathUnits="userSpaceOnUse"><path id="path15033-2" d="m 248.06066,184.61218 c 0,0 -5.10626,6.34527 -7.89695,10.24696 -2.7907,3.9017 -5.73652,6.64881 -8.58729,10.75139 -2.85076,4.10259 -7.36482,9.43164 -9.44912,13.93045 -2.08429,4.49881 -2.32047,9.0356 -4.26498,13.84932 -1.94451,4.81371 -3.70129,10.64183 -5.97071,15.33612 -2.26943,4.69429 -5.37093,9.68473 -6.93891,13.53553 -1.56799,3.8508 -3.81119,5.72384 -4.10782,10.22071 -0.29663,4.49686 -0.57747,8.31749 3.77151,16.77227 4.34898,8.45478 17.23626,22.00721 24.24176,27.92472 7.00549,5.9175 9.39133,7.22492 14.60245,8.52595 5.21112,1.30104 13.85627,2.9981 16.72874,-1.2702 2.87246,-4.26829 2.27191,-5.96483 -0.74863,-10.66616 -3.02055,-4.70132 -4.82469,-5.30209 -9.79642,-9.57343 -4.97172,-4.27133 -18.63696,-14.87266 -22.68212,-19.23996 -4.04516,-4.36729 -7.10731,-3.41164 -5.53019,-6.28412 1.57712,-2.87249 -2.20738,-4.00856 -2.65783,-7.69253 -0.76361,-6.24511 0.9436,-18.71046 1.45958,-22.13343 0.51598,-3.42296 1.22371,-2.92446 3.51815,-8.03965 2.29444,-5.11519 4.12424,-8.62435 7.04933,-13.46723 2.92509,-4.84289 8.62493,-10.12787 11.15147,-15.27803 2.52654,-5.15017 3.50393,-10.72068 4.36185,-15.31831 0.85792,-4.59763 1.74613,-12.13037 1.74613,-12.13037 z" style="fill:none;stroke:#729fcf;stroke-width:.125;stroke-linecap:butt;stroke-linejoin:miter;stroke-miterlimit:4;stroke-dasharray:none;stroke-opacity:1"/></clipPath><clipPath id="clipPath14186-9" clipPathUnits="userSpaceOnUse"><path style="fill:#402c07;fill-opacity:1;stroke:none" id="path14188-1" d="m 137.57703,281.0191 c 1.59929,-0.66295 3.3982,-0.78361 5.10074,-0.46963 1.70253,0.31398 3.31141,1.04948 4.74342,2.02239 2.86402,1.94583 4.98821,4.77774 7.02263,7.57952 4.67189,6.43406 9.16868,13.00227 13.24488,19.8293 3.30635,5.53766 6.34352,11.25685 10.16415,16.45304 2.49398,3.3919 5.3066,6.53947 7.813,9.92221 2.50639,3.38273 4.72794,7.05586 5.83931,11.11662 1.44411,5.27653 0.88463,11.09291 -1.62666,15.95302 -1.76663,3.41896 -4.47646,6.35228 -7.77242,8.33898 -3.29595,1.9867 -7.17064,3.01444 -11.01635,2.87021 -6.11413,-0.2293 -11.69944,-3.28515 -17.38362,-5.54906 -11.58097,-4.6125 -24.15978,-6.0594 -36.09666,-9.65174 -3.66859,-1.10404 -7.27582,-2.4107 -10.96988,-3.42629 -1.64125,-0.45122 -3.30866,-0.8482 -4.85875,-1.55144 -1.55008,-0.70325 -2.999548,-1.7491 -3.86171,-3.21675 -0.666391,-1.13439 -0.948386,-2.47002 -0.930187,-3.78554 0.0182,-1.31552 0.325889,-2.61453 0.773815,-3.85158 0.895851,-2.47409 2.343262,-4.71374 3.320162,-7.15696 1.59511,-3.98935 1.88169,-8.38839 1.66657,-12.67942 -0.21511,-4.29103 -0.91078,-8.54478 -1.20454,-12.83115 -0.13118,-1.91406 -0.18066,-3.85256 0.18479,-5.73598 0.36545,-1.88343 1.17577,-3.72459 2.55771,-5.05541 1.27406,-1.22693 2.96492,-1.95531 4.69643,-2.31651 1.73151,-0.3612 3.51533,-0.37747 5.28367,-0.33762 1.76833,0.0399 3.54067,0.13425 5.30351,-0.0106 1.76284,-0.14488 3.53347,-0.54055 5.06911,-1.41828 1.45996,-0.83447 2.65433,-2.0745 3.64374,-3.43424 0.9894,-1.35974 1.78909,-2.84573 2.60891,-4.31396 0.81983,-1.46823 1.66834,-2.93151 2.74157,-4.22611 1.07324,-1.2946 2.38923,-2.42304 3.94266,-3.06698"/></clipPath><radialGradient id="radialGradient7093" cx="9.698" cy="11.476" r="3.472" fx="9.698" fy="11.476" gradientTransform="matrix(1.0000001,0,0,1.0017763,-6.6600011e-7,-0.01761378)" gradientUnits="userSpaceOnUse" xlink:href="#linearGradient5749"/><linearGradient id="linearGradient5749"><stop style="stop-color:#280b0b;stop-opacity:1" id="stop5745" offset="0"/><stop style="stop-color:#a02c2c;stop-opacity:1" id="stop5747" offset="1"/></linearGradient><radialGradient id="radialGradient7099" cx="13.11" cy="21.739" r="7.587" fx="13.11" fy="21.739" gradientTransform="matrix(0.99985883,-0.0168028,0.02330043,1.3865041,-0.45010331,-7.2308306)" gradientUnits="userSpaceOnUse" xlink:href="#linearGradient5761"/><linearGradient id="linearGradient5761"><stop style="stop-color:#d10000;stop-opacity:1" id="stop5757" offset="0"/><stop id="stop5776" offset=".821" style="stop-color:red;stop-opacity:1"/><stop style="stop-color:#ff1e1e;stop-opacity:1" id="stop5759" offset="1"/></linearGradient><radialGradient id="radialGradient7095" cx="13.11" cy="21.739" r="7.587" fx="13.11" fy="21.739" gradientTransform="matrix(0.99985883,-0.0168028,0.02330043,1.3865041,-0.45010331,-7.2308306)" gradientUnits="userSpaceOnUse" xlink:href="#linearGradient5761"/><radialGradient id="radialGradient7097" cx="13.11" cy="21.739" r="7.587" fx="13.11" fy="21.739" gradientTransform="matrix(0.99985883,-0.0168028,0.02330043,1.3865041,-0.45010331,-7.2308306)" gradientUnits="userSpaceOnUse" xlink:href="#linearGradient5761"/><linearGradient id="linearGradient7101" x1="16.01" x2="18.262" y1="13.324" y2="9.824" gradientUnits="userSpaceOnUse" xlink:href="#linearGradient5793"/><linearGradient id="linearGradient5793"><stop style="stop-color:#ececec;stop-opacity:.19499999" id="stop5789" offset="0"/><stop style="stop-color:#fff;stop-opacity:1" id="stop5791" offset="1"/></linearGradient><filter style="color-interpolation-filters:sRGB" id="filter5785" width="1.175" height="1.237" x="-.088" y="-.119"><feGaussianBlur id="feGaussianBlur5787" stdDeviation=".157"/></filter></defs><metadata id="metadata5"/><g id="layer1"><g id="g7089" transform="matrix(0.26455472,0,0,0.26458298,4.5783034e-4,5.6699108e-6)"><g id="g7087" transform="matrix(0.96828858,0,0,0.96897053,0.50311121,0.49973744)"><path style="color:#000;font-style:normal;font-variant:normal;font-weight:400;font-stretch:normal;font-size:medium;line-height:normal;font-family:sans-serif;font-variant-ligatures:normal;font-variant-position:normal;font-variant-caps:normal;font-variant-numeric:normal;font-variant-alternates:normal;font-feature-settings:normal;text-indent:0;text-align:start;text-decoration:none;text-decoration-line:none;text-decoration-style:solid;text-decoration-color:#000;letter-spacing:normal;word-spacing:normal;text-transform:none;writing-mode:lr-tb;direction:ltr;text-orientation:mixed;dominant-baseline:auto;baseline-shift:baseline;text-anchor:start;white-space:normal;shape-padding:0;clip-rule:nonzero;display:inline;overflow:visible;visibility:visible;opacity:1;isolation:auto;mix-blend-mode:normal;color-interpolation:sRGB;color-interpolation-filters:linearRGB;solid-color:#000;solid-opacity:1;vector-effect:none;fill:#000;fill-opacity:1;fill-rule:nonzero;stroke:#fff;stroke-width:.4;stroke-linecap:round;stroke-linejoin:round;stroke-miterlimit:4;stroke-dasharray:none;stroke-dashoffset:0;stroke-opacity:1;color-rendering:auto;image-rendering:auto;shape-rendering:auto;text-rendering:auto;enable-background:accumulate" id="path7055" d="M 9.6509511,-0.315753 A 0.49956052,0.50053999 0 0 0 9.1516064,0.13210045 L 8.7503617,3.4843305 a 0.49956052,0.50053999 0 0 0 0.037617,0.2594001 L 10.125953,6.8291707 A 0.4997955,0.50077543 0 1 0 11.042766,6.4300983 L 9.7578993,3.4688092 10.143653,0.25108281 A 0.49956052,0.50053999 0 0 0 9.6509511,-0.315753 Z m 7.9592469,1.8335278 a 0.49956052,0.50053999 0 0 0 -0.501557,0.5897469 l 0.776673,4.6684409 -1.192669,2.429185 a 0.49974402,0.50072385 0 1 0 0.8969,0.4419393 l 1.26274,-2.5732957 a 0.49956052,0.50053999 0 0 0 0.04499,-0.3030011 L 18.094052,1.9427172 A 0.49956052,0.50053999 0 0 0 17.610198,1.5177748 Z M 5.4128032,6.3155468 0.18629819,6.4094046 a 0.49956052,0.50053999 0 1 0 0.0177001,1.0006437 L 5.2984796,7.3191495 7.8431372,8.7055655 A 0.49956052,0.50053999 0 1 0 8.3203521,7.8261214 L 5.6606308,6.3761486 A 0.49956052,0.50053999 0 0 0 5.4128032,6.3155468 Z M 23.347113,7.4255696 a 0.49956052,0.50053999 0 0 0 -0.340765,0.1433691 l -2.833052,2.7876153 a 0.49956052,0.50053999 0 1 0 0.699963,0.713902 L 23.498317,8.4875528 29.24039,10.149624 A 0.49956052,0.50053999 0 1 0 29.517723,9.1881506 L 23.495364,7.4447838 A 0.49956052,0.50053999 0 0 0 23.347113,7.4255696 Z M 1.9063367,11.768098 a 0.49956052,0.50053999 0 0 0 -0.2065211,0.951867 l 1.5540837,0.778196 1.2538924,1.569697 a 0.49956052,0.50053999 0 0 0 0.3105199,0.181801 l 5.1225099,0.827712 A 0.49956052,0.50053999 0 1 0 10.099401,15.08929 L 5.1671886,14.291879 3.9656677,12.787218 A 0.49956052,0.50053999 0 0 0 3.7989727,12.651977 L 2.1467889,11.824265 A 0.49956052,0.50053999 0 0 0 1.9063367,11.768098 Z M 24.187215,15.29326 a 0.49956052,0.50053999 0 0 0 -0.09146,0.993254 l 4.488185,0.872796 2.829365,3.607934 a 0.49956052,0.50053999 0 1 0 0.785526,-0.617827 l -2.94443,-3.755741 a 0.49956052,0.50053999 0 0 0 -0.297982,-0.181801 l -4.67037,-0.908266 a 0.49956052,0.50053999 0 0 0 -0.09884,-0.01035 z m -13.344331,3.761655 a 0.49956052,0.50053999 0 0 0 -0.08482,0.0089 l -4.6261141,0.827711 a 0.49956052,0.50053999 0 0 0 -0.4093602,0.445633 l -0.6608735,6.953519 a 0.49956052,0.50053999 0 1 0 0.9942634,0.09459 l 0.6247294,-6.575136 4.252899,-0.760458 a 0.49956052,0.50053999 0 0 0 -0.09072,-0.994734 z m 3.947537,3.474172 a 0.49956052,0.50053999 0 0 0 -0.303885,0.124158 l -3.469586,2.9805 a 0.49956052,0.50053999 0 0 0 -0.174807,0.379862 v 5.794719 a 0.499713,0.50069277 0 1 0 0.999426,0 v -5.564144 l 3.295516,-2.830479 a 0.49956052,0.50053999 0 0 0 -0.346664,-0.884616 z"/><path id="path7057" d="M 9.6509511,-0.315753 A 0.49956052,0.50053999 0 0 0 9.1516064,0.13210045 L 8.7503617,3.4843305 a 0.49956052,0.50053999 0 0 0 0.037617,0.2594001 L 10.125953,6.8291707 A 0.4997955,0.50077543 0 1 0 11.042766,6.4300983 L 9.7578993,3.4688092 10.143653,0.25108281 A 0.49956052,0.50053999 0 0 0 9.6509511,-0.315753 Z m 7.9592469,1.8335278 a 0.49956052,0.50053999 0 0 0 -0.501557,0.5897469 l 0.776673,4.6684409 -1.192669,2.429185 a 0.49974402,0.50072385 0 1 0 0.8969,0.4419393 l 1.26274,-2.5732957 a 0.49956052,0.50053999 0 0 0 0.04499,-0.3030011 L 18.094052,1.9427172 A 0.49956052,0.50053999 0 0 0 17.610198,1.5177748 Z M 5.4128032,6.3155468 0.18629819,6.4094046 a 0.49956052,0.50053999 0 1 0 0.0177001,1.0006437 L 5.2984796,7.3191495 7.8431372,8.7055655 A 0.49956052,0.50053999 0 1 0 8.3203521,7.8261214 L 5.6606308,6.3761486 A 0.49956052,0.50053999 0 0 0 5.4128032,6.3155468 Z M 23.347113,7.4255696 a 0.49956052,0.50053999 0 0 0 -0.340765,0.1433691 l -2.833052,2.7876153 a 0.49956052,0.50053999 0 1 0 0.699963,0.713902 L 23.498317,8.4875528 29.24039,10.149624 A 0.49956052,0.50053999 0 1 0 29.517723,9.1881506 L 23.495364,7.4447838 A 0.49956052,0.50053999 0 0 0 23.347113,7.4255696 Z M 1.9063367,11.768098 a 0.49956052,0.50053999 0 0 0 -0.2065211,0.951867 l 1.5540837,0.778196 1.2538924,1.569697 a 0.49956052,0.50053999 0 0 0 0.3105199,0.181801 l 5.1225099,0.827712 A 0.49956052,0.50053999 0 1 0 10.099401,15.08929 L 5.1671886,14.291879 3.9656677,12.787218 A 0.49956052,0.50053999 0 0 0 3.7989727,12.651977 L 2.1467889,11.824265 A 0.49956052,0.50053999 0 0 0 1.9063367,11.768098 Z M 24.187215,15.29326 a 0.49956052,0.50053999 0 0 0 -0.09146,0.993254 l 4.488185,0.872796 2.829365,3.607934 a 0.49956052,0.50053999 0 1 0 0.785526,-0.617827 l -2.94443,-3.755741 a 0.49956052,0.50053999 0 0 0 -0.297982,-0.181801 l -4.67037,-0.908266 a 0.49956052,0.50053999 0 0 0 -0.09884,-0.01035 z m -13.344331,3.761655 a 0.49956052,0.50053999 0 0 0 -0.08482,0.0089 l -4.6261141,0.827711 a 0.49956052,0.50053999 0 0 0 -0.4093602,0.445633 l -0.6608735,6.953519 a 0.49956052,0.50053999 0 1 0 0.9942634,0.09459 l 0.6247294,-6.575136 4.252899,-0.760458 a 0.49956052,0.50053999 0 0 0 -0.09072,-0.994734 z m 3.947537,3.474172 a 0.49956052,0.50053999 0 0 0 -0.303885,0.124158 l -3.469586,2.9805 a 0.49956052,0.50053999 0 0 0 -0.174807,0.379862 v 5.794719 a 0.499713,0.50069277 0 1 0 0.999426,0 v -5.564144 l 3.295516,-2.830479 a 0.49956052,0.50053999 0 0 0 -0.346664,-0.884616 z" style="color:#000;font-style:normal;font-variant:normal;font-weight:400;font-stretch:normal;font-size:medium;line-height:normal;font-family:sans-serif;font-variant-ligatures:normal;font-variant-position:normal;font-variant-caps:normal;font-variant-numeric:normal;font-variant-alternates:normal;font-feature-settings:normal;text-indent:0;text-align:start;text-decoration:none;text-decoration-line:none;text-decoration-style:solid;text-decoration-color:#000;letter-spacing:normal;word-spacing:normal;text-transform:none;writing-mode:lr-tb;direction:ltr;text-orientation:mixed;dominant-baseline:auto;baseline-shift:baseline;text-anchor:start;white-space:normal;shape-padding:0;clip-rule:nonzero;display:inline;overflow:visible;visibility:visible;opacity:1;isolation:auto;mix-blend-mode:normal;color-interpolation:sRGB;color-interpolation-filters:linearRGB;solid-color:#000;solid-opacity:1;vector-effect:none;fill:#000;fill-opacity:1;fill-rule:nonzero;stroke:#fff;stroke-width:.4;stroke-linecap:round;stroke-linejoin:round;stroke-miterlimit:4;stroke-dasharray:none;stroke-dashoffset:0;stroke-opacity:1;color-rendering:auto;image-rendering:auto;shape-rendering:auto;text-rendering:auto;enable-background:accumulate"/><path id="path7059" d="m 22.383561,22.113103 c -2.875971,2.881607 -7.410592,2.023838 -10.057884,-0.628277 -2.6472927,-2.65248 -3.5030141,-7.195993 -0.627043,-10.0776 2.875963,-2.8812429 7.410583,-2.0238388 10.057876,0.628642 2.646567,2.652115 3.50265,7.195991 0.627051,10.077235 z" style="fill:maroon;stroke:none;stroke-width:.364496;stroke-linecap:round;stroke-linejoin:round"/><path id="path7061" d="M 13.353619,12.35787 C 12.035644,13.678425 9.9514423,13.348097 8.7214559,12.115705 7.4914791,10.883692 7.1617998,8.7953995 8.4801507,7.4744664 9.7981158,6.1539117 11.882327,6.4842395 13.112304,7.7166311 14.342281,8.9486444 14.67196,11.036937 13.353619,12.35787 Z" style="fill:url(#radialGradient7093);fill-opacity:1;stroke:#000;stroke-width:.378012;stroke-linecap:round;stroke-linejoin:round"/><g style="fill:url(#radialGradient7099);fill-opacity:1" id="g7067"><path style="fill:url(#radialGradient7095);fill-opacity:1;stroke:#000;stroke-width:.378012;stroke-linecap:round;stroke-linejoin:round" id="path7063" d="m 11.663673,11.050937 c 7.392714,6.726883 8.647993,8.471983 9.414229,10.139514 0.302873,0.659143 0.529078,1.306177 0.432778,1.97667 -3.316445,2.091698 -7.561526,0.709467 -9.899125,-2.098509 -2.3681953,-2.844679 -2.8802734,-7.290294 0.05207,-10.017675 z"/><path style="fill:url(#radialGradient7097);fill-opacity:1;stroke:#000;stroke-width:.378012;stroke-linecap:round;stroke-linejoin:round" id="path7065" d="m 11.663673,11.050937 c 2.80588,-2.6097035 7.024136,-1.9849941 9.731827,0.315571 2.682774,2.279376 4.040013,6.3205 2.19863,9.604482 -0.06837,-0.01514 -0.138593,-0.03443 -0.212233,-0.05751 -1.013212,-0.320869 -2.578162,-1.389799 -11.718224,-9.862539 z"/></g><ellipse id="ellipse7069" cx="17.236" cy="12.883" rx=".826" ry=".828" style="fill:#000;stroke:none;stroke-width:.378012;stroke-linecap:round;stroke-linejoin:round"/><ellipse id="ellipse7071" cx="10.775" cy="7.49" rx=".729" ry=".73" style="fill:#faa;stroke:none;stroke-width:.378012;stroke-linecap:round;stroke-linejoin:round"/><ellipse id="ellipse7073" cx="8.675" cy="9.594" rx=".694" ry=".695" style="fill:#faa;stroke:none;stroke-width:.378012;stroke-linecap:round;stroke-linejoin:round"/><ellipse id="ellipse7075" cx="12.113" cy="16.194" rx=".701" ry=".702" style="fill:#000;stroke:none;stroke-width:.378012;stroke-linecap:round;stroke-linejoin:round"/><ellipse id="ellipse7077" cx="15.584" cy="18.015" rx="1.168" ry="1.171" style="fill:#000;stroke:none;stroke-width:.378012;stroke-linecap:round;stroke-linejoin:round"/><path id="path7079" d="m 18.176065,19.975565 c -1.608578,1.468775 -4.066561,1.219278 -5.734349,-0.654212 -1.667789,-1.873492 -1.913823,-4.661521 -0.30525,-6.130301 1.608577,-1.468774 2.060637,1.13114 3.728425,3.004632 1.667789,1.873491 3.919749,2.311106 2.311174,3.779881 z" style="opacity:.843;fill:#ececec;fill-opacity:.195;fill-rule:nonzero;stroke:none;stroke-width:1.49441;stroke-linecap:butt;stroke-linejoin:round;stroke-miterlimit:4;stroke-dasharray:none;stroke-dashoffset:0;stroke-opacity:1"/><ellipse id="ellipse7081" cx="16.575" cy="21.326" rx="1.29" ry="1.293" style="fill:#000;stroke:none;stroke-width:.378012;stroke-linecap:round;stroke-linejoin:round"/><ellipse id="ellipse7083" cx="21.201" cy="15.366" rx="1.108" ry="1.111" style="fill:#1a1a1a;stroke:none;stroke-width:.378012;stroke-linecap:round;stroke-linejoin:round"/><path id="path7085" d="m 19.644938,12.677235 c -0.429624,0.647 -0.735976,-0.151098 -2.029976,-1.010346 -1.294,-0.859249 -2.65656,-0.768007 -2.226935,-1.415007 0.429625,-0.6470001 2.0397,-0.8850243 3.3337,-0.02578 1.293999,0.859249 1.352835,1.804129 0.923211,2.451129 z" transform="matrix(2.1848408,0,0,2.1848408,-20.38216,-11.229445)" style="opacity:.731;fill:url(#linearGradient7101);fill-opacity:1;fill-rule:nonzero;stroke:none;stroke-width:.355;stroke-linecap:butt;stroke-linejoin:round;stroke-miterlimit:4;stroke-dasharray:none;stroke-dashoffset:0;stroke-opacity:1;filter:url(#filter5785)"/></g></g></g></svg>