<svg xmlns="http://www.w3.org/2000/svg" xmlns:svg="http://www.w3.org/2000/svg" id="svg8" width="32" height="32" version="1.1" viewBox="0 0 8.467 8.467"><metadata id="metadata5"/><g id="layer1"><g id="g6412" transform="matrix(0.26457142,0,0,0.26458284,1.9103215e-4,7.4506906e-6)"><path id="path5593" d="M 13.089599,6.3135293 C 11.898076,6.3695246 10.706992,6.425066 9.5154687,6.4810601 8.3742576,5.1861437 6.2489352,6.0162413 6.2736462,7.7470916 c 0,2.2036673 0,4.4073354 0,6.6105594 0.6368057,0 1.2740395,0 1.9108452,0 0,0.907419 0,1.814837 0,2.722256 -0.6368057,0 -1.2740395,0 -1.9108452,0 0,3.823869 0,7.647737 0,11.471606 -0.6902053,0 -1.3799598,0 -2.070165,0 -0.690194,0 -1.3799598,0 -2.0701537,0 0,-3.823869 0,-7.647737 0,-11.471606 -0.6368057,0 -1.27405086,0 -1.91085654,0 0,-0.907419 0,-1.814837 0,-2.722256 0.63724514,0 1.27405084,0 1.91085654,0 0,-2.203224 0,-4.4068921 0,-6.6105594 C 2.2194158,4.9839514 4.2829213,2.6914087 7.0057688,2.3350177 9.7281767,1.9790715 12.305395,3.6641508 13.089599,6.3135293 Z" style="fill:#00aeff;fill-opacity:1;stroke:teal;stroke-width:.442838;stroke-linecap:round;stroke-linejoin:round"/><path id="path5755" d="m 27.4373,29.712226 c 2.893626,-2.720034 4.340226,-5.726692 4.340226,-9.020418 0,-0.770995 -0.07674,-1.540657 -0.230365,-2.308097 -0.153573,-0.76744 -0.401584,-1.536657 -0.743594,-2.307208 -0.342449,-0.770995 -0.794345,-1.541545 -1.355688,-2.312541 -0.561343,-0.770551 -1.244033,-1.535324 -2.048091,-2.293432 -0.316859,0.327951 -0.633718,0.655902 -0.950577,0.983408 2.427183,2.440521 3.64077,5.145447 3.64077,8.113888 0,1.478445 -0.306707,2.899119 -0.92012,4.26247 -0.613413,1.362905 -1.520293,2.649823 -2.72109,3.859862 0.32966,0.340394 0.658869,0.681231 0.988529,1.022068 z" style="fill:#00aeff;fill-opacity:1;stroke:teal;stroke-width:.442838;stroke-linecap:round;stroke-linejoin:round"/><path id="path5757" d="m 16.241696,15.578032 c 0.637832,0 1.27568,0 1.913512,0 0.0287,0.655293 0.05783,1.310584 0.08653,1.966443 0.356849,-0.422715 0.701342,-0.773562 1.033468,-1.05424 0.332124,-0.280677 0.658064,-0.506465 0.977821,-0.676796 0.31977,-0.17033 0.645711,-0.290864 0.977835,-0.359335 0.332125,-0.06903 0.676045,-0.102995 1.031773,-0.102995 1.255434,0 2.205733,0.370088 2.850311,1.110827 0.644576,0.740742 0.966585,1.856097 0.966585,3.346066 0,2.651728 0,5.303455 0,7.955182 -0.715949,0 -1.432459,0 -2.148408,0 0,-2.594573 0,-5.189146 0,-7.784285 0,-0.955775 -0.177026,-1.662564 -0.531062,-2.120364 -0.354036,-0.457798 -0.881165,-0.685849 -1.581946,-0.685849 -0.256822,0 -0.508017,0.03848 -0.753603,0.115436 -0.245585,0.07695 -0.501272,0.210508 -0.76709,0.400644 -0.265803,0.190138 -0.553531,0.447047 -0.863186,0.771299 -0.309639,0.32425 -0.658064,0.729422 -1.044142,1.214384 0,2.696432 0,5.392298 0,8.088731 -0.715949,0 -1.432459,0 -2.148408,0 0,-4.061907 0,-8.12325 0,-12.185156 z" style="fill:#00aeff;fill-opacity:1;stroke:teal;stroke-width:.563923;stroke-linecap:round;stroke-linejoin:round"/><path id="path5759" d="m 14.079446,29.712226 c -2.893638,-2.720034 -4.3402378,-5.726692 -4.3402378,-9.020418 0,-0.770995 0.076849,-1.540657 0.2303651,-2.308097 0.1535727,-0.76744 0.4015837,-1.536657 0.7435937,-2.307208 0.34246,-0.770995 0.794356,-1.541545 1.355688,-2.312541 0.561343,-0.770551 1.244044,-1.535324 2.048102,-2.293432 0.316848,0.327951 0.633707,0.655902 0.950566,0.983408 -2.427172,2.440521 -3.640758,5.145447 -3.640758,8.113888 0,1.478445 0.306706,2.899119 0.919669,4.26247 0.613413,1.362905 1.520304,2.649823 2.721089,3.859862 -0.329659,0.340394 -0.658868,0.681231 -0.988077,1.022068 z" style="fill:#00aeff;fill-opacity:1;stroke:teal;stroke-width:.442838;stroke-linecap:round;stroke-linejoin:round"/></g></g></svg>