<svg xmlns="http://www.w3.org/2000/svg" xmlns:svg="http://www.w3.org/2000/svg" xmlns:xlink="http://www.w3.org/1999/xlink" id="svg8" width="32" height="32" version="1.1" viewBox="0 0 8.467 8.467"><defs id="defs2"><filter style="color-interpolation-filters:sRGB" id="filter11477" width="1.333" height="1.092" x="-.166" y="-.046"><feGaussianBlur id="feGaussianBlur11479" stdDeviation=".573"/></filter><linearGradient id="linearGradient8661" x1="86.495" x2="92.696" y1="153.375" y2="131.75" gradientTransform="matrix(0.99989187,0,0,0.99999865,-2.4000916e-6,5.6349031e-4)" gradientUnits="userSpaceOnUse" xlink:href="#linearGradient6578"/><linearGradient id="linearGradient6578"><stop style="stop-color:#2929ff;stop-opacity:1" id="stop6574" offset="0"/><stop id="stop6582" offset=".24" style="stop-color:#8c8cef;stop-opacity:1"/><stop style="stop-color:#0000d1;stop-opacity:1" id="stop6576" offset="1"/></linearGradient><linearGradient id="linearGradient5584" x1="-354.785" x2="-337.878" y1="606.879" y2="578.262" gradientUnits="userSpaceOnUse" xlink:href="#linearGradient6578"/></defs><metadata id="metadata5"/><g id="layer1"><g id="g5863" transform="matrix(0.25511304,0,0,0.25511304,-16.270204,-32.630646)"><path style="color:#000;font-style:normal;font-variant:normal;font-weight:400;font-stretch:normal;font-size:medium;line-height:normal;font-family:sans-serif;font-variant-ligatures:normal;font-variant-position:normal;font-variant-caps:normal;font-variant-numeric:normal;font-variant-alternates:normal;font-feature-settings:normal;text-indent:0;text-align:start;text-decoration:none;text-decoration-line:none;text-decoration-style:solid;text-decoration-color:#000;letter-spacing:normal;word-spacing:normal;text-transform:none;writing-mode:lr-tb;direction:ltr;text-orientation:mixed;dominant-baseline:auto;baseline-shift:baseline;text-anchor:start;white-space:normal;shape-padding:0;clip-rule:nonzero;display:inline;overflow:visible;visibility:visible;opacity:1;isolation:auto;mix-blend-mode:normal;color-interpolation:sRGB;color-interpolation-filters:linearRGB;solid-color:#000;solid-opacity:1;vector-effect:none;fill:#fff;fill-opacity:1;fill-rule:nonzero;stroke:#fff;stroke-width:.186342;stroke-linecap:round;stroke-linejoin:round;stroke-miterlimit:4;stroke-dasharray:none;stroke-dashoffset:0;stroke-opacity:1;filter:url(#filter11477);color-rendering:auto;image-rendering:auto;shape-rendering:auto;text-rendering:auto;enable-background:accumulate" id="path11451" d="m 89.586026,129.53817 a 0.65887934,0.64571316 0 0 0 -0.0919,0.009 h -3.34186 a 0.65913464,0.64596336 0 1 0 0,1.29192 h 2.78488 v 13.66168 13.66262 h -2.78488 a 0.65887934,0.64571316 0 1 0 0,1.29005 h 3.3345 a 0.65887934,0.64571316 0 0 0 0.21692,0 h 3.33451 a 0.65887934,0.64571316 0 1 0 0,-1.29005 h -2.78305 v -13.66262 -13.66168 h 2.78305 a 0.65913465,0.64596336 0 1 0 0,-1.29192 h -3.33819 a 0.65887934,0.64571316 0 0 0 -0.11397,-0.009 z" transform="matrix(0.99989187,0,0,0.99999865,-2.4000916e-6,5.6349031e-4)"/><path id="path11499" d="m 89.586026,129.53817 a 0.65887934,0.64571316 0 0 0 -0.0919,0.009 h -3.34186 a 0.65913464,0.64596336 0 1 0 0,1.29192 h 2.78488 v 13.66168 13.66262 h -2.78488 a 0.65887934,0.64571316 0 1 0 0,1.29005 h 3.3345 a 0.65887934,0.64571316 0 0 0 0.21692,0 h 3.33451 a 0.65887934,0.64571316 0 1 0 0,-1.29005 h -2.78305 v -13.66262 -13.66168 h 2.78305 a 0.65913465,0.64596336 0 1 0 0,-1.29192 h -3.33819 a 0.65887934,0.64571316 0 0 0 -0.11397,-0.009 z" transform="matrix(0.99989187,0,0,0.99999865,-2.4000916e-6,5.6349031e-4)" style="color:#000;font-style:normal;font-variant:normal;font-weight:400;font-stretch:normal;font-size:medium;line-height:normal;font-family:sans-serif;font-variant-ligatures:normal;font-variant-position:normal;font-variant-caps:normal;font-variant-numeric:normal;font-variant-alternates:normal;font-feature-settings:normal;text-indent:0;text-align:start;text-decoration:none;text-decoration-line:none;text-decoration-style:solid;text-decoration-color:#000;letter-spacing:normal;word-spacing:normal;text-transform:none;writing-mode:lr-tb;direction:ltr;text-orientation:mixed;dominant-baseline:auto;baseline-shift:baseline;text-anchor:start;white-space:normal;shape-padding:0;clip-rule:nonzero;display:inline;overflow:visible;visibility:visible;opacity:1;isolation:auto;mix-blend-mode:normal;color-interpolation:sRGB;color-interpolation-filters:linearRGB;solid-color:#000;solid-opacity:1;vector-effect:none;fill:#fff;fill-opacity:1;fill-rule:nonzero;stroke:#fff;stroke-width:.186342;stroke-linecap:round;stroke-linejoin:round;stroke-miterlimit:4;stroke-dasharray:none;stroke-dashoffset:0;stroke-opacity:1;filter:url(#filter11477);color-rendering:auto;image-rendering:auto;shape-rendering:auto;text-rendering:auto;enable-background:accumulate"/><g id="g8562"><path style="color:#000;font-style:normal;font-variant:normal;font-weight:400;font-stretch:normal;font-size:medium;line-height:normal;font-family:sans-serif;font-variant-ligatures:normal;font-variant-position:normal;font-variant-caps:normal;font-variant-numeric:normal;font-variant-alternates:normal;font-feature-settings:normal;text-indent:0;text-align:start;text-decoration:none;text-decoration-line:none;text-decoration-style:solid;text-decoration-color:#000;letter-spacing:normal;word-spacing:normal;text-transform:none;writing-mode:lr-tb;direction:ltr;text-orientation:mixed;dominant-baseline:auto;baseline-shift:baseline;text-anchor:start;white-space:normal;shape-padding:0;clip-rule:nonzero;display:inline;overflow:visible;visibility:visible;opacity:1;isolation:auto;mix-blend-mode:normal;color-interpolation:sRGB;color-interpolation-filters:linearRGB;solid-color:#000;solid-opacity:1;vector-effect:none;fill:url(#linearGradient8661);fill-opacity:1;fill-rule:nonzero;stroke:teal;stroke-width:.186332;stroke-linecap:round;stroke-linejoin:round;stroke-miterlimit:4;stroke-dasharray:none;stroke-dashoffset:0;stroke-opacity:1;color-rendering:auto;image-rendering:auto;shape-rendering:auto;text-rendering:auto;enable-background:accumulate" id="line5641" d="m 89.576336,129.53856 a 0.65880809,0.64571229 0 0 0 -0.09189,0.009 h -3.341498 a 0.65906337,0.64596248 0 1 0 0,1.29192 h 2.784579 v 13.66166 13.6626 h -2.784579 a 0.65880809,0.64571229 0 1 0 0,1.29005 h 3.334139 a 0.65880809,0.64571229 0 0 0 0.216897,0 h 3.334149 a 0.65880809,0.64571229 0 1 0 0,-1.29005 h -2.782749 v -13.6626 -13.66166 h 2.782749 a 0.65906338,0.64596248 0 1 0 0,-1.29192 h -3.337829 a 0.65880809,0.64571229 0 0 0 -0.113958,-0.009 z"/><polygon style="fill:url(#linearGradient5584);fill-opacity:1;stroke:#fff;stroke-width:2.51895;stroke-linecap:round;stroke-linejoin:round;stroke-miterlimit:4;stroke-dasharray:none;stroke-opacity:1" id="polygon5643" points="-326.522 594.242 -356.508 564.257 -356.508 624.228" transform="matrix(0.4770727,0,0,0.47565324,236.32991,-138.10402)"/></g></g></g></svg>