<svg xmlns="http://www.w3.org/2000/svg" xmlns:svg="http://www.w3.org/2000/svg" xmlns:xlink="http://www.w3.org/1999/xlink" id="svg8" width="32" height="32" version="1.1" viewBox="0 0 8.467 8.467"><defs id="defs2"><linearGradient id="linearGradient5183" x1="139.263" x2="43.916" y1="914.712" y2="793.538" gradientTransform="matrix(0.2230607,0,0,0.22489774,202.74193,-219.32515)" gradientUnits="userSpaceOnUse" xlink:href="#linearGradient5455"/><linearGradient id="linearGradient5455"><stop style="stop-color:#96cef1;stop-opacity:1" id="stop5451" offset="0"/><stop style="stop-color:#fff;stop-opacity:1" id="stop5453" offset="1"/></linearGradient><filter id="filter5469" width="1.106" height="1.096" x="-.053" y="-.048" style="color-interpolation-filters:sRGB"><feGaussianBlur id="feGaussianBlur5471" stdDeviation=".664"/></filter></defs><metadata id="metadata5"/><g id="layer1"><g id="g5232" transform="matrix(0.25628714,0,0,0.25631451,-77.596113,23.956519)"><g id="g5206" transform="translate(96.000244,-48.961865)"><path style="fill:url(#linearGradient5183);fill-opacity:1;stroke:#000;stroke-width:.223977;stroke-linecap:round;stroke-linejoin:round;stroke-opacity:1" id="path5163" d="m 210.84669,-43.874842 v 31.775099 h 24.71325 v -24.351655 l -6.61481,-7.423444 z m 1.6913,3.014663 12.51677,0.167376 -12.51677,12.619854 z"/><polygon style="fill:#333;stroke:none;stroke-linecap:round;stroke-linejoin:round;stroke-opacity:1;filter:url(#filter5469)" id="polygon5177" points="147.129 813.141 117.191 813.405 117.469 780.132" transform="matrix(0.2230607,0,0,0.22489774,202.66709,-219.01232)"/><polygon id="polygon5179" points="117.191 813.405 117.469 780.132 147.129 813.141" transform="matrix(0.2230607,0,0,0.22489774,202.74124,-219.32497)" style="fill:#c2e3f6;fill-opacity:1;stroke:none;stroke-linecap:round;stroke-linejoin:round;stroke-opacity:1"/></g><g id="g5222" transform="matrix(0.57257232,0,0,0.57257232,730.0631,146.79132)"><rect style="fill:#0c4848;fill-opacity:1;stroke:#fff;stroke-linecap:round;stroke-linejoin:round" id="rect5216" width="30.673" height="30.673" x="-732.882" y="-406.1"/><rect style="fill:#e8fbfb;fill-opacity:1;stroke:none;stroke-linecap:round;stroke-linejoin:round" id="rect5218" width="22.417" height="22.417" x="-728.754" y="-401.973"/><path style="fill:red;stroke:red;stroke-linecap:round;stroke-linejoin:round" id="path5220" d="m -702.2097,-406.10021 c 0.083,0.564 0.167,1.128 0.251,1.693 -8.13,7.111 -14.847,15.261 -20.153,24.451 -3.037,-3.037 -6.074,-6.074 -9.112,-9.111 1.049,-1.187 2.098,-2.373 3.147,-3.56 1.708,1.755 3.417,3.512 5.125,5.267 7.688,-9.965 16.657,-16.229 20.742,-18.74 z"/></g></g></g></svg>