<svg xmlns="http://www.w3.org/2000/svg" xmlns:svg="http://www.w3.org/2000/svg" xmlns:xlink="http://www.w3.org/1999/xlink" id="svg8" width="32" height="32" version="1.1" viewBox="0 0 8.467 8.467"><defs id="defs2"><linearGradient id="linearGradient8532"><stop style="stop-color:#2929ff;stop-opacity:1" id="stop8526" offset="0"/><stop id="stop8528" offset=".24" style="stop-color:#6464e9;stop-opacity:1"/><stop style="stop-color:#1515f0;stop-opacity:1" id="stop8534" offset=".887"/><stop style="stop-color:#0000d1;stop-opacity:1" id="stop8530" offset="1"/></linearGradient><linearGradient id="linearGradient6517" x1="258.618" x2="285.338" y1="176.501" y2="176.501" gradientTransform="matrix(1.1019365,0,0,1.1019365,-27.739221,-18.502129)" gradientUnits="userSpaceOnUse" xlink:href="#linearGradient8532"/><linearGradient id="linearGradient6303"><stop style="stop-color:#ffd43b;stop-opacity:1" id="stop6299" offset="0"/><stop id="stop6305" offset=".659" style="stop-color:#ffdd3e;stop-opacity:1"/><stop style="stop-color:#ffed92;stop-opacity:1" id="stop6301" offset="1"/></linearGradient><linearGradient id="linearGradient6377" x1="-310.48" x2="-308.831" y1="164.368" y2="156.868" gradientUnits="userSpaceOnUse" xlink:href="#linearGradient6375"/><linearGradient id="linearGradient6375"><stop style="stop-color:#ad0000;stop-opacity:1" id="stop6370" offset="0"/><stop id="stop6385" offset=".717" style="stop-color:#ff2a2a;stop-opacity:1"/><stop style="stop-color:#ff8282;stop-opacity:1" id="stop6373" offset="1"/></linearGradient></defs><metadata id="metadata5"/><g id="layer1"><g id="g6401" transform="matrix(0.4950664,0,0,0.50481304,155.25234,-75.916441)"><polygon style="fill:#000;stroke:#000;stroke-linecap:round;stroke-linejoin:round" id="polygon6392" points="-487.743 887.17 -487.743 875.079 -482.627 869.963 -480.069 872.521 -480.069 890.891 -465.42 890.891 -465.42 888.565 -471.768 887.059 -471.768 867.847 -479.302 860.313 -493.323 874.334 -493.323 890.891 -483.557 890.891 -483.557 887.17" transform="matrix(0.19748859,0,0,0.19748859,-204.94959,-9.1425517)"/><path style="fill:#000;fill-opacity:1;stroke:#000;stroke-width:.197489;stroke-linecap:round;stroke-linejoin:round" id="path6387" d="m -309.03595,156.21293 -4.19531,9.70312 3.45898,0.28321 -0.0566,-0.73828 h -0.96484 l 0.45313,-1.81446 h 1.30468 1.30274 l 0.45312,1.81446 h -0.96289 l -0.0566,0.73828 3.45703,-0.28321 z m 0.11914,4.07617 a 0.8154304,0.8154304 0 0 1 0.81641,0.81445 0.8154304,0.8154304 0 0 1 -0.81641,0.81641 0.8154304,0.8154304 0 0 1 -0.81445,-0.81641 0.8154304,0.8154304 0 0 1 0.81445,-0.81445 z"/><path id="polygon6260" d="m -308.93555,155.8125 -4.19531,9.70312 3.45898,0.28321 -0.0566,-0.73828 h -0.96484 l 0.45313,-1.81446 h 1.30468 1.30274 l 0.45312,1.81446 h -0.96289 l -0.0566,0.73828 3.45703,-0.28321 z m 0.11914,4.07617 a 0.8154304,0.8154304 0 0 1 0.81641,0.81445 0.8154304,0.8154304 0 0 1 -0.81641,0.81641 0.8154304,0.8154304 0 0 1 -0.81445,-0.81641 0.8154304,0.8154304 0 0 1 0.81445,-0.81445 z" style="fill:url(#linearGradient6377);fill-opacity:1;stroke:#000;stroke-width:.197489;stroke-linecap:round;stroke-linejoin:round"/><path style="fill:#1a1a1a;stroke:#333;stroke-width:.197489;stroke-linecap:round;stroke-linejoin:round" id="path6390" d="m -298.09346,151.0444 -7.3418,7.34375 v 1.04883 h 2.12696 v -1.30469 l 0.90625,-0.9082 h 2.49414 v 1.47461 l -0.84961,0.85156 h 3.74219 v -0.85156 h -1.07813 z m -2.1875,3.75977 a 0.61004227,0.61004227 0 0 1 0.043,0 0.61004227,0.61004227 0 0 1 0.61133,0.60937 0.61004227,0.61004227 0 0 1 -0.61133,0.60938 0.61004227,0.61004227 0 0 1 -0.60938,-0.60938 0.61004227,0.61004227 0 0 1 0.56641,-0.60937 z"/><path id="polygon6254" d="m -298.29297,150.74414 -7.3418,7.34375 v 1.04883 h 2.12696 v -1.30469 l 0.90625,-0.9082 h 2.49414 v 1.47461 l -0.84961,0.85156 h 3.74219 v -0.85156 h -1.07813 z m -2.1875,3.75977 a 0.61004227,0.61004227 0 0 1 0.043,0 0.61004227,0.61004227 0 0 1 0.61133,0.60937 0.61004227,0.61004227 0 0 1 -0.61133,0.60938 0.61004227,0.61004227 0 0 1 -0.60938,-0.60938 0.61004227,0.61004227 0 0 1 0.56641,-0.60937 z" style="fill:navy;stroke:#f2f2f2;stroke-width:.197489;stroke-linecap:round;stroke-linejoin:round"/><line id="line6262" x1="-302.575" x2="-300.646" y1="166.699" y2="166.699" style="fill:none;stroke:#000;stroke-width:.197489;stroke-linecap:round;stroke-linejoin:round"/><polygon id="polygon6264" points="-471.768 887.059 -471.768 867.847 -479.302 860.313 -493.323 874.334 -493.323 890.891 -483.557 890.891 -483.557 887.17 -487.743 887.17 -487.743 875.079 -482.627 869.963 -480.069 872.521 -480.069 890.891 -465.42 890.891 -465.42 888.565" transform="matrix(0.19748859,0,0,0.19748859,-205.14926,-9.242098)" style="fill:#333;stroke:#fff;stroke-linecap:round;stroke-linejoin:round"/></g></g></svg>