<svg xmlns="http://www.w3.org/2000/svg" xmlns:svg="http://www.w3.org/2000/svg" xmlns:xlink="http://www.w3.org/1999/xlink" id="svg8" width="32" height="32" version="1.1" viewBox="0 0 8.467 8.467"><defs id="defs2"><linearGradient id="linearGradient6446" x1="-1229.079" x2="-1161.802" y1="-490.614" y2="-490.614" gradientUnits="userSpaceOnUse" xlink:href="#linearGradient5093"/><linearGradient id="linearGradient5093"><stop style="stop-color:#fff;stop-opacity:1" id="stop5089" offset="0"/><stop style="stop-color:#fff;stop-opacity:0" id="stop5091" offset="1"/></linearGradient><linearGradient id="linearGradient6444-0" x1="-475.344" x2="-537.257" y1="290.646" y2="214.889" gradientTransform="matrix(0.38971342,0,0,0.38486404,212.46174,-82.510564)" gradientUnits="userSpaceOnUse" xlink:href="#linearGradient5101"/><linearGradient id="linearGradient5101"><stop style="stop-color:#99d3f4;stop-opacity:1" id="stop5097" offset="0"/><stop style="stop-color:#fff;stop-opacity:1" id="stop5099" offset="1"/></linearGradient><filter style="color-interpolation-filters:sRGB" id="filter5130-4" width="1.048" height="1.048" x="-.024" y="-.024"><feGaussianBlur id="feGaussianBlur5132-6" stdDeviation=".184"/></filter><filter style="color-interpolation-filters:sRGB" id="filter5130" width="1.048" height="1.048" x="-.024" y="-.024"><feGaussianBlur id="feGaussianBlur5132" stdDeviation=".184"/></filter><linearGradient id="linearGradient3289" x1="-1229.079" x2="-1161.802" y1="-490.614" y2="-490.614" gradientUnits="userSpaceOnUse" xlink:href="#linearGradient5093"/><linearGradient id="linearGradient3291" x1="-475.344" x2="-537.257" y1="290.646" y2="214.889" gradientTransform="matrix(0.38971342,0,0,0.38486404,212.46174,-82.510564)" gradientUnits="userSpaceOnUse" xlink:href="#linearGradient5101"/><linearGradient id="linearGradient3293" x1="-1229.079" x2="-1161.802" y1="-490.614" y2="-490.614" gradientUnits="userSpaceOnUse" xlink:href="#linearGradient5093"/><linearGradient id="linearGradient3295" x1="-1229.079" x2="-1161.802" y1="-490.614" y2="-490.614" gradientUnits="userSpaceOnUse" xlink:href="#linearGradient5093"/></defs><metadata id="metadata5"/><g id="layer1"><g id="g6440" transform="matrix(0.09987867,0,0,0.09864406,29.501007,84.65593)" style="fill:url(#linearGradient6446);fill-opacity:1"><g id="g6551" transform="matrix(2.0092243,0,0,1.9992933,628.62577,303.19038)" style="fill:url(#linearGradient3295)"><path style="fill:url(#linearGradient3291);fill-opacity:1;stroke:#000;stroke-width:.387281;stroke-linecap:round;stroke-linejoin:round" id="polygon6434-8" d="M 3.0859375,0.19335938 V 31.806641 H 28.914062 V 7.2578125 L 21.759766,0.19335938 Z M 5.6386719,3.5019531 H 18.810547 V 7.0234375 H 14.3125 V 11.71875 H 5.6386719 Z" transform="matrix(0.94938038,0,0,0.96136525,-459.34294,-580.22749)"/><polygon style="fill:#4d4d4d;fill-opacity:1;stroke:none;stroke-linecap:round;stroke-linejoin:round;filter:url(#filter5130-4)" id="polygon6436-1" points="-489.339 214.889 -470.98 233.247 -489.339 233.247" transform="matrix(0.36998629,0,0,0.36999491,-257.68572,-659.29823)"/><polygon id="polygon6438-3" points="-470.98 233.247 -489.339 233.247 -489.339 214.889" transform="matrix(0.36998629,0,0,0.36999491,-257.63594,-659.55028)" style="fill:#60a1e3;fill-opacity:1;stroke:none;stroke-linecap:round;stroke-linejoin:round"/><g style="fill:url(#linearGradient3293)" id="g6467" transform="matrix(0.36998634,0,0,0.36998634,8.887509,-372.49984)"><path style="fill:url(#linearGradient6444-0);fill-opacity:1;stroke:#000;stroke-width:.387281;stroke-linecap:round;stroke-linejoin:round" id="polygon6434" d="M 3.0859375,0.19335938 V 31.806641 H 28.914062 V 7.2578125 L 21.759766,0.19335938 Z M 5.6386719,3.5019531 H 18.810547 V 7.0234375 H 14.3125 V 11.71875 H 5.6386719 Z" transform="matrix(2.5659876,0,0,2.5983805,-1236.4963,-532.18932)"/><polygon style="fill:#4d4d4d;fill-opacity:1;stroke:none;stroke-linecap:round;stroke-linejoin:round;filter:url(#filter5130)" id="polygon6436" points="-470.98 233.247 -489.339 233.247 -489.339 214.889" transform="matrix(0.99999983,0,0,1.0000232,-691.45668,-745.9019)"/><polygon id="polygon6438" points="-489.339 233.247 -489.339 214.889 -470.98 233.247" transform="matrix(0.99999983,0,0,1.0000232,-691.32212,-746.58316)" style="fill:#60a1e3;fill-opacity:1;stroke:none;stroke-linecap:round;stroke-linejoin:round"/><path style="fill:none;stroke:#000;stroke-width:2.58213px;stroke-linecap:butt;stroke-linejoin:miter;stroke-opacity:1" id="path6455" d="m -1221.1575,-490.18859 h 52.2059"/><path id="path6457" d="m -1221.1575,-483.3761 h 52.2059" style="fill:none;stroke:#000;stroke-width:2.58213px;stroke-linecap:butt;stroke-linejoin:miter;stroke-opacity:1"/><path style="fill:none;stroke:#000;stroke-width:2.58213px;stroke-linecap:butt;stroke-linejoin:miter;stroke-opacity:1" id="path6459" d="m -1221.1575,-476.29111 h 52.2059"/></g></g></g></g></svg>