<svg xmlns="http://www.w3.org/2000/svg" xmlns:svg="http://www.w3.org/2000/svg" xmlns:xlink="http://www.w3.org/1999/xlink" id="svg8" width="32" height="32" version="1.1" viewBox="0 0 8.467 8.467"><defs id="defs2"><linearGradient id="linearGradient8532"><stop id="stop8526" offset="0" style="stop-color:#2929ff;stop-opacity:1"/><stop style="stop-color:#6464e9;stop-opacity:1" id="stop8528" offset=".24"/><stop id="stop8534" offset=".887" style="stop-color:#1515f0;stop-opacity:1"/><stop id="stop8530" offset="1" style="stop-color:#0000d1;stop-opacity:1"/></linearGradient><linearGradient id="linearGradient6517" x1="258.618" x2="285.338" y1="176.501" y2="176.501" gradientTransform="matrix(1.1019365,0,0,1.1019365,-27.739221,-18.502129)" gradientUnits="userSpaceOnUse" xlink:href="#linearGradient8532"/><linearGradient id="linearGradient6303"><stop id="stop6299" offset="0" style="stop-color:#ffd43b;stop-opacity:1"/><stop style="stop-color:#ffdd3e;stop-opacity:1" id="stop6305" offset=".659"/><stop id="stop6301" offset="1" style="stop-color:#ffed92;stop-opacity:1"/></linearGradient><linearGradient id="linearGradient6987" x1="14.495" x2="14.323" y1="6.87" y2="2.274" gradientTransform="translate(1.935e-6,-0.14997127)" gradientUnits="userSpaceOnUse" xlink:href="#linearGradient5666"/><linearGradient id="linearGradient5666"><stop id="stop5662" offset="0" style="stop-color:#82ade0;stop-opacity:1"/><stop id="stop5664" offset="1" style="stop-color:#f1effb;stop-opacity:1"/></linearGradient></defs><metadata id="metadata5"/><g id="layer1"><g id="g1738" transform="translate(-2.7357183,-1.0986935)"><g id="g6985" transform="matrix(0.26455472,0,0,0.26458298,-106.3366,-10.027238)"><g id="g6983" transform="translate(412.28815,42.859845)"><path id="path6977" d="m 3.5316505,27.337497 c 8.3122365,0 16.6244625,0 24.9366895,0 1.843589,0 3.33871,-1.487611 3.33871,-3.322407 0,-5.882857 0,-11.765328 0,-17.6481856 0,-1.8347963 -1.494735,-3.322407 -3.33871,-3.322407 -8.312227,0 -16.624453,0 -24.9366895,0 -1.8435791,0 -3.33870043,1.4876107 -3.33870043,3.322407 0,5.8828576 0,11.7653286 0,17.6481856 3.8641e-4,1.834796 1.49512133,3.322407 3.33870043,3.322407 z" style="fill:teal;stroke:#000;stroke-width:.387115;stroke-linecap:round;stroke-linejoin:round"/><path id="path6979" d="m 0.19333648,8.274691 c 10.53802952,0 21.07567352,0 31.61371352,0 0,-0.6356714 0,-1.271729 0,-1.9077866 0,-1.8347963 -1.494735,-3.322407 -3.33871,-3.322407 -8.312227,0 -16.624453,0 -24.9366895,0 -1.8435791,0 -3.33870043,1.4876107 -3.33870043,3.322407 3.8641e-4,0.6360576 3.8641e-4,1.2721152 3.8641e-4,1.9077866 z" style="fill:url(#linearGradient6987);fill-opacity:1;stroke:#000;stroke-width:.387115;stroke-linecap:round;stroke-linejoin:round"/><rect id="rect6981" width="29.293" height="17.656" x="1.426" y="8.612" style="fill:#364b81;fill-opacity:1;stroke:#000;stroke-width:.387115;stroke-linecap:round;stroke-linejoin:round"/></g></g><g style="font-style:normal;font-variant:normal;font-weight:600;font-stretch:normal;font-size:4.93324px;line-height:1.25;font-family:'open sans';-inkscape-font-specification:'open sans, Semi-Bold';font-variant-ligatures:normal;font-variant-caps:normal;font-variant-numeric:normal;font-feature-settings:normal;text-align:start;letter-spacing:0;word-spacing:0;writing-mode:lr-tb;text-anchor:start;fill:#fff;fill-opacity:1;stroke:none;stroke-width:.123333" id="text6999" aria-label="c:\" transform="matrix(0.9999466,0,0,1.0000534,-0.34564786,0)"><path id="path863" d="M 6.4448205,4.8471227 V 5.5504948 Q 6.2689775,5.4300544 6.0907257,5.372243 5.9148827,5.3144316 5.7245868,5.3144316 q -0.3613213,0 -0.5636612,0.2119751 -0.1999311,0.2095664 -0.1999311,0.5877493 0,0.378183 0.1999311,0.5901581 0.2023399,0.2095664 0.5636612,0.2095664 0.2023399,0 0.3830005,-0.06022 0.1830695,-0.06022 0.3372332,-0.1782519 v 0.7057809 q -0.2023399,0.074673 -0.4119062,0.1108052 -0.2071576,0.038541 -0.4167239,0.038541 -0.729869,0 -1.1417753,-0.3733654 Q 4.0625089,6.781396 4.0625089,6.114156 q 0,-0.66724 0.4119062,-1.0406053 0.4119063,-0.3757741 1.1417753,-0.3757741 0.2119752,0 0.4167239,0.038541 0.2071575,0.036132 0.4119062,0.1108051 z" style="font-style:normal;font-variant:normal;font-weight:700;font-stretch:normal;font-size:4.93324px;font-family:SYSTEM;-inkscape-font-specification:'SYSTEM Bold';font-variant-ligatures:normal;font-variant-caps:normal;font-variant-numeric:normal;font-feature-settings:normal;text-align:start;writing-mode:lr-tb;text-anchor:start;fill:#fff;stroke-width:.123333"/><path id="path865" d="M 7.3264444,4.7628144 H 8.1960243 V 5.6950233 H 7.3264444 Z m 0,1.7656567 H 8.1960243 V 7.46068 H 7.3264444 Z" style="font-style:normal;font-variant:normal;font-weight:700;font-stretch:normal;font-size:4.93324px;font-family:SYSTEM;-inkscape-font-specification:'SYSTEM Bold';font-variant-ligatures:normal;font-variant-caps:normal;font-variant-numeric:normal;font-feature-settings:normal;text-align:start;writing-mode:lr-tb;text-anchor:start;fill:#fff;stroke-width:.123333"/><path id="path867" d="M 10.014675,7.9183536 8.7476413,3.8643288 H 9.279988 l 1.269442,4.0540248 z" style="font-style:normal;font-variant:normal;font-weight:700;font-stretch:normal;font-size:4.93324px;font-family:SYSTEM;-inkscape-font-specification:'SYSTEM Bold';font-variant-ligatures:normal;font-variant-caps:normal;font-variant-numeric:normal;font-feature-settings:normal;text-align:start;writing-mode:lr-tb;text-anchor:start;fill:#fff;stroke-width:.123333"/></g></g></g></svg>