<svg xmlns="http://www.w3.org/2000/svg" xmlns:svg="http://www.w3.org/2000/svg" xmlns:xlink="http://www.w3.org/1999/xlink" id="svg8" width="32" height="32" version="1.1" viewBox="0 0 8.467 8.467"><defs id="defs2"><linearGradient id="linearGradient5179" x1="-397.661" x2="-449.646" y1="277.385" y2="235.682" gradientUnits="userSpaceOnUse" xlink:href="#linearGradient5193"/><linearGradient id="linearGradient5193"><stop id="stop5189" offset="0" style="stop-color:#f8b509;stop-opacity:1"/><stop id="stop5191" offset="1" style="stop-color:#fcf52e;stop-opacity:1"/></linearGradient><filter style="color-interpolation-filters:sRGB" id="filter5271" width="1.064" height="1.071" x="-.032" y="-.035"><feGaussianBlur id="feGaussianBlur5273" stdDeviation=".334"/></filter><linearGradient id="linearGradient5187" x1="-397.661" x2="-428.768" y1="277.385" y2="229.622" gradientUnits="userSpaceOnUse" xlink:href="#linearGradient5177"/><linearGradient id="linearGradient5177"><stop style="stop-color:#f8b509;stop-opacity:1" id="stop5173" offset="0"/><stop style="stop-color:#fcf5bd;stop-opacity:1" id="stop5175" offset="1"/></linearGradient><linearGradient id="linearGradient5281" x1="18.767" x2="31.001" y1="16.427" y2="15.178" gradientTransform="matrix(1.1407042,0,0,1.1407042,-3.9493201,1.5456856)" gradientUnits="userSpaceOnUse" xlink:href="#linearGradient5163"/><linearGradient id="linearGradient5163"><stop style="stop-color:green;stop-opacity:1" id="stop5159" offset="0"/><stop id="stop5171" offset=".269" style="stop-color:#00ab00;stop-opacity:1"/><stop id="stop5167" offset=".576" style="stop-color:#00d400;stop-opacity:1"/><stop style="stop-color:#00a100;stop-opacity:1" id="stop5169" offset=".813"/><stop style="stop-color:green;stop-opacity:1" id="stop5161" offset="1"/></linearGradient></defs><metadata id="metadata5"/><g id="layer1"><rect style="opacity:1;fill:none;fill-opacity:1;fill-rule:nonzero;stroke:none;stroke-width:1.00367;stroke-linecap:butt;stroke-linejoin:round;stroke-miterlimit:4;stroke-dasharray:none;stroke-dashoffset:0;stroke-opacity:1" id="rect4892-8-73" width="8.466" height="8.467" x="0" y="0"/><g id="g5148" transform="matrix(0.25993942,0,0,0.26249369,0.07453593,-0.20840052)"><g id="g5143"><g id="g5279" transform="matrix(1.0047247,0,0,0.99556788,-9.712762e-4,0.14076474)"><polygon style="fill:url(#linearGradient5179);fill-opacity:1;stroke:#000;stroke-linecap:round;stroke-linejoin:round" id="polygon156" points="-428.768 229.622 -398.468 232.634 -397.661 277.385 -459.265 293.892 -459.265 231.386 -451.704 223.825 -434.565 223.825" transform="matrix(0.42387273,0,0,0.42235565,194.88192,-92.350986)"/><path id="polygon5258" d="m 26.035156,8.8027344 -8.220703,1.2832036 -2.615234,5.447265 H 8.84375 l -7.6777344,15.988281 3.5078125,-0.9375 19.1249999,-6.162109 2.375,-7.986328 z" style="fill:#333;fill-opacity:1;stroke:none;stroke-width:.423114;stroke-linecap:round;stroke-linejoin:round;filter:url(#filter5271)"/><polygon style="fill:url(#linearGradient5187);fill-opacity:1;stroke:#000;stroke-width:.290702;stroke-linecap:round;stroke-linejoin:round;stroke-miterlimit:4;stroke-dasharray:none" id="polygon158" points="-459.265 293.892 -438.173 257.36 -420.955 257.36 -413.871 245.09 -384.771 241.31 -397.661 277.385" transform="matrix(0.42387273,0,0,0.42235565,194.88192,-92.350986)"/><path style="fill:url(#linearGradient5281);fill-opacity:1;stroke:#fff;stroke-width:.824729;stroke-linecap:round;stroke-linejoin:round;stroke-miterlimit:4;stroke-dasharray:none;stroke-opacity:1" id="path340" d="M 28.136248,13.465514 C 28.125611,12.139647 27.688999,9.7702392 26.96518,7.769395 26.17947,5.5975178 25.055301,3.859727 22.616943,2.8022136 20.178585,1.7447003 16.427488,1.3674642 12.985839,2.4649656 c 7.090241,0.7544719 7.950412,4.424212 8.398145,6.7386969 0.372789,1.9271315 0.458854,2.9157495 0.477228,4.2613685 -0.989269,0 -1.978537,0 -2.967806,0 2.035109,2.724965 4.0707,5.449447 6.105808,8.173928 2.054932,-2.724481 4.109863,-5.449445 6.164312,-8.173928 -1.009092,4.83e-4 -2.018185,4.83e-4 -3.027278,4.83e-4 z"/></g></g></g></g></svg>