<svg xmlns="http://www.w3.org/2000/svg" xmlns:svg="http://www.w3.org/2000/svg" xmlns:xlink="http://www.w3.org/1999/xlink" id="svg8" width="32" height="32" version="1.1" viewBox="0 0 8.467 8.467"><defs id="defs2"><linearGradient id="linearGradient7087" x1="20.001" x2="20.227" y1="5.996" y2="13.907" gradientTransform="matrix(1.0558607,0,0,1.0558607,-1.1631009,-0.58076576)" gradientUnits="userSpaceOnUse" xlink:href="#linearGradient7085"/><linearGradient id="linearGradient7085"><stop style="stop-color:#0ff;stop-opacity:1" id="stop7081" offset="0"/><stop style="stop-color:#3098ff;stop-opacity:1" id="stop7083" offset="1"/></linearGradient><linearGradient id="linearGradient5585" x1="-110.634" x2="-80.524" y1="482.234" y2="531.545" gradientUnits="userSpaceOnUse" xlink:href="#linearGradient5583"/><linearGradient id="linearGradient5583"><stop style="stop-color:#8c8cf7;stop-opacity:1" id="stop5579" offset="0"/><stop style="stop-color:#434347;stop-opacity:1" id="stop5581" offset="1"/></linearGradient></defs><metadata id="metadata5"/><g id="layer1"><g id="g8575" transform="matrix(0.26458333,0,0,0.26458333,-42.322508,-25.53246)"><g id="g5598" transform="matrix(0.99989187,0,0,0.99999865,159.96073,96.500659)"><rect style="fill:#695f9f;fill-opacity:1;stroke:#000;stroke-width:.355;stroke-linecap:round;stroke-linejoin:round;stroke-miterlimit:4;stroke-dasharray:none" id="rect5669" width="12.783" height="21.229" x="14.389" y="4.517"/><rect style="fill:green;fill-opacity:1;stroke:green;stroke-width:.365539;stroke-linecap:round;stroke-linejoin:round" id="rect5665" width="10.721" height="8.147" x="15.507" y="15.422"/><rect style="fill:url(#linearGradient7087);fill-opacity:1;stroke:none;stroke-width:.374528;stroke-linecap:round;stroke-linejoin:round;stroke-opacity:1" id="rect5667" width="11.203" height="10.109" x="15.22" y="5.342"/><path id="path5571" d="m 17.141002,15.020047 c 0.807393,-0.406037 2.338643,-1.135203 3.470367,-1.289957 1.131724,-0.154754 1.856979,0.259678 2.476618,0.634591 0.619639,0.374914 1.130281,0.708394 1.385368,0.916127 0.255087,0.207732 0.255087,0.291109 -1.188625,0.322737 -1.443712,0.03163 -4.263628,0.01105 -5.649028,-0.04156 -1.3854,-0.0526 -1.302093,-0.135907 -0.4947,-0.541943 z" style="fill:#004500;fill-opacity:1;stroke:none;stroke-width:1px;stroke-linecap:butt;stroke-linejoin:miter;stroke-opacity:1"/><polygon style="fill:url(#linearGradient5585);fill-opacity:1;stroke:#695f9f;stroke-linecap:round;stroke-linejoin:round;stroke-opacity:1" id="polygon5673" points="-77.588 554.81 -78.693 465.607 -110.634 482.234 -110.634 539.836" transform="matrix(0.35466285,0,0,0.35476408,44.065535,-165.00365)"/><path style="fill:#f2f2f2;stroke:none;stroke-width:.200903;stroke-linecap:round;stroke-linejoin:round" id="path5671" d="m 12.638438,16.471303 c 0,0.24152 -0.03293,0.465157 -0.125343,0.691004 -0.07834,0.191689 -0.234018,0.451895 -0.489932,0.451895 -0.256113,0 -0.41179,-0.260408 -0.490131,-0.452096 -0.0922,-0.226048 -0.125148,-0.449283 -0.125148,-0.690803 0,-0.241519 0.03293,-0.465155 0.125348,-0.691003 0.07834,-0.191688 0.234018,-0.451894 0.489931,-0.451894 0.256114,0 0.411791,0.260407 0.490132,0.452096 0.0922,0.225846 0.125143,0.449282 0.125143,0.690801 z"/><g id="g5561"><path id="path5552" d="m 19.308898,7.3875804 a 2.3386412,1.1693206 0 0 0 -2.338641,1.1693205 2.3386412,1.1693206 0 0 0 1.956177,1.1522679 1.765867,1.0913659 0 0 0 -0.08526,0.3288712 1.765867,1.0913659 0 0 0 1.766154,1.091366 1.765867,1.0913659 0 0 0 1.724757,-0.855066 1.7974004,1.1108545 0 0 0 0.645565,0.07552 A 1.7974004,1.1108545 0 0 0 24.775469,9.2390046 1.7974004,1.1108545 0 0 0 22.977646,8.1281501 1.7974004,1.1108545 0 0 0 21.645107,8.495999 2.3386412,1.1693206 0 0 0 19.308898,7.3875804 Z" style="opacity:1;fill:#f9f9f9;fill-opacity:1;fill-rule:nonzero;stroke:#f9f9f9;stroke-width:.442783;stroke-linecap:butt;stroke-linejoin:round;stroke-miterlimit:4;stroke-dasharray:none;stroke-dashoffset:0;stroke-opacity:1"/></g><path style="fill:#782121;stroke:none;stroke-width:1px;stroke-linecap:butt;stroke-linejoin:miter;stroke-opacity:1" id="path5567" d="m 18.97506,15.020047 c 0.807393,-0.406037 2.338643,-1.135203 3.470367,-1.289957 1.131724,-0.154754 1.856979,0.259678 2.476618,0.634591 0.619639,0.374914 1.130281,0.708394 1.385368,0.916127 0.255087,0.207732 0.255087,0.291109 -1.188625,0.322737 -1.443712,0.03163 -4.263628,0.01105 -5.649028,-0.04156 -1.3854,-0.0526 -1.302093,-0.135907 -0.4947,-0.541943 z"/></g><path id="path7093" d="m 176.78161,111.91564 6.25904,2.077 -4.68364,1.37 -0.51094,1.061 -1.27735,2.07699 -0.0852,-6.36399 z" style="fill:#00807c;fill-opacity:1;stroke:none;stroke-width:.981551px;stroke-linecap:butt;stroke-linejoin:miter;stroke-opacity:1"/></g></g></svg>