<svg xmlns="http://www.w3.org/2000/svg" xmlns:svg="http://www.w3.org/2000/svg" xmlns:xlink="http://www.w3.org/1999/xlink" id="svg8" width="32" height="32" version="1.1" viewBox="0 0 8.467 8.467"><defs id="defs2"><linearGradient id="linearGradient8532"><stop style="stop-color:#2929ff;stop-opacity:1" id="stop8526" offset="0"/><stop id="stop8528" offset=".24" style="stop-color:#6464e9;stop-opacity:1"/><stop style="stop-color:#1515f0;stop-opacity:1" id="stop8534" offset=".887"/><stop style="stop-color:#0000d1;stop-opacity:1" id="stop8530" offset="1"/></linearGradient><linearGradient id="linearGradient6517" x1="258.618" x2="285.338" y1="176.501" y2="176.501" gradientTransform="matrix(1.1019365,0,0,1.1019365,-27.739221,-18.502129)" gradientUnits="userSpaceOnUse" xlink:href="#linearGradient8532"/><linearGradient id="linearGradient6303"><stop style="stop-color:#ffd43b;stop-opacity:1" id="stop6299" offset="0"/><stop id="stop6305" offset=".659" style="stop-color:#ffdd3e;stop-opacity:1"/><stop style="stop-color:#ffed92;stop-opacity:1" id="stop6301" offset="1"/></linearGradient><linearGradient id="linearGradient6537" x1="-261.464" x2="-274.595" y1="166.82" y2="155.239" gradientUnits="userSpaceOnUse" xlink:href="#linearGradient5455"/><linearGradient id="linearGradient5455"><stop style="stop-color:#96cef1;stop-opacity:1" id="stop5451" offset="0"/><stop style="stop-color:#fff;stop-opacity:1" id="stop5453" offset="1"/></linearGradient></defs><metadata id="metadata5"/><g id="layer1"><g id="g6563" transform="matrix(0.41459372,0,0,0.49938014,116.802,-75.172848)"><path id="path6272" d="m -278.04822,166.97756 c 4.35502,0 8.71023,0 13.06525,0 0.86559,0 1.56707,-0.70167 1.56707,-1.56707 0,-4.26733 0,-8.53447 0,-12.8018 0,-0.8654 -0.70168,-1.56727 -1.56707,-1.56727 -4.35502,0 -8.71023,0 -13.06525,0 -0.8656,0 -1.56708,0.70168 -1.56708,1.56727 0,4.26733 0,8.53447 0,12.8018 0,0.8654 0.70168,1.56707 1.56708,1.56707 z" style="fill:url(#linearGradient6537);fill-opacity:1;stroke:#1a1a1a;stroke-width:.397;stroke-linecap:round;stroke-linejoin:round;stroke-miterlimit:4;stroke-dasharray:none"/><line id="line6274" x1="-277.446" x2="-265.953" y1="153.338" y2="153.338" style="fill:none;stroke:navy;stroke-width:.597;stroke-linecap:round;stroke-linejoin:round;stroke-miterlimit:4;stroke-dasharray:none"/><line id="line6276" x1="-274.595" x2="-268.978" y1="155.239" y2="155.239" style="fill:none;stroke:navy;stroke-width:.597;stroke-linecap:round;stroke-linejoin:round;stroke-miterlimit:4;stroke-dasharray:none"/><line id="line6278" x1="-277.619" x2="-265.867" y1="157.14" y2="157.14" style="fill:none;stroke:navy;stroke-width:.597;stroke-linecap:round;stroke-linejoin:round;stroke-miterlimit:4;stroke-dasharray:none"/><line id="line6280" x1="-274.335" x2="-269.323" y1="159.473" y2="159.473" style="fill:none;stroke:navy;stroke-width:.597;stroke-linecap:round;stroke-linejoin:round;stroke-miterlimit:4;stroke-dasharray:none"/><line id="line6282" x1="-277.36" x2="-265.867" y1="161.547" y2="161.547" style="fill:none;stroke:navy;stroke-width:.597;stroke-linecap:round;stroke-linejoin:round;stroke-miterlimit:4;stroke-dasharray:none"/><line id="line6284" x1="-274.422" x2="-268.978" y1="163.708" y2="163.708" style="fill:none;stroke:navy;stroke-width:.597;stroke-linecap:round;stroke-linejoin:round;stroke-miterlimit:4;stroke-dasharray:none"/></g></g></svg>