<svg xmlns="http://www.w3.org/2000/svg" xmlns:svg="http://www.w3.org/2000/svg" xmlns:xlink="http://www.w3.org/1999/xlink" id="svg8" width="32" height="32" version="1.1" viewBox="0 0 8.467 8.467"><defs id="defs2"><linearGradient id="linearGradient8532"><stop style="stop-color:#2929ff;stop-opacity:1" id="stop8526" offset="0"/><stop id="stop8528" offset=".24" style="stop-color:#6464e9;stop-opacity:1"/><stop style="stop-color:#1515f0;stop-opacity:1" id="stop8534" offset=".887"/><stop style="stop-color:#0000d1;stop-opacity:1" id="stop8530" offset="1"/></linearGradient><linearGradient id="linearGradient6517" x1="258.618" x2="285.338" y1="176.501" y2="176.501" gradientTransform="matrix(1.1019365,0,0,1.1019365,-27.739221,-18.502129)" gradientUnits="userSpaceOnUse" xlink:href="#linearGradient8532"/><linearGradient id="linearGradient6303"><stop style="stop-color:#ffd43b;stop-opacity:1" id="stop6299" offset="0"/><stop id="stop6305" offset=".659" style="stop-color:#ffdd3e;stop-opacity:1"/><stop style="stop-color:#ffed92;stop-opacity:1" id="stop6301" offset="1"/></linearGradient><linearGradient id="linearGradient28799-4"><stop style="stop-color:#fefefc;stop-opacity:1" id="stop28801-13" offset="0"/><stop id="stop28807-8" offset=".757" style="stop-color:#fefefc;stop-opacity:1"/><stop style="stop-color:#d4d4d4;stop-opacity:1" id="stop28803-8" offset="1"/></linearGradient><linearGradient id="linearGradient28853-5"><stop style="stop-color:#020204;stop-opacity:1" id="stop28855-3" offset="0"/><stop id="stop28865-0" offset=".734" style="stop-color:#020204;stop-opacity:1"/><stop style="stop-color:#5c5c5c;stop-opacity:1" id="stop28857-9" offset="1"/></linearGradient><linearGradient id="linearGradient28935-8"><stop style="stop-color:#949494;stop-opacity:.39215687" id="stop28937-7" offset="0"/><stop id="stop28943-3" offset=".5" style="stop-color:#949494;stop-opacity:1"/><stop style="stop-color:#949494;stop-opacity:.39215687" id="stop28939-8" offset="1"/></linearGradient><linearGradient id="linearGradient28976-3"><stop style="stop-color:#747474;stop-opacity:1" id="stop28978-7" offset="0"/><stop id="stop29259-5" offset=".125" style="stop-color:#8c8c8c;stop-opacity:1"/><stop id="stop29257-0" offset=".25" style="stop-color:#a4a4a4;stop-opacity:1"/><stop id="stop28984-4" offset=".5" style="stop-color:#d4d4d4;stop-opacity:1"/><stop style="stop-color:#d4d4d4;stop-opacity:1" id="stop28986-0" offset=".619"/><stop style="stop-color:#7c7c7c;stop-opacity:1" id="stop28980-2" offset="1"/></linearGradient><clipPath id="clipPath29028-5" clipPathUnits="userSpaceOnUse"><path style="fill:url(#radialGradient29032);fill-opacity:1;stroke:none" id="path29030-7" d="m 85.75,122.36218 c -2.54738,2.12715 -5.20812,4.59907 -6.25,7.75 -1.30914,3.95917 -1.63336,8.91703 0.5,12.5 3.91901,6.58194 12.38353,13.85135 19.75,11.75 4.87452,-1.3905 6.10748,-8.51023 7,-13.5 0.59149,-3.30679 0.59578,-7.19325 -1.25,-10 -3.61233,-5.49303 -10.4265,-9.89357 -17,-10 -1.04403,-0.0169 -1.94852,0.83074 -2.75,1.5 z"/></clipPath><linearGradient id="linearGradient29336-6"><stop style="stop-color:#646464;stop-opacity:0" id="stop29338-1" offset="0"/><stop id="stop29344-7" offset=".306" style="stop-color:#646464;stop-opacity:.5825243"/><stop style="stop-color:#646464;stop-opacity:1" id="stop29354-5" offset=".47"/><stop id="stop29356-3" offset=".728" style="stop-color:#646464;stop-opacity:.25728154"/><stop style="stop-color:#646464;stop-opacity:0" id="stop29340-6" offset="1"/></linearGradient><linearGradient id="linearGradient29477-3"><stop style="stop-color:#757574;stop-opacity:0" id="stop29479-5" offset="0"/><stop id="stop29487-5" offset=".263" style="stop-color:#757574;stop-opacity:1"/><stop id="stop29485-0" offset=".5" style="stop-color:#757574;stop-opacity:1"/><stop style="stop-color:#757574;stop-opacity:0" id="stop29481-3" offset="1"/></linearGradient><linearGradient id="linearGradient28469-0"><stop id="stop28479-4" offset="0" style="stop-color:#d2940a;stop-opacity:1"/><stop id="stop28477-2" offset=".751" style="stop-color:#d89c08;stop-opacity:1"/><stop style="stop-color:#b67e07;stop-opacity:1" id="stop28485-7" offset=".866"/><stop style="stop-color:#946106;stop-opacity:1" id="stop28473-1" offset="1"/></linearGradient><linearGradient id="linearGradient28275-8"><stop style="stop-color:#ad780a;stop-opacity:1" id="stop28277-1" offset="0"/><stop id="stop28291-9" offset=".12" style="stop-color:#d89e08;stop-opacity:1"/><stop id="stop28289-6" offset=".255" style="stop-color:#edb80b;stop-opacity:1"/><stop id="stop28287-6" offset=".392" style="stop-color:#ebc80d;stop-opacity:1"/><stop id="stop28285-7" offset=".527" style="stop-color:#f5d838;stop-opacity:1"/><stop id="stop28283-7" offset=".769" style="stop-color:#f6d811;stop-opacity:1"/><stop style="stop-color:#f5cd31;stop-opacity:1" id="stop28279-5" offset="1"/></linearGradient><linearGradient id="linearGradient29529-6"><stop style="stop-color:#3a2903;stop-opacity:1" id="stop29531-0" offset="0"/><stop id="stop29539-7" offset=".555" style="stop-color:#735208;stop-opacity:1"/><stop style="stop-color:#ac8c04;stop-opacity:1" id="stop29533-8" offset="1"/></linearGradient><clipPath id="clipPath29644-8" clipPathUnits="userSpaceOnUse"><path style="fill:url(#radialGradient29648);fill-opacity:1;stroke:none" id="path29646-8" d="m 54.232441,122.36218 c -3.79199,4.78949 -8.5176,11.69104 -8.19273,17.25 0.32487,5.55896 3.86025,13.93486 8.37542,16 4.51517,2.06514 5.75436,0.0125 8.32902,-2.5 2.57466,-2.51247 3.85871,-7.34762 4.00585,-12.25 0.14713,-4.90238 -3.03534,-11.91949 -5.43855,-15.25 -2.40321,-3.33051 -3.28702,-8.03949 -7.07901,-3.25 z"/></clipPath><clipPath id="clipPath14656-7" clipPathUnits="userSpaceOnUse"><path style="fill:none;stroke:#c17d11;stroke-width:1px;stroke-linecap:butt;stroke-linejoin:miter;stroke-opacity:1" id="path14658-9" d="m 304.84727,225.44951 c 6.01627,4.92338 9.77707,12.317 10.94319,20.00305 1.8254,12.03148 -2.34636,24.07488 -6.44591,35.53273 -0.81749,2.28481 -1.63978,4.59033 -1.96473,6.99513 -0.32495,2.4048 -0.11897,4.94825 1.02948,7.08594 1.30279,2.42497 3.73227,4.12469 6.36677,4.92292 2.58877,0.78438 5.39365,0.76103 8.01466,0.0922 2.62101,-0.66882 5.06097,-1.96774 7.18716,-3.63996 5.48002,-4.30997 8.75799,-10.98552 10.01043,-17.84394 1.25243,-6.85841 0.63908,-13.92879 -0.551,-20.7983 -1.62313,-9.36916 -4.30898,-18.53961 -7.74003,-27.40773 -2.51766,-6.50732 -5.46794,-12.91081 -9.61753,-18.52016 -4.04611,-5.46946 -9.16208,-10.08954 -13.10336,-15.63502 -2.73209,-3.84412 -4.89983,-8.13097 -8.1917,-11.50812 -1.64594,-1.68858 -3.57654,-3.13527 -5.76975,-4.00143 -2.19321,-0.86616 -4.66356,-1.12446 -6.93254,-0.48249 -1.50468,0.42573 -2.89193,1.23739 -4.03791,2.30136 -1.14598,1.06397 -2.05268,2.37637 -2.69275,3.80312 -1.28015,2.85349 -1.47719,6.11241 -0.96512,9.1977 0.66114,3.98343 2.44407,7.69333 4.46569,11.18873 2.27396,3.93169 4.918,7.71926 8.38442,10.65407 3.5985,3.04664 7.96161,5.07413 11.61053,8.0602"/></clipPath><clipPath id="clipPath14489-3" clipPathUnits="userSpaceOnUse"><path id="path14491-6" d="m 516.00562,331.8756 c 0.90859,1.59687 -1.57016,3.38773 -2.81579,4.73826 -2.74207,2.97299 -6.45099,4.90178 -9.89648,7.01985 -5.91373,3.63539 -12.61918,5.90302 -18.41964,9.71654 -3.88318,2.553 -7.32809,5.72221 -10.86016,8.74238 -3.0221,2.58411 -5.48201,5.87643 -8.83247,8.01771 -3.3519,2.1422 -7.0437,4.15414 -10.99061,4.6502 -4.78298,0.60114 -9.87221,-0.25577 -14.29898,-2.16416 -3.0947,-1.33413 -6.16113,-3.38144 -7.96301,-6.22931 -1.81288,-2.86525 -2.06093,-6.5375 -2.23266,-9.92375 -0.30734,-6.06031 1.36252,-12.0605 2.17848,-18.07349 0.67882,-5.00236 1.85312,-9.94325 2.26013,-14.97502 0.73946,-9.14185 -0.7797,-18.40771 0.3199,-27.51327 0.35468,-2.93704 -0.181,-6.65876 2.01238,-8.64398 2.0384,-1.84494 5.43058,-1.1212 8.17929,-1.06253 3.34492,0.0714 6.63224,0.95108 9.88917,1.71656 2.05612,0.48325 3.99816,1.41138 6.0722,1.81081 3.44031,0.66255 6.96573,1.06623 10.46739,0.95192 3.78516,-0.12356 7.43659,-1.79636 11.22363,-1.76474 1.55185,0.013 3.12359,0.28186 4.58649,0.79985 1.48266,0.52499 2.98786,1.20618 4.12281,2.29512 0.86547,0.83038 1.42933,1.95676 1.87872,3.06879 0.67163,1.66196 0.8942,3.4778 1.16703,5.24945 0.24238,1.57389 -0.1531,3.27141 0.41433,4.75933 1.83023,4.79924 5.57666,8.72712 9.22489,12.34277 1.74278,1.93455 4.03041,3.53404 6.16708,4.82839 2.26886,1.37444 4.3675,2.44991 5.46279,4.81597 0.65901,1.48517 -0.54371,3.76097 0.68307,4.82635 z" style="fill:url(#linearGradient14485);fill-opacity:1;stroke:none"/></clipPath><clipPath id="clipPath14481-1" clipPathUnits="userSpaceOnUse"><path id="path14483-3" d="m 516.00562,331.8756 c 0.90859,1.59687 -1.57016,3.38773 -2.81579,4.73826 -2.74207,2.97299 -6.45099,4.90178 -9.89648,7.01985 -5.91373,3.63539 -12.61918,5.90302 -18.41964,9.71654 -3.88318,2.553 -7.32809,5.72221 -10.86016,8.74238 -3.0221,2.58411 -5.48201,5.87643 -8.83247,8.01771 -3.3519,2.1422 -7.0437,4.15414 -10.99061,4.6502 -4.78298,0.60114 -9.87221,-0.25577 -14.29898,-2.16416 -3.0947,-1.33413 -6.16113,-3.38144 -7.96301,-6.22931 -1.81288,-2.86525 -2.06093,-6.5375 -2.23266,-9.92375 -0.30734,-6.06031 1.36252,-12.0605 2.17848,-18.07349 0.67882,-5.00236 1.85312,-9.94325 2.26013,-14.97502 0.73946,-9.14185 -0.7797,-18.40771 0.3199,-27.51327 0.35468,-2.93704 -0.181,-6.65876 2.01238,-8.64398 2.0384,-1.84494 5.43058,-1.1212 8.17929,-1.06253 3.34492,0.0714 6.63224,0.95108 9.88917,1.71656 2.05612,0.48325 3.99816,1.41138 6.0722,1.81081 3.44031,0.66255 6.96573,1.06623 10.46739,0.95192 3.78516,-0.12356 7.43659,-1.79636 11.22363,-1.76474 1.55185,0.013 3.12359,0.28186 4.58649,0.79985 1.48266,0.52499 2.98786,1.20618 4.12281,2.29512 0.86547,0.83038 1.42933,1.95676 1.87872,3.06879 0.67163,1.66196 0.8942,3.4778 1.16703,5.24945 0.24238,1.57389 -0.1531,3.27141 0.41433,4.75933 1.83023,4.79924 5.57666,8.72712 9.22489,12.34277 1.74278,1.93455 4.03041,3.53404 6.16708,4.82839 2.26886,1.37444 4.3675,2.44991 5.46279,4.81597 0.65901,1.48517 -0.54371,3.76097 0.68307,4.82635 z" style="fill:url(#linearGradient14485);fill-opacity:1;stroke:none"/></clipPath><clipPath id="clipPath14473-5" clipPathUnits="userSpaceOnUse"><path id="path14475-9" d="m 511.82669,331.89986 c 0.79493,1.29584 -1.37375,2.7491 -2.46357,3.84504 -2.39907,2.41255 -5.64405,3.97773 -8.65855,5.69652 -5.17399,2.95008 -11.04067,4.79023 -16.11556,7.88485 -3.39744,2.07173 -6.41144,4.64351 -9.50169,7.09434 -2.64407,2.09697 -4.79627,4.76865 -7.72763,6.50627 -2.93262,1.73837 -6.16262,3.37103 -9.61582,3.77358 -4.18468,0.48781 -8.63731,-0.20756 -12.51035,-1.75619 -2.70759,-1.08263 -5.39044,-2.744 -6.96693,-5.05501 -1.58611,-2.32511 -1.80313,-5.3051 -1.95338,-8.053 -0.2689,-4.91787 1.19208,-9.78694 1.90598,-14.66641 0.59391,-4.05935 1.62131,-8.06882 1.97741,-12.15204 0.64696,-7.4185 -0.68217,-14.93763 0.27989,-22.32668 0.31031,-2.38337 -0.15836,-5.4035 1.76065,-7.01448 1.78342,-1.49715 4.75128,-0.90984 7.15616,-0.86223 2.92651,0.0579 5.80263,0.77179 8.65215,1.39297 1.79893,0.39215 3.49804,1.14531 5.31265,1.46945 3.00996,0.53765 6.0944,0.86523 9.15804,0.77247 3.31168,-0.10027 6.50636,-1.45773 9.81969,-1.43207 1.35773,0.0105 2.73287,0.22873 4.01277,0.64907 1.2972,0.42602 2.61412,0.9788 3.6071,1.86246 0.75721,0.67384 1.25054,1.58789 1.64371,2.49029 0.58762,1.34866 0.78235,2.82219 1.02105,4.25986 0.21206,1.27719 -0.13395,2.65471 0.36251,3.86214 1.60129,3.89452 4.87908,7.08195 8.07096,10.016 1.52478,1.56986 3.52626,2.86783 5.39565,3.91818 1.98506,1.11534 3.82118,1.98807 4.77946,3.9081 0.57658,1.2052 -0.47569,3.05198 0.59763,3.91652 z" style="fill:url(#linearGradient14477);fill-opacity:1;stroke:none"/></clipPath><linearGradient id="linearGradient14518-6"><stop style="stop-color:#110800;stop-opacity:1" id="stop14540-0" offset="0"/><stop id="stop14542-5" offset=".591" style="stop-color:#a65a00;stop-opacity:.80000001"/><stop id="stop14522-4" offset="1" style="stop-color:#ff921e;stop-opacity:0"/></linearGradient><clipPath id="clipPath14822-9" clipPathUnits="userSpaceOnUse"><path style="fill:none;stroke:#ce5c00;stroke-width:1px;stroke-linecap:butt;stroke-linejoin:miter;stroke-opacity:1" id="path14824-1" d="m 386.1875,285.32775 c -0.40516,-1.10369 -1.11845,-2.08156 -1.9907,-2.86987 -0.87226,-0.78832 -1.90049,-1.39229 -2.98278,-1.85155 -2.16459,-0.91852 -4.52053,-1.26149 -6.83152,-1.69556 -2.17919,-0.40931 -4.34179,-0.90631 -6.52782,-1.27734 -2.27136,-0.38551 -4.6179,-0.63213 -6.8653,-0.1253 -1.96583,0.44333 -3.7845,1.45879 -5.27172,2.81864 -1.48723,1.35984 -2.64911,3.0564 -3.48499,4.89007 -1.47218,3.22952 -1.93451,6.86503 -1.65394,10.40316 0.20882,2.63325 0.87532,5.34594 2.60877,7.33912 1.40065,1.61052 3.38733,2.61526 5.43398,3.22092 3.52502,1.04316 7.36663,0.98822 10.86038,-0.1553 5.76689,-1.93113 10.87568,-5.77387 14.33034,-10.77903 1.13861,-1.64963 2.11217,-3.44809 2.5532,-5.4034 0.33597,-1.48955 0.34831,-3.08112 -0.1779,-4.51456"/></clipPath><clipPath id="clipPath14822-2-4" clipPathUnits="userSpaceOnUse"><path style="fill:none;stroke:#ce5c00;stroke-width:1px;stroke-linecap:butt;stroke-linejoin:miter;stroke-opacity:1" id="path14824-6-5" d="m 386.1875,285.32775 c -0.40516,-1.10369 -1.11845,-2.08156 -1.9907,-2.86987 -0.87226,-0.78832 -1.90049,-1.39229 -2.98278,-1.85155 -2.16459,-0.91852 -4.52053,-1.26149 -6.83152,-1.69556 -2.17919,-0.40931 -4.34179,-0.90631 -6.52782,-1.27734 -2.27136,-0.38551 -4.6179,-0.63213 -6.8653,-0.1253 -1.96583,0.44333 -3.7845,1.45879 -5.27172,2.81864 -1.48723,1.35984 -2.64911,3.0564 -3.48499,4.89007 -1.47218,3.22952 -1.93451,6.86503 -1.65394,10.40316 0.20882,2.63325 0.87532,5.34594 2.60877,7.33912 1.40065,1.61052 3.38733,2.61526 5.43398,3.22092 3.52502,1.04316 7.36663,0.98822 10.86038,-0.1553 5.76689,-1.93113 10.87568,-5.77387 14.33034,-10.77903 1.13861,-1.64963 2.11217,-3.44809 2.5532,-5.4034 0.33597,-1.48955 0.34831,-3.08112 -0.1779,-4.51456"/></clipPath><clipPath id="clipPath15031-3" clipPathUnits="userSpaceOnUse"><path id="path15033-2" d="m 248.06066,184.61218 c 0,0 -5.10626,6.34527 -7.89695,10.24696 -2.7907,3.9017 -5.73652,6.64881 -8.58729,10.75139 -2.85076,4.10259 -7.36482,9.43164 -9.44912,13.93045 -2.08429,4.49881 -2.32047,9.0356 -4.26498,13.84932 -1.94451,4.81371 -3.70129,10.64183 -5.97071,15.33612 -2.26943,4.69429 -5.37093,9.68473 -6.93891,13.53553 -1.56799,3.8508 -3.81119,5.72384 -4.10782,10.22071 -0.29663,4.49686 -0.57747,8.31749 3.77151,16.77227 4.34898,8.45478 17.23626,22.00721 24.24176,27.92472 7.00549,5.9175 9.39133,7.22492 14.60245,8.52595 5.21112,1.30104 13.85627,2.9981 16.72874,-1.2702 2.87246,-4.26829 2.27191,-5.96483 -0.74863,-10.66616 -3.02055,-4.70132 -4.82469,-5.30209 -9.79642,-9.57343 -4.97172,-4.27133 -18.63696,-14.87266 -22.68212,-19.23996 -4.04516,-4.36729 -7.10731,-3.41164 -5.53019,-6.28412 1.57712,-2.87249 -2.20738,-4.00856 -2.65783,-7.69253 -0.76361,-6.24511 0.9436,-18.71046 1.45958,-22.13343 0.51598,-3.42296 1.22371,-2.92446 3.51815,-8.03965 2.29444,-5.11519 4.12424,-8.62435 7.04933,-13.46723 2.92509,-4.84289 8.62493,-10.12787 11.15147,-15.27803 2.52654,-5.15017 3.50393,-10.72068 4.36185,-15.31831 0.85792,-4.59763 1.74613,-12.13037 1.74613,-12.13037 z" style="fill:none;stroke:#729fcf;stroke-width:.125;stroke-linecap:butt;stroke-linejoin:miter;stroke-miterlimit:4;stroke-dasharray:none;stroke-opacity:1"/></clipPath><clipPath id="clipPath14186-9" clipPathUnits="userSpaceOnUse"><path style="fill:#402c07;fill-opacity:1;stroke:none" id="path14188-1" d="m 137.57703,281.0191 c 1.59929,-0.66295 3.3982,-0.78361 5.10074,-0.46963 1.70253,0.31398 3.31141,1.04948 4.74342,2.02239 2.86402,1.94583 4.98821,4.77774 7.02263,7.57952 4.67189,6.43406 9.16868,13.00227 13.24488,19.8293 3.30635,5.53766 6.34352,11.25685 10.16415,16.45304 2.49398,3.3919 5.3066,6.53947 7.813,9.92221 2.50639,3.38273 4.72794,7.05586 5.83931,11.11662 1.44411,5.27653 0.88463,11.09291 -1.62666,15.95302 -1.76663,3.41896 -4.47646,6.35228 -7.77242,8.33898 -3.29595,1.9867 -7.17064,3.01444 -11.01635,2.87021 -6.11413,-0.2293 -11.69944,-3.28515 -17.38362,-5.54906 -11.58097,-4.6125 -24.15978,-6.0594 -36.09666,-9.65174 -3.66859,-1.10404 -7.27582,-2.4107 -10.96988,-3.42629 -1.64125,-0.45122 -3.30866,-0.8482 -4.85875,-1.55144 -1.55008,-0.70325 -2.999548,-1.7491 -3.86171,-3.21675 -0.666391,-1.13439 -0.948386,-2.47002 -0.930187,-3.78554 0.0182,-1.31552 0.325889,-2.61453 0.773815,-3.85158 0.895851,-2.47409 2.343262,-4.71374 3.320162,-7.15696 1.59511,-3.98935 1.88169,-8.38839 1.66657,-12.67942 -0.21511,-4.29103 -0.91078,-8.54478 -1.20454,-12.83115 -0.13118,-1.91406 -0.18066,-3.85256 0.18479,-5.73598 0.36545,-1.88343 1.17577,-3.72459 2.55771,-5.05541 1.27406,-1.22693 2.96492,-1.95531 4.69643,-2.31651 1.73151,-0.3612 3.51533,-0.37747 5.28367,-0.33762 1.76833,0.0399 3.54067,0.13425 5.30351,-0.0106 1.76284,-0.14488 3.53347,-0.54055 5.06911,-1.41828 1.45996,-0.83447 2.65433,-2.0745 3.64374,-3.43424 0.9894,-1.35974 1.78909,-2.84573 2.60891,-4.31396 0.81983,-1.46823 1.66834,-2.93151 2.74157,-4.22611 1.07324,-1.2946 2.38923,-2.42304 3.94266,-3.06698"/></clipPath><linearGradient id="linearGradient8646"><stop style="stop-color:#ffd43b;stop-opacity:1" id="stop8642" offset="0"/><stop style="stop-color:#ffefa1;stop-opacity:1" id="stop8644" offset="1"/></linearGradient><linearGradient id="linearGradient1478-2" x1="26.649" x2="135.665" y1="20.604" y2="114.398" gradientTransform="matrix(0.62201222,0,0,0.62801738,-16.861028,-2.6443754)" gradientUnits="userSpaceOnUse" xlink:href="#linearGradient4689"/><linearGradient id="linearGradient4689"><stop id="stop4691" offset="0" style="stop-color:#5a9fd4;stop-opacity:1"/><stop id="stop4693" offset="1" style="stop-color:#306998;stop-opacity:1"/></linearGradient><linearGradient id="linearGradient4671"><stop id="stop4673" offset="0" style="stop-color:#ffd43b;stop-opacity:1"/><stop id="stop4675" offset="1" style="stop-color:#ffe873;stop-opacity:1"/></linearGradient><radialGradient id="radialGradient1480-7" cx="61.519" cy="132.286" r="29.037" fx="61.519" fy="132.286" gradientTransform="matrix(2.382716e-8,-0.296405,1.43676,4.683673e-7,-128.544,150.5202)" gradientUnits="userSpaceOnUse" xlink:href="#linearGradient2795"/><linearGradient id="linearGradient2795"><stop id="stop2797" offset="0" style="stop-color:#b8b8b8;stop-opacity:.49803922"/><stop id="stop2799" offset="1" style="stop-color:#7f7f7f;stop-opacity:0"/></linearGradient><radialGradient id="path125302_1_" cx="6611.756" cy="-7278.269" r="17925.004" gradientTransform="matrix(0.0195,0,0,-0.0195,770.9,757.886)" gradientUnits="userSpaceOnUse"><stop style="stop-color:#0101ff" id="stop8780" offset="0"/><stop style="stop-color:navy" id="stop8782" offset="1"/></radialGradient><radialGradient id="polygon8_1_" cx="7553.003" cy="-7131.863" r="16567.537" gradientTransform="matrix(0.0194,0,0,-0.0205,772.9011,743.9232)" gradientUnits="userSpaceOnUse"><stop style="stop-color:#0101ff" id="stop9155" offset="0"/><stop style="stop-color:navy" id="stop9157" offset="1"/></radialGradient><radialGradient id="polygon413_1_" cx="7976.346" cy="-10508.842" r="13293.867" gradientTransform="matrix(0.0222,0,0,-0.0248,721.1671,674.6745)" gradientUnits="userSpaceOnUse"><stop style="stop-color:#80ff80" id="stop9162" offset="0"/><stop style="stop-color:#0f0" id="stop9164" offset="1"/></radialGradient><radialGradient id="path125302_1_-0" cx="6611.756" cy="-7278.269" r="17925.004" gradientTransform="matrix(0.0195,0,0,-0.0195,770.9,757.886)" gradientUnits="userSpaceOnUse"><stop style="stop-color:#0101ff" id="stop8780-6" offset="0"/><stop style="stop-color:navy" id="stop8782-2" offset="1"/></radialGradient><radialGradient id="polygon8_1_-6" cx="7553.003" cy="-7131.863" r="16567.537" gradientTransform="matrix(0.0194,0,0,-0.0205,772.9011,743.9232)" gradientUnits="userSpaceOnUse"><stop style="stop-color:#0101ff" id="stop9155-1" offset="0"/><stop style="stop-color:navy" id="stop9157-8" offset="1"/></radialGradient><radialGradient id="polygon413_1_-7" cx="7976.346" cy="-10508.842" r="13293.867" gradientTransform="matrix(0.0222,0,0,-0.0248,721.1671,674.6745)" gradientUnits="userSpaceOnUse"><stop style="stop-color:#80ff80" id="stop9162-9" offset="0"/><stop style="stop-color:#0f0" id="stop9164-2" offset="1"/></radialGradient><linearGradient id="linearGradient11157" x1="-445.33" x2="-440.401" y1="727.684" y2="750.83" gradientUnits="userSpaceOnUse" xlink:href="#linearGradient6227"/><linearGradient id="linearGradient6227"><stop style="stop-color:#d1e9fc;stop-opacity:1" id="stop6223" offset="0"/><stop id="stop6231" offset=".536" style="stop-color:#6cade2;stop-opacity:1"/><stop style="stop-color:#519cd7;stop-opacity:1" id="stop6225" offset="1"/></linearGradient><linearGradient id="linearGradient11159" x1="-284.037" x2="-291.317" y1="147.443" y2="141.304" gradientUnits="userSpaceOnUse" xlink:href="#linearGradient6219"/><linearGradient id="linearGradient6219"><stop style="stop-color:#f1fafe;stop-opacity:1" id="stop6215" offset="0"/><stop style="stop-color:#fff;stop-opacity:1" id="stop6217" offset="1"/></linearGradient><linearGradient id="linearGradient11207" x1="15.733" x2="15.913" y1="13.879" y2="19.182" gradientTransform="matrix(0.39904172,0,0,0.39908433,242.74702,349.24432)" gradientUnits="userSpaceOnUse" xlink:href="#linearGradient5507"/><linearGradient id="linearGradient5507"><stop style="stop-color:red;stop-opacity:1" id="stop5501" offset="0"/><stop id="stop5503" offset=".468" style="stop-color:red;stop-opacity:1"/><stop style="stop-color:#cf0000;stop-opacity:1" id="stop5505" offset="1"/></linearGradient><linearGradient id="linearGradient9692" x1="-445.33" x2="-440.401" y1="727.684" y2="750.83" gradientUnits="userSpaceOnUse" xlink:href="#linearGradient6227"/><linearGradient id="linearGradient9694" x1="-284.037" x2="-291.317" y1="147.443" y2="141.304" gradientUnits="userSpaceOnUse" xlink:href="#linearGradient6219"/></defs><metadata id="metadata5"/><g id="layer1"><g id="g10338" transform="matrix(0.26458333,0,0,0.26458333,-59.451592,-93.096854)"><g id="g11177" transform="matrix(1.1182194,0,0,1.1183388,-163.19937,130.55662)"><g id="g11155" transform="matrix(1.1378823,0,0,1.1479204,685.77854,46.695501)"><polygon id="polygon11151" points="-456.733 728.913 -459.906 732.085 -463.044 732.085 -463.044 747.385 -383.017 747.385 -383.017 743.133 -387.278 738.873 -426.98 738.873 -426.98 733.507 -430.918 733.507 -435.512 728.913" transform="matrix(0.19748859,0,0,0.19748859,-205.14926,-9.242098)" style="fill:url(#linearGradient9692);fill-opacity:1;stroke:teal;stroke-width:3.03815;stroke-linecap:round;stroke-linejoin:round;stroke-miterlimit:4;stroke-dasharray:none"/><rect id="rect11153" width="15.804" height="10.392" x="-296.595" y="138.358" style="fill:url(#linearGradient9694);fill-opacity:1;stroke:teal;stroke-width:.599807;stroke-linecap:round;stroke-linejoin:round;stroke-miterlimit:4;stroke-dasharray:none"/></g><g id="g11165" transform="matrix(1.1378823,0,0,1.1479204,692.27854,53.4455)"><polygon style="fill:url(#linearGradient11157);fill-opacity:1;stroke:teal;stroke-width:3.03815;stroke-linecap:round;stroke-linejoin:round;stroke-miterlimit:4;stroke-dasharray:none" id="polygon11161" points="-463.044 732.085 -463.044 747.385 -383.017 747.385 -383.017 743.133 -387.278 738.873 -426.98 738.873 -426.98 733.507 -430.918 733.507 -435.512 728.913 -456.733 728.913 -459.906 732.085" transform="matrix(0.19748859,0,0,0.19748859,-205.14926,-9.242098)"/><rect style="fill:url(#linearGradient11159);fill-opacity:1;stroke:teal;stroke-width:.599807;stroke-linecap:round;stroke-linejoin:round;stroke-miterlimit:4;stroke-dasharray:none" id="rect11163" width="15.804" height="10.392" x="-296.595" y="138.358"/></g></g><rect id="rect11205" width="12.577" height="2.962" x="242.843" y="354.149" style="fill:url(#linearGradient11207);fill-opacity:1;stroke:#fff;stroke-width:.192314;stroke-linecap:round;stroke-linejoin:round"/></g></g></svg>