<svg xmlns="http://www.w3.org/2000/svg" xmlns:svg="http://www.w3.org/2000/svg" xmlns:xlink="http://www.w3.org/1999/xlink" id="svg8" width="32" height="32" version="1.1" viewBox="0 0 8.467 8.467"><defs id="defs2"><linearGradient id="linearGradient5392" x1="-1229.079" x2="-1161.802" y1="-490.614" y2="-490.614" gradientUnits="userSpaceOnUse" xlink:href="#linearGradient5093"/><linearGradient id="linearGradient5093"><stop style="stop-color:#fff;stop-opacity:1" id="stop5089" offset="0"/><stop style="stop-color:#fff;stop-opacity:0" id="stop5091" offset="1"/></linearGradient><linearGradient id="linearGradient5356" x1="-512.147" x2="-541.284" y1="375.795" y2="311.956" gradientUnits="userSpaceOnUse" xlink:href="#linearGradient5354"/><linearGradient id="linearGradient5354"><stop style="stop-color:#ffc02a;stop-opacity:1" id="stop5350" offset="0"/><stop style="stop-color:#ffe4a6;stop-opacity:1" id="stop5352" offset="1"/></linearGradient><linearGradient id="linearGradient5346" x1="-508.623" x2="-508.525" y1="311.247" y2="304.032" gradientUnits="userSpaceOnUse" xlink:href="#linearGradient5344"/><linearGradient id="linearGradient5344"><stop style="stop-color:#4d4d4d;stop-opacity:1" id="stop5340" offset="0"/><stop id="stop5348" offset=".208" style="stop-color:#333;stop-opacity:1"/><stop style="stop-color:#f2f2f2;stop-opacity:1" id="stop5342" offset="1"/></linearGradient><linearGradient id="linearGradient5388" x1="-475.344" x2="-537.257" y1="290.646" y2="214.889" gradientTransform="matrix(0.38971342,0,0,0.38486404,212.46174,-82.510564)" gradientUnits="userSpaceOnUse" xlink:href="#linearGradient5101"/><linearGradient id="linearGradient5101"><stop style="stop-color:#99d3f4;stop-opacity:1" id="stop5097" offset="0"/><stop style="stop-color:#fff;stop-opacity:1" id="stop5099" offset="1"/></linearGradient><filter style="color-interpolation-filters:sRGB" id="filter5130" width="1.048" height="1.048" x="-.024" y="-.024"><feGaussianBlur id="feGaussianBlur5132" stdDeviation=".184"/></filter><linearGradient id="linearGradient3387" x1="-1229.079" x2="-1161.802" y1="-490.614" y2="-490.614" gradientUnits="userSpaceOnUse" xlink:href="#linearGradient5093"/><linearGradient id="linearGradient3389" x1="-1229.079" x2="-1161.802" y1="-490.614" y2="-490.614" gradientUnits="userSpaceOnUse" xlink:href="#linearGradient5093"/></defs><metadata id="metadata5"/><g id="layer1"><g id="g5380" transform="matrix(0.20067859,0,0,0.19721835,142.67766,133.00431)" style="fill:url(#linearGradient5392);fill-opacity:1"><g id="g5420" transform="translate(-22.373293,-120.88956)" style="fill:url(#linearGradient3389)"><polygon style="fill:url(#linearGradient5356);fill-opacity:1;stroke:#000;stroke-linecap:round;stroke-linejoin:round;stroke-opacity:1" id="polygon166" points="-530.568 380.936 -508.803 380.936 -487.037 380.936 -476.322 370.221 -476.322 311.956 -487.975 300.302 -508.803 300.302 -529.631 300.302 -541.284 311.956 -541.284 370.221" transform="matrix(0.50276854,0,0,0.50945266,-412.72799,-705.5758)"/><polygon style="fill:url(#linearGradient5346);fill-opacity:1;stroke:#000;stroke-linecap:round;stroke-linejoin:round" id="polygon164" points="-508.803 303.115 -495.877 303.115 -493.6 305.392 -493.6 312.089 -508.803 312.089 -524.005 312.089 -524.005 305.392 -521.728 303.115" transform="matrix(0.50276854,0,0,0.50945266,-412.72799,-705.5758)"/><g id="g5378" transform="matrix(0.36998634,0,0,0.36998634,-220.04278,-345.93038)" style="fill:url(#linearGradient3387)"><path id="path5366" d="M 3.0859375,0.19335938 V 31.806641 H 28.914062 V 7.2578125 L 21.759766,0.19335938 Z M 5.6386719,3.5019531 H 18.810547 V 7.0234375 H 14.3125 V 11.71875 H 5.6386719 Z" transform="matrix(2.5659876,0,0,2.5983805,-1236.4963,-532.18932)" style="fill:url(#linearGradient5388);fill-opacity:1;stroke:#000;stroke-width:.387281;stroke-linecap:round;stroke-linejoin:round"/><polygon id="polygon5368" points="-489.339 233.247 -489.339 214.889 -470.98 233.247" transform="matrix(0.99999983,0,0,1.0000232,-691.45668,-745.9019)" style="fill:#4d4d4d;fill-opacity:1;stroke:none;stroke-linecap:round;stroke-linejoin:round;filter:url(#filter5130)"/><polygon style="fill:#60a1e3;fill-opacity:1;stroke:none;stroke-linecap:round;stroke-linejoin:round" id="polygon5370" points="-489.339 214.889 -470.98 233.247 -489.339 233.247" transform="matrix(0.99999983,0,0,1.0000232,-691.32212,-746.58316)"/><path id="path5372" d="m -1221.1575,-490.18859 h 52.2059" style="fill:none;stroke:#000;stroke-width:2.58213px;stroke-linecap:butt;stroke-linejoin:miter;stroke-opacity:1"/><path style="fill:none;stroke:#000;stroke-width:2.58213px;stroke-linecap:butt;stroke-linejoin:miter;stroke-opacity:1" id="path5374" d="m -1221.1575,-483.3761 h 52.2059"/><path id="path5376" d="m -1221.1575,-476.29111 h 52.2059" style="fill:none;stroke:#000;stroke-width:2.58213px;stroke-linecap:butt;stroke-linejoin:miter;stroke-opacity:1"/></g></g></g></g></svg>