<svg xmlns="http://www.w3.org/2000/svg" xmlns:svg="http://www.w3.org/2000/svg" xmlns:xlink="http://www.w3.org/1999/xlink" id="svg8" width="32" height="32" version="1.1" viewBox="0 0 8.467 8.467"><defs id="defs2"><linearGradient id="linearGradient6639" x1="14.495" x2="14.323" y1="6.87" y2="2.274" gradientTransform="translate(1.935e-6,-0.14997127)" gradientUnits="userSpaceOnUse" xlink:href="#linearGradient5666"/><linearGradient id="linearGradient5666"><stop style="stop-color:#82ade0;stop-opacity:1" id="stop5662" offset="0"/><stop style="stop-color:#f1effb;stop-opacity:1" id="stop5664" offset="1"/></linearGradient><linearGradient id="linearGradient6962" x1="-21.973" x2="-24.291" y1=".067" y2="-2.154" gradientTransform="matrix(1.2526911,0,0,1.2526911,9.0506431,-9.0310118)" gradientUnits="userSpaceOnUse" xlink:href="#linearGradient6960"/><linearGradient id="linearGradient6960"><stop style="stop-color:#0ff;stop-opacity:1" id="stop6956" offset="0"/><stop style="stop-color:#3caad6;stop-opacity:1" id="stop6958" offset="1"/></linearGradient><linearGradient id="linearGradient6966" x1="-21.973" x2="-24.291" y1=".067" y2="-2.154" gradientTransform="matrix(1.2887898,0,0,1.2887898,9.6773342,3.6433982)" gradientUnits="userSpaceOnUse" xlink:href="#linearGradient6972"/><linearGradient id="linearGradient6972"><stop id="stop6968" offset="0" style="stop-color:#ff0;stop-opacity:1"/><stop id="stop6970" offset="1" style="stop-color:#d49c00;stop-opacity:1"/></linearGradient><linearGradient id="linearGradient6976" x1="-21.973" x2="-24.291" y1=".067" y2="-2.154" gradientTransform="matrix(1.2887898,0,0,1.2887898,-0.13377173,-2.632174)" gradientUnits="userSpaceOnUse" xlink:href="#linearGradient6982"/><linearGradient id="linearGradient6982"><stop style="stop-color:#ff9139;stop-opacity:1" id="stop6978" offset="0"/><stop style="stop-color:#f60;stop-opacity:1" id="stop6980" offset="1"/></linearGradient></defs><metadata id="metadata5"/><g id="layer1"><g id="g6990" transform="matrix(0.26455472,0,0,0.26458298,4.5782074e-4,0.0345811)"><path style="fill:teal;stroke:#000;stroke-width:.387115;stroke-linecap:round;stroke-linejoin:round" id="path6621" d="m 3.5316505,27.337497 c 8.3122365,0 16.6244625,0 24.9366895,0 1.843589,0 3.33871,-1.487611 3.33871,-3.322407 0,-5.882857 0,-11.765328 0,-17.6481856 0,-1.8347963 -1.494735,-3.322407 -3.33871,-3.322407 -8.312227,0 -16.624453,0 -24.9366895,0 -1.8435791,0 -3.33870043,1.4876107 -3.33870043,3.322407 0,5.8828576 0,11.7653286 0,17.6481856 3.8641e-4,1.834796 1.49512133,3.322407 3.33870043,3.322407 z"/><path style="fill:url(#linearGradient6639);fill-opacity:1;stroke:#000;stroke-width:.387115;stroke-linecap:round;stroke-linejoin:round" id="path6623" d="m 0.19333648,8.274691 c 10.53802952,0 21.07567352,0 31.61371352,0 0,-0.6356714 0,-1.271729 0,-1.9077866 0,-1.8347963 -1.494735,-3.322407 -3.33871,-3.322407 -8.312227,0 -16.624453,0 -24.9366895,0 -1.8435791,0 -3.33870043,1.4876107 -3.33870043,3.322407 3.8641e-4,0.6360576 3.8641e-4,1.2721152 3.8641e-4,1.9077866 z"/><rect style="fill:#fff;stroke:#000;stroke-width:.387115;stroke-linecap:round;stroke-linejoin:round" id="rect6625" width="29.293" height="17.656" x="1.426" y="8.612"/><rect id="rect6134" width="6.324" height="9.937" x="-22.456" y="-14" transform="rotate(-135)" style="fill:url(#linearGradient6962);fill-opacity:1;stroke:teal;stroke-width:.770405;stroke-linecap:round;stroke-linejoin:round;stroke-miterlimit:4;stroke-dasharray:none"/><rect style="fill:url(#linearGradient6966);fill-opacity:1;stroke:#ffc300;stroke-width:.792606;stroke-linecap:round;stroke-linejoin:round;stroke-miterlimit:4;stroke-dasharray:none;stroke-opacity:1" id="rect6964" width="6.506" height="10.224" x="-22.738" y="-1.469" transform="rotate(-135)"/><rect id="rect6974" width="6.506" height="10.224" x="-32.549" y="-7.744" transform="rotate(-135)" style="fill:url(#linearGradient6976);fill-opacity:1;stroke:#d45500;stroke-width:.792606;stroke-linecap:round;stroke-linejoin:round;stroke-miterlimit:4;stroke-dasharray:none"/></g></g></svg>