<svg xmlns="http://www.w3.org/2000/svg" xmlns:svg="http://www.w3.org/2000/svg" xmlns:xlink="http://www.w3.org/1999/xlink" id="svg8" width="32" height="32" version="1.1" viewBox="0 0 8.467 8.467"><defs id="defs2"><linearGradient id="linearGradient8532"><stop id="stop8526" offset="0" style="stop-color:#2929ff;stop-opacity:1"/><stop style="stop-color:#6464e9;stop-opacity:1" id="stop8528" offset=".24"/><stop id="stop8534" offset=".887" style="stop-color:#1515f0;stop-opacity:1"/><stop id="stop8530" offset="1" style="stop-color:#0000d1;stop-opacity:1"/></linearGradient><linearGradient id="linearGradient6517" x1="258.618" x2="285.338" y1="176.501" y2="176.501" gradientTransform="matrix(1.1019365,0,0,1.1019365,-27.739221,-18.502129)" gradientUnits="userSpaceOnUse" xlink:href="#linearGradient8532"/><linearGradient id="linearGradient6196" x1="14.495" x2="14.323" y1="6.87" y2="2.274" gradientTransform="translate(1.935e-6,-0.14997127)" gradientUnits="userSpaceOnUse" xlink:href="#linearGradient5666"/><linearGradient id="linearGradient5666"><stop style="stop-color:#82ade0;stop-opacity:1" id="stop5662" offset="0"/><stop style="stop-color:#f1effb;stop-opacity:1" id="stop5664" offset="1"/></linearGradient><linearGradient id="linearGradient6245" x1="-21.973" x2="-24.291" y1=".067" y2="-2.154" gradientTransform="matrix(1.2526911,0,0,1.2526911,2.0894042,8.456896)" gradientUnits="userSpaceOnUse" xlink:href="#linearGradient6960"/><linearGradient id="linearGradient6960"><stop style="stop-color:#0ff;stop-opacity:1" id="stop6956" offset="0"/><stop style="stop-color:#3caad6;stop-opacity:1" id="stop6958" offset="1"/></linearGradient><linearGradient id="linearGradient6247" x1="-21.973" x2="-24.291" y1=".067" y2="-2.154" gradientTransform="matrix(1.492995,0,0,1.492995,20.418206,0.80198751)" gradientUnits="userSpaceOnUse" xlink:href="#linearGradient6972"/><linearGradient id="linearGradient6972"><stop id="stop6968" offset="0" style="stop-color:#ff0;stop-opacity:1"/><stop id="stop6970" offset="1" style="stop-color:#d49c00;stop-opacity:1"/></linearGradient><linearGradient id="linearGradient6249" x1="-21.973" x2="-24.291" y1=".067" y2="-2.154" gradientTransform="matrix(1.2887898,0,0,1.2887898,-5.5241017,-1.0340876)" gradientUnits="userSpaceOnUse" xlink:href="#linearGradient6982"/><linearGradient id="linearGradient6982"><stop style="stop-color:#ff9139;stop-opacity:1" id="stop6978" offset="0"/><stop style="stop-color:#f60;stop-opacity:1" id="stop6980" offset="1"/></linearGradient></defs><metadata id="metadata5"/><g id="layer1"><g id="g6597" transform="matrix(0.26458333,0,0,0.26458333,-93.117015,-42.267196)"><g id="g6194" transform="matrix(0.99989187,0,0,0.99999865,351.94006,160.63158)"><path id="path6188" d="m 3.5316505,27.337497 c 8.3122365,0 16.6244625,0 24.9366895,0 1.843589,0 3.33871,-1.487611 3.33871,-3.322407 0,-5.882857 0,-11.765328 0,-17.6481856 0,-1.8347963 -1.494735,-3.322407 -3.33871,-3.322407 -8.312227,0 -16.624453,0 -24.9366895,0 -1.8435791,0 -3.33870043,1.4876107 -3.33870043,3.322407 0,5.8828576 0,11.7653286 0,17.6481856 3.8641e-4,1.834796 1.49512133,3.322407 3.33870043,3.322407 z" style="fill:teal;stroke:#000;stroke-width:.387115;stroke-linecap:round;stroke-linejoin:round"/><path id="path6190" d="m 0.19333648,8.274691 c 10.53802952,0 21.07567352,0 31.61371352,0 0,-0.6356714 0,-1.271729 0,-1.9077866 0,-1.8347963 -1.494735,-3.322407 -3.33871,-3.322407 -8.312227,0 -16.624453,0 -24.9366895,0 -1.8435791,0 -3.33870043,1.4876107 -3.33870043,3.322407 3.8641e-4,0.6360576 3.8641e-4,1.2721152 3.8641e-4,1.9077866 z" style="fill:url(#linearGradient6196);fill-opacity:1;stroke:#000;stroke-width:.387115;stroke-linecap:round;stroke-linejoin:round"/><rect id="rect6192" width="29.293" height="17.656" x="1.426" y="8.612" style="fill:#fff;stroke:#000;stroke-width:.387115;stroke-linecap:round;stroke-linejoin:round"/></g><g id="g6262" transform="matrix(0.99989187,0,0,0.99999865,349.9973,159.17958)"><path style="color:#000;font-style:normal;font-variant:normal;font-weight:400;font-stretch:normal;font-size:medium;line-height:normal;font-family:sans-serif;font-variant-ligatures:normal;font-variant-position:normal;font-variant-caps:normal;font-variant-numeric:normal;font-variant-alternates:normal;font-feature-settings:normal;text-indent:0;text-align:start;text-decoration:none;text-decoration-line:none;text-decoration-style:solid;text-decoration-color:#000;letter-spacing:normal;word-spacing:normal;text-transform:none;writing-mode:lr-tb;direction:ltr;text-orientation:mixed;dominant-baseline:auto;baseline-shift:baseline;text-anchor:start;white-space:normal;shape-padding:0;clip-rule:nonzero;display:inline;overflow:visible;visibility:visible;opacity:1;isolation:auto;mix-blend-mode:normal;color-interpolation:sRGB;color-interpolation-filters:linearRGB;solid-color:#000;solid-opacity:1;vector-effect:none;fill:#000;fill-opacity:1;fill-rule:nonzero;stroke:#fff;stroke-width:.3;stroke-linecap:round;stroke-linejoin:round;stroke-miterlimit:4;stroke-dasharray:none;stroke-dashoffset:0;stroke-opacity:1;color-rendering:auto;image-rendering:auto;shape-rendering:auto;text-rendering:auto;enable-background:accumulate" id="polyline6156" d="m 15.120496,11.471279 a 0.66633034,0.73551805 0 0 0 -0.656703,0.745722 v 11.944098 a 0.66633034,0.73551805 0 0 0 0.666516,0.735727 h 7.259248 a 0.66633034,0.73551805 0 1 0 0,-1.470621 H 15.796828 V 12.217001 a 0.66633034,0.73551805 0 0 0 -0.676332,-0.745722 z"/><path style="color:#000;font-style:normal;font-variant:normal;font-weight:400;font-stretch:normal;font-size:medium;line-height:normal;font-family:sans-serif;font-variant-ligatures:normal;font-variant-position:normal;font-variant-caps:normal;font-variant-numeric:normal;font-variant-alternates:normal;font-feature-settings:normal;text-indent:0;text-align:start;text-decoration:none;text-decoration-line:none;text-decoration-style:solid;text-decoration-color:#000;letter-spacing:normal;word-spacing:normal;text-transform:none;writing-mode:lr-tb;direction:ltr;text-orientation:mixed;dominant-baseline:auto;baseline-shift:baseline;text-anchor:start;white-space:normal;shape-padding:0;clip-rule:nonzero;display:inline;overflow:visible;visibility:visible;opacity:1;isolation:auto;mix-blend-mode:normal;color-interpolation:sRGB;color-interpolation-filters:linearRGB;solid-color:#000;solid-opacity:1;vector-effect:none;fill:#000;fill-opacity:1;fill-rule:nonzero;stroke:#fff;stroke-width:.3;stroke-linecap:round;stroke-linejoin:round;stroke-miterlimit:4;stroke-dasharray:none;stroke-dashoffset:0;stroke-opacity:1;color-rendering:auto;image-rendering:auto;shape-rendering:auto;text-rendering:auto;enable-background:accumulate" id="line6154" d="m 10.609375,11.517578 a 0.70006999,0.70006999 0 1 0 0,1.398438 h 9.041016 a 0.70006999,0.70006999 0 1 0 0,-1.398438 z"/><rect style="fill:url(#linearGradient6245);fill-opacity:1;stroke:teal;stroke-width:.770405;stroke-linecap:round;stroke-linejoin:round;stroke-miterlimit:4;stroke-dasharray:none" id="rect6239" width="6.324" height="9.937" x="-29.418" y="3.488" transform="rotate(-135)"/><rect id="rect6241" width="7.537" height="11.844" x="-17.133" y="-5.12" transform="rotate(-135)" style="fill:url(#linearGradient6247);fill-opacity:1;stroke:#ffc300;stroke-width:.918192;stroke-linecap:round;stroke-linejoin:round;stroke-miterlimit:4;stroke-dasharray:none;stroke-opacity:1"/><rect style="fill:url(#linearGradient6249);fill-opacity:1;stroke:#d45500;stroke-width:.792606;stroke-linecap:round;stroke-linejoin:round;stroke-miterlimit:4;stroke-dasharray:none" id="rect6243" width="6.506" height="10.224" x="-37.939" y="-6.146" transform="rotate(-135)"/></g></g></g></svg>