<svg xmlns="http://www.w3.org/2000/svg" xmlns:svg="http://www.w3.org/2000/svg" xmlns:xlink="http://www.w3.org/1999/xlink" id="svg8" width="32" height="32" version="1.1" viewBox="0 0 8.467 8.467"><defs id="defs2"><linearGradient id="linearGradient8532"><stop style="stop-color:#2929ff;stop-opacity:1" id="stop8526" offset="0"/><stop id="stop8528" offset=".24" style="stop-color:#6464e9;stop-opacity:1"/><stop style="stop-color:#1515f0;stop-opacity:1" id="stop8534" offset=".887"/><stop style="stop-color:#0000d1;stop-opacity:1" id="stop8530" offset="1"/></linearGradient><linearGradient id="linearGradient6517" x1="258.618" x2="285.338" y1="176.501" y2="176.501" gradientTransform="matrix(1.1019365,0,0,1.1019365,-27.739221,-18.502129)" gradientUnits="userSpaceOnUse" xlink:href="#linearGradient8532"/><linearGradient id="linearGradient6303"><stop style="stop-color:#ffd43b;stop-opacity:1" id="stop6299" offset="0"/><stop id="stop6305" offset=".659" style="stop-color:#ffdd3e;stop-opacity:1"/><stop style="stop-color:#ffed92;stop-opacity:1" id="stop6301" offset="1"/></linearGradient><filter style="color-interpolation-filters:sRGB" id="filter6436" width="1.035" height="1.032" x="-.018" y="-.016"><feGaussianBlur id="feGaussianBlur6438" stdDeviation=".466"/></filter><linearGradient id="linearGradient6362" x1="53.278" x2="104.654" y1="742.311" y2="798.505" gradientUnits="userSpaceOnUse" xlink:href="#linearGradient6370"/><linearGradient id="linearGradient6370"><stop id="stop6364" offset="0" style="stop-color:#e2f1fd;stop-opacity:1"/><stop style="stop-color:#a5ceef;stop-opacity:1" id="stop6372" offset=".324"/><stop style="stop-color:#6cade2;stop-opacity:1" id="stop6366" offset=".712"/><stop id="stop6368" offset="1" style="stop-color:#519cd7;stop-opacity:1"/></linearGradient><linearGradient id="linearGradient6354" x1="62.447" x2="119.289" y1="769.806" y2="769.806" gradientUnits="userSpaceOnUse" xlink:href="#red_button_cross"/><linearGradient id="red_button_cross"><stop id="stop4754" offset="0" style="stop-color:red;stop-opacity:1"/><stop style="stop-color:red;stop-opacity:1" id="stop4865" offset=".821"/><stop id="stop4756" offset="1" style="stop-color:#cf0000;stop-opacity:1"/></linearGradient><linearGradient id="linearGradient6380" x1="80.964" x2="80.366" y1="757.607" y2="730.114" gradientTransform="matrix(0.41532814,0,0,0.4298303,-18.610289,-313.61386)" gradientUnits="userSpaceOnUse" xlink:href="#linearGradient6387"/><linearGradient id="linearGradient6387"><stop style="stop-color:#999;stop-opacity:1" id="stop6382" offset="0"/><stop id="stop6389" offset=".469" style="stop-color:#c2c2c2;stop-opacity:1"/><stop style="stop-color:#e9e9e9;stop-opacity:1" id="stop6391" offset=".7"/><stop style="stop-color:#f2f2f2;stop-opacity:1" id="stop6384" offset="1"/></linearGradient></defs><metadata id="metadata5"/><g id="layer1"><g id="g6426" transform="matrix(0.2549355,0,0,0.25496273,-0.18746409,0.13726667)"><polygon style="fill:#1a1a1a;fill-opacity:1;stroke:#000;stroke-width:1.00114;stroke-linecap:round;stroke-linejoin:round;stroke-miterlimit:4;stroke-dasharray:none;filter:url(#filter6436)" id="polygon6416" points="53.278 796.163 53.278 742.311 61.173 734.208 85.101 734.208 109.029 734.208 116.923 742.311 116.923 796.163 110.149 803.579 85.101 803.579 60.052 803.579" transform="matrix(0.41532814,0,0,0.4298303,-17.932189,-313.81352)"/><polygon id="polygon6212" points="85.101 803.579 60.052 803.579 53.278 796.163 53.278 742.311 61.173 734.208 85.101 734.208 109.029 734.208 116.923 742.311 116.923 796.163 110.149 803.579" transform="matrix(0.41532814,0,0,0.4298303,-18.332189,-313.61386)" style="fill:url(#linearGradient6362);fill-opacity:1;stroke:#000;stroke-linecap:round;stroke-linejoin:round"/><polygon id="polygon6210" points="71.698 768.493 62.948 777.682 80.449 791.683 118.788 749.105 112.828 747.929 79.574 777.682" transform="matrix(0.41532814,0,0,0.4298303,-19.731916,-313.61386)" style="fill:url(#linearGradient6354);fill-opacity:1;stroke:none;stroke-width:1.00114;stroke-linecap:round;stroke-linejoin:round;stroke-miterlimit:4;stroke-dasharray:none"/><path id="polygon6216" d="M 14.768111,0.2109375 12.969283,1.75 v 4.1289062 l -1.996094,2.0644532 v 1.9023437 h 6.240235 6.238281 V 7.9433594 L 21.455611,5.8789062 V 1.75 L 19.656783,0.2109375 h -2.443359 z m 0.625,3.8867187 h 1.820313 1.818359 v 2.1855469 h -1.818359 -1.820313 z" style="fill:url(#linearGradient6380);fill-opacity:1;stroke:#000;stroke-width:.3;stroke-linecap:round;stroke-linejoin:round;stroke-miterlimit:4;stroke-dasharray:none"/></g></g></svg>