<svg xmlns="http://www.w3.org/2000/svg" xmlns:svg="http://www.w3.org/2000/svg" xmlns:xlink="http://www.w3.org/1999/xlink" id="svg8" width="32" height="32" version="1.1" viewBox="0 0 8.467 8.467"><defs id="defs2"><linearGradient id="linearGradient5440" x1="139.263" x2="43.916" y1="914.712" y2="793.538" gradientTransform="matrix(0.2230607,0,0,0.22489774,202.74193,-301.08867)" gradientUnits="userSpaceOnUse" xlink:href="#linearGradient5455"/><linearGradient id="linearGradient5455"><stop style="stop-color:#96cef1;stop-opacity:1" id="stop5451" offset="0"/><stop style="stop-color:#fff;stop-opacity:1" id="stop5453" offset="1"/></linearGradient><filter id="filter5469" width="1.106" height="1.096" x="-.053" y="-.048" style="color-interpolation-filters:sRGB"><feGaussianBlur id="feGaussianBlur5471" stdDeviation=".664"/></filter><radialGradient id="radialGradient5198" cx="223.784" cy="-29.007" r="7.048" fx="223.784" fy="-29.007" gradientTransform="matrix(1,0,0,1.0082356,0,0.23889324)" gradientUnits="userSpaceOnUse" xlink:href="#linearGradient5672"/><linearGradient id="linearGradient5672"><stop style="stop-color:teal;stop-opacity:1" id="stop5668" offset="0"/><stop id="stop5676" offset=".917" style="stop-color:teal;stop-opacity:1"/><stop style="stop-color:#00474d;stop-opacity:1" id="stop5670" offset="1"/></linearGradient><linearGradient id="linearGradient5200" x1="12.292" x2="20.921" y1="11.785" y2="19.336" gradientTransform="matrix(0.99993573,0,0,1.0081708,207.12622,-44.219435)" gradientUnits="userSpaceOnUse" xlink:href="#linearGradient5369-7"/><linearGradient id="linearGradient5369-7"><stop id="stop5365-5" offset="0" style="stop-color:#dbf0fa;stop-opacity:1"/><stop id="stop5367" offset="1" style="stop-color:#f8fcfe;stop-opacity:.71276593"/></linearGradient><linearGradient id="linearGradient5202" x1="8.975" x2="6.581" y1="24.508" y2="21.695" gradientTransform="matrix(0.99993573,0,0,1.0081708,207.12622,-44.219435)" gradientUnits="userSpaceOnUse" xlink:href="#linearGradient5534"/><linearGradient id="linearGradient5534"><stop style="stop-color:#ffbe00;stop-opacity:1" id="stop5529" offset="0"/><stop style="stop-color:#ffcc9a;stop-opacity:1" id="stop5532" offset="1"/></linearGradient><linearGradient id="linearGradient5204" x1="73.93" x2="60.958" y1="-73.12" y2="-84.434" gradientTransform="translate(0.17677669,21.38998)" gradientUnits="userSpaceOnUse" xlink:href="#linearGradient5696"/><linearGradient id="linearGradient5696"><stop style="stop-color:#f9f9f9;stop-opacity:1" id="stop5692" offset="0"/><stop style="stop-color:#f9f9f9;stop-opacity:0" id="stop5694" offset="1"/></linearGradient></defs><metadata id="metadata5"/><g id="layer1"><g id="g5226" transform="matrix(0.25628714,0,0,0.25631451,-52.992635,32.364058)"><path style="fill:url(#linearGradient5440);fill-opacity:1;stroke:#000;stroke-width:.223977;stroke-linecap:round;stroke-linejoin:round;stroke-opacity:1" id="polygon82" d="m 210.84669,-125.63836 v 31.7751 h 24.71325 v -24.35165 l -6.61481,-7.42345 z m 1.6913,3.01467 12.51677,0.16737 -12.51677,12.61986 z"/><polygon style="fill:#333;stroke:none;stroke-linecap:round;stroke-linejoin:round;stroke-opacity:1;filter:url(#filter5469)" id="polygon5388" points="117.191 813.405 117.469 780.132 147.129 813.141" transform="matrix(0.2230607,0,0,0.22489774,202.66826,-300.77562)"/><polygon id="polygon84" points="117.469 780.132 147.129 813.141 117.191 813.405" transform="matrix(0.2230607,0,0,0.22489774,202.74241,-301.08828)" style="fill:#c2e3f6;fill-opacity:1;stroke:none;stroke-linecap:round;stroke-linejoin:round;stroke-opacity:1"/><g id="g5196" transform="matrix(0.609375,0,0,0.609375,183.05696,-73.893359)"><g id="g5192" transform="matrix(1.6127511,0,0,1.6272486,-293.28326,-12.794183)"><ellipse style="fill:#4d4d4d;stroke:none;stroke-width:.223977;stroke-linecap:round;stroke-linejoin:round;stroke-opacity:1" id="ellipse5182" cx="224.078" cy="-28.821" rx="7.048" ry="7.106"/><path style="fill:gray;fill-opacity:1;stroke:none;stroke-width:.223977;stroke-linecap:round;stroke-linejoin:round;stroke-opacity:1" id="path5184" d="m 218.5279,-24.79441 c 0.49341,0.716074 1.06846,1.294511 1.77958,1.790186 -2.24934,2.185331 -4.49846,4.370887 -6.74781,6.556218 -0.5813,-0.608347 -1.16281,-1.216471 -1.74411,-1.824594 2.23752,-2.174088 4.47482,-4.347949 6.71234,-6.52181 z"/><ellipse id="ellipse5186" cx="223.784" cy="-29.007" rx="7.048" ry="7.106" style="fill:url(#radialGradient5198);fill-opacity:1;stroke:none;stroke-width:.223977;stroke-linecap:round;stroke-linejoin:round;stroke-opacity:1"/><ellipse id="ellipse5188" cx="223.784" cy="-29.007" rx="5.933" ry="5.982" style="fill:url(#linearGradient5200);fill-opacity:1;stroke:#ececec;stroke-width:.223977;stroke-linecap:round;stroke-linejoin:round;stroke-opacity:1"/><path id="path5190" d="m 217.99616,-24.953004 c 0.49341,0.716074 1.06846,1.294511 1.77958,1.790185 -2.24935,2.185332 -4.49847,4.370888 -6.74781,6.556219 -0.5813,-0.608348 -1.16282,-1.216471 -1.74412,-1.824595 2.23753,-2.174087 4.47483,-4.347948 6.71235,-6.521809 z" style="fill:url(#linearGradient5202);fill-opacity:1;stroke:none;stroke-width:.223977;stroke-linecap:round;stroke-linejoin:round;stroke-opacity:1"/></g><path id="path5194" d="m 71.672499,-63.751082 c -2.57037,0.271876 -4.877126,1.38434 -6.611009,3.049204 -1.462075,1.403875 -2.510283,3.2012 -2.975046,5.209055 0.956792,2.601845 3.534,4.469177 6.571239,4.469177 3.851574,0 6.972709,-2.998031 6.972709,-6.69629 0,-2.659714 -1.6182,-4.9505 -3.957893,-6.031146 z" style="opacity:1;fill:url(#linearGradient5204);fill-opacity:1;fill-rule:nonzero;stroke:none;stroke-width:.878859;stroke-linecap:butt;stroke-linejoin:round;stroke-miterlimit:4;stroke-dasharray:none;stroke-dashoffset:0;stroke-opacity:1"/></g></g></g></svg>