<svg xmlns="http://www.w3.org/2000/svg" xmlns:svg="http://www.w3.org/2000/svg" xmlns:xlink="http://www.w3.org/1999/xlink" id="svg8" width="32" height="32" version="1.1" viewBox="0 0 8.467 8.467"><defs id="defs2"><linearGradient id="linearGradient5420" x1="-291.573" x2="-209.711" y1="252.073" y2="252.073" gradientUnits="userSpaceOnUse" xlink:href="#linearGradient5418"/><linearGradient id="linearGradient5418"><stop style="stop-color:#d59b04;stop-opacity:1" id="stop5414" offset="0"/><stop id="stop5422" offset=".049" style="stop-color:#edd415;stop-opacity:1"/><stop style="stop-color:#dcaa08;stop-opacity:1" id="stop5416" offset="1"/></linearGradient><linearGradient id="linearGradient5361" x1="-251.161" x2="-252.345" y1="274.846" y2="241.236" gradientUnits="userSpaceOnUse" xlink:href="#linearGradient5359"/><linearGradient id="linearGradient5359"><stop style="stop-color:#d59b04;stop-opacity:1" id="stop5355" offset="0"/><stop style="stop-color:#fffd21;stop-opacity:1" id="stop5357" offset="1"/></linearGradient></defs><metadata id="metadata5"/><g id="layer1"><g id="g5444" transform="matrix(0.26289785,0,0,0.26459659,0.0269689,-0.26480829)"><path id="polygon148" d="m -210.211,246.891 -4.414,-1.183 v -6.755 h -10.634 v -7.937 h -29.765 l -6.809,-6.64357 h -23.77357 l -5.46643,7.63557 v 42.663 l 10.252,10.253 h 61.515 l 9.095,-9.095 z" transform="matrix(0.3908869,0,0,0.38831703,113.97267,-81.88424)" style="fill:url(#linearGradient5420);fill-opacity:1;stroke:#000;stroke-linecap:round;stroke-linejoin:round"/><rect id="rect5397" width="24.917" height="16.166" x="2.966" y="11.088" style="opacity:1;fill:#e6e6e6;fill-opacity:1;fill-rule:nonzero;stroke:none;stroke-width:.790861;stroke-linecap:butt;stroke-linejoin:round;stroke-miterlimit:4;stroke-dasharray:none;stroke-dashoffset:0;stroke-opacity:1"/><rect id="rect5397-2" width="24.917" height="16.166" x="3.273" y="11.542" style="opacity:1;fill:#f9f9f9;fill-opacity:1;fill-rule:nonzero;stroke:none;stroke-width:.790861;stroke-linecap:butt;stroke-linejoin:round;stroke-miterlimit:4;stroke-dasharray:none;stroke-dashoffset:0;stroke-opacity:1"/><polygon style="fill:url(#linearGradient5361);fill-opacity:1;stroke:#967a20;stroke-width:2.08794;stroke-linecap:round;stroke-linejoin:round;stroke-miterlimit:4;stroke-dasharray:none;stroke-opacity:1" id="polygon146" points="-274.206 243.252 -274.206 250.859 -280.49 250.859 -280.49 278.941 -217.704 278.941 -217.704 243.252" transform="matrix(0.38997425,0,0,0.42198452,113.74533,-90.045467)"/><rect style="fill:#fff;stroke:none;stroke-width:.3896;stroke-linecap:round;stroke-linejoin:round" id="rect190" width="7.24" height="3.082" x="17.432" y="15.751"/><path id="path5433" d="m 18.019987,16.575484 5.969584,0.03708" style="fill:#666;stroke:#666;stroke-width:.6;stroke-linecap:butt;stroke-linejoin:miter;stroke-miterlimit:4;stroke-dasharray:none;stroke-opacity:1"/><path id="path5435" d="m 17.982909,18.021533 5.969584,0.03708" style="fill:#666;stroke:#666;stroke-width:.6;stroke-linecap:butt;stroke-linejoin:miter;stroke-miterlimit:4;stroke-dasharray:none;stroke-opacity:1"/></g></g></svg>