<svg xmlns="http://www.w3.org/2000/svg" xmlns:svg="http://www.w3.org/2000/svg" xmlns:xlink="http://www.w3.org/1999/xlink" id="svg8" width="32" height="32" version="1.1" viewBox="0 0 8.467 8.467"><defs id="defs2"><linearGradient id="linearGradient8532"><stop id="stop8526" offset="0" style="stop-color:#2929ff;stop-opacity:1"/><stop style="stop-color:#6464e9;stop-opacity:1" id="stop8528" offset=".24"/><stop id="stop8534" offset=".887" style="stop-color:#1515f0;stop-opacity:1"/><stop id="stop8530" offset="1" style="stop-color:#0000d1;stop-opacity:1"/></linearGradient><linearGradient id="linearGradient6517" x1="258.618" x2="285.338" y1="176.501" y2="176.501" gradientTransform="matrix(1.1019365,0,0,1.1019365,-27.739221,-18.502129)" gradientUnits="userSpaceOnUse" xlink:href="#linearGradient8532"/><linearGradient id="linearGradient6158" x1="6.297" x2="27.703" y1="16" y2="16.5" gradientTransform="matrix(1.2024564,0,0,1.2024564,1.2606979,0.26069938)" gradientUnits="userSpaceOnUse" xlink:href="#linearGradient6156"/><linearGradient id="linearGradient6156"><stop style="stop-color:#cee8f8;stop-opacity:1" id="stop6152" offset="0"/><stop id="stop6164" offset=".423" style="stop-color:#d6edfa;stop-opacity:1"/><stop style="stop-color:#97cef2;stop-opacity:1" id="stop6154" offset="1"/></linearGradient></defs><metadata id="metadata5"/><g id="layer1"><g id="g6168" transform="matrix(0.26455472,0,0,0.26458298,-0.28395173,-0.1521392)"><path id="path6152" d="m 13.876149,16.941863 c 2.316768,0 4.633129,0 6.949896,0 2.28177,0 4.130892,-1.849548 4.130892,-4.131319 0,-2.222303 0,-4.4446266 0,-6.6665036 0,-2.2817697 -1.849549,-4.1313187 -4.130892,-4.1313187 -4.884023,0 -9.768067,0 -14.6520896,0 -2.281771,0 -4.1308928,1.849549 -4.1308928,4.1313187 0,2.222304 0,4.4446276 0,6.6665036 0,2.281771 1.8495488,4.131319 4.1308928,4.131319 0.63127,0 1.262115,0 1.89298,0 0.274937,2.102558 -0.280851,4.784498 -1.667368,8.045439 4.1359536,-1.838573 6.6281316,-4.520108 7.4765816,-8.045439 z" style="fill:#999;fill-opacity:1;stroke:#00006f;stroke-width:.782799;stroke-linecap:round;stroke-linejoin:round;stroke-miterlimit:4;stroke-dasharray:none;stroke-opacity:1"/><path style="fill:url(#linearGradient6158);fill-opacity:1;stroke:#6270b4;stroke-width:1.083;stroke-linecap:round;stroke-linejoin:round;stroke-miterlimit:4;stroke-dasharray:none;stroke-opacity:1" id="path6160" d="m 20.876149,22.941863 c 2.316768,0 4.633129,0 6.949896,0 2.28177,0 4.130892,-1.849548 4.130892,-4.131319 0,-2.222303 0,-4.444627 0,-6.666504 0,-2.2817697 -1.849549,-4.1313187 -4.130892,-4.1313187 -4.884023,0 -9.768067,0 -14.65209,0 -2.281771,0 -4.1308928,1.849549 -4.1308928,4.1313187 0,2.222304 0,4.444628 0,6.666504 0,2.281771 1.8495488,4.131319 4.1308928,4.131319 0.63127,0 1.262115,0 1.89298,0 0.274937,2.102558 -0.280851,4.784498 -1.667368,8.045439 4.135954,-1.838573 6.628132,-4.520108 7.476582,-8.045439 z"/></g></g></svg>