<svg xmlns="http://www.w3.org/2000/svg" xmlns:svg="http://www.w3.org/2000/svg" xmlns:xlink="http://www.w3.org/1999/xlink" id="svg8" width="32" height="32" version="1.1" viewBox="0 0 8.467 8.467"><defs id="defs2"><linearGradient id="linearGradient8691" x1="258.618" x2="285.338" y1="176.501" y2="176.501" gradientTransform="matrix(0.29155404,0,0,0.29155403,-74.431436,-46.88153)" gradientUnits="userSpaceOnUse" xlink:href="#linearGradient8532"/><linearGradient id="linearGradient8532"><stop style="stop-color:#2929ff;stop-opacity:1" id="stop8526" offset="0"/><stop id="stop8528" offset=".24" style="stop-color:#6464e9;stop-opacity:1"/><stop style="stop-color:#1515f0;stop-opacity:1" id="stop8534" offset=".887"/><stop style="stop-color:#0000d1;stop-opacity:1" id="stop8530" offset="1"/></linearGradient><linearGradient id="linearGradient6517" x1="258.618" x2="285.338" y1="176.501" y2="176.501" gradientTransform="matrix(1.1019365,0,0,1.1019365,-27.739221,-18.502129)" gradientUnits="userSpaceOnUse" xlink:href="#linearGradient8532"/><linearGradient id="linearGradient854" x1="258.618" x2="285.338" y1="176.501" y2="176.501" gradientTransform="matrix(0.29155404,0,0,0.29155403,-74.431436,-46.88153)" gradientUnits="userSpaceOnUse" xlink:href="#linearGradient8532"/><linearGradient id="linearGradient856" x1="258.618" x2="285.338" y1="176.501" y2="176.501" gradientTransform="matrix(0.29155404,0,0,0.29155403,-74.431436,-46.88153)" gradientUnits="userSpaceOnUse" xlink:href="#linearGradient8532"/><linearGradient id="linearGradient864" x1="258.618" x2="285.338" y1="176.501" y2="176.501" gradientTransform="matrix(0.29155404,0,0,0.29155403,-74.431436,-46.88153)" gradientUnits="userSpaceOnUse" xlink:href="#linearGradient8532"/><linearGradient id="linearGradient866" x1="258.618" x2="285.338" y1="176.501" y2="176.501" gradientTransform="matrix(0.29155404,0,0,0.29155403,-74.431436,-46.88153)" gradientUnits="userSpaceOnUse" xlink:href="#linearGradient8532"/></defs><metadata id="metadata5"/><g id="layer1"><g id="g862" transform="matrix(0.72485053,0,0,0.72485053,-0.85588063,1.1647995)"><g id="text6133" aria-label="#" transform="scale(0.9999466,1.0000534)" style="font-style:normal;font-variant:normal;font-weight:400;font-stretch:normal;font-size:8.03055px;line-height:1.25;font-family:calibri;-inkscape-font-specification:calibri;letter-spacing:0;word-spacing:0;fill:url(#linearGradient866);fill-opacity:1;stroke:#fff;stroke-width:.132285;stroke-miterlimit:4;stroke-dasharray:none;stroke-opacity:1"><path style="fill:url(#linearGradient864);fill-opacity:1;stroke:#fff;stroke-width:.132285;stroke-miterlimit:4;stroke-dasharray:none;stroke-opacity:1" id="path845" d="M 4.9726994,3.5821938 H 3.8316398 L 3.5022618,4.8918635 H 4.6511637 Z M 4.3845244,1.3510498 3.976723,2.9783341 H 5.1217038 L 5.5334263,1.3510498 H 6.160813 L 5.7569328,2.9783341 H 6.9803369 V 3.5821938 H 5.6040073 L 5.2824716,4.8918635 H 6.5294027 V 5.4918021 H 5.1295461 L 4.7217447,7.1151652 H 4.094358 L 4.4982382,5.4918021 H 3.3493363 L 2.9454561,7.1151652 H 2.3141482 L 2.7219496,5.4918021 H 1.486782 V 4.8918635 H 2.8670327 L 3.1964108,3.5821938 H 1.933795 V 2.9783341 h 1.4155413 l 0.399959,-1.6272843 z"/></g><g style="font-style:normal;font-variant:normal;font-weight:400;font-stretch:normal;font-size:8.03055px;line-height:1.25;font-family:calibri;-inkscape-font-specification:calibri;letter-spacing:0;word-spacing:0;fill:url(#linearGradient856);fill-opacity:1;stroke:#fff;stroke-width:.132285;stroke-miterlimit:4;stroke-dasharray:none;stroke-opacity:1" id="g852" aria-label="#" transform="matrix(0.9999466,0,0,1.0000534,5.5754391,0)"><path id="path850" d="M 4.9726994,3.5821938 H 3.8316398 L 3.5022618,4.8918635 H 4.6511637 Z M 4.3845244,1.3510498 3.976723,2.9783341 H 5.1217038 L 5.5334263,1.3510498 H 6.160813 L 5.7569328,2.9783341 H 6.9803369 V 3.5821938 H 5.6040073 L 5.2824716,4.8918635 H 6.5294027 V 5.4918021 H 5.1295461 L 4.7217447,7.1151652 H 4.094358 L 4.4982382,5.4918021 H 3.3493363 L 2.9454561,7.1151652 H 2.3141482 L 2.7219496,5.4918021 H 1.486782 V 4.8918635 H 2.8670327 L 3.1964108,3.5821938 H 1.933795 V 2.9783341 h 1.4155413 l 0.399959,-1.6272843 z" style="fill:url(#linearGradient854);fill-opacity:1;stroke:#fff;stroke-width:.132285;stroke-miterlimit:4;stroke-dasharray:none;stroke-opacity:1"/></g></g></g></svg>