<svg xmlns="http://www.w3.org/2000/svg" xmlns:svg="http://www.w3.org/2000/svg" xmlns:xlink="http://www.w3.org/1999/xlink" id="svg8" width="32" height="32" version="1.1" viewBox="0 0 8.467 8.467"><defs id="defs2"><linearGradient id="linearGradient8532"><stop style="stop-color:#2929ff;stop-opacity:1" id="stop8526" offset="0"/><stop id="stop8528" offset=".24" style="stop-color:#6464e9;stop-opacity:1"/><stop style="stop-color:#1515f0;stop-opacity:1" id="stop8534" offset=".887"/><stop style="stop-color:#0000d1;stop-opacity:1" id="stop8530" offset="1"/></linearGradient><linearGradient id="linearGradient6517" x1="258.618" x2="285.338" y1="176.501" y2="176.501" gradientTransform="matrix(1.1019365,0,0,1.1019365,-27.739221,-18.502129)" gradientUnits="userSpaceOnUse" xlink:href="#linearGradient8532"/><linearGradient id="linearGradient6303"><stop style="stop-color:#ffd43b;stop-opacity:1" id="stop6299" offset="0"/><stop id="stop6305" offset=".659" style="stop-color:#ffdd3e;stop-opacity:1"/><stop style="stop-color:#ffed92;stop-opacity:1" id="stop6301" offset="1"/></linearGradient><linearGradient id="linearGradient7044" x1="-30.99" x2="-23.066" y1="-177.287" y2="-177.287" gradientUnits="userSpaceOnUse" xlink:href="#linearGradient4627"/><linearGradient id="linearGradient4627"><stop id="stop4623" offset="0" style="stop-color:#d1a06b;stop-opacity:1"/><stop id="stop4625" offset="1" style="stop-color:#ab7335;stop-opacity:1"/></linearGradient><linearGradient id="linearGradient7035" x1="-111.466" x2="-100.253" y1="145.149" y2="147.18" gradientUnits="userSpaceOnUse" xlink:href="#linearGradient7033"/><linearGradient id="linearGradient7033"><stop style="stop-color:#00e3e3;stop-opacity:1" id="stop7029" offset="0"/><stop style="stop-color:#004040;stop-opacity:1" id="stop7031" offset="1"/></linearGradient><filter style="color-interpolation-filters:sRGB" id="filter7066" width="1.044" height="1.084" x="-.022" y="-.042"><feGaussianBlur id="feGaussianBlur7068" stdDeviation=".105"/></filter><linearGradient id="linearGradient7015" x1="512.798" x2="509" y1="773.786" y2="737.075" gradientUnits="userSpaceOnUse" xlink:href="#linearGradient6387"/><linearGradient id="linearGradient6387"><stop style="stop-color:#999;stop-opacity:1" id="stop6382" offset="0"/><stop id="stop6389" offset=".469" style="stop-color:#c2c2c2;stop-opacity:1"/><stop style="stop-color:#e9e9e9;stop-opacity:1" id="stop6391" offset=".7"/><stop style="stop-color:#f2f2f2;stop-opacity:1" id="stop6384" offset="1"/></linearGradient></defs><metadata id="metadata5"/><g id="layer1"><g id="g7082" transform="matrix(0.44086619,0,0,0.44091326,49.845129,-58.336828)"><path id="path7070" d="m -106.65858,138.45229 6.56728,6.56729" style="fill:gray;stroke:#4d4d4d;stroke-width:.4;stroke-linecap:butt;stroke-linejoin:miter;stroke-miterlimit:4;stroke-dasharray:none;stroke-opacity:1"/><g id="g7056"><rect style="fill:url(#linearGradient7044);fill-opacity:1;stroke:none;stroke-width:.197487;stroke-linecap:round;stroke-linejoin:round" id="rect6240" width="7.727" height="8.074" x="-30.891" y="-181.324" transform="rotate(-135)"/><line style="fill:none;stroke:#fff;stroke-width:.197489;stroke-linecap:round;stroke-linejoin:round" id="line6244" x1="-105.016" x2="-109.21" y1="139.994" y2="144.188"/><line style="fill:none;stroke:#fff;stroke-width:.197489;stroke-linecap:round;stroke-linejoin:round" id="line6246" x1="-103.375" x2="-106.525" y1="141.636" y2="144.787"/><path style="fill:url(#linearGradient7035);fill-opacity:1;stroke:none;stroke-width:.197489;stroke-linecap:round;stroke-linejoin:round;filter:url(#filter7066)" id="path6242" d="m -111.8357,144.59342 c 1.08026,1.08026 2.16052,2.16052 3.24078,3.24078 -0.78067,0.78068 -1.56114,1.56115 -2.34162,2.34182 3.52833,0 7.05666,0 10.585,0 -1.05519,-0.99119 -2.11037,-1.98219 -3.16555,-2.97338 -1.89155,-2.61258 -5.27373,-3.67349 -8.31861,-2.60922 z"/><polygon id="polygon7046" points="515.344 763.984 498.717 747.357 509 737.075 521.032 737.075 526.337 742.38 545.972 722.745 551.277 728.051 556.583 733.356 536.948 752.99 542.253 758.296 542.253 770.328 531.971 780.611" transform="matrix(0.19748859,0,0,0.19748859,-204.84918,-9.1425059)" style="fill:#4d4d4d;fill-opacity:1;stroke:#4d4d4d;stroke-linecap:round;stroke-linejoin:round;stroke-opacity:1"/><polygon style="fill:url(#linearGradient7015);fill-opacity:1;stroke:#000;stroke-linecap:round;stroke-linejoin:round;stroke-opacity:1" id="polygon6238" points="509 737.075 521.032 737.075 526.337 742.38 545.972 722.745 551.277 728.051 556.583 733.356 536.948 752.99 542.253 758.296 542.253 770.328 531.971 780.611 515.344 763.984 498.717 747.357" transform="matrix(0.19748859,0,0,0.19748859,-205.14926,-9.242098)"/><circle id="path7025" cx="-104.906" cy="137.937" r=".75" style="fill:#e6e6e6;stroke:none;stroke-width:.5"/><path style="fill:#b3b3b3;stroke:#e6e6e6;stroke-width:1px;stroke-linecap:butt;stroke-linejoin:miter;stroke-opacity:1" id="path7027" d="m -104.65624,138.18749 5.03125,5.15625 v 0"/></g></g></g></svg>