<svg xmlns="http://www.w3.org/2000/svg" xmlns:svg="http://www.w3.org/2000/svg" xmlns:xlink="http://www.w3.org/1999/xlink" id="svg8" width="32" height="32" version="1.1" viewBox="0 0 8.467 8.467"><defs id="defs2"><linearGradient id="linearGradient5399" x1="28.156" x2="4.01" y1="31.793" y2=".207" gradientUnits="userSpaceOnUse" xlink:href="#linearGradient5241"/><linearGradient id="linearGradient5241"><stop style="stop-color:#81b1dc;stop-opacity:1" id="stop5237" offset="0"/><stop style="stop-color:#fafcff;stop-opacity:1" id="stop5239" offset="1"/></linearGradient><linearGradient id="linearGradient5389" x1="15.228" x2="15.358" y1="20.514" y2="13.443" gradientUnits="userSpaceOnUse" xlink:href="#linearGradient5387"/><linearGradient id="linearGradient5387"><stop style="stop-color:navy;stop-opacity:1" id="stop5383" offset="0"/><stop id="stop5391" offset=".575" style="stop-color:#4f83e8;stop-opacity:1"/><stop style="stop-color:#00f;stop-opacity:1" id="stop5385" offset="1"/></linearGradient></defs><metadata id="metadata5"/><g id="layer1"><g id="g5415" transform="matrix(0.26455472,0,0,0.26458298,4.5805076e-4,5.5359518e-6)"><rect style="fill:url(#linearGradient5399);fill-opacity:1;stroke:#fff;stroke-width:.41313;stroke-linecap:round;stroke-linejoin:round" id="rect278" width="24.146" height="31.586" x="4.01" y=".207"/><line style="fill:none;stroke:#000;stroke-width:.813;stroke-linecap:round;stroke-linejoin:round;stroke-miterlimit:4;stroke-dasharray:none" id="line280" x1="6.787" x2="24.801" y1="5.841" y2="5.841"/><line style="fill:none;stroke:#000;stroke-width:.813;stroke-linecap:round;stroke-linejoin:round;stroke-miterlimit:4;stroke-dasharray:none" id="line282" x1="6.787" x2="24.801" y1="10.375" y2="10.375"/><rect style="fill:url(#linearGradient5389);fill-opacity:1;stroke:none;stroke-width:.41313;stroke-linecap:round;stroke-linejoin:round" id="rect284" width="30.477" height="6.358" x=".762" y="13.8"/><path style="fill:#f9f9f9;stroke:none;stroke-width:.41313;stroke-linecap:round;stroke-linejoin:round" id="path286" d="m 6.7083198,17.166343 c 0,0.866016 -0.8707548,1.349382 -1.6274711,1.349382 -0.7567163,0 -1.6274855,-0.483366 -1.6274855,-1.349382 0,-0.866421 0.8707692,-1.349382 1.6274855,-1.349382 0.7571188,-4.2e-4 1.6274711,0.482961 1.6274711,1.349382 z"/><path style="fill:#f9f9f9;stroke:none;stroke-width:.41313;stroke-linecap:round;stroke-linejoin:round" id="path288" d="m 29.014195,17.166343 c 0,0.866016 -0.870338,1.349382 -1.627471,1.349382 -0.757133,0 -1.627486,-0.483366 -1.627486,-1.349382 0,-0.866421 0.87077,-1.349382 1.627486,-1.349382 0.757133,-4.2e-4 1.627471,0.482961 1.627471,1.349382 z"/><line style="fill:none;stroke:#000;stroke-width:.813;stroke-linecap:round;stroke-linejoin:round;stroke-miterlimit:4;stroke-dasharray:none" id="line290" x1="6.787" x2="24.801" y1="22.566" y2="22.566"/><line style="fill:none;stroke:#000;stroke-width:.813;stroke-linecap:round;stroke-linejoin:round;stroke-miterlimit:4;stroke-dasharray:none" id="line292" x1="6.787" x2="24.801" y1="27.1" y2="27.1"/></g></g></svg>