<svg xmlns="http://www.w3.org/2000/svg" xmlns:svg="http://www.w3.org/2000/svg" xmlns:xlink="http://www.w3.org/1999/xlink" id="svg8" width="32" height="32" version="1.1" viewBox="0 0 8.467 8.467"><defs id="defs2"><filter style="color-interpolation-filters:sRGB" id="filter10948" width="1.181" height="1.324" x="-.09" y="-.162"><feGaussianBlur id="feGaussianBlur10950" stdDeviation="1.362"/></filter><linearGradient id="linearGradient5283" x1="-334.624" x2="-349.446" y1="444.535" y2="456.426" gradientUnits="userSpaceOnUse" xlink:href="#linearGradient6578"/><linearGradient id="linearGradient6578"><stop style="stop-color:#2929ff;stop-opacity:1" id="stop6574" offset="0"/><stop id="stop6582" offset=".24" style="stop-color:#8c8cef;stop-opacity:1"/><stop style="stop-color:#0000d1;stop-opacity:1" id="stop6576" offset="1"/></linearGradient><filter style="color-interpolation-filters:sRGB" id="filter10944" width="1.181" height="1.324" x="-.09" y="-.162"><feGaussianBlur id="feGaussianBlur10946" stdDeviation="1.362"/></filter><filter style="color-interpolation-filters:sRGB" id="filter10964" width="1.16" height="1.839" x="-.08" y="-.42"><feGaussianBlur id="feGaussianBlur10966" stdDeviation="2.359"/></filter><filter style="color-interpolation-filters:sRGB" id="filter10968" width="1.16" height="1.839" x="-.08" y="-.42"><feGaussianBlur id="feGaussianBlur10970" stdDeviation="2.359"/></filter><linearGradient id="linearGradient4224" x1="-334.624" x2="-349.446" y1="444.535" y2="456.426" gradientUnits="userSpaceOnUse" xlink:href="#linearGradient6578"/></defs><metadata id="metadata5"/><g id="layer1"><g id="g4237"><polygon style="fill:#fff;fill-opacity:1;stroke:#fff;stroke-width:2.9285;stroke-linecap:round;stroke-linejoin:round;stroke-miterlimit:4;stroke-dasharray:none;filter:url(#filter10948)" id="polygon10932" points="-339.281 457.347 -321.204 437.194 -339.281 437.194 -357.359 437.194" transform="matrix(0.09535854,0,0,-0.09671533,36.586722,45.871007)"/><polygon id="polygon5281" points="-339.281 457.347 -321.204 437.194 -339.281 437.194 -357.359 437.194" transform="matrix(0.09535854,0,0,-0.09671533,36.586721,45.871007)" style="fill:url(#linearGradient5283);fill-opacity:1;stroke:#fff;stroke-linecap:round;stroke-linejoin:round"/><polygon id="polygon10934" points="-339.281 437.194 -357.359 437.194 -339.281 457.347 -321.204 437.194" transform="matrix(0.09535854,0,0,0.09671533,36.586722,-37.351717)" style="fill:#fff;fill-opacity:1;stroke:#fff;stroke-width:2.9285;stroke-linecap:round;stroke-linejoin:round;stroke-miterlimit:4;stroke-dasharray:none;filter:url(#filter10944)"/><polygon style="fill:url(#linearGradient4224);fill-opacity:1;stroke:#fff;stroke-linecap:round;stroke-linejoin:round" id="polygon256" points="-339.281 437.194 -357.359 437.194 -339.281 457.347 -321.204 437.194" transform="matrix(0.09535854,0,0,0.09671533,36.586722,-37.351717)"/><g id="g11373" transform="matrix(0.26455472,0,0,0.26458298,-17.030655,-16.999145)"><polygon id="polygon11364" points="-367.705 461.626 -367.705 455.311 -374.308 455.311 -374.308 468.803 -338.998 468.803 -303.688 468.803 -303.688 455.311 -310.291 455.311 -310.291 461.626 -338.998 461.626" transform="matrix(0.32408866,0,0,0.32720238,190.24193,-58.985093)" style="fill:#fff;stroke:#fff;stroke-width:2.88101;stroke-linecap:round;stroke-linejoin:round;stroke-miterlimit:4;stroke-dasharray:none;filter:url(#filter10964)"/><polygon style="fill:#000;stroke:none;stroke-width:1.37747;stroke-linecap:round;stroke-linejoin:round;stroke-miterlimit:4;stroke-dasharray:none" id="polygon11366" points="-367.705 461.626 -367.705 455.311 -374.308 455.311 -374.308 468.803 -338.998 468.803 -303.688 468.803 -303.688 455.311 -310.291 455.311 -310.291 461.626 -338.998 461.626" transform="matrix(0.32408866,0,0,0.32720238,190.24193,-58.985093)"/><polygon id="polygon11368" points="-367.705 389.431 -367.705 395.747 -374.308 395.747 -374.308 382.254 -338.998 382.254 -303.688 382.254 -303.688 395.747 -310.291 395.747 -310.291 389.431 -338.998 389.431" transform="matrix(0.32408866,0,0,0.32720238,190.24193,-58.985093)" style="fill:#fff;stroke:#fff;stroke-width:2.88101;stroke-linecap:round;stroke-linejoin:round;stroke-miterlimit:4;stroke-dasharray:none;filter:url(#filter10968)"/><polygon style="fill:#000;stroke:none;stroke-width:1.37747;stroke-linecap:round;stroke-linejoin:round;stroke-miterlimit:4;stroke-dasharray:none" id="polygon11370" points="-367.705 389.431 -367.705 395.747 -374.308 395.747 -374.308 382.254 -338.998 382.254 -303.688 382.254 -303.688 395.747 -310.291 395.747 -310.291 389.431 -338.998 389.431" transform="matrix(0.32408866,0,0,0.32720238,190.24193,-58.985093)"/></g></g></g></svg>