<svg xmlns="http://www.w3.org/2000/svg" xmlns:svg="http://www.w3.org/2000/svg" xmlns:xlink="http://www.w3.org/1999/xlink" id="svg8" width="32" height="32" version="1.1" viewBox="0 0 8.467 8.467"><defs id="defs2"><linearGradient id="linearGradient7100" x1="-272.154" x2="-246.265" y1="663.781" y2="664.591" gradientUnits="userSpaceOnUse" xlink:href="#linearGradient7098"/><linearGradient id="linearGradient7098"><stop style="stop-color:teal;stop-opacity:1" id="stop7094" offset="0"/><stop id="stop7102" offset=".701" style="stop-color:#009d9d;stop-opacity:1"/><stop style="stop-color:#00e4e4;stop-opacity:1" id="stop7096" offset="1"/></linearGradient></defs><metadata id="metadata5"/><g id="layer1"><g id="g7118" transform="matrix(0.26455472,0,0,0.26458298,-0.03257723,0.12332336)"><path id="polygon7092" d="m 20.66351,13.374131 a 0.56105612,0.54646551 0 0 0 -0.252399,0.06744 L 3.7482675,22.345642 A 0.56105612,0.54646551 0 0 0 3.6217519,23.21128 l 7.8804351,7.676114 a 0.56105612,0.54646551 0 0 0 0.68356,0.08337 l 16.332391,-9.456436 a 0.56105612,0.54646551 0 0 0 0.103857,-0.861963 L 21.070749,13.52801 A 0.56105612,0.54646551 0 0 0 20.66351,13.374131 Z m -0.07553,1.219376 6.726696,6.346388 -15.327197,8.87403 -7.043298,-6.86013 z" style="color:#000;font-style:normal;font-variant:normal;font-weight:400;font-stretch:normal;font-size:medium;line-height:normal;font-family:sans-serif;font-variant-ligatures:normal;font-variant-position:normal;font-variant-caps:normal;font-variant-numeric:normal;font-variant-alternates:normal;font-feature-settings:normal;text-indent:0;text-align:start;text-decoration:none;text-decoration-line:none;text-decoration-style:solid;text-decoration-color:#000;letter-spacing:normal;word-spacing:normal;text-transform:none;writing-mode:lr-tb;direction:ltr;text-orientation:mixed;dominant-baseline:auto;baseline-shift:baseline;text-anchor:start;white-space:normal;shape-padding:0;clip-rule:nonzero;display:inline;overflow:visible;visibility:visible;opacity:1;isolation:auto;mix-blend-mode:normal;color-interpolation:sRGB;color-interpolation-filters:linearRGB;solid-color:#000;solid-opacity:1;vector-effect:none;fill:#000;fill-opacity:1;fill-rule:nonzero;stroke:#f2f2f2;stroke-width:.416477;stroke-linecap:round;stroke-linejoin:round;stroke-miterlimit:4;stroke-dasharray:none;stroke-dashoffset:0;stroke-opacity:1;color-rendering:auto;image-rendering:auto;shape-rendering:auto;text-rendering:auto;enable-background:accumulate"/><path id="polygon7090" d="M 20.66351,8.078036 A 0.56105612,0.54646551 0 0 0 20.411111,8.145474 L 3.7482675,17.049547 a 0.56105612,0.54646551 0 0 0 -0.1265156,0.865638 l 7.8804351,7.676114 a 0.56105612,0.54646551 0 0 0 0.68356,0.08337 l 16.332391,-9.456436 a 0.56105612,0.54646551 0 0 0 0.103857,-0.861962 L 21.070749,8.2319157 A 0.56105612,0.54646551 0 0 0 20.66351,8.078036 Z m -0.07553,1.2193761 6.726696,6.3463889 -15.327197,8.87403 -7.043298,-6.86013 z" style="color:#000;font-style:normal;font-variant:normal;font-weight:400;font-stretch:normal;font-size:medium;line-height:normal;font-family:sans-serif;font-variant-ligatures:normal;font-variant-position:normal;font-variant-caps:normal;font-variant-numeric:normal;font-variant-alternates:normal;font-feature-settings:normal;text-indent:0;text-align:start;text-decoration:none;text-decoration-line:none;text-decoration-style:solid;text-decoration-color:#000;letter-spacing:normal;word-spacing:normal;text-transform:none;writing-mode:lr-tb;direction:ltr;text-orientation:mixed;dominant-baseline:auto;baseline-shift:baseline;text-anchor:start;white-space:normal;shape-padding:0;clip-rule:nonzero;display:inline;overflow:visible;visibility:visible;opacity:1;isolation:auto;mix-blend-mode:normal;color-interpolation:sRGB;color-interpolation-filters:linearRGB;solid-color:#000;solid-opacity:1;vector-effect:none;fill:#000;fill-opacity:1;fill-rule:nonzero;stroke:#f2f2f2;stroke-width:.416477;stroke-linecap:round;stroke-linejoin:round;stroke-miterlimit:4;stroke-dasharray:none;stroke-dashoffset:0;stroke-opacity:1;color-rendering:auto;image-rendering:auto;shape-rendering:auto;text-rendering:auto;enable-background:accumulate"/><polygon id="polygon6138" points="-262.804 695.866 -287.258 671.411 -235.554 643.043 -212.123 665.74" transform="matrix(0.32226704,0,0,0.32226704,96.592016,-206.85862)" style="fill:#f2f2f2;stroke:#000;stroke-width:3.48158;stroke-linecap:round;stroke-linejoin:round;stroke-miterlimit:4;stroke-dasharray:none"/><polygon id="polygon6136" points="-257.069 664.591 -271.654 664.591 -251.667 684.578 -231.68 664.591 -246.265 664.591 -246.265 642.984 -251.667 642.984 -257.069 642.984" transform="matrix(0.32226704,0,0,0.32226704,97.228983,-206.85862)" style="fill:url(#linearGradient7100);fill-opacity:1;stroke:#00f;stroke-linecap:round;stroke-linejoin:round"/></g></g></svg>