<svg xmlns="http://www.w3.org/2000/svg" xmlns:svg="http://www.w3.org/2000/svg" xmlns:xlink="http://www.w3.org/1999/xlink" id="svg8" width="32" height="32" version="1.1" viewBox="0 0 8.467 8.467"><defs id="defs2"><linearGradient id="linearGradient8532"><stop style="stop-color:#2929ff;stop-opacity:1" id="stop8526" offset="0"/><stop id="stop8528" offset=".24" style="stop-color:#6464e9;stop-opacity:1"/><stop style="stop-color:#1515f0;stop-opacity:1" id="stop8534" offset=".887"/><stop style="stop-color:#0000d1;stop-opacity:1" id="stop8530" offset="1"/></linearGradient><linearGradient id="linearGradient6517" x1="258.618" x2="285.338" y1="176.501" y2="176.501" gradientTransform="matrix(1.1019365,0,0,1.1019365,-27.739221,-18.502129)" gradientUnits="userSpaceOnUse" xlink:href="#linearGradient8532"/></defs><metadata id="metadata5"/><g id="layer1"><g id="g7291" transform="matrix(0.26455472,0,0,0.26458298,0.02612781,-0.13643813)"><g id="g7254"><g id="g7233" transform="translate(0,0.89950648)" style="fill:#666"><polygon style="fill:#666;stroke:#000;stroke-linecap:round;stroke-linejoin:round" id="polygon7229" points="-253.672 753.605 -211.8 776.046 -249.734 799.11 -291.66 777.585" transform="matrix(0.38808246,0,0,0.38867605,113.28527,-280.22376)"/><polygon style="fill:#666;stroke:#000;stroke-linecap:round;stroke-linejoin:round" id="polygon7231" points="-253.672 753.605 -211.8 776.046 -220.594 781.393 -261.507 758.551" transform="matrix(0.38808246,0,0,0.38867605,113.28527,-280.22376)"/></g><g id="g7227"><polygon id="polygon6178" points="-211.8 776.046 -249.734 799.11 -291.66 777.585 -253.672 753.605" transform="matrix(0.38808246,0,0,0.38867605,113.28527,-280.22376)" style="fill:#f2f2f2;stroke:#000;stroke-linecap:round;stroke-linejoin:round"/><polygon id="polygon6180" points="-211.8 776.046 -220.594 781.393 -261.507 758.551 -253.672 753.605" transform="matrix(0.38808246,0,0,0.38867605,113.28527,-280.22376)" style="fill:#0ff;stroke:#000;stroke-linecap:round;stroke-linejoin:round"/></g><polygon style="fill:#f9f9f9;stroke:#000;stroke-linecap:round;stroke-linejoin:round" id="polygon6174" points="-258.042 738.87 -286.179 725.5 -286.179 752.24 -258.042 765.611" transform="matrix(0.38808246,0,0,0.38867605,113.28527,-280.22376)"/><polygon style="fill:#0ff;stroke:#000;stroke-linecap:round;stroke-linejoin:round" id="polygon6176" points="-286.179 725.5 -286.179 734.667 -258.042 748.672 -258.042 738.87" transform="matrix(0.38808246,0,0,0.38867605,113.28527,-280.22376)"/><g id="g7215"><polygon id="polygon6182" points="-210.204 737.431 -210.807 742.98 -216.344 748.508 -215.951 743.061" transform="matrix(0.38808246,0,0,0.38867605,113.28527,-280.22376)" style="fill:#e4b600;fill-opacity:1;stroke:#000;stroke-linecap:round;stroke-linejoin:round"/><polygon id="polygon6184" points="-215.951 743.061 -216.344 748.508 -228.071 737.649 -228.446 731.363" transform="matrix(0.38808246,0,0,0.38867605,113.28527,-280.22376)" style="fill:#e7bf00;fill-opacity:1;stroke:#000;stroke-linecap:round;stroke-linejoin:round"/><polygon id="polygon6186" points="-210.204 737.431 -222.421 725.692 -228.446 731.363 -215.951 743.061" transform="matrix(0.38808246,0,0,0.38867605,113.28527,-280.22376)" style="fill:#ffcb00;fill-opacity:1;stroke:#000;stroke-linecap:round;stroke-linejoin:round"/></g><polygon style="fill:red;stroke:#000;stroke-linecap:round;stroke-linejoin:round" id="polygon6188" points="-229.243 751.53 -240.566 764.133 -234.697 769.965 -223.424 757.085" transform="matrix(0.38808246,0,0,0.38867605,113.28527,-280.22376)"/><polygon style="fill:maroon;stroke:#000;stroke-linecap:round;stroke-linejoin:round" id="polygon6190" points="-223.424 757.085 -217.966 757.296 -228.427 769.38 -234.697 769.965" transform="matrix(0.38808246,0,0,0.38867605,113.28527,-280.22376)"/><polygon style="fill:#d40000;stroke:#000;stroke-linecap:round;stroke-linejoin:round" id="polygon6192" points="-229.243 751.53 -223.676 751.947 -217.966 757.296 -223.424 757.085" transform="matrix(0.38808246,0,0,0.38867605,113.28527,-280.22376)"/><g id="g7223" transform="translate(0,18.738329)"><polygon style="fill:#e4b600;fill-opacity:1;stroke:#000;stroke-linecap:round;stroke-linejoin:round" id="polygon7217" points="-210.807 742.98 -216.344 748.508 -215.951 743.061 -210.204 737.431" transform="matrix(0.38808246,0,0,0.38867605,113.28527,-280.22376)"/><polygon style="fill:#e7bf00;fill-opacity:1;stroke:#000;stroke-linecap:round;stroke-linejoin:round" id="polygon7219" points="-216.344 748.508 -228.071 737.649 -228.446 731.363 -215.951 743.061" transform="matrix(0.38808246,0,0,0.38867605,113.28527,-280.22376)"/><polygon style="fill:#ffcb00;fill-opacity:1;stroke:#000;stroke-linecap:round;stroke-linejoin:round" id="polygon7221" points="-222.421 725.692 -228.446 731.363 -215.951 743.061 -210.204 737.431" transform="matrix(0.38808246,0,0,0.38867605,113.28527,-280.22376)"/></g></g><path id="path7256" d="M 3.5355337,9.1074194 C 5.5983122,10.168277 7.6607072,11.228937 9.7227176,12.2894" style="fill:none;stroke:#000;stroke-width:1px;stroke-linecap:butt;stroke-linejoin:miter;stroke-opacity:1"/><path id="path7260" d="m 9.4575526,18.211419 c 2.7993354,1.473334 5.5982994,2.946473 8.3968924,4.419417" style="fill:none;stroke:#000;stroke-width:1px;stroke-linecap:butt;stroke-linejoin:miter;stroke-opacity:1"/><path id="path7264" d="m 6.8942907,19.802409 c 3.8894293,2.150972 7.7785163,4.301755 11.6672613,6.452349" style="fill:none;stroke:#000;stroke-width:1px;stroke-linecap:butt;stroke-linejoin:miter;stroke-opacity:1"/></g></g></svg>