<svg xmlns="http://www.w3.org/2000/svg" xmlns:svg="http://www.w3.org/2000/svg" xmlns:xlink="http://www.w3.org/1999/xlink" id="svg8" width="32" height="32" version="1.1" viewBox="0 0 8.467 8.467"><defs id="defs2"><linearGradient id="linearGradient8532"><stop style="stop-color:#2929ff;stop-opacity:1" id="stop8526" offset="0"/><stop id="stop8528" offset=".24" style="stop-color:#6464e9;stop-opacity:1"/><stop style="stop-color:#1515f0;stop-opacity:1" id="stop8534" offset=".887"/><stop style="stop-color:#0000d1;stop-opacity:1" id="stop8530" offset="1"/></linearGradient><linearGradient id="linearGradient6517" x1="258.618" x2="285.338" y1="176.501" y2="176.501" gradientTransform="matrix(1.1019365,0,0,1.1019365,-27.739221,-18.502129)" gradientUnits="userSpaceOnUse" xlink:href="#linearGradient8532"/><linearGradient id="linearGradient6261" x1="-445.33" x2="-440.401" y1="727.684" y2="750.83" gradientUnits="userSpaceOnUse" xlink:href="#linearGradient6227"/><linearGradient id="linearGradient6227"><stop style="stop-color:#d1e9fc;stop-opacity:1" id="stop6223" offset="0"/><stop id="stop6231" offset=".536" style="stop-color:#6cade2;stop-opacity:1"/><stop style="stop-color:#519cd7;stop-opacity:1" id="stop6225" offset="1"/></linearGradient><linearGradient id="linearGradient6263" x1="-284.037" x2="-291.317" y1="147.443" y2="141.304" gradientUnits="userSpaceOnUse" xlink:href="#linearGradient6219"/><linearGradient id="linearGradient6219"><stop style="stop-color:#f1fafe;stop-opacity:1" id="stop6215" offset="0"/><stop style="stop-color:#fff;stop-opacity:1" id="stop6217" offset="1"/></linearGradient><linearGradient id="linearGradient6265" x1="-408.518" x2="-408.518" y1="455.366" y2="422.559" gradientUnits="userSpaceOnUse" xlink:href="#linearGradient6251"/><linearGradient id="linearGradient6251"><stop id="stop6245" offset="0" style="stop-color:teal;stop-opacity:1"/><stop style="stop-color:#00c9c9;stop-opacity:1" id="stop6247" offset=".613"/><stop id="stop6249" offset="1" style="stop-color:teal;stop-opacity:1"/></linearGradient></defs><metadata id="metadata5"/><g id="layer1"><g id="g6271" transform="matrix(0.26455472,0,0,0.26458298,-47.987231,-18.843303)"><g id="g6257" transform="matrix(1.950378,0,0,1.9675837,760.4508,-191.6467)"><polygon id="polygon6253" points="-383.017 743.133 -387.278 738.873 -426.98 738.873 -426.98 733.507 -430.918 733.507 -435.512 728.913 -456.733 728.913 -459.906 732.085 -463.044 732.085 -463.044 747.385 -383.017 747.385" transform="matrix(0.19748859,0,0,0.19748859,-205.14926,-9.242098)" style="fill:url(#linearGradient6261);fill-opacity:1;stroke:teal;stroke-width:3.03815;stroke-linecap:round;stroke-linejoin:round;stroke-miterlimit:4;stroke-dasharray:none"/><rect id="rect6255" width="15.804" height="10.392" x="-296.595" y="138.358" style="fill:url(#linearGradient6263);fill-opacity:1;stroke:teal;stroke-width:.599807;stroke-linecap:round;stroke-linejoin:round;stroke-miterlimit:4;stroke-dasharray:none"/></g><polygon style="fill:url(#linearGradient6265);fill-opacity:1;stroke:#006262;stroke-width:2.56062;stroke-linecap:round;stroke-linejoin:round;stroke-miterlimit:4;stroke-dasharray:none;stroke-opacity:1" id="polygon6259" points="-381.651 444.311 -403.403 466.062 -408.518 466.062 -408.518 455.366 -428.393 455.366 -428.393 444.311 -428.393 433.256 -408.518 433.256 -408.518 422.559 -403.403 422.559" transform="matrix(-0.32421772,0,0,0.31630131,61.990405,-50.399603)"/></g></g></svg>