<svg xmlns="http://www.w3.org/2000/svg" xmlns:svg="http://www.w3.org/2000/svg" xmlns:xlink="http://www.w3.org/1999/xlink" id="svg8" width="32" height="32" version="1.1" viewBox="0 0 8.467 8.467"><defs id="defs2"><linearGradient id="linearGradient7072" x1="14.495" x2="14.323" y1="6.87" y2="2.274" gradientTransform="translate(1.935e-6,-0.14997127)" gradientUnits="userSpaceOnUse" xlink:href="#linearGradient5666"/><linearGradient id="linearGradient5666"><stop style="stop-color:#82ade0;stop-opacity:1" id="stop5662" offset="0"/><stop style="stop-color:#f1effb;stop-opacity:1" id="stop5664" offset="1"/></linearGradient><linearGradient id="linearGradient7082" x1="7.692" x2="17.729" y1="4.532" y2="20.796" gradientUnits="userSpaceOnUse" xlink:href="#linearGradient5777"/><linearGradient id="linearGradient5777"><stop style="stop-color:#f8a5a5;stop-opacity:1" id="stop5773" offset="0"/><stop style="stop-color:#e6e6e6;stop-opacity:0" id="stop5775" offset="1"/></linearGradient><filter style="color-interpolation-filters:sRGB" id="filter5786" width="1.13" height="1.139" x="-.065" y="-.07"><feGaussianBlur id="feGaussianBlur5788" stdDeviation=".72"/></filter></defs><metadata id="metadata5"/><g id="layer1"><g id="g6290" transform="matrix(0.26458333,0,0,0.26458333,-16.902327,-42.772176)"><g id="g7070" transform="matrix(0.99989187,0,0,0.99999865,63.971195,160.63158)"><path id="path7064" d="m 3.5316505,27.337497 c 8.3122365,0 16.6244625,0 24.9366895,0 1.843589,0 3.33871,-1.487611 3.33871,-3.322407 0,-5.882857 0,-11.765328 0,-17.6481856 0,-1.8347963 -1.494735,-3.322407 -3.33871,-3.322407 -8.312227,0 -16.624453,0 -24.9366895,0 -1.8435791,0 -3.33870043,1.4876107 -3.33870043,3.322407 0,5.8828576 0,11.7653286 0,17.6481856 3.8641e-4,1.834796 1.49512133,3.322407 3.33870043,3.322407 z" style="fill:teal;stroke:#000;stroke-width:.387115;stroke-linecap:round;stroke-linejoin:round"/><path id="path7066" d="m 0.19333648,8.274691 c 10.53802952,0 21.07567352,0 31.61371352,0 0,-0.6356714 0,-1.271729 0,-1.9077866 0,-1.8347963 -1.494735,-3.322407 -3.33871,-3.322407 -8.312227,0 -16.624453,0 -24.9366895,0 -1.8435791,0 -3.33870043,1.4876107 -3.33870043,3.322407 3.8641e-4,0.6360576 3.8641e-4,1.2721152 3.8641e-4,1.9077866 z" style="fill:url(#linearGradient7072);fill-opacity:1;stroke:#000;stroke-width:.387115;stroke-linecap:round;stroke-linejoin:round"/><rect id="rect7068" width="29.293" height="17.656" x="1.426" y="8.612" style="fill:#fff;stroke:#000;stroke-width:.387115;stroke-linecap:round;stroke-linejoin:round"/></g><g id="g7080" transform="matrix(0.54634447,0,0,0.54640281,63.319976,175.26756)"><circle style="fill:#ba0f0f;fill-opacity:1;stroke:#333;stroke-width:.712;stroke-linecap:round;stroke-linejoin:round;stroke-miterlimit:4;stroke-dasharray:none;stroke-opacity:1" id="circle7076" cx="16" cy="16" r="13.964"/><path id="path7078" d="M 16,2.0351562 A 13.96443,13.96443 0 0 0 2.0351562,16 13.96443,13.96443 0 0 0 7.1992188,26.828125 21.927635,21.927635 0 0 1 28.429688,10.197266 21.927635,21.927635 0 0 1 28.689453,10.210938 13.96443,13.96443 0 0 0 16,2.0351562 Z" transform="matrix(0.96233255,0,0,0.96233255,0.57865881,0.543603)" style="fill:url(#linearGradient7082);fill-opacity:1;stroke:none;stroke-width:.412;stroke-linecap:round;stroke-linejoin:round;stroke-miterlimit:4;stroke-dasharray:none;filter:url(#filter5786)"/></g></g></g></svg>