<svg xmlns="http://www.w3.org/2000/svg" xmlns:svg="http://www.w3.org/2000/svg" xmlns:xlink="http://www.w3.org/1999/xlink" id="svg8" width="32" height="32" version="1.1" viewBox="0 0 8.467 8.467"><defs id="defs2"><linearGradient id="linearGradient5779" x1="7.692" x2="17.729" y1="4.532" y2="20.796" gradientUnits="userSpaceOnUse" xlink:href="#linearGradient5777"/><linearGradient id="linearGradient5777"><stop style="stop-color:#f8a5a5;stop-opacity:1" id="stop5773" offset="0"/><stop style="stop-color:#e6e6e6;stop-opacity:0" id="stop5775" offset="1"/></linearGradient><filter style="color-interpolation-filters:sRGB" id="filter5786" width="1.13" height="1.139" x="-.065" y="-.07"><feGaussianBlur id="feGaussianBlur5788" stdDeviation=".72"/></filter></defs><metadata id="metadata5"/><g id="layer1"><g id="g5792" transform="matrix(0.24552664,0,0,0.24555286,0.40384568,0.40774074)"><circle style="fill:#ba0f0f;fill-opacity:1;stroke:#333;stroke-width:.712;stroke-linecap:round;stroke-linejoin:round;stroke-miterlimit:4;stroke-dasharray:none;stroke-opacity:1" id="circle5766" cx="16" cy="16" r="13.964"/><path id="circle5607" d="M 16,2.0351562 A 13.96443,13.96443 0 0 0 2.0351562,16 13.96443,13.96443 0 0 0 7.1992188,26.828125 21.927635,21.927635 0 0 1 28.429688,10.197266 21.927635,21.927635 0 0 1 28.689453,10.210938 13.96443,13.96443 0 0 0 16,2.0351562 Z" transform="matrix(0.96233255,0,0,0.96233255,0.57865881,0.543603)" style="fill:url(#linearGradient5779);fill-opacity:1;stroke:none;stroke-width:.412;stroke-linecap:round;stroke-linejoin:round;stroke-miterlimit:4;stroke-dasharray:none;filter:url(#filter5786)"/></g></g></svg>