<svg xmlns="http://www.w3.org/2000/svg" xmlns:svg="http://www.w3.org/2000/svg" xmlns:xlink="http://www.w3.org/1999/xlink" id="svg8" width="32" height="32" version="1.1" viewBox="0 0 8.467 8.467"><defs id="defs2"><linearGradient id="linearGradient5800" x1="7.692" x2="17.729" y1="4.532" y2="20.796" gradientUnits="userSpaceOnUse" xlink:href="#linearGradient5777"/><linearGradient id="linearGradient5777"><stop style="stop-color:#f8a5a5;stop-opacity:1" id="stop5773" offset="0"/><stop style="stop-color:#e6e6e6;stop-opacity:0" id="stop5775" offset="1"/></linearGradient><filter style="color-interpolation-filters:sRGB" id="filter5786" width="1.13" height="1.139" x="-.065" y="-.07"><feGaussianBlur id="feGaussianBlur5788" stdDeviation=".72"/></filter><linearGradient id="linearGradient5820" x1="-463.485" x2="-383.701" y1="358.203" y2="305.703" gradientUnits="userSpaceOnUse" xlink:href="#linearGradient5321"/><linearGradient id="linearGradient5321"><stop style="stop-color:#d40000;stop-opacity:1" id="stop5317" offset="0"/><stop id="stop5325" offset=".491" style="stop-color:red;stop-opacity:1"/><stop style="stop-color:#d40000;stop-opacity:1" id="stop5319" offset="1"/></linearGradient><linearGradient id="linearGradient6249" x1="7.692" x2="17.729" y1="4.532" y2="20.796" gradientUnits="userSpaceOnUse" xlink:href="#linearGradient5777"/></defs><metadata id="metadata5"/><g id="layer1"><g id="g8557" transform="matrix(0.26458333,0,0,0.26458333,-76.159117,-34.025513)"><g id="g5816" transform="matrix(0.99989187,0,0,0.99999865,288.26034,128.67562)"><g id="g5798" transform="matrix(0.6162768,0,0,0.6162768,2.8523751,0.03474991)"><circle id="circle5794" cx="16" cy="16" r="13.964" style="fill:#ba0f0f;fill-opacity:1;stroke:#333;stroke-width:.712;stroke-linecap:round;stroke-linejoin:round;stroke-miterlimit:4;stroke-dasharray:none;stroke-opacity:1"/><path style="fill:url(#linearGradient6249);fill-opacity:1;stroke:none;stroke-width:.412;stroke-linecap:round;stroke-linejoin:round;stroke-miterlimit:4;stroke-dasharray:none;filter:url(#filter5786)" id="path5796" d="M 16,2.0351562 A 13.96443,13.96443 0 0 0 2.0351562,16 13.96443,13.96443 0 0 0 7.1992188,26.828125 21.927635,21.927635 0 0 1 28.429688,10.197266 21.927635,21.927635 0 0 1 28.689453,10.210938 13.96443,13.96443 0 0 0 16,2.0351562 Z" transform="matrix(0.96233255,0,0,0.96233255,0.57865881,0.543603)"/></g><g id="g5806" transform="matrix(0.6162768,0,0,0.6162768,11.825093,8.5074682)"><circle style="fill:#ba0f0f;fill-opacity:1;stroke:#333;stroke-width:.712;stroke-linecap:round;stroke-linejoin:round;stroke-miterlimit:4;stroke-dasharray:none;stroke-opacity:1" id="circle5802" cx="16" cy="16" r="13.964"/><path id="path5804" d="M 16,2.0351562 A 13.96443,13.96443 0 0 0 2.0351562,16 13.96443,13.96443 0 0 0 7.1992188,26.828125 21.927635,21.927635 0 0 1 28.429688,10.197266 21.927635,21.927635 0 0 1 28.689453,10.210938 13.96443,13.96443 0 0 0 16,2.0351562 Z" transform="matrix(0.96233255,0,0,0.96233255,0.57865881,0.543603)" style="fill:url(#linearGradient5800);fill-opacity:1;stroke:none;stroke-width:.412;stroke-linecap:round;stroke-linejoin:round;stroke-miterlimit:4;stroke-dasharray:none;filter:url(#filter5786)"/></g></g><polygon style="fill:url(#linearGradient5820);fill-opacity:1;stroke:#fff;stroke-width:3.21514;stroke-linecap:round;stroke-linejoin:round;stroke-miterlimit:4;stroke-dasharray:none" id="polygon5818" points="-431.271 342.032 -465.485 310.684 -462.916 303.269 -455.158 303.269 -423.087 335.755 -391.991 311.909 -389.133 316.4 -415.924 343.01 -377.701 381.728 -387.5 382.136 -422.776 349.815 -449.562 376.42 -458.136 376.829 -458.544 362.946" transform="matrix(0.18001851,0,0,0.18075587,373.00836,90.609663)"/></g></g></svg>