<svg xmlns="http://www.w3.org/2000/svg" xmlns:svg="http://www.w3.org/2000/svg" xmlns:xlink="http://www.w3.org/1999/xlink" id="svg8" width="32" height="32" version="1.1" viewBox="0 0 8.467 8.467"><defs id="defs2"><linearGradient id="linearGradient5401" x1="-397.661" x2="-449.646" y1="277.385" y2="235.682" gradientUnits="userSpaceOnUse" xlink:href="#linearGradient5193"/><linearGradient id="linearGradient5193"><stop id="stop5189" offset="0" style="stop-color:#f8b509;stop-opacity:1"/><stop id="stop5191" offset="1" style="stop-color:#fcf52e;stop-opacity:1"/></linearGradient><filter style="color-interpolation-filters:sRGB" id="filter5271" width="1.064" height="1.071" x="-.032" y="-.035"><feGaussianBlur id="feGaussianBlur5273" stdDeviation=".334"/></filter><linearGradient id="linearGradient5403" x1="-397.661" x2="-428.768" y1="277.385" y2="229.622" gradientUnits="userSpaceOnUse" xlink:href="#linearGradient5177"/><linearGradient id="linearGradient5177"><stop style="stop-color:#f8b509;stop-opacity:1" id="stop5173" offset="0"/><stop style="stop-color:#fcf5bd;stop-opacity:1" id="stop5175" offset="1"/></linearGradient><linearGradient id="linearGradient5405" x1="18.767" x2="31.001" y1="16.427" y2="15.178" gradientTransform="matrix(1.180193,0,0,-1.180193,-4.9825475,21.398558)" gradientUnits="userSpaceOnUse" xlink:href="#linearGradient5163"/><linearGradient id="linearGradient5163"><stop style="stop-color:green;stop-opacity:1" id="stop5159" offset="0"/><stop id="stop5171" offset=".269" style="stop-color:#00ab00;stop-opacity:1"/><stop id="stop5167" offset=".576" style="stop-color:#00d400;stop-opacity:1"/><stop style="stop-color:#00a100;stop-opacity:1" id="stop5169" offset=".813"/><stop style="stop-color:green;stop-opacity:1" id="stop5161" offset="1"/></linearGradient></defs><metadata id="metadata5"/><g id="layer1"><g id="g5399" transform="matrix(0.26455464,0,0,0.2646018,-83.122628,13.956214)"><g id="g5417" transform="translate(424.20099,-48.567879)"><g id="g5395" transform="matrix(1.0047247,0,0,0.99556788,-110.001,-3.8589505)"><g id="g8581" transform="translate(9.731619e-6,-0.50187735)"><polygon style="fill:url(#linearGradient5401);fill-opacity:1;stroke:#000;stroke-linecap:round;stroke-linejoin:round" id="polygon5387" points="-459.265 231.386 -451.704 223.825 -434.565 223.825 -428.768 229.622 -398.468 232.634 -397.661 277.385 -459.265 293.892" transform="matrix(0.42387273,0,0,0.42235565,194.88192,-92.350986)"/><path id="path5389" d="m 26.035156,8.8027344 -8.220703,1.2832036 -2.615234,5.447265 H 8.84375 l -7.6777344,15.988281 3.5078125,-0.9375 19.1249999,-6.162109 2.375,-7.986328 z" style="fill:#333;fill-opacity:1;stroke:none;stroke-width:.423114;stroke-linecap:round;stroke-linejoin:round;filter:url(#filter5271)"/><polygon style="fill:url(#linearGradient5403);fill-opacity:1;stroke:#000;stroke-width:.290702;stroke-linecap:round;stroke-linejoin:round;stroke-miterlimit:4;stroke-dasharray:none" id="polygon5391" points="-413.871 245.09 -384.771 241.31 -397.661 277.385 -459.265 293.892 -438.173 257.36 -420.955 257.36" transform="matrix(0.42387273,0,0,0.42235565,194.88192,-92.350986)"/><path style="fill:url(#linearGradient5405);fill-opacity:1;stroke:#fff;stroke-width:.85328;stroke-linecap:round;stroke-linejoin:round;stroke-miterlimit:4;stroke-dasharray:none;stroke-opacity:1" id="path5393" d="m 28.213757,9.0660891 c -0.01098,1.3717659 -0.462733,3.8231979 -1.211609,5.8933069 -0.81291,2.247063 -1.975995,4.045013 -4.498763,5.139135 -2.522769,1.094122 -6.403722,1.484417 -9.964513,0.348923 7.335691,-0.78059 8.225639,-4.577369 8.688871,-6.971977 0.385695,-1.993844 0.474739,-3.016687 0.493748,-4.4088886 -1.023515,0 -2.047029,0 -3.070544,0 2.10556,-2.819297 4.211619,-5.6380947 6.317177,-8.45689235 2.12607,2.81879765 4.252139,5.63809345 6.377708,8.45689235 -1.044025,-4.993e-4 -2.08805,-4.993e-4 -3.132075,-4.993e-4 z"/></g></g></g></g></g></svg>