<svg xmlns="http://www.w3.org/2000/svg" xmlns:svg="http://www.w3.org/2000/svg" xmlns:xlink="http://www.w3.org/1999/xlink" id="svg8" width="32" height="32" version="1.1" viewBox="0 0 8.467 8.467"><defs id="defs2"><linearGradient id="linearGradient8532"><stop style="stop-color:#2929ff;stop-opacity:1" id="stop8526" offset="0"/><stop id="stop8528" offset=".24" style="stop-color:#6464e9;stop-opacity:1"/><stop style="stop-color:#1515f0;stop-opacity:1" id="stop8534" offset=".887"/><stop style="stop-color:#0000d1;stop-opacity:1" id="stop8530" offset="1"/></linearGradient><linearGradient id="linearGradient6517" x1="258.618" x2="285.338" y1="176.501" y2="176.501" gradientTransform="matrix(1.1019365,0,0,1.1019365,-27.739221,-18.502129)" gradientUnits="userSpaceOnUse" xlink:href="#linearGradient8532"/><linearGradient id="linearGradient6303"><stop style="stop-color:#ffd43b;stop-opacity:1" id="stop6299" offset="0"/><stop id="stop6305" offset=".659" style="stop-color:#ffdd3e;stop-opacity:1"/><stop style="stop-color:#ffed92;stop-opacity:1" id="stop6301" offset="1"/></linearGradient><linearGradient id="linearGradient6580" x1="-243.188" x2="-233.79" y1="154.47" y2="158.889" gradientTransform="matrix(0.63829099,0,0,0.6388034,156.85345,-97.265724)" gradientUnits="userSpaceOnUse" xlink:href="#linearGradient6578"/><linearGradient id="linearGradient6578"><stop style="stop-color:#2929ff;stop-opacity:1" id="stop6574" offset="0"/><stop id="stop6582" offset=".24" style="stop-color:#8c8cef;stop-opacity:1"/><stop style="stop-color:#0000d1;stop-opacity:1" id="stop6576" offset="1"/></linearGradient></defs><metadata id="metadata5"/><g id="layer1"><path style="fill:url(#linearGradient6580);fill-opacity:1;stroke:#fff;stroke-width:.367572;stroke-linecap:round;stroke-linejoin:round;stroke-miterlimit:4;stroke-dasharray:none" id="path6300" d="m 2.7818146,4.914228 c 0,1.0774416 0,2.1551371 0,3.2325787 0.4483708,0 0.8967524,0 1.3450042,0 0,-2.1595319 0,-4.318807 0,-6.478339 0.249592,0 0.4990544,0 0.7486385,0 0,2.1447973 0,4.2895971 0,6.4343943 0.4000976,0 0.8000735,0 1.2001738,0 0,-2.1895197 0,-4.3790394 0,-6.5685566 0.496406,0 0.9928093,0 1.4892153,0 0,-0.4048177 0,-0.80963024 0,-1.21444538 -1.5943422,0 -3.1885652,0 -4.7829101,0 C 1.6885351,0.53958589 0.90182031,1.5009574 0.90182031,2.6169143 0.90169071,3.7331307 1.6884081,4.6945022 2.7818146,4.914228 Z"/></g></svg>