<svg xmlns="http://www.w3.org/2000/svg" xmlns:svg="http://www.w3.org/2000/svg" xmlns:xlink="http://www.w3.org/1999/xlink" id="svg8" width="32" height="32" version="1.1" viewBox="0 0 8.467 8.467"><defs id="defs2"><radialGradient id="radialGradient5708" cx="223.784" cy="-29.007" r="7.048" fx="223.784" fy="-29.007" gradientTransform="matrix(1,0,0,1.0082356,0,0.23889324)" gradientUnits="userSpaceOnUse" xlink:href="#linearGradient5672"/><linearGradient id="linearGradient5672"><stop style="stop-color:teal;stop-opacity:1" id="stop5668" offset="0"/><stop id="stop5676" offset=".917" style="stop-color:teal;stop-opacity:1"/><stop style="stop-color:#00474d;stop-opacity:1" id="stop5670" offset="1"/></linearGradient><linearGradient id="linearGradient5710" x1="12.292" x2="20.921" y1="11.785" y2="19.336" gradientTransform="matrix(0.99993573,0,0,1.0081708,207.12622,-44.219435)" gradientUnits="userSpaceOnUse" xlink:href="#linearGradient5369-7"/><linearGradient id="linearGradient5369-7"><stop id="stop5365-5" offset="0" style="stop-color:#dbf0fa;stop-opacity:1"/><stop id="stop5367" offset="1" style="stop-color:#f8fcfe;stop-opacity:.71276593"/></linearGradient><linearGradient id="linearGradient5712" x1="8.975" x2="6.581" y1="24.508" y2="21.695" gradientTransform="matrix(0.99993573,0,0,1.0081708,207.12622,-44.219435)" gradientUnits="userSpaceOnUse" xlink:href="#linearGradient5534"/><linearGradient id="linearGradient5534"><stop style="stop-color:#ffbe00;stop-opacity:1" id="stop5529" offset="0"/><stop style="stop-color:#ffcc9a;stop-opacity:1" id="stop5532" offset="1"/></linearGradient><linearGradient id="linearGradient5714" x1="73.93" x2="60.958" y1="-73.12" y2="-84.434" gradientTransform="translate(0.17677669,21.38998)" gradientUnits="userSpaceOnUse" xlink:href="#linearGradient5696"/><linearGradient id="linearGradient5696"><stop style="stop-color:#f9f9f9;stop-opacity:1" id="stop5692" offset="0"/><stop style="stop-color:#f9f9f9;stop-opacity:0" id="stop5694" offset="1"/></linearGradient><linearGradient id="linearGradient5728" x1="12.502" x2="32.743" y1="18.78" y2="18.78" gradientTransform="matrix(0.76913893,0,0,0.76913893,196.19378,16.693777)" gradientUnits="userSpaceOnUse" xlink:href="#linearGradient5163"/><linearGradient id="linearGradient5163"><stop style="stop-color:green;stop-opacity:1" id="stop5159" offset="0"/><stop id="stop5171" offset=".269" style="stop-color:#00ab00;stop-opacity:1"/><stop id="stop5167" offset=".576" style="stop-color:#00d400;stop-opacity:1"/><stop style="stop-color:#00a100;stop-opacity:1" id="stop5169" offset=".813"/><stop style="stop-color:green;stop-opacity:1" id="stop5161" offset="1"/></linearGradient><linearGradient id="linearGradient5736" x1="-.743" x2="19.498" y1="13.22" y2="13.22" gradientTransform="matrix(0.76913893,0,0,0.76913893,196.19378,16.693777)" gradientUnits="userSpaceOnUse" xlink:href="#linearGradient5570"/><linearGradient id="linearGradient5570"><stop style="stop-color:#007500;stop-opacity:1" id="stop5562" offset="0"/><stop id="stop5564" offset=".343" style="stop-color:#00d200;stop-opacity:1"/><stop style="stop-color:#00d200;stop-opacity:1" id="stop5566" offset=".898"/><stop style="stop-color:#007500;stop-opacity:1" id="stop5568" offset="1"/></linearGradient></defs><metadata id="metadata5"/><g id="layer1"><g id="g5433" transform="matrix(0.25231079,0,0,0.25231079,-23.916435,-24.025651)"><g id="g5706" transform="matrix(0.99989187,0,0,0.99999865,48.507928,167.5598)"><g id="g5702" transform="matrix(1.6127511,0,0,1.6272486,-293.28326,-12.794183)"><ellipse style="fill:#4d4d4d;stroke:none;stroke-width:.223977;stroke-linecap:round;stroke-linejoin:round;stroke-opacity:1" id="ellipse5691" cx="224.078" cy="-28.821" rx="7.048" ry="7.106"/><path style="fill:gray;fill-opacity:1;stroke:none;stroke-width:.223977;stroke-linecap:round;stroke-linejoin:round;stroke-opacity:1" id="path5694" d="m 218.5279,-24.79441 c 0.49341,0.716074 1.06846,1.294511 1.77958,1.790186 -2.24934,2.185331 -4.49846,4.370887 -6.74781,6.556218 -0.5813,-0.608347 -1.16281,-1.216471 -1.74411,-1.824594 2.23752,-2.174088 4.47482,-4.347949 6.71234,-6.52181 z"/><ellipse id="ellipse5696" cx="223.784" cy="-29.007" rx="7.048" ry="7.106" style="fill:url(#radialGradient5708);fill-opacity:1;stroke:none;stroke-width:.223977;stroke-linecap:round;stroke-linejoin:round;stroke-opacity:1"/><ellipse id="ellipse5698" cx="223.784" cy="-29.007" rx="5.933" ry="5.982" style="fill:url(#linearGradient5710);fill-opacity:1;stroke:#ececec;stroke-width:.223977;stroke-linecap:round;stroke-linejoin:round;stroke-opacity:1"/><path id="path5700" d="m 217.99616,-24.953004 c 0.49341,0.716074 1.06846,1.294511 1.77958,1.790185 -2.24935,2.185332 -4.49847,4.370888 -6.74781,6.556219 -0.5813,-0.608348 -1.16282,-1.216471 -1.74412,-1.824595 2.23753,-2.174087 4.47483,-4.347948 6.71235,-6.521809 z" style="fill:url(#linearGradient5712);fill-opacity:1;stroke:none;stroke-width:.223977;stroke-linecap:round;stroke-linejoin:round;stroke-opacity:1"/></g><path id="path5704" d="m 71.672499,-63.751082 c -2.57037,0.271876 -4.877126,1.38434 -6.611009,3.049204 -1.462075,1.403875 -2.510283,3.2012 -2.975046,5.209055 0.956792,2.601845 3.534,4.469177 6.571239,4.469177 3.851574,0 6.972709,-2.998031 6.972709,-6.69629 0,-2.659714 -1.6182,-4.9505 -3.957893,-6.031146 z" style="opacity:1;fill:url(#linearGradient5714);fill-opacity:1;fill-rule:nonzero;stroke:none;stroke-width:.878859;stroke-linecap:butt;stroke-linejoin:round;stroke-miterlimit:4;stroke-dasharray:none;stroke-dashoffset:0;stroke-opacity:1"/></g><g id="g5740" transform="matrix(0.99989187,0,0,0.99999865,-100.42961,89.494664)"><path style="fill:url(#linearGradient5728);fill-opacity:1;stroke:#000;stroke-width:.301226;stroke-linecap:round;stroke-linejoin:round" id="path5683" d="m 212.67514,31.512075 c -1.4248,0 -2.8496,0 -4.2747,0 2.13781,-2.137801 4.27561,-4.275601 6.41341,-6.413704 2.1378,2.137801 4.2756,4.275603 6.4134,6.413704 -0.96121,0 -1.92212,0 -2.88333,0 -1.29919,5.659435 -8.36656,7.609271 -12.38401,3.416205 2.81134,1.742292 6.46823,-0.118382 6.71523,-3.416205 z"/><path style="fill:url(#linearGradient5736);fill-opacity:1;stroke:#000;stroke-width:.301226;stroke-linecap:round;stroke-linejoin:round" id="path5685" d="m 204.32486,26.487927 c 1.4248,0 2.8496,0 4.2747,0 -2.13781,2.137801 -4.27561,4.275602 -6.41341,6.413705 -2.1378,-2.137802 -4.2756,-4.275603 -6.4134,-6.413705 0.96121,0 1.92213,0 2.88333,0 1.29919,-5.659434 8.36686,-7.609271 12.38401,-3.416205 -2.81134,-1.741989 -6.46853,0.118382 -6.71523,3.416205 z"/></g></g></g></svg>