<svg xmlns="http://www.w3.org/2000/svg" xmlns:svg="http://www.w3.org/2000/svg" xmlns:xlink="http://www.w3.org/1999/xlink" id="svg8" width="32" height="32" version="1.1" viewBox="0 0 8.467 8.467"><defs id="defs2"><linearGradient id="linearGradient5668" x1="14.495" x2="14.323" y1="6.87" y2="2.274" gradientUnits="userSpaceOnUse" xlink:href="#linearGradient5666"/><linearGradient id="linearGradient5666"><stop style="stop-color:#82ade0;stop-opacity:1" id="stop5662" offset="0"/><stop style="stop-color:#f1effb;stop-opacity:1" id="stop5664" offset="1"/></linearGradient></defs><metadata id="metadata5"/><g id="layer1"><g id="g5678" transform="matrix(0.26455472,0,0,0.26458298,4.5834191e-4,-0.0396742)"><path id="path5955" d="m 3.5316486,27.487468 c 8.3122364,0 16.6244624,0 24.9366894,0 1.843589,0 3.33871,-1.487611 3.33871,-3.322407 0,-5.882857 0,-11.765328 0,-17.6481853 0,-1.8347963 -1.494735,-3.322407 -3.33871,-3.322407 -8.312227,0 -16.624453,0 -24.9366894,0 -1.8435791,0 -3.33870047,1.4876107 -3.33870047,3.322407 0,5.8828573 0,11.7653283 0,17.6481853 3.8641e-4,1.834796 1.49512137,3.322407 3.33870047,3.322407 z" style="fill:teal;stroke:#000;stroke-width:.387115;stroke-linecap:round;stroke-linejoin:round"/><path id="path5957" d="m 0.19333454,8.4246623 c 10.53802946,0 21.07567346,0 31.61371346,0 0,-0.6356714 0,-1.271729 0,-1.9077866 0,-1.8347963 -1.494735,-3.322407 -3.33871,-3.322407 -8.312227,0 -16.624453,0 -24.9366894,0 -1.8435791,0 -3.33870047,1.4876107 -3.33870047,3.322407 3.8641e-4,0.6360576 3.8641e-4,1.2721152 3.8641e-4,1.9077866 z" style="fill:url(#linearGradient5668);fill-opacity:1;stroke:#000;stroke-width:.387115;stroke-linecap:round;stroke-linejoin:round"/><rect id="rect5959" width="29.293" height="17.656" x="1.426" y="8.762" style="fill:#fff;stroke:#000;stroke-width:.387115;stroke-linecap:round;stroke-linejoin:round"/><rect id="rect5963" width="9.852" height="13.769" x="7.683" y="10.602" style="fill:#ccc;stroke:#000;stroke-width:1.287;stroke-linecap:round;stroke-linejoin:round;stroke-miterlimit:4;stroke-dasharray:none"/><rect id="rect5961" width="9.852" height="13.769" x="3.449" y="15.037" style="fill:#00d6ff;fill-opacity:1;stroke:#000;stroke-width:.987;stroke-linecap:round;stroke-linejoin:round;stroke-miterlimit:4;stroke-dasharray:none"/><rect id="rect5965" width="5.904" height="2.107" x="5.457" y="16.384" style="fill:navy;stroke:none;stroke-width:.387115;stroke-linecap:round;stroke-linejoin:round"/><rect id="rect5967" width="5.904" height="2.106" x="5.457" y="20.486" style="fill:navy;stroke:none;stroke-width:.387115;stroke-linecap:round;stroke-linejoin:round"/><rect id="rect5969" width="5.904" height="2.107" x="5.457" y="24.311" style="fill:navy;stroke:none;stroke-width:.387115;stroke-linecap:round;stroke-linejoin:round"/></g></g></svg>