<svg xmlns="http://www.w3.org/2000/svg" xmlns:svg="http://www.w3.org/2000/svg" xmlns:xlink="http://www.w3.org/1999/xlink" id="svg8" width="32" height="32" version="1.1" viewBox="0 0 8.467 8.467"><defs id="defs2"><linearGradient id="linearGradient5449" x1="26.286" x2="7.286" y1="28.214" y2="4.714" gradientUnits="userSpaceOnUse" xlink:href="#linearGradient5241"/><linearGradient id="linearGradient5241"><stop style="stop-color:#81b1dc;stop-opacity:1" id="stop5237" offset="0"/><stop style="stop-color:#fafcff;stop-opacity:1" id="stop5239" offset="1"/></linearGradient><linearGradient id="linearGradient5433" x1="22.022" x2="9.874" y1="25.333" y2="5.18" gradientUnits="userSpaceOnUse" xlink:href="#linearGradient5431"/><linearGradient id="linearGradient5431"><stop style="stop-color:#1950bd;stop-opacity:1" id="stop5427" offset="0"/><stop id="stop5441" offset=".79" style="stop-color:#3e71d4;stop-opacity:1"/><stop style="stop-color:#bbebfc;stop-opacity:1" id="stop5429" offset="1"/></linearGradient></defs><metadata id="metadata5"/><g id="layer1"><g id="g5482" transform="matrix(0.26455472,0,0,0.26458298,-0.00906141,0.00958296)"><ellipse style="fill:url(#linearGradient5449);fill-opacity:1;stroke:#fff;stroke-width:.3677;stroke-linecap:round;stroke-linejoin:round" id="circle294" cx="16.036" cy="15.964" rx="15.816" ry="15.816"/><ellipse style="fill:url(#linearGradient5433);fill-opacity:1;stroke:#000;stroke-width:.368;stroke-linecap:round;stroke-linejoin:round;stroke-miterlimit:4;stroke-dasharray:none" id="circle296" cx="16.036" cy="15.964" rx="12.569" ry="12.569"/><path style="fill:#fff;stroke:#fff;stroke-width:.444223;stroke-linecap:round;stroke-linejoin:round" id="path298" d="m 16.170506,21.709022 c -0.608585,0 -1.217153,0 -1.825303,0 0,-0.380257 0,-0.760515 0,-1.140772 0.02125,-0.477544 0.0746,-0.920875 0.160373,-1.33001 0.08529,-0.408685 0.207441,-0.786291 0.365147,-1.131886 0.158141,-0.346061 0.407346,-0.724535 0.747184,-1.135454 0.339821,-0.411352 0.771159,-0.852016 1.294446,-1.322891 1.635183,-1.464175 2.452543,-2.777311 2.452543,-3.939409 0,-1.031482 -0.378469,-1.9043892 -1.135423,-2.6187036 -0.756954,-0.7143147 -1.675164,-1.0714798 -2.754167,-1.0714798 -2.065187,0 -3.430709,1.2931454 -4.096147,3.8789864 -0.608584,-0.09647 -1.217168,-0.192788 -1.8253027,-0.288756 0.8511207,-3.458298 2.8749937,-5.1876565 6.0715877,-5.1876565 1.121667,0 2.098066,0.2238835 2.928745,0.6721001 0.830697,0.4477823 1.477929,1.0617093 1.941245,1.8413314 0.463331,0.7796057 0.695214,1.69693 0.695214,2.75242 0,1.606762 -0.903105,3.282383 -2.709751,5.026862 -0.568154,0.551288 -1.035036,1.055025 -1.401067,1.511695 -0.366032,0.456669 -0.609034,0.963524 -0.728962,1.522364 -0.12034,0.55884 -0.180362,1.212732 -0.180362,1.961259 z"/><rect style="fill:#fff;stroke:#fff;stroke-width:.444223;stroke-linecap:round;stroke-linejoin:round" id="rect300" width="2.282" height="2.51" x="14.117" y="23.991"/></g></g></svg>