<svg xmlns="http://www.w3.org/2000/svg" xmlns:svg="http://www.w3.org/2000/svg" xmlns:xlink="http://www.w3.org/1999/xlink" id="svg8" width="32" height="32" version="1.1" viewBox="0 0 8.467 8.467"><defs id="defs2"><linearGradient id="linearGradient5297" x1="-309.056" x2="-360.703" y1="276.374" y2="223.481" gradientUnits="userSpaceOnUse" xlink:href="#linearGradient5193"/><linearGradient id="linearGradient5193"><stop id="stop5189" offset="0" style="stop-color:#f8b509;stop-opacity:1"/><stop id="stop5191" offset="1" style="stop-color:#fcf52e;stop-opacity:1"/></linearGradient><filter style="color-interpolation-filters:sRGB" id="filter5317" width="1.08" height="1.088" x="-.04" y="-.044"><feGaussianBlur id="feGaussianBlur5319" stdDeviation="1.17"/></filter><linearGradient id="linearGradient5305" x1="-311.957" x2="-364.692" y1="279.441" y2="249.883" gradientUnits="userSpaceOnUse" xlink:href="#linearGradient5193"/><linearGradient id="linearGradient5327" x1="22.52" x2="6.979" y1="17.385" y2="5.668" gradientTransform="matrix(0.99998369,0,0,1.0004223,2.6089097e-4,-0.01346846)" gradientUnits="userSpaceOnUse" xlink:href="#linearGradient5163"/><linearGradient id="linearGradient5163"><stop style="stop-color:green;stop-opacity:1" id="stop5159" offset="0"/><stop id="stop5171" offset=".269" style="stop-color:#00ab00;stop-opacity:1"/><stop id="stop5167" offset=".576" style="stop-color:#00d400;stop-opacity:1"/><stop style="stop-color:#00a100;stop-opacity:1" id="stop5169" offset=".813"/><stop style="stop-color:green;stop-opacity:1" id="stop5161" offset="1"/></linearGradient></defs><metadata id="metadata5"/><g id="layer1"><g id="g5345" transform="matrix(0.26027277,0,0,0.26030056,0.06896963,0.07027096)"><polygon style="fill:url(#linearGradient5297);fill-opacity:1;stroke:#000;stroke-width:1.00021;stroke-linecap:round;stroke-linejoin:round;stroke-miterlimit:4;stroke-dasharray:none" id="polygon152" points="-365.483 215.719 -370.568 220.804 -370.568 297.201 -300.642 278.465 -300.642 218.82 -342.846 220.018 -344.374 214.322" transform="matrix(0.40897088,0,0,0.38150205,153.25267,-81.580244)"/><polygon id="polygon5307" points="-370.568 297.201 -370.568 245.928 -300.642 233.679 -300.642 278.465" transform="matrix(0.40897088,0,0,0.38150205,153.25267,-82.765024)" style="fill:#333;fill-opacity:1;stroke:none;stroke-linecap:round;stroke-linejoin:round;filter:url(#filter5317)"/><polygon style="fill:url(#linearGradient5305);fill-opacity:1;stroke:none;stroke-linecap:round;stroke-linejoin:round" id="polygon154" points="-370.568 297.201 -370.568 245.928 -300.642 233.679 -300.642 278.465" transform="matrix(0.40897088,0,0,0.38150205,153.25267,-81.580244)"/><path style="fill:url(#linearGradient5327);fill-opacity:1;stroke:#fff;stroke-width:.895182;stroke-linecap:round;stroke-linejoin:round;stroke-miterlimit:4;stroke-dasharray:none;stroke-opacity:1" id="path150" d="M 17.056384,2.3883576 C 13.038653,2.3566929 8.4291426,3.7899961 5.6620456,7.2261851 c 1.670237,3.8787319 4.9677694,6.9547819 8.2444434,8.7196109 0,-1.535164 0,-3.070329 0,-4.605493 7.471898,-0.510831 9.500394,4.914509 4.733839,10.345954 9.603032,-5.04689 7.03348,-16.907026 -3.92244,-15.5191216 0.779498,-1.2597198 1.558996,-2.5194396 2.338496,-3.7787778 z"/></g></g></svg>