<svg xmlns="http://www.w3.org/2000/svg" xmlns:xlink="http://www.w3.org/1999/xlink" width="32" height="32" viewBox="0 0 8.467 8.467"><filter id="a" width="1.079" height="1.07" x="-.04" y="-.035" color-interpolation-filters="sRGB"><feGaussianBlur stdDeviation=".101"/></filter><g fill="#fff" stroke-width=".265" filter="url(#a)"><path fill="#fff" stroke-width=".265" d="m2.3313273 7.6982269v-.2738842l1.1007045-.1395259v-6.0719615h-.2635489q-1.3074096 0-1.7879989.1033526l-.1395259 1.080034h-.34623102v-1.62780248h6.09779962v1.62780248h-.3513986l-.139526-1.080034q-.1550288-.0361734-.6769591-.0620116-.5219303-.0310057-1.1420455-.0310057h-.2532137v6.0616262l1.1007045.1395259v.2738842z"/></g><path d="m2.6210338 7.6982269v-.2738842l1.1007045-.1395259v-6.0719615h-.263549q-1.3074095 0-1.7879988.1033526l-.139526 1.080034h-.346231v-1.62780248h6.0977996v1.62780248h-.3513986l-.1395259-1.080034q-.1550288-.0361734-.6769591-.0620116-.5219303-.0310057-1.1420455-.0310057h-.2532137v6.0616262l1.1007045.1395259v.2738842z"/></svg>