<svg xmlns="http://www.w3.org/2000/svg" xmlns:svg="http://www.w3.org/2000/svg" xmlns:xlink="http://www.w3.org/1999/xlink" id="svg8" width="32" height="32" version="1.1" viewBox="0 0 8.467 8.467"><defs id="defs2"><linearGradient id="linearGradient5440" x1="139.263" x2="43.916" y1="914.712" y2="793.538" gradientTransform="matrix(0.22307504,0,0,0.22307504,-31.630535,-285.00903)" gradientUnits="userSpaceOnUse" xlink:href="#linearGradient5455"/><linearGradient id="linearGradient5455"><stop id="stop5451" offset="0" style="stop-color:#96cef1;stop-opacity:1"/><stop id="stop5453" offset="1" style="stop-color:#fff;stop-opacity:1"/></linearGradient><linearGradient id="linearGradient5371" x1="12.292" x2="20.921" y1="11.785" y2="19.336" gradientTransform="translate(-27.245957,-111.32247)" gradientUnits="userSpaceOnUse" xlink:href="#linearGradient5369"/><linearGradient id="linearGradient5369"><stop style="stop-color:#dbf0fa;stop-opacity:1" id="stop5365" offset="0"/><stop style="stop-color:#f8fcfe;stop-opacity:.71276593" id="stop5367" offset="1"/></linearGradient><linearGradient id="linearGradient5360" x1="8.975" x2="6.155" y1="24.508" y2="21.467" gradientTransform="translate(-27.245957,-111.32247)" gradientUnits="userSpaceOnUse" xlink:href="#linearGradient5358"/><linearGradient id="linearGradient5358"><stop style="stop-color:#f60;stop-opacity:1" id="stop5354" offset="0"/><stop style="stop-color:#fca;stop-opacity:1" id="stop5356" offset="1"/></linearGradient><filter style="color-interpolation-filters:sRGB" id="filter5469" width="1.106" height="1.096" x="-.053" y="-.048"><feGaussianBlur id="feGaussianBlur5471" stdDeviation=".664"/></filter></defs><metadata id="metadata5"/><g id="layer1"><g id="g5482" transform="matrix(0.25638878,0,0,0.2585003,7.0748923,28.848219)"><path id="polygon82" d="m -23.525254,-110.98067 v 31.517575 H 1.18959 v -24.154295 l -6.615235,-7.36328 z m 1.691406,2.99023 12.517579,0.16602 -12.517579,12.517575 z" style="fill:url(#linearGradient5440);fill-opacity:1;stroke:#000;stroke-width:.223075;stroke-linecap:round;stroke-linejoin:round;stroke-opacity:1"/><circle id="circle5427" cx="-10.293" cy="-96.048" r="7.048" style="fill:#4d4d4d;stroke:none;stroke-width:.223075;stroke-linecap:round;stroke-linejoin:round;stroke-opacity:1"/><path id="path5410" d="m -15.843546,-92.054877 c 0.493442,0.710271 1.068529,1.28402 1.779692,1.775677 -2.249488,2.16762 -4.498753,4.335463 -6.748242,6.503083 -0.581334,-0.603417 -1.16289,-1.206612 -1.744224,-1.809807 2.237666,-2.156467 4.475109,-4.31271 6.712774,-6.468953 z" style="fill:gray;fill-opacity:1;stroke:none;stroke-width:.223075;stroke-linecap:round;stroke-linejoin:round;stroke-opacity:1"/><circle style="fill:teal;stroke:none;stroke-width:.223075;stroke-linecap:round;stroke-linejoin:round;stroke-opacity:1" id="circle88" cx="-10.587" cy="-96.234" r="7.048"/><circle style="fill:url(#linearGradient5371);fill-opacity:1;stroke:#ececec;stroke-width:.223075;stroke-linecap:round;stroke-linejoin:round;stroke-opacity:1" id="circle86" cx="-10.587" cy="-96.234" r="5.933"/><path style="fill:url(#linearGradient5360);fill-opacity:1;stroke:none;stroke-width:.223075;stroke-linecap:round;stroke-linejoin:round;stroke-opacity:1" id="path90" d="m -16.375325,-92.212186 c 0.493442,0.710271 1.068529,1.28402 1.779692,1.775677 -2.249488,2.16762 -4.498754,4.335463 -6.748243,6.503083 -0.581333,-0.603417 -1.16289,-1.206612 -1.744223,-1.809807 2.237665,-2.156467 4.475108,-4.31271 6.712774,-6.468953 z"/><path id="path5362" d="m -6.932732,-92.961372 c -0.970282,1.110132 -2.345231,1.511917 -2.715275,1.18849 -0.370044,-0.323427 0.876874,-0.803883 1.847156,-1.914015 0.970282,-1.110131 1.296502,-2.429554 1.666546,-2.106128 0.370045,0.323426 0.171857,1.72152 -0.798427,2.831653 z" style="opacity:.706;fill:#fff;fill-opacity:1;fill-rule:nonzero;stroke:none;stroke-width:2.7;stroke-linecap:butt;stroke-linejoin:round;stroke-miterlimit:4;stroke-dasharray:none;stroke-dashoffset:0;stroke-opacity:1"/><polygon id="polygon5388" points="147.129 813.141 117.191 813.405 117.469 780.132" transform="matrix(0.22307504,0,0,0.22307504,-31.705373,-284.69873)" style="fill:#333;stroke:none;stroke-linecap:round;stroke-linejoin:round;stroke-opacity:1;filter:url(#filter5469)"/><polygon style="fill:#c2e3f6;fill-opacity:1;stroke:none;stroke-linecap:round;stroke-linejoin:round;stroke-opacity:1" id="polygon84" points="117.191 813.405 117.469 780.132 147.129 813.141" transform="matrix(0.22307504,0,0,0.22307504,-31.631218,-285.00885)"/></g></g></svg>