<svg xmlns="http://www.w3.org/2000/svg" xmlns:svg="http://www.w3.org/2000/svg" xmlns:xlink="http://www.w3.org/1999/xlink" id="svg8" width="32" height="32" version="1.1" viewBox="0 0 8.467 8.467"><defs id="defs2"><linearGradient id="linearGradient5280" x1="307.543" x2="427.25" y1="851.049" y2="851.049" gradientUnits="userSpaceOnUse" xlink:href="#linearGradient5278"/><linearGradient id="linearGradient5278"><stop style="stop-color:#007500;stop-opacity:1" id="stop5274" offset="0"/><stop id="stop5282" offset=".131" style="stop-color:#00d200;stop-opacity:1"/><stop style="stop-color:#00d200;stop-opacity:1" id="stop5284" offset=".898"/><stop style="stop-color:#007500;stop-opacity:1" id="stop5276" offset="1"/></linearGradient><linearGradient id="linearGradient5298" x1="15.77" x2="15.936" y1="32.299" y2="27.58" gradientUnits="userSpaceOnUse" xlink:href="#linearGradient5296"/><linearGradient id="linearGradient5296"><stop style="stop-color:#2e2e2e;stop-opacity:1" id="stop5292" offset="0"/><stop style="stop-color:#2e2e2e;stop-opacity:0" id="stop5294" offset="1"/></linearGradient></defs><metadata id="metadata5"/><g id="layer1"><g id="g5305" transform="matrix(0.25662978,0,0,0.25662076,0.04393968,0.07530362)"><polygon style="fill:url(#linearGradient5280);fill-opacity:1;stroke:#1a1a1a;stroke-linecap:round;stroke-linejoin:round" id="polygon62" points="327.383 852.352 327.383 789.664 321.381 789.664 308.043 803.001 308.043 897.885 322.593 912.435 367.397 912.435 412.2 912.435 426.75 897.885 426.75 803.001 413.412 789.664 407.41 789.664 407.41 852.352 367.397 852.352" transform="matrix(0.26731915,0,0,0.25854204,-81.887461,-203.82906)"/><path id="polygon66" d="m 8.0761719,21.355469 v 10.71875 h 8.2480471 8.25 v -10.71875 h -8.25 z m 3.0976561,2.136719 h 3.601563 v 6.78125 h -3.601563 z" style="fill:#f2f2f2;stroke:none;stroke-width:.262894;stroke-linecap:round;stroke-linejoin:round"/><rect style="fill:#f9f9f9;stroke:#000;stroke-width:.262894;stroke-linecap:round;stroke-linejoin:round" id="rect68" width="15.348" height="2.449" x="8.846" y="4.619"/><rect style="fill:#f9f9f9;stroke:#000;stroke-width:.262894;stroke-linecap:round;stroke-linejoin:round" id="rect70" width="15.348" height="2.449" x="8.846" y="8.998"/><path id="rect5287" d="M 0.45898438,27.910156 V 28.3125 L 4.3476562,32.074219 H 16.324219 28.300781 L 32.191406,28.3125 v -0.402344 z" style="opacity:.318;fill:url(#linearGradient5298);fill-opacity:1;fill-rule:nonzero;stroke:none;stroke-width:.578;stroke-linecap:butt;stroke-linejoin:round;stroke-miterlimit:4;stroke-dasharray:none;stroke-dashoffset:0;stroke-opacity:1"/></g></g></svg>