<svg xmlns="http://www.w3.org/2000/svg" xmlns:svg="http://www.w3.org/2000/svg" xmlns:xlink="http://www.w3.org/1999/xlink" id="svg8" width="32" height="32" version="1.1" viewBox="0 0 8.467 8.467"><defs id="defs2"><radialGradient id="radialGradient4863-6" cx="15.615" cy="14.487" r="15.958" fx="15.615" fy="14.487" gradientTransform="matrix(0.8972302,-0.44156296,0.46469661,0.94423641,28.042222,46.500748)" gradientUnits="userSpaceOnUse" xlink:href="#green_button"/><linearGradient id="green_button"><stop id="stop5039" offset="0" style="stop-color:#00bc00;stop-opacity:1"/><stop style="stop-color:#00bc00;stop-opacity:1" id="stop5041" offset=".821"/><stop id="stop5043" offset="1" style="stop-color:green;stop-opacity:1"/></linearGradient><linearGradient id="linearGradient4861-3" x1="1.361" x2="19.895" y1="9.937" y2="9.937" gradientTransform="translate(33.833051,38.59596)" gradientUnits="userSpaceOnUse" xlink:href="#linearGradient4859"/><linearGradient id="linearGradient4859"><stop style="stop-color:#f2f2f2;stop-opacity:1" id="stop4855" offset="0"/><stop style="stop-color:#f2f2f2;stop-opacity:0" id="stop4857" offset="1"/></linearGradient><filter style="color-interpolation-filters:sRGB" id="filter4851-7" width="1.158" height="1.18" x="-.079" y="-.09"><feGaussianBlur id="feGaussianBlur4853-5" stdDeviation=".526"/></filter></defs><metadata id="metadata5"/><g id="layer1"><g id="g5154" transform="matrix(0.25728775,0,0,0.25728126,-8.5880999,-9.7996927)"><circle style="fill:url(#radialGradient4863-6);fill-opacity:1;stroke:#000;stroke-width:.224818;stroke-linecap:round;stroke-linejoin:round" id="circle36-1" cx="49.833" cy="54.544" r="15.846"/><polygon style="fill:#fff;stroke:none;stroke-linecap:round;stroke-linejoin:round" id="polygon38-0" points="220.682 727.749 242.019 706.412 192.322 706.412 192.322 686.965 242.019 686.965 220.682 665.628 233.376 652.934 277.131 696.688 233.376 740.443" transform="matrix(-0.22759061,0,0,0.22759061,103.2546,-103.9638)"/><path id="path4816-2" d="m 52.306492,42.381884 c 1.152337,1.513548 -4.228787,1.054507 -8.769431,4.511519 -4.540647,3.457011 -5.483176,9.965913 -6.635513,8.452363 -1.152337,-1.513548 -0.185322,-7.322735 4.355324,-10.779747 4.540646,-3.457011 9.897283,-3.697684 11.04962,-2.184135 z" style="opacity:.703;fill:url(#linearGradient4861-3);fill-opacity:1;fill-rule:nonzero;stroke:none;stroke-width:.362795;stroke-linecap:butt;stroke-linejoin:round;stroke-miterlimit:4;stroke-dasharray:none;stroke-dashoffset:0;stroke-opacity:1;filter:url(#filter4851-7)"/></g></g></svg>